<svg version="1.1" id="Layer_1" xmlns="http://www.w3.org/2000/svg" xmlns:xlink="http://www.w3.org/1999/xlink" x="0px" y="0px"
	 width="100%" viewBox="0 0 1024 1024" enable-background="new 0 0 1024 1024" xml:space="preserve">
<path fill="#000000" opacity="1.000000" stroke="none" 
	d="
M432.004150,720.136963 
	C394.720551,704.520874 363.988220,680.919373 339.695343,649.133606 
	C315.862457,617.949768 299.157593,583.419006 293.168365,544.340210 
	C290.620758,527.717346 290.084015,510.925751 291.515686,494.057434 
	C293.516022,470.489227 298.385406,447.667358 308.022430,426.030640 
	C328.311310,380.478821 360.758759,346.087067 404.157837,321.764465 
	C429.032898,307.823456 455.608521,299.128418 483.871063,295.870239 
	C525.158142,291.110565 564.356384,298.714630 601.714294,316.638885 
	C650.848816,340.213501 686.537903,377.105591 709.334534,426.332489 
	C719.031433,447.271881 724.661926,469.532745 726.409668,492.679230 
	C731.687012,562.572266 707.522583,621.440552 658.825989,670.639160 
	C624.132202,705.690674 582.054749,727.284485 533.065125,733.941345 
	C498.444305,738.645752 464.693848,733.913513 432.004150,720.136963 
M538.066040,330.483704 
	C519.529602,327.658081 500.865845,326.869659 482.351349,329.692749 
	C447.477356,335.010376 416.513702,349.260590 389.740021,372.380066 
	C363.617249,394.937469 344.466888,422.342194 332.574738,454.761871 
	C331.827850,456.798004 330.292938,458.975891 332.153564,461.527527 
	C451.066345,397.308411 569.580139,399.618347 687.913025,464.003601 
	C687.663330,463.018341 687.483765,462.232361 687.265015,461.457458 
	C680.593506,437.820862 668.823547,416.775757 653.121094,398.167297 
	C622.994263,362.465149 584.957275,339.666931 538.066040,330.483704 
M630.396851,650.897461 
	C641.718872,638.958252 653.021301,627.004150 661.230713,612.469421 
	C658.483765,610.840332 656.789062,611.295044 655.190430,611.517334 
	C640.119263,613.613220 625.422363,612.244385 610.848694,607.758850 
	C586.561951,600.283691 567.857666,584.955322 551.236450,566.506165 
	C546.107178,560.812744 540.959351,555.129639 535.119141,550.137512 
	C526.558716,542.820251 516.752869,538.451782 505.377655,539.483521 
	C494.779083,540.444763 485.608185,545.047119 478.012115,552.632446 
	C467.071564,563.557434 457.735504,575.989685 445.383789,585.617493 
	C420.329529,605.146484 392.941620,616.269836 360.559204,611.370239 
	C359.177704,611.161194 357.600861,610.587646 356.188934,611.934326 
	C356.355286,614.712463 358.263397,616.712769 359.721069,618.841125 
	C375.655487,642.107361 395.497864,661.325684 419.522552,676.150818 
	C451.692444,696.002014 486.584717,705.700195 524.313538,701.402954 
	C564.957825,696.773621 600.026733,679.317139 630.396851,650.897461 
M353.055573,561.546204 
	C351.268463,563.738892 349.355530,565.843445 347.736481,568.153992 
	C346.568115,569.821411 345.805267,571.855713 347.501923,573.664917 
	C351.800049,578.248047 356.487091,582.366516 361.988312,585.886108 
	C400.883423,540.041626 438.511261,493.979675 477.510406,449.214661 
	C475.335327,446.819122 473.367981,447.195709 471.632263,447.365143 
	C464.695282,448.042236 457.783203,448.973999 450.847076,449.661774 
	C447.496094,449.994049 444.917175,451.363708 442.758881,453.961243 
	C439.035187,458.442657 434.949646,462.629242 431.319427,467.181549 
	C405.982849,498.953033 379.423309,529.708862 353.055573,561.546204 
z"/>
<path fill="#000000" opacity="1.000000" stroke="none" 
	d="
M518.397461,360.300415 
	C519.261597,362.717407 521.028687,362.596924 522.682739,362.625763 
	C525.347229,362.672211 528.012939,362.635132 530.677979,362.660736 
	C539.140686,362.742004 543.461548,369.718719 539.816589,377.449860 
	C538.670959,379.879883 536.900574,381.428375 534.003479,381.397186 
	C530.340454,381.357697 526.676208,381.452301 523.012573,381.446045 
	C519.807861,381.440582 517.953979,382.703735 518.133850,386.203156 
	C518.227783,388.029327 518.160034,389.868683 518.077820,391.698151 
	C517.786743,398.177002 514.787537,401.138428 508.429352,401.282104 
	C502.656036,401.412567 499.539917,398.312469 498.715485,392.159882 
	C498.248077,388.671722 500.643860,383.982391 497.109650,381.971680 
	C494.426239,380.444977 490.305328,381.372406 486.822784,381.337097 
	C478.530701,381.253021 474.962402,376.922424 476.743195,368.940430 
	C477.602661,365.087952 479.850098,362.748871 483.994019,362.683044 
	C486.492126,362.643372 488.991211,362.663788 491.489838,362.660431 
	C498.790924,362.650635 498.789551,362.651276 498.821777,355.114563 
	C498.828918,353.448914 498.755768,351.776245 498.881256,350.119049 
	C499.305206,344.521240 502.295319,341.865082 508.069275,341.857452 
	C514.291870,341.849182 517.614197,344.394287 518.101746,349.891083 
	C518.395142,353.200348 518.260437,356.547577 518.397461,360.300415 
z"/>
<path fill="#000000" opacity="1.000000" stroke="none" 
	d="
M461.246216,653.350220 
	C457.693512,651.441101 456.213531,648.559631 455.459473,645.178833 
	C454.393097,640.397949 454.481873,635.534180 455.131958,630.772522 
	C456.001038,624.406799 460.393127,620.808777 466.803314,620.696106 
	C473.130310,620.584839 479.462219,620.516907 485.787750,620.643188 
	C490.290039,620.733093 492.073578,618.808350 491.872467,614.308289 
	C491.604980,608.323120 491.654480,602.319153 491.718689,596.324951 
	C491.797882,588.929443 496.270325,584.245361 503.719452,583.672241 
	C507.187897,583.405396 510.628204,582.909851 514.156799,583.568481 
	C520.951721,584.836792 525.083435,589.259460 525.272522,596.261719 
	C525.438782,602.419434 525.465149,608.589050 525.280945,614.745300 
	C525.164673,618.629578 526.767273,620.147156 530.569214,620.133423 
	C537.390686,620.108765 544.230896,619.741943 551.029053,620.630554 
	C556.974182,621.407532 560.539001,624.426025 561.685974,630.217163 
	C562.692383,635.298462 562.684631,640.515930 561.593140,645.585815 
	C560.284424,651.664978 556.024658,654.710083 548.610901,654.965393 
	C542.789185,655.165955 536.949402,655.158264 531.128235,654.947998 
	C526.910706,654.795593 525.028442,656.231201 525.251038,660.696533 
	C525.532471,666.344727 525.410400,672.020081 525.282104,677.679688 
	C525.139404,683.977722 522.049438,688.065430 516.117920,689.881104 
	C511.929260,691.163330 507.690704,691.540649 503.312744,690.506470 
	C496.236328,688.834900 492.006561,684.105408 491.750549,676.845825 
	C491.574585,671.855286 491.693237,666.854492 491.673737,661.858276 
	C491.645599,654.651367 491.422058,654.430847 483.975281,654.410095 
	C478.479462,654.394836 472.983368,654.424194 467.487793,654.382935 
	C465.503571,654.368042 463.469940,654.542175 461.246216,653.350220 
z"/>
</svg>