<svg width="100%" height="100%" viewBox="0 0 342 250" fill="none" xmlns="http://www.w3.org/2000/svg">
<rect x="0.5" y="0.5" width="341" height="249" rx="7.5" fill="white" stroke="black"/>
<g filter="url(#filter0_d_31_2012)">
<rect x="62" y="66" width="218" height="159" rx="4" fill="white"/>
<rect x="62.5" y="66.5" width="217" height="158" rx="3.5" stroke="black"/>
</g>
<rect x="76.9478" y="81" width="56" height="8" rx="3" fill="#676767"/>
<rect opacity="0.8" x="76.9478" y="95" width="125" height="5" rx="2.5" fill="#D9D9D9"/>
<rect x="76.9478" y="118" width="56" height="8" rx="3" fill="#676767"/>
<rect opacity="0.8" x="76.9478" y="132" width="125" height="5" rx="2.5" fill="#D9D9D9"/>
<rect x="76.9478" y="155" width="56" height="8" rx="3" fill="#676767"/>
<rect opacity="0.8" x="76.9478" y="169" width="125" height="5" rx="2.5" fill="#D9D9D9"/>
<rect x="62.5" y="36.5" width="217" height="22" rx="3.5" fill="white" stroke="black"/>
<g clip-path="url(#clip0_31_2012)">
<path d="M78.3333 49.3333H77.8067L77.62 49.1533C78.2733 48.3933 78.6667 47.4067 78.6667 46.3333C78.6667 43.94 76.7267 42 74.3333 42C71.94 42 70 43.94 70 46.3333C70 48.7267 71.94 50.6667 74.3333 50.6667C75.4067 50.6667 76.3933 50.2733 77.1533 49.62L77.3333 49.8067V50.3333L80.6667 53.66L81.66 52.6667L78.3333 49.3333V49.3333ZM74.3333 49.3333C72.6733 49.3333 71.3333 47.9933 71.3333 46.3333C71.3333 44.6733 72.6733 43.3333 74.3333 43.3333C75.9933 43.3333 77.3333 44.6733 77.3333 46.3333C77.3333 47.9933 75.9933 49.3333 74.3333 49.3333Z" fill="#FF00F5"/>
</g>
<path d="M64.2837 28H62.4712L65.2329 20H67.4126L70.1704 28H68.3579L66.354 21.8281H66.2915L64.2837 28ZM64.1704 24.8555H68.4517V26.1758H64.1704V24.8555ZM74.9497 25.4453V22H76.6138V28H75.0161V26.9102H74.9536C74.8182 27.2617 74.5929 27.5443 74.2778 27.7578C73.9653 27.9714 73.5838 28.0781 73.1333 28.0781C72.7323 28.0781 72.3794 27.987 72.0747 27.8047C71.77 27.6224 71.5317 27.3633 71.3599 27.0273C71.1906 26.6914 71.1047 26.2891 71.1021 25.8203V22H72.7661V25.5234C72.7687 25.8776 72.8638 26.1576 73.0513 26.3633C73.2388 26.569 73.4901 26.6719 73.8052 26.6719C74.0057 26.6719 74.1932 26.6263 74.3677 26.5352C74.5422 26.4414 74.6828 26.3034 74.7896 26.1211C74.8989 25.9388 74.9523 25.7135 74.9497 25.4453ZM81.1362 22V23.25H77.5229V22H81.1362ZM78.3433 20.5625H80.0073V26.1562C80.0073 26.3099 80.0308 26.4297 80.0776 26.5156C80.1245 26.599 80.1896 26.6576 80.2729 26.6914C80.3589 26.7253 80.4578 26.7422 80.5698 26.7422C80.6479 26.7422 80.7261 26.7357 80.8042 26.7227C80.8823 26.707 80.9422 26.6953 80.9839 26.6875L81.2456 27.9258C81.1623 27.9518 81.0451 27.9818 80.894 28.0156C80.743 28.0521 80.5594 28.0742 80.3433 28.082C79.9422 28.0977 79.5907 28.0443 79.2886 27.9219C78.9891 27.7995 78.756 27.6094 78.5894 27.3516C78.4227 27.0937 78.3407 26.7682 78.3433 26.375V20.5625ZM84.8667 28.1172C84.2599 28.1172 83.7352 27.9883 83.2925 27.7305C82.8524 27.4701 82.5125 27.1081 82.2729 26.6445C82.0334 26.1784 81.9136 25.638 81.9136 25.0234C81.9136 24.4036 82.0334 23.862 82.2729 23.3984C82.5125 22.9323 82.8524 22.5703 83.2925 22.3125C83.7352 22.0521 84.2599 21.9219 84.8667 21.9219C85.4735 21.9219 85.9969 22.0521 86.437 22.3125C86.8797 22.5703 87.2209 22.9323 87.4604 23.3984C87.7 23.862 87.8198 24.4036 87.8198 25.0234C87.8198 25.638 87.7 26.1784 87.4604 26.6445C87.2209 27.1081 86.8797 27.4701 86.437 27.7305C85.9969 27.9883 85.4735 28.1172 84.8667 28.1172ZM84.8745 26.8281C85.1506 26.8281 85.381 26.75 85.5659 26.5938C85.7508 26.4349 85.8901 26.2187 85.9839 25.9453C86.0802 25.6719 86.1284 25.3607 86.1284 25.0117C86.1284 24.6628 86.0802 24.3516 85.9839 24.0781C85.8901 23.8047 85.7508 23.5885 85.5659 23.4297C85.381 23.2708 85.1506 23.1914 84.8745 23.1914C84.5959 23.1914 84.3615 23.2708 84.1714 23.4297C83.9839 23.5885 83.842 23.8047 83.7456 24.0781C83.6519 24.3516 83.605 24.6628 83.605 25.0117C83.605 25.3607 83.6519 25.6719 83.7456 25.9453C83.842 26.2187 83.9839 26.4349 84.1714 26.5938C84.3615 26.75 84.5959 26.8281 84.8745 26.8281ZM91.6128 28.1172C90.9982 28.1172 90.4696 27.987 90.0269 27.7266C89.5868 27.4635 89.2482 27.099 89.0112 26.6328C88.7769 26.1667 88.6597 25.6302 88.6597 25.0234C88.6597 24.4089 88.7782 23.8698 89.0151 23.4062C89.2547 22.9401 89.5946 22.5768 90.0347 22.3164C90.4748 22.0534 90.9982 21.9219 91.605 21.9219C92.1284 21.9219 92.5868 22.0169 92.98 22.207C93.3732 22.3971 93.6844 22.6641 93.9136 23.0078C94.1427 23.3516 94.269 23.7552 94.2925 24.2188H92.7222C92.6779 23.9193 92.5607 23.6784 92.3706 23.4961C92.1831 23.3112 91.937 23.2187 91.6323 23.2187C91.3745 23.2187 91.1493 23.2891 90.9565 23.4297C90.7664 23.5677 90.618 23.7695 90.5112 24.0352C90.4045 24.3008 90.3511 24.6224 90.3511 25C90.3511 25.3828 90.4032 25.7083 90.5073 25.9766C90.6141 26.2448 90.7638 26.4492 90.9565 26.5898C91.1493 26.7305 91.3745 26.8008 91.6323 26.8008C91.8224 26.8008 91.993 26.7617 92.144 26.6836C92.2977 26.6055 92.424 26.4922 92.5229 26.3437C92.6245 26.1927 92.6909 26.0117 92.7222 25.8008H94.2925C94.2664 26.2591 94.1414 26.6628 93.9175 27.0117C93.6961 27.3581 93.3901 27.6289 92.9995 27.8242C92.6089 28.0195 92.1466 28.1172 91.6128 28.1172ZM98.0688 28.1172C97.4621 28.1172 96.9373 27.9883 96.4946 27.7305C96.0545 27.4701 95.7147 27.1081 95.4751 26.6445C95.2355 26.1784 95.1157 25.638 95.1157 25.0234C95.1157 24.4036 95.2355 23.862 95.4751 23.3984C95.7147 22.9323 96.0545 22.5703 96.4946 22.3125C96.9373 22.0521 97.4621 21.9219 98.0688 21.9219C98.6756 21.9219 99.1991 22.0521 99.6392 22.3125C100.082 22.5703 100.423 22.9323 100.663 23.3984C100.902 23.862 101.022 24.4036 101.022 25.0234C101.022 25.638 100.902 26.1784 100.663 26.6445C100.423 27.1081 100.082 27.4701 99.6392 27.7305C99.1991 27.9883 98.6756 28.1172 98.0688 28.1172ZM98.0767 26.8281C98.3527 26.8281 98.5832 26.75 98.7681 26.5938C98.953 26.4349 99.0923 26.2187 99.186 25.9453C99.2824 25.6719 99.3306 25.3607 99.3306 25.0117C99.3306 24.6628 99.2824 24.3516 99.186 24.0781C99.0923 23.8047 98.953 23.5885 98.7681 23.4297C98.5832 23.2708 98.3527 23.1914 98.0767 23.1914C97.798 23.1914 97.5636 23.2708 97.3735 23.4297C97.186 23.5885 97.0441 23.8047 96.9478 24.0781C96.854 24.3516 96.8071 24.6628 96.8071 25.0117C96.8071 25.3607 96.854 25.6719 96.9478 25.9453C97.0441 26.2187 97.186 26.4349 97.3735 26.5938C97.5636 26.75 97.798 26.8281 98.0767 26.8281ZM102.104 28V22H103.69V23.0586H103.76C103.885 22.707 104.094 22.4297 104.385 22.2266C104.677 22.0234 105.026 21.9219 105.432 21.9219C105.844 21.9219 106.194 22.0247 106.483 22.2305C106.772 22.4336 106.965 22.7096 107.061 23.0586H107.124C107.246 22.7148 107.467 22.4401 107.788 22.2344C108.111 22.026 108.492 21.9219 108.932 21.9219C109.492 21.9219 109.946 22.1003 110.295 22.457C110.647 22.8112 110.823 23.3138 110.823 23.9648V28H109.163V24.293C109.163 23.9596 109.074 23.7096 108.897 23.543C108.72 23.3763 108.499 23.293 108.233 23.293C107.931 23.293 107.695 23.3893 107.526 23.582C107.357 23.7721 107.272 24.0234 107.272 24.3359V28H105.659V24.2578C105.659 23.9635 105.574 23.7292 105.405 23.5547C105.238 23.3802 105.018 23.293 104.745 23.293C104.56 23.293 104.393 23.3398 104.245 23.4336C104.099 23.5247 103.983 23.6536 103.897 23.8203C103.811 23.9844 103.768 24.1771 103.768 24.3984V28H102.104ZM112.137 30.25V22H113.778V23.0078H113.852C113.925 22.8464 114.03 22.6823 114.168 22.5156C114.309 22.3464 114.491 22.2057 114.715 22.0938C114.942 21.9792 115.223 21.9219 115.559 21.9219C115.997 21.9219 116.4 22.0365 116.77 22.2656C117.14 22.4922 117.435 22.8346 117.657 23.293C117.878 23.7487 117.989 24.3203 117.989 25.0078C117.989 25.6771 117.881 26.2422 117.665 26.7031C117.451 27.1615 117.159 27.5091 116.79 27.7461C116.422 27.9805 116.011 28.0977 115.555 28.0977C115.232 28.0977 114.958 28.0443 114.731 27.9375C114.507 27.8307 114.323 27.6966 114.18 27.5352C114.037 27.3711 113.928 27.2057 113.852 27.0391H113.801V30.25H112.137ZM113.766 25C113.766 25.3568 113.816 25.668 113.915 25.9336C114.014 26.1992 114.157 26.4062 114.344 26.5547C114.532 26.7005 114.76 26.7734 115.028 26.7734C115.299 26.7734 115.528 26.6992 115.715 26.5508C115.903 26.3997 116.045 26.1914 116.141 25.9258C116.24 25.6576 116.29 25.349 116.29 25C116.29 24.6536 116.241 24.349 116.145 24.0859C116.049 23.8229 115.907 23.6172 115.719 23.4687C115.532 23.3203 115.301 23.2461 115.028 23.2461C114.757 23.2461 114.528 23.3177 114.34 23.4609C114.155 23.6042 114.014 23.8073 113.915 24.0703C113.816 24.3333 113.766 24.6432 113.766 25ZM120.762 20V28H119.098V20H120.762ZM124.83 28.1172C124.212 28.1172 123.681 27.9922 123.236 27.7422C122.793 27.4896 122.452 27.1328 122.212 26.6719C121.973 26.2083 121.853 25.6602 121.853 25.0273C121.853 24.4102 121.973 23.8685 122.212 23.4023C122.452 22.9362 122.789 22.5729 123.224 22.3125C123.662 22.0521 124.175 21.9219 124.763 21.9219C125.159 21.9219 125.528 21.9857 125.869 22.1133C126.212 22.2383 126.512 22.4271 126.767 22.6797C127.025 22.9323 127.225 23.25 127.369 23.6328C127.512 24.013 127.583 24.4583 127.583 24.9687V25.4258H122.517V24.3945H126.017C126.017 24.1549 125.965 23.9427 125.861 23.7578C125.757 23.5729 125.612 23.4284 125.427 23.3242C125.245 23.2174 125.033 23.1641 124.791 23.1641C124.538 23.1641 124.314 23.2227 124.119 23.3398C123.926 23.4544 123.775 23.6094 123.666 23.8047C123.556 23.9974 123.5 24.2122 123.498 24.4492V25.4297C123.498 25.7266 123.552 25.9831 123.662 26.1992C123.774 26.4154 123.931 26.582 124.134 26.6992C124.337 26.8164 124.578 26.875 124.857 26.875C125.042 26.875 125.211 26.849 125.365 26.7969C125.518 26.7448 125.65 26.6667 125.759 26.5625C125.869 26.4583 125.952 26.3307 126.009 26.1797L127.548 26.2812C127.47 26.651 127.31 26.974 127.068 27.25C126.828 27.5234 126.518 27.737 126.138 27.8906C125.761 28.0417 125.324 28.1172 124.83 28.1172ZM131.861 22V23.25H128.248V22H131.861ZM129.068 20.5625H130.732V26.1562C130.732 26.3099 130.755 26.4297 130.802 26.5156C130.849 26.599 130.914 26.6576 130.998 26.6914C131.083 26.7253 131.182 26.7422 131.294 26.7422C131.373 26.7422 131.451 26.7357 131.529 26.7227C131.607 26.707 131.667 26.6953 131.708 26.6875L131.97 27.9258C131.887 27.9518 131.77 27.9818 131.619 28.0156C131.468 28.0521 131.284 28.0742 131.068 28.082C130.667 28.0977 130.315 28.0443 130.013 27.9219C129.714 27.7995 129.481 27.6094 129.314 27.3516C129.147 27.0937 129.065 26.7682 129.068 26.375V20.5625ZM135.615 28.1172C134.998 28.1172 134.466 27.9922 134.021 27.7422C133.578 27.4896 133.237 27.1328 132.998 26.6719C132.758 26.2083 132.638 25.6602 132.638 25.0273C132.638 24.4102 132.758 23.8685 132.998 23.4023C133.237 22.9362 133.574 22.5729 134.009 22.3125C134.447 22.0521 134.96 21.9219 135.548 21.9219C135.944 21.9219 136.313 21.9857 136.654 22.1133C136.998 22.2383 137.297 22.4271 137.552 22.6797C137.81 22.9323 138.011 23.25 138.154 23.6328C138.297 24.013 138.369 24.4583 138.369 24.9687V25.4258H133.302V24.3945H136.802C136.802 24.1549 136.75 23.9427 136.646 23.7578C136.542 23.5729 136.397 23.4284 136.212 23.3242C136.03 23.2174 135.818 23.1641 135.576 23.1641C135.323 23.1641 135.099 23.2227 134.904 23.3398C134.711 23.4544 134.56 23.6094 134.451 23.8047C134.341 23.9974 134.285 24.2122 134.283 24.4492V25.4297C134.283 25.7266 134.337 25.9831 134.447 26.1992C134.559 26.4154 134.716 26.582 134.919 26.6992C135.123 26.8164 135.363 26.875 135.642 26.875C135.827 26.875 135.996 26.849 136.15 26.7969C136.304 26.7448 136.435 26.6667 136.544 26.5625C136.654 26.4583 136.737 26.3307 136.794 26.1797L138.333 26.2812C138.255 26.651 138.095 26.974 137.853 27.25C137.613 27.5234 137.304 27.737 136.923 27.8906C136.546 28.0417 136.11 28.1172 135.615 28.1172Z" fill="black"/>
<defs>
<filter id="filter0_d_31_2012" x="58" y="64" width="226" height="167" filterUnits="userSpaceOnUse" color-interpolation-filters="sRGB">
<feFlood flood-opacity="0" result="BackgroundImageFix"/>
<feColorMatrix in="SourceAlpha" type="matrix" values="0 0 0 0 0 0 0 0 0 0 0 0 0 0 0 0 0 0 127 0" result="hardAlpha"/>
<feOffset dy="2"/>
<feGaussianBlur stdDeviation="2"/>
<feComposite in2="hardAlpha" operator="out"/>
<feColorMatrix type="matrix" values="0 0 0 0 0 0 0 0 0 0 0 0 0 0 0 0 0 0 0.05 0"/>
<feBlend mode="normal" in2="BackgroundImageFix" result="effect1_dropShadow_31_2012"/>
<feBlend mode="normal" in="SourceGraphic" in2="effect1_dropShadow_31_2012" result="shape"/>
</filter>
<clipPath id="clip0_31_2012">
<rect width="16" height="16" fill="white" transform="translate(68 40)"/>
</clipPath>
</defs>
</svg>
