<svg width="100%" height="100%" viewBox="0 0 342 250" fill="none" xmlns="http://www.w3.org/2000/svg">
<rect x="0.5" y="0.5" width="341" height="249" rx="7.5" fill="white" stroke="black"/>
<path d="M1 9.00001C1 4.58173 4.58172 1 9 1H333C337.418 1 341 4.58172 341 9V241C341 245.418 337.418 249 333 249H9C4.58172 249 1 245.418 1 241V9.00001Z" fill="#BEBEBE"/>
<g filter="url(#filter0_d_11_2093)">
<rect x="64" y="69" width="213" height="38" rx="4" fill="white"/>
<rect x="64.5" y="69.5" width="212" height="37" rx="3.5" stroke="black"/>
</g>
<line x1="135.5" y1="70" x2="135.5" y2="106" stroke="black"/>
<line x1="206.5" y1="70" x2="206.5" y2="106" stroke="black"/>
<path d="M78.9325 92V82.5455H82.5518C83.2351 82.5455 83.8029 82.6532 84.2553 82.8686C84.7108 83.081 85.0509 83.3718 85.2756 83.7411C85.5033 84.1104 85.6172 84.529 85.6172 84.9968C85.6172 85.3815 85.5433 85.7108 85.3956 85.9847C85.2479 86.2556 85.0494 86.4756 84.8001 86.6449C84.5508 86.8142 84.2723 86.9357 83.9645 87.0096V87.1019C84.3 87.1204 84.6216 87.2235 84.9293 87.4112C85.2402 87.5959 85.4941 87.8575 85.6911 88.196C85.888 88.5346 85.9865 88.9439 85.9865 89.424C85.9865 89.9134 85.868 90.3535 85.631 90.7443C85.3941 91.1321 85.0371 91.4383 84.56 91.663C84.083 91.8877 83.4828 92 82.7596 92H78.9325ZM80.6452 90.5689H82.4872C83.1089 90.5689 83.5567 90.4504 83.8306 90.2134C84.1076 89.9734 84.2461 89.6656 84.2461 89.2901C84.2461 89.0101 84.1768 88.7577 84.0384 88.533C83.8999 88.3053 83.7029 88.1268 83.4474 87.9975C83.192 87.8652 82.8873 87.799 82.5334 87.799H80.6452V90.5689ZM80.6452 86.5664H82.3395C82.6349 86.5664 82.9012 86.5125 83.1381 86.4048C83.3751 86.294 83.5613 86.1386 83.6967 85.9386C83.8352 85.7354 83.9045 85.4954 83.9045 85.2184C83.9045 84.8522 83.7752 84.5505 83.5167 84.3136C83.2612 84.0766 82.8812 83.9581 82.3764 83.9581H80.6452V86.5664ZM91.9221 89.0178V84.9091H93.5933V92H91.9729V90.7397H91.8991C91.739 91.1367 91.4759 91.4614 91.1096 91.7138C90.7465 91.9661 90.2987 92.0923 89.7662 92.0923C89.3015 92.0923 88.8907 91.9892 88.5336 91.783C88.1797 91.5737 87.9027 91.2706 87.7027 90.8736C87.5026 90.4735 87.4026 89.9903 87.4026 89.424V84.9091H89.0738V89.1655C89.0738 89.6148 89.1969 89.9718 89.4431 90.2365C89.6893 90.5012 90.0125 90.6335 90.4126 90.6335C90.6588 90.6335 90.8973 90.5735 91.1281 90.4535C91.3589 90.3335 91.5482 90.1549 91.6959 89.918C91.8467 89.6779 91.9221 89.3778 91.9221 89.0178ZM98.8526 84.9091V86.2017H94.7763V84.9091H98.8526ZM95.7827 83.2102H97.4538V89.8672C97.4538 90.0919 97.4877 90.2642 97.5554 90.3842C97.6262 90.5012 97.7185 90.5812 97.8324 90.6243C97.9463 90.6674 98.0724 90.6889 98.2109 90.6889C98.3156 90.6889 98.411 90.6812 98.4972 90.6658C98.5864 90.6504 98.6541 90.6366 98.7003 90.6243L98.9819 91.9308C98.8926 91.9615 98.7649 91.9954 98.5987 92.0323C98.4356 92.0692 98.2356 92.0908 97.9986 92.0969C97.58 92.1093 97.203 92.0462 96.8675 91.9077C96.5321 91.7661 96.2659 91.5476 96.0689 91.2521C95.875 90.9567 95.7796 90.5874 95.7827 90.1442V83.2102ZM103.791 84.9091V86.2017H99.7148V84.9091H103.791ZM100.721 83.2102H102.392V89.8672C102.392 90.0919 102.426 90.2642 102.494 90.3842C102.565 90.5012 102.657 90.5812 102.771 90.6243C102.885 90.6674 103.011 90.6889 103.149 90.6889C103.254 90.6889 103.349 90.6812 103.436 90.6658C103.525 90.6504 103.593 90.6366 103.639 90.6243L103.92 91.9308C103.831 91.9615 103.703 91.9954 103.537 92.0323C103.374 92.0692 103.174 92.0908 102.937 92.0969C102.518 92.1093 102.141 92.0462 101.806 91.9077C101.471 91.7661 101.204 91.5476 101.007 91.2521C100.813 90.9567 100.718 90.5874 100.721 90.1442V83.2102ZM108.206 92.1385C107.513 92.1385 106.913 91.9862 106.405 91.6815C105.897 91.3768 105.503 90.9505 105.223 90.4027C104.946 89.8549 104.808 89.2147 104.808 88.4822C104.808 87.7498 104.946 87.1081 105.223 86.5572C105.503 86.0063 105.897 85.5785 106.405 85.2738C106.913 84.9691 107.513 84.8168 108.206 84.8168C108.898 84.8168 109.498 84.9691 110.006 85.2738C110.514 85.5785 110.906 86.0063 111.183 86.5572C111.463 87.1081 111.603 87.7498 111.603 88.4822C111.603 89.2147 111.463 89.8549 111.183 90.4027C110.906 90.9505 110.514 91.3768 110.006 91.6815C109.498 91.9862 108.898 92.1385 108.206 92.1385ZM108.215 90.7997C108.59 90.7997 108.904 90.6966 109.157 90.4904C109.409 90.2811 109.597 90.0011 109.72 89.6502C109.846 89.2994 109.909 88.9085 109.909 88.4776C109.909 88.0437 109.846 87.6513 109.72 87.3004C109.597 86.9465 109.409 86.6649 109.157 86.4556C108.904 86.2463 108.59 86.1417 108.215 86.1417C107.83 86.1417 107.51 86.2463 107.255 86.4556C107.002 86.6649 106.813 86.9465 106.687 87.3004C106.564 87.6513 106.502 88.0437 106.502 88.4776C106.502 88.9085 106.564 89.2994 106.687 89.6502C106.813 90.0011 107.002 90.2811 107.255 90.4904C107.51 90.6966 107.83 90.7997 108.215 90.7997ZM114.693 87.8452V92H113.022V84.9091H114.619V86.114H114.702C114.865 85.717 115.125 85.4015 115.482 85.1676C115.842 84.9337 116.287 84.8168 116.816 84.8168C117.306 84.8168 117.732 84.9214 118.095 85.1307C118.461 85.34 118.745 85.6431 118.945 86.0401C119.148 86.4371 119.248 86.9188 119.245 87.4851V92H117.574V87.7436C117.574 87.2696 117.45 86.8988 117.204 86.631C116.961 86.3633 116.624 86.2294 116.193 86.2294C115.901 86.2294 115.641 86.294 115.413 86.4233C115.188 86.5495 115.011 86.7326 114.882 86.9727C114.756 87.2127 114.693 87.5036 114.693 87.8452Z" fill="black"/>
<path d="M149.933 92V82.5455H153.552C154.235 82.5455 154.803 82.6532 155.255 82.8686C155.711 83.081 156.051 83.3718 156.276 83.7411C156.503 84.1104 156.617 84.529 156.617 84.9968C156.617 85.3815 156.543 85.7108 156.396 85.9847C156.248 86.2556 156.049 86.4756 155.8 86.6449C155.551 86.8142 155.272 86.9357 154.964 87.0096V87.1019C155.3 87.1204 155.622 87.2235 155.929 87.4112C156.24 87.5959 156.494 87.8575 156.691 88.196C156.888 88.5346 156.987 88.9439 156.987 89.424C156.987 89.9134 156.868 90.3535 156.631 90.7443C156.394 91.1321 156.037 91.4383 155.56 91.663C155.083 91.8877 154.483 92 153.76 92H149.933ZM151.645 90.5689H153.487C154.109 90.5689 154.557 90.4504 154.831 90.2134C155.108 89.9734 155.246 89.6656 155.246 89.2901C155.246 89.0101 155.177 88.7577 155.038 88.533C154.9 88.3053 154.703 88.1268 154.447 87.9975C154.192 87.8652 153.887 87.799 153.533 87.799H151.645V90.5689ZM151.645 86.5664H153.339C153.635 86.5664 153.901 86.5125 154.138 86.4048C154.375 86.294 154.561 86.1386 154.697 85.9386C154.835 85.7354 154.904 85.4954 154.904 85.2184C154.904 84.8522 154.775 84.5505 154.517 84.3136C154.261 84.0766 153.881 83.9581 153.376 83.9581H151.645V86.5664ZM162.922 89.0178V84.9091H164.593V92H162.973V90.7397H162.899C162.739 91.1367 162.476 91.4614 162.11 91.7138C161.746 91.9661 161.299 92.0923 160.766 92.0923C160.302 92.0923 159.891 91.9892 159.534 91.783C159.18 91.5737 158.903 91.2706 158.703 90.8736C158.503 90.4735 158.403 89.9903 158.403 89.424V84.9091H160.074V89.1655C160.074 89.6148 160.197 89.9718 160.443 90.2365C160.689 90.5012 161.012 90.6335 161.413 90.6335C161.659 90.6335 161.897 90.5735 162.128 90.4535C162.359 90.3335 162.548 90.1549 162.696 89.918C162.847 89.6779 162.922 89.3778 162.922 89.0178ZM169.853 84.9091V86.2017H165.776V84.9091H169.853ZM166.783 83.2102H168.454V89.8672C168.454 90.0919 168.488 90.2642 168.555 90.3842C168.626 90.5012 168.719 90.5812 168.832 90.6243C168.946 90.6674 169.072 90.6889 169.211 90.6889C169.316 90.6889 169.411 90.6812 169.497 90.6658C169.586 90.6504 169.654 90.6366 169.7 90.6243L169.982 91.9308C169.893 91.9615 169.765 91.9954 169.599 92.0323C169.436 92.0692 169.236 92.0908 168.999 92.0969C168.58 92.1093 168.203 92.0462 167.868 91.9077C167.532 91.7661 167.266 91.5476 167.069 91.2521C166.875 90.9567 166.78 90.5874 166.783 90.1442V83.2102ZM174.791 84.9091V86.2017H170.715V84.9091H174.791ZM171.721 83.2102H173.392V89.8672C173.392 90.0919 173.426 90.2642 173.494 90.3842C173.565 90.5012 173.657 90.5812 173.771 90.6243C173.885 90.6674 174.011 90.6889 174.149 90.6889C174.254 90.6889 174.349 90.6812 174.436 90.6658C174.525 90.6504 174.593 90.6366 174.639 90.6243L174.92 91.9308C174.831 91.9615 174.703 91.9954 174.537 92.0323C174.374 92.0692 174.174 92.0908 173.937 92.0969C173.518 92.1093 173.141 92.0462 172.806 91.9077C172.471 91.7661 172.204 91.5476 172.007 91.2521C171.813 90.9567 171.718 90.5874 171.721 90.1442V83.2102ZM179.206 92.1385C178.513 92.1385 177.913 91.9862 177.405 91.6815C176.897 91.3768 176.503 90.9505 176.223 90.4027C175.946 89.8549 175.808 89.2147 175.808 88.4822C175.808 87.7498 175.946 87.1081 176.223 86.5572C176.503 86.0063 176.897 85.5785 177.405 85.2738C177.913 84.9691 178.513 84.8168 179.206 84.8168C179.898 84.8168 180.498 84.9691 181.006 85.2738C181.514 85.5785 181.906 86.0063 182.183 86.5572C182.463 87.1081 182.603 87.7498 182.603 88.4822C182.603 89.2147 182.463 89.8549 182.183 90.4027C181.906 90.9505 181.514 91.3768 181.006 91.6815C180.498 91.9862 179.898 92.1385 179.206 92.1385ZM179.215 90.7997C179.59 90.7997 179.904 90.6966 180.157 90.4904C180.409 90.2811 180.597 90.0011 180.72 89.6502C180.846 89.2994 180.909 88.9085 180.909 88.4776C180.909 88.0437 180.846 87.6513 180.72 87.3004C180.597 86.9465 180.409 86.6649 180.157 86.4556C179.904 86.2463 179.59 86.1417 179.215 86.1417C178.83 86.1417 178.51 86.2463 178.255 86.4556C178.002 86.6649 177.813 86.9465 177.687 87.3004C177.564 87.6513 177.502 88.0437 177.502 88.4776C177.502 88.9085 177.564 89.2994 177.687 89.6502C177.813 90.0011 178.002 90.2811 178.255 90.4904C178.51 90.6966 178.83 90.7997 179.215 90.7997ZM185.693 87.8452V92H184.022V84.9091H185.619V86.114H185.702C185.865 85.717 186.125 85.4015 186.482 85.1676C186.842 84.9337 187.287 84.8168 187.816 84.8168C188.306 84.8168 188.732 84.9214 189.095 85.1307C189.461 85.34 189.745 85.6431 189.945 86.0401C190.148 86.4371 190.248 86.9188 190.245 87.4851V92H188.574V87.7436C188.574 87.2696 188.45 86.8988 188.204 86.631C187.961 86.3633 187.624 86.2294 187.193 86.2294C186.901 86.2294 186.641 86.294 186.413 86.4233C186.188 86.5495 186.011 86.7326 185.882 86.9727C185.756 87.2127 185.693 87.5036 185.693 87.8452Z" fill="black"/>
<path d="M220.933 92V82.5455H224.552C225.235 82.5455 225.803 82.6532 226.255 82.8686C226.711 83.081 227.051 83.3718 227.276 83.7411C227.503 84.1104 227.617 84.529 227.617 84.9968C227.617 85.3815 227.543 85.7108 227.396 85.9847C227.248 86.2556 227.049 86.4756 226.8 86.6449C226.551 86.8142 226.272 86.9357 225.964 87.0096V87.1019C226.3 87.1204 226.622 87.2235 226.929 87.4112C227.24 87.5959 227.494 87.8575 227.691 88.196C227.888 88.5346 227.987 88.9439 227.987 89.424C227.987 89.9134 227.868 90.3535 227.631 90.7443C227.394 91.1321 227.037 91.4383 226.56 91.663C226.083 91.8877 225.483 92 224.76 92H220.933ZM222.645 90.5689H224.487C225.109 90.5689 225.557 90.4504 225.831 90.2134C226.108 89.9734 226.246 89.6656 226.246 89.2901C226.246 89.0101 226.177 88.7577 226.038 88.533C225.9 88.3053 225.703 88.1268 225.447 87.9975C225.192 87.8652 224.887 87.799 224.533 87.799H222.645V90.5689ZM222.645 86.5664H224.339C224.635 86.5664 224.901 86.5125 225.138 86.4048C225.375 86.294 225.561 86.1386 225.697 85.9386C225.835 85.7354 225.904 85.4954 225.904 85.2184C225.904 84.8522 225.775 84.5505 225.517 84.3136C225.261 84.0766 224.881 83.9581 224.376 83.9581H222.645V86.5664ZM233.922 89.0178V84.9091H235.593V92H233.973V90.7397H233.899C233.739 91.1367 233.476 91.4614 233.11 91.7138C232.746 91.9661 232.299 92.0923 231.766 92.0923C231.302 92.0923 230.891 91.9892 230.534 91.783C230.18 91.5737 229.903 91.2706 229.703 90.8736C229.503 90.4735 229.403 89.9903 229.403 89.424V84.9091H231.074V89.1655C231.074 89.6148 231.197 89.9718 231.443 90.2365C231.689 90.5012 232.012 90.6335 232.413 90.6335C232.659 90.6335 232.897 90.5735 233.128 90.4535C233.359 90.3335 233.548 90.1549 233.696 89.918C233.847 89.6779 233.922 89.3778 233.922 89.0178ZM240.853 84.9091V86.2017H236.776V84.9091H240.853ZM237.783 83.2102H239.454V89.8672C239.454 90.0919 239.488 90.2642 239.555 90.3842C239.626 90.5012 239.719 90.5812 239.832 90.6243C239.946 90.6674 240.072 90.6889 240.211 90.6889C240.316 90.6889 240.411 90.6812 240.497 90.6658C240.586 90.6504 240.654 90.6366 240.7 90.6243L240.982 91.9308C240.893 91.9615 240.765 91.9954 240.599 92.0323C240.436 92.0692 240.236 92.0908 239.999 92.0969C239.58 92.1093 239.203 92.0462 238.868 91.9077C238.532 91.7661 238.266 91.5476 238.069 91.2521C237.875 90.9567 237.78 90.5874 237.783 90.1442V83.2102ZM245.791 84.9091V86.2017H241.715V84.9091H245.791ZM242.721 83.2102H244.392V89.8672C244.392 90.0919 244.426 90.2642 244.494 90.3842C244.565 90.5012 244.657 90.5812 244.771 90.6243C244.885 90.6674 245.011 90.6889 245.149 90.6889C245.254 90.6889 245.349 90.6812 245.436 90.6658C245.525 90.6504 245.593 90.6366 245.639 90.6243L245.92 91.9308C245.831 91.9615 245.703 91.9954 245.537 92.0323C245.374 92.0692 245.174 92.0908 244.937 92.0969C244.518 92.1093 244.141 92.0462 243.806 91.9077C243.471 91.7661 243.204 91.5476 243.007 91.2521C242.813 90.9567 242.718 90.5874 242.721 90.1442V83.2102ZM250.206 92.1385C249.513 92.1385 248.913 91.9862 248.405 91.6815C247.897 91.3768 247.503 90.9505 247.223 90.4027C246.946 89.8549 246.808 89.2147 246.808 88.4822C246.808 87.7498 246.946 87.1081 247.223 86.5572C247.503 86.0063 247.897 85.5785 248.405 85.2738C248.913 84.9691 249.513 84.8168 250.206 84.8168C250.898 84.8168 251.498 84.9691 252.006 85.2738C252.514 85.5785 252.906 86.0063 253.183 86.5572C253.463 87.1081 253.603 87.7498 253.603 88.4822C253.603 89.2147 253.463 89.8549 253.183 90.4027C252.906 90.9505 252.514 91.3768 252.006 91.6815C251.498 91.9862 250.898 92.1385 250.206 92.1385ZM250.215 90.7997C250.59 90.7997 250.904 90.6966 251.157 90.4904C251.409 90.2811 251.597 90.0011 251.72 89.6502C251.846 89.2994 251.909 88.9085 251.909 88.4776C251.909 88.0437 251.846 87.6513 251.72 87.3004C251.597 86.9465 251.409 86.6649 251.157 86.4556C250.904 86.2463 250.59 86.1417 250.215 86.1417C249.83 86.1417 249.51 86.2463 249.255 86.4556C249.002 86.6649 248.813 86.9465 248.687 87.3004C248.564 87.6513 248.502 88.0437 248.502 88.4776C248.502 88.9085 248.564 89.2994 248.687 89.6502C248.813 90.0011 249.002 90.2811 249.255 90.4904C249.51 90.6966 249.83 90.7997 250.215 90.7997ZM256.693 87.8452V92H255.022V84.9091H256.619V86.114H256.702C256.865 85.717 257.125 85.4015 257.482 85.1676C257.842 84.9337 258.287 84.8168 258.816 84.8168C259.306 84.8168 259.732 84.9214 260.095 85.1307C260.461 85.34 260.745 85.6431 260.945 86.0401C261.148 86.4371 261.248 86.9188 261.245 87.4851V92H259.574V87.7436C259.574 87.2696 259.45 86.8988 259.204 86.631C258.961 86.3633 258.624 86.2294 258.193 86.2294C257.901 86.2294 257.641 86.294 257.413 86.4233C257.188 86.5495 257.011 86.7326 256.882 86.9727C256.756 87.2127 256.693 87.5036 256.693 87.8452Z" fill="black"/>
<defs>
<filter id="filter0_d_11_2093" x="60" y="67" width="221" height="46" filterUnits="userSpaceOnUse" color-interpolation-filters="sRGB">
<feFlood flood-opacity="0" result="BackgroundImageFix"/>
<feColorMatrix in="SourceAlpha" type="matrix" values="0 0 0 0 0 0 0 0 0 0 0 0 0 0 0 0 0 0 127 0" result="hardAlpha"/>
<feOffset dy="2"/>
<feGaussianBlur stdDeviation="2"/>
<feComposite in2="hardAlpha" operator="out"/>
<feColorMatrix type="matrix" values="0 0 0 0 0 0 0 0 0 0 0 0 0 0 0 0 0 0 0.05 0"/>
<feBlend mode="normal" in2="BackgroundImageFix" result="effect1_dropShadow_11_2093"/>
<feBlend mode="normal" in="SourceGraphic" in2="effect1_dropShadow_11_2093" result="shape"/>
</filter>
</defs>
</svg>
