<svg width="100%" height="100%" viewBox="0 0 342 250" fill="none" xmlns="http://www.w3.org/2000/svg">
<rect x="0.5" y="0.5" width="341" height="249" rx="7.5" fill="white" stroke="black"/>
<g opacity="0.3">
<rect x="82" y="6" width="16" height="6" rx="3" fill="#FF00F5"/>
<rect x="105" y="6" width="16" height="6" rx="3" fill="#D9D9D9"/>
<rect x="128" y="6" width="16" height="6" rx="3" fill="#D9D9D9"/>
<rect x="309" y="6" width="16" height="6" rx="3" fill="#D9D9D9"/>
</g>
<path d="M67 19H341V241C341 245.418 337.418 249 333 249H67V19Z" fill="#BEBEBE"/>
<rect x="82.5" y="61.5" width="242" height="170" rx="3.5" fill="white" stroke="black"/>
<rect x="88.5" y="68.5" width="50" height="9" rx="3.5" fill="white" stroke="black"/>
<path d="M155.554 69.1449H154.491C154.461 68.9706 154.405 68.8163 154.324 68.6818C154.242 68.5455 154.141 68.4299 154.02 68.3352C153.899 68.2405 153.76 68.1695 153.605 68.1222C153.452 68.0729 153.286 68.0483 153.108 68.0483C152.792 68.0483 152.511 68.1278 152.267 68.2869C152.023 68.4441 151.831 68.6752 151.693 68.9801C151.555 69.2831 151.486 69.6534 151.486 70.0909C151.486 70.536 151.555 70.911 151.693 71.2159C151.833 71.5189 152.025 71.7481 152.267 71.9034C152.511 72.0568 152.791 72.1335 153.105 72.1335C153.279 72.1335 153.442 72.1108 153.594 72.0653C153.747 72.018 153.884 71.9489 154.006 71.858C154.129 71.767 154.232 71.6553 154.315 71.5227C154.401 71.3902 154.459 71.2386 154.491 71.0682L155.554 71.0739C155.514 71.3504 155.428 71.6098 155.295 71.8523C155.165 72.0947 154.993 72.3087 154.781 72.4943C154.569 72.678 154.321 72.822 154.037 72.9261C153.753 73.0284 153.438 73.0795 153.091 73.0795C152.58 73.0795 152.123 72.9612 151.722 72.7244C151.32 72.4877 151.004 72.1458 150.773 71.6989C150.542 71.2519 150.426 70.7159 150.426 70.0909C150.426 69.464 150.543 68.928 150.776 68.483C151.009 68.036 151.326 67.6941 151.727 67.4574C152.129 67.2206 152.583 67.1023 153.091 67.1023C153.415 67.1023 153.716 67.1477 153.994 67.2386C154.273 67.3295 154.521 67.4631 154.739 67.6392C154.956 67.8134 155.135 68.0275 155.276 68.2812C155.418 68.5331 155.51 68.821 155.554 69.1449ZM157.502 70.4432V73H156.474V67.1818H157.479V69.3778H157.531C157.633 69.1316 157.791 68.9375 158.005 68.7955C158.221 68.6515 158.496 68.5795 158.829 68.5795C159.132 68.5795 159.396 68.643 159.621 68.7699C159.847 68.8968 160.021 69.0824 160.144 69.3267C160.269 69.571 160.332 69.8693 160.332 70.2216V73H159.303V70.3807C159.303 70.0871 159.228 69.8589 159.076 69.696C158.926 69.5312 158.716 69.4489 158.445 69.4489C158.263 69.4489 158.101 69.4886 157.957 69.5682C157.815 69.6458 157.703 69.7585 157.621 69.9062C157.542 70.054 157.502 70.233 157.502 70.4432ZM162.636 73.0881C162.359 73.0881 162.11 73.0388 161.888 72.9403C161.669 72.84 161.495 72.6922 161.366 72.4972C161.239 72.3021 161.175 72.0616 161.175 71.7756C161.175 71.5294 161.221 71.3258 161.312 71.1648C161.403 71.0038 161.527 70.875 161.684 70.7784C161.841 70.6818 162.018 70.6089 162.215 70.5597C162.414 70.5085 162.62 70.4716 162.832 70.4489C163.087 70.4223 163.295 70.3987 163.454 70.3778C163.613 70.3551 163.728 70.321 163.8 70.2756C163.874 70.2282 163.911 70.1553 163.911 70.0568V70.0398C163.911 69.8258 163.848 69.66 163.721 69.5426C163.594 69.4252 163.411 69.3665 163.173 69.3665C162.921 69.3665 162.721 69.4214 162.573 69.5312C162.427 69.6411 162.329 69.7708 162.278 69.9205L161.317 69.7841C161.393 69.5189 161.518 69.2973 161.692 69.1193C161.867 68.9394 162.08 68.8049 162.332 68.7159C162.584 68.625 162.862 68.5795 163.167 68.5795C163.377 68.5795 163.586 68.6042 163.795 68.6534C164.003 68.7027 164.193 68.7841 164.366 68.8977C164.538 69.0095 164.676 69.1619 164.781 69.3551C164.887 69.5483 164.94 69.7898 164.94 70.0795V73H163.951V72.4006H163.917C163.854 72.5218 163.766 72.6354 163.653 72.7415C163.541 72.8456 163.4 72.9299 163.229 72.9943C163.061 73.0568 162.863 73.0881 162.636 73.0881ZM162.903 72.3324C163.109 72.3324 163.288 72.2917 163.44 72.2102C163.591 72.1269 163.708 72.017 163.789 71.8807C163.872 71.7443 163.914 71.5956 163.914 71.4347V70.9205C163.882 70.947 163.827 70.9716 163.749 70.9943C163.674 71.017 163.588 71.0369 163.494 71.054C163.399 71.071 163.305 71.0862 163.212 71.0994C163.12 71.1127 163.039 71.1241 162.971 71.1335C162.817 71.1544 162.68 71.1884 162.559 71.2358C162.438 71.2831 162.342 71.3494 162.272 71.4347C162.202 71.518 162.167 71.6259 162.167 71.7585C162.167 71.9479 162.236 72.0909 162.374 72.1875C162.513 72.2841 162.689 72.3324 162.903 72.3324ZM168.153 68.6364V69.4318H165.644V68.6364H168.153ZM166.263 67.5909H167.292V71.6875C167.292 71.8258 167.313 71.9318 167.354 72.0057C167.398 72.0777 167.455 72.1269 167.525 72.1534C167.595 72.1799 167.673 72.1932 167.758 72.1932C167.822 72.1932 167.881 72.1884 167.934 72.179C167.989 72.1695 168.031 72.161 168.059 72.1534L168.232 72.9574C168.177 72.9763 168.099 72.9972 167.996 73.0199C167.896 73.0426 167.773 73.0559 167.627 73.0597C167.37 73.0672 167.138 73.0284 166.931 72.9432C166.725 72.8561 166.561 72.7216 166.44 72.5398C166.32 72.358 166.262 72.1307 166.263 71.858V67.5909ZM171.898 73L170.665 68.6364H171.713L172.48 71.7045H172.52L173.304 68.6364H174.341L175.125 71.6875H175.168L175.923 68.6364H176.974L175.739 73H174.668L173.849 70.0511H173.79L172.972 73H171.898ZM177.692 73V68.6364H178.721V73H177.692ZM178.21 68.017C178.047 68.017 177.906 67.9631 177.789 67.8551C177.672 67.7453 177.613 67.6136 177.613 67.4602C177.613 67.3049 177.672 67.1733 177.789 67.0653C177.906 66.9555 178.047 66.9006 178.21 66.9006C178.374 66.9006 178.514 66.9555 178.63 67.0653C178.747 67.1733 178.806 67.3049 178.806 67.4602C178.806 67.6136 178.747 67.7453 178.63 67.8551C178.514 67.9631 178.374 68.017 178.21 68.017ZM180.807 70.4432V73H179.778V68.6364H180.761V69.3778H180.812C180.913 69.1335 181.073 68.9394 181.293 68.7955C181.514 68.6515 181.788 68.5795 182.114 68.5795C182.415 68.5795 182.677 68.6439 182.901 68.7727C183.126 68.9015 183.3 69.0881 183.423 69.3324C183.548 69.5767 183.61 69.8731 183.608 70.2216V73H182.58V70.3807C182.58 70.089 182.504 69.8608 182.352 69.696C182.203 69.5312 181.995 69.4489 181.73 69.4489C181.55 69.4489 181.39 69.4886 181.25 69.5682C181.112 69.6458 181.003 69.7585 180.923 69.9062C180.846 70.054 180.807 70.233 180.807 70.4432ZM186.273 73.0767C185.93 73.0767 185.623 72.9886 185.352 72.8125C185.081 72.6364 184.867 72.3807 184.71 72.0455C184.553 71.7102 184.474 71.303 184.474 70.8239C184.474 70.339 184.554 69.9299 184.713 69.5966C184.874 69.2614 185.091 69.0085 185.364 68.8381C185.636 68.6657 185.94 68.5795 186.276 68.5795C186.531 68.5795 186.741 68.6231 186.906 68.7102C187.071 68.7955 187.202 68.8987 187.298 69.0199C187.395 69.1392 187.47 69.2519 187.523 69.358H187.565V67.1818H188.597V73H187.585V72.3125H187.523C187.47 72.4186 187.393 72.5312 187.293 72.6506C187.192 72.768 187.06 72.8684 186.895 72.9517C186.73 73.035 186.523 73.0767 186.273 73.0767ZM186.56 72.233C186.777 72.233 186.963 72.1742 187.116 72.0568C187.27 71.9375 187.386 71.7718 187.466 71.5597C187.545 71.3475 187.585 71.1004 187.585 70.8182C187.585 70.536 187.545 70.2907 187.466 70.0824C187.388 69.8741 187.273 69.7121 187.119 69.5966C186.968 69.4811 186.781 69.4233 186.56 69.4233C186.33 69.4233 186.139 69.483 185.986 69.6023C185.832 69.7216 185.717 69.8864 185.639 70.0966C185.562 70.3068 185.523 70.5473 185.523 70.8182C185.523 71.0909 185.562 71.3343 185.639 71.5483C185.719 71.7604 185.835 71.928 185.989 72.0511C186.144 72.1723 186.334 72.233 186.56 72.233ZM191.596 73.0852C191.17 73.0852 190.8 72.9915 190.488 72.804C190.175 72.6165 189.933 72.3542 189.761 72.017C189.59 71.6799 189.505 71.286 189.505 70.8352C189.505 70.3845 189.59 69.9896 189.761 69.6506C189.933 69.3116 190.175 69.0483 190.488 68.8608C190.8 68.6733 191.17 68.5795 191.596 68.5795C192.022 68.5795 192.391 68.6733 192.704 68.8608C193.016 69.0483 193.258 69.3116 193.428 69.6506C193.601 69.9896 193.687 70.3845 193.687 70.8352C193.687 71.286 193.601 71.6799 193.428 72.017C193.258 72.3542 193.016 72.6165 192.704 72.804C192.391 72.9915 192.022 73.0852 191.596 73.0852ZM191.602 72.2614C191.833 72.2614 192.026 72.1979 192.181 72.071C192.336 71.9422 192.452 71.7699 192.528 71.554C192.605 71.3381 192.644 71.0975 192.644 70.8324C192.644 70.5653 192.605 70.3239 192.528 70.108C192.452 69.8902 192.336 69.7169 192.181 69.5881C192.026 69.4593 191.833 69.3949 191.602 69.3949C191.365 69.3949 191.168 69.4593 191.011 69.5881C190.855 69.7169 190.739 69.8902 190.661 70.108C190.585 70.3239 190.548 70.5653 190.548 70.8324C190.548 71.0975 190.585 71.3381 190.661 71.554C190.739 71.7699 190.855 71.9422 191.011 72.071C191.168 72.1979 191.365 72.2614 191.602 72.2614ZM195.335 73L194.102 68.6364H195.151L195.918 71.7045H195.957L196.741 68.6364H197.778L198.562 71.6875H198.605L199.361 68.6364H200.412L199.176 73H198.105L197.287 70.0511H197.227L196.409 73H195.335Z" fill="black"/>
<path d="M82.9325 34.5455H85.0284L87.8352 41.3963H87.946L90.7528 34.5455H92.8487V44H91.2053V37.5046H91.1175L88.5046 43.9723H87.2766L84.6637 37.4908H84.576V44H82.9325V34.5455ZM97.7791 44.1385C97.0682 44.1385 96.4542 43.9908 95.9371 43.6953C95.4232 43.3968 95.0277 42.9751 94.7507 42.4304C94.4737 41.8826 94.3352 41.2378 94.3352 40.4961C94.3352 39.7667 94.4737 39.1265 94.7507 38.5756C95.0308 38.0217 95.4216 37.5908 95.9233 37.283C96.425 36.9722 97.0143 36.8168 97.6914 36.8168C98.1284 36.8168 98.5408 36.8875 98.9286 37.0291C99.3195 37.1676 99.6642 37.383 99.9627 37.6754C100.264 37.9678 100.501 38.3402 100.674 38.7926C100.846 39.242 100.932 39.7775 100.932 40.3991V40.9116H95.12V39.7852H99.3303C99.3272 39.4651 99.2579 39.1804 99.1225 38.9311C98.9871 38.6787 98.7978 38.4802 98.5547 38.3356C98.3146 38.1909 98.0346 38.1186 97.7145 38.1186C97.3729 38.1186 97.0728 38.2017 96.8143 38.3679C96.5558 38.531 96.3542 38.7464 96.2095 39.0142C96.0679 39.2789 95.9956 39.5697 95.9925 39.8867V40.87C95.9925 41.2824 96.0679 41.6364 96.2188 41.9318C96.3696 42.2242 96.5804 42.4489 96.8512 42.6058C97.122 42.7597 97.439 42.8366 97.8022 42.8366C98.0453 42.8366 98.2654 42.8028 98.4624 42.7351C98.6593 42.6643 98.8301 42.5612 98.9748 42.4258C99.1194 42.2904 99.2287 42.1226 99.3026 41.9226L100.863 42.098C100.764 42.5104 100.577 42.8705 100.3 43.1783C100.026 43.483 99.675 43.7199 99.2472 43.8892C98.8194 44.0554 98.33 44.1385 97.7791 44.1385ZM107.95 38.7834L106.427 38.9496C106.384 38.7957 106.308 38.651 106.201 38.5156C106.096 38.3802 105.955 38.271 105.776 38.1879C105.598 38.1048 105.379 38.0632 105.12 38.0632C104.773 38.0632 104.48 38.1386 104.243 38.2894C104.009 38.4402 103.894 38.6357 103.897 38.8757C103.894 39.0819 103.969 39.2496 104.123 39.3789C104.28 39.5082 104.539 39.6143 104.899 39.6974L106.108 39.956C106.779 40.1006 107.278 40.3299 107.604 40.6438C107.933 40.9577 108.1 41.3686 108.103 41.8764C108.1 42.3227 107.969 42.7166 107.71 43.0582C107.455 43.3968 107.099 43.6615 106.644 43.8523C106.188 44.0431 105.665 44.1385 105.074 44.1385C104.206 44.1385 103.508 43.9569 102.978 43.5938C102.449 43.2275 102.134 42.7182 102.032 42.0657L103.662 41.9087C103.736 42.2288 103.892 42.4704 104.133 42.6335C104.373 42.7966 104.685 42.8782 105.07 42.8782C105.467 42.8782 105.785 42.7966 106.025 42.6335C106.268 42.4704 106.39 42.2688 106.39 42.0288C106.39 41.8256 106.312 41.6579 106.155 41.5256C106.001 41.3932 105.761 41.2917 105.434 41.2209L104.225 40.967C103.545 40.8254 103.042 40.5869 102.715 40.2514C102.389 39.9129 102.227 39.4851 102.231 38.968C102.227 38.531 102.346 38.1525 102.586 37.8324C102.829 37.5092 103.166 37.2599 103.597 37.0845C104.031 36.906 104.531 36.8168 105.097 36.8168C105.928 36.8168 106.582 36.9937 107.059 37.3477C107.54 37.7016 107.836 38.1802 107.95 38.7834ZM115.085 38.7834L113.562 38.9496C113.519 38.7957 113.443 38.651 113.335 38.5156C113.231 38.3802 113.089 38.271 112.911 38.1879C112.732 38.1048 112.514 38.0632 112.255 38.0632C111.907 38.0632 111.615 38.1386 111.378 38.2894C111.144 38.4402 111.029 38.6357 111.032 38.8757C111.029 39.0819 111.104 39.2496 111.258 39.3789C111.415 39.5082 111.674 39.6143 112.034 39.6974L113.243 39.956C113.914 40.1006 114.413 40.3299 114.739 40.6438C115.068 40.9577 115.234 41.3686 115.237 41.8764C115.234 42.3227 115.104 42.7166 114.845 43.0582C114.59 43.3968 114.234 43.6615 113.779 43.8523C113.323 44.0431 112.8 44.1385 112.209 44.1385C111.341 44.1385 110.643 43.9569 110.113 43.5938C109.584 43.2275 109.268 42.7182 109.167 42.0657L110.796 41.9087C110.87 42.2288 111.027 42.4704 111.267 42.6335C111.507 42.7966 111.82 42.8782 112.204 42.8782C112.601 42.8782 112.92 42.7966 113.16 42.6335C113.403 42.4704 113.525 42.2688 113.525 42.0288C113.525 41.8256 113.446 41.6579 113.289 41.5256C113.135 41.3932 112.895 41.2917 112.569 41.2209L111.36 40.967C110.679 40.8254 110.176 40.5869 109.85 40.2514C109.524 39.9129 109.362 39.4851 109.365 38.968C109.362 38.531 109.481 38.1525 109.721 37.8324C109.964 37.5092 110.301 37.2599 110.732 37.0845C111.166 36.906 111.666 36.8168 112.232 36.8168C113.063 36.8168 113.717 36.9937 114.194 37.3477C114.674 37.7016 114.971 38.1802 115.085 38.7834ZM119.755 44.1385C119.044 44.1385 118.43 43.9908 117.913 43.6953C117.399 43.3968 117.003 42.9751 116.726 42.4304C116.449 41.8826 116.311 41.2378 116.311 40.4961C116.311 39.7667 116.449 39.1265 116.726 38.5756C117.006 38.0217 117.397 37.5908 117.899 37.283C118.401 36.9722 118.99 36.8168 119.667 36.8168C120.104 36.8168 120.516 36.8875 120.904 37.0291C121.295 37.1676 121.64 37.383 121.938 37.6754C122.24 37.9678 122.477 38.3402 122.649 38.7926C122.822 39.242 122.908 39.7775 122.908 40.3991V40.9116H117.096V39.7852H121.306C121.303 39.4651 121.234 39.1804 121.098 38.9311C120.963 38.6787 120.773 38.4802 120.53 38.3356C120.29 38.1909 120.01 38.1186 119.69 38.1186C119.348 38.1186 119.048 38.2017 118.79 38.3679C118.531 38.531 118.33 38.7464 118.185 39.0142C118.044 39.2789 117.971 39.5697 117.968 39.8867V40.87C117.968 41.2824 118.044 41.6364 118.194 41.9318C118.345 42.2242 118.556 42.4489 118.827 42.6058C119.098 42.7597 119.415 42.8366 119.778 42.8366C120.021 42.8366 120.241 42.8028 120.438 42.7351C120.635 42.6643 120.806 42.5612 120.95 42.4258C121.095 42.2904 121.204 42.1226 121.278 41.9226L122.839 42.098C122.74 42.5104 122.552 42.8705 122.275 43.1783C122.001 43.483 121.651 43.7199 121.223 43.8892C120.795 44.0554 120.306 44.1385 119.755 44.1385ZM125.993 39.8452V44H124.322V36.9091H125.919V38.114H126.002C126.165 37.717 126.425 37.4015 126.782 37.1676C127.142 36.9337 127.587 36.8168 128.116 36.8168C128.606 36.8168 129.032 36.9214 129.395 37.1307C129.761 37.34 130.044 37.6431 130.244 38.0401C130.448 38.4371 130.548 38.9188 130.545 39.4851V44H128.873V39.7436C128.873 39.2696 128.75 38.8988 128.504 38.631C128.261 38.3633 127.924 38.2294 127.493 38.2294C127.201 38.2294 126.941 38.294 126.713 38.4233C126.488 38.5495 126.311 38.7326 126.182 38.9727C126.056 39.2127 125.993 39.5036 125.993 39.8452ZM135.327 46.8068C134.727 46.8068 134.212 46.7253 133.781 46.5621C133.35 46.4021 133.004 46.1867 132.742 45.9158C132.48 45.645 132.299 45.3449 132.197 45.0156L133.702 44.6509C133.77 44.7894 133.868 44.9264 133.998 45.0618C134.127 45.2003 134.301 45.3142 134.519 45.4034C134.741 45.4957 135.019 45.5419 135.355 45.5419C135.829 45.5419 136.221 45.4265 136.532 45.1957C136.843 44.9679 136.998 44.5924 136.998 44.0692V42.7259H136.915C136.829 42.8982 136.703 43.0752 136.537 43.2567C136.374 43.4383 136.157 43.5907 135.886 43.7138C135.618 43.8369 135.281 43.8984 134.875 43.8984C134.33 43.8984 133.836 43.7707 133.393 43.5153C132.953 43.2567 132.602 42.872 132.34 42.3612C132.082 41.8472 131.953 41.204 131.953 40.4315C131.953 39.6528 132.082 38.9957 132.34 38.4602C132.602 37.9216 132.954 37.5138 133.398 37.2369C133.841 36.9568 134.335 36.8168 134.879 36.8168C135.295 36.8168 135.637 36.8875 135.904 37.0291C136.175 37.1676 136.391 37.3353 136.551 37.5323C136.711 37.7262 136.832 37.9093 136.915 38.0817H137.008V36.9091H138.656V44.1154C138.656 44.7217 138.511 45.2234 138.222 45.6204C137.932 46.0174 137.537 46.3144 137.035 46.5114C136.534 46.7083 135.964 46.8068 135.327 46.8068ZM135.341 42.5874C135.695 42.5874 135.997 42.5012 136.246 42.3288C136.495 42.1565 136.684 41.9087 136.814 41.5856C136.943 41.2624 137.008 40.8746 137.008 40.4222C137.008 39.976 136.943 39.5851 136.814 39.2496C136.688 38.9142 136.5 38.6541 136.251 38.4695C136.004 38.2817 135.701 38.1879 135.341 38.1879C134.969 38.1879 134.658 38.2848 134.409 38.4787C134.159 38.6726 133.972 38.9388 133.845 39.2773C133.719 39.6128 133.656 39.9944 133.656 40.4222C133.656 40.8562 133.719 41.2363 133.845 41.5625C133.975 41.8857 134.164 42.138 134.413 42.3196C134.666 42.4981 134.975 42.5874 135.341 42.5874ZM143.508 44.1385C142.797 44.1385 142.183 43.9908 141.666 43.6953C141.152 43.3968 140.756 42.9751 140.479 42.4304C140.202 41.8826 140.064 41.2378 140.064 40.4961C140.064 39.7667 140.202 39.1265 140.479 38.5756C140.759 38.0217 141.15 37.5908 141.652 37.283C142.153 36.9722 142.743 36.8168 143.42 36.8168C143.857 36.8168 144.269 36.8875 144.657 37.0291C145.048 37.1676 145.393 37.383 145.691 37.6754C145.993 37.9678 146.23 38.3402 146.402 38.7926C146.575 39.242 146.661 39.7775 146.661 40.3991V40.9116H140.849V39.7852H145.059C145.056 39.4651 144.986 39.1804 144.851 38.9311C144.716 38.6787 144.526 38.4802 144.283 38.3356C144.043 38.1909 143.763 38.1186 143.443 38.1186C143.101 38.1186 142.801 38.2017 142.543 38.3679C142.284 38.531 142.083 38.7464 141.938 39.0142C141.796 39.2789 141.724 39.5697 141.721 39.8867V40.87C141.721 41.2824 141.796 41.6364 141.947 41.9318C142.098 42.2242 142.309 42.4489 142.58 42.6058C142.851 42.7597 143.168 42.8366 143.531 42.8366C143.774 42.8366 143.994 42.8028 144.191 42.7351C144.388 42.6643 144.559 42.5612 144.703 42.4258C144.848 42.2904 144.957 42.1226 145.031 41.9226L146.591 42.098C146.493 42.5104 146.305 42.8705 146.028 43.1783C145.754 43.483 145.403 43.7199 144.976 43.8892C144.548 44.0554 144.059 44.1385 143.508 44.1385ZM148.074 44V36.9091H149.695V38.0909H149.769C149.898 37.6816 150.12 37.3661 150.434 37.1445C150.751 36.9199 151.112 36.8075 151.518 36.8075C151.611 36.8075 151.714 36.8121 151.828 36.8214C151.945 36.8275 152.042 36.8383 152.119 36.8537V38.391C152.048 38.3664 151.935 38.3448 151.782 38.3263C151.631 38.3048 151.485 38.294 151.343 38.294C151.038 38.294 150.764 38.3602 150.521 38.4925C150.281 38.6218 150.092 38.8018 149.953 39.0327C149.815 39.2635 149.746 39.5297 149.746 39.8313V44H148.074Z" fill="black"/>
<line opacity="0.5" x1="66.5" y1="-2.18557e-08" x2="66.5" y2="249" stroke="black"/>
<line opacity="0.5" x1="67" y1="18.5" x2="341" y2="18.5" stroke="black"/>
<rect opacity="0.3" x="7" y="6" width="16" height="16" rx="8" fill="#FF00F5"/>
<g opacity="0.3">
<rect x="9" y="37" width="51" height="5" rx="2.5" fill="#D9D9D9"/>
<rect x="9" y="73" width="51" height="5" rx="2.5" fill="#D9D9D9"/>
<rect x="9" y="85" width="46" height="5" rx="2.5" fill="#D9D9D9"/>
<rect x="9" y="49" width="46" height="5" rx="2.5" fill="#D9D9D9"/>
<rect x="9" y="121" width="46" height="5" rx="2.5" fill="#D9D9D9"/>
<rect x="9" y="61" width="8" height="5" rx="2.5" fill="#747474"/>
<rect x="9" y="109" width="8" height="5" rx="2.5" fill="#747474"/>
<rect x="9" y="97" width="37" height="5" rx="2.5" fill="#D9D9D9"/>
<rect x="9" y="133" width="37" height="5" rx="2.5" fill="#D9D9D9"/>
</g>
<line opacity="0.5" x1="144.5" y1="61" x2="144.5" y2="232" stroke="black"/>
<line opacity="0.5" x1="325" y1="78.5" x2="145" y2="78.5" stroke="black"/>
<line opacity="0.5" x1="325" y1="214.5" x2="145" y2="214.5" stroke="black"/>
<rect x="88" y="98" width="51" height="4.10891" rx="2.05446" fill="#D9D9D9"/>
<rect x="88" y="127.584" width="51" height="4.10891" rx="2.05446" fill="#D9D9D9"/>
<rect x="88" y="137.446" width="46" height="4.10891" rx="2.05446" fill="#D9D9D9"/>
<rect x="88" y="107.861" width="46" height="4.10891" rx="2.05446" fill="#D9D9D9"/>
<rect x="88" y="167.03" width="46" height="4.10891" rx="2.05446" fill="#D9D9D9"/>
<rect x="88" y="87.7228" width="8" height="4.10891" rx="2.05446" fill="#747474"/>
<rect x="88" y="157.168" width="8" height="4.10891" rx="2.05446" fill="#747474"/>
<rect x="88" y="147.307" width="37" height="4.10891" rx="2.05446" fill="#D9D9D9"/>
<rect x="88" y="176.891" width="37" height="4.10891" rx="2.05446" fill="#D9D9D9"/>
<g opacity="0.3">
<rect x="8" y="228" width="51" height="14" rx="4" fill="#FF00F5"/>
<rect x="14" y="234" width="39" height="2" rx="1" fill="white"/>
</g>
<rect x="291" y="66" width="29" height="8" rx="4" fill="#FF00F5"/>
<rect x="297" y="69" width="17" height="2" rx="1" fill="white"/>
<rect x="263" y="66" width="23" height="8" rx="4" fill="#676767"/>
<rect x="269" y="69" width="11" height="2" rx="1" fill="white"/>
</svg>
