<svg width="100%" height="100%" viewBox="0 0 342 250" fill="none" xmlns="http://www.w3.org/2000/svg">
<rect x="0.5" y="0.5" width="341" height="249" rx="7.5" fill="white" stroke="black"/>
<g filter="url(#filter0_d_31_2356)">
<rect x="62" y="58" width="218" height="180" rx="4" fill="white"/>
<rect x="62.5" y="58.5" width="217" height="179" rx="3.5" stroke="black"/>
</g>
<rect opacity="0.8" x="76.9478" y="73" width="16" height="16" rx="3" fill="#D9D9D9"/>
<rect opacity="0.8" x="110.948" y="73" width="16" height="16" rx="3" fill="#D9D9D9"/>
<rect opacity="0.8" x="144.948" y="73" width="16" height="16" rx="3" fill="#D9D9D9"/>
<rect opacity="0.8" x="178.948" y="73" width="16" height="16" rx="3" fill="#D9D9D9"/>
<rect opacity="0.8" x="212.948" y="73" width="16" height="16" rx="3" fill="#D9D9D9"/>
<rect opacity="0.8" x="246.948" y="73" width="16" height="16" rx="3" fill="#D9D9D9"/>
<rect opacity="0.8" x="76.9478" y="107" width="16" height="16" rx="3" fill="#D9D9D9"/>
<rect opacity="0.8" x="110.948" y="107" width="16" height="16" rx="3" fill="#D9D9D9"/>
<rect opacity="0.8" x="144.948" y="107" width="16" height="16" rx="3" fill="#FF00F5"/>
<rect opacity="0.8" x="178.948" y="107" width="16" height="16" rx="3" fill="#D9D9D9"/>
<rect opacity="0.8" x="212.948" y="107" width="16" height="16" rx="3" fill="#D9D9D9"/>
<rect opacity="0.8" x="246.948" y="107" width="16" height="16" rx="3" fill="#D9D9D9"/>
<rect opacity="0.8" x="76.9478" y="141" width="16" height="16" rx="3" fill="#D9D9D9"/>
<rect opacity="0.8" x="110.948" y="141" width="16" height="16" rx="3" fill="#D9D9D9"/>
<rect opacity="0.8" x="144.948" y="141" width="16" height="16" rx="3" fill="#D9D9D9"/>
<rect opacity="0.8" x="178.948" y="141" width="16" height="16" rx="3" fill="#D9D9D9"/>
<rect opacity="0.8" x="212.948" y="141" width="16" height="16" rx="3" fill="#D9D9D9"/>
<rect opacity="0.8" x="246.948" y="141" width="16" height="16" rx="3" fill="#D9D9D9"/>
<rect opacity="0.8" x="76.9478" y="175" width="16" height="16" rx="3" fill="#D9D9D9"/>
<rect opacity="0.8" x="110.948" y="175" width="16" height="16" rx="3" fill="#D9D9D9"/>
<rect opacity="0.8" x="144.948" y="175" width="16" height="16" rx="3" fill="#D9D9D9"/>
<rect opacity="0.8" x="178.948" y="175" width="16" height="16" rx="3" fill="#D9D9D9"/>
<rect opacity="0.8" x="212.948" y="175" width="16" height="16" rx="3" fill="#D9D9D9"/>
<rect opacity="0.8" x="246.948" y="175" width="16" height="16" rx="3" fill="#D9D9D9"/>
<rect opacity="0.8" x="76.9478" y="209" width="16" height="16" rx="3" fill="#D9D9D9"/>
<rect opacity="0.8" x="110.948" y="209" width="16" height="16" rx="3" fill="#D9D9D9"/>
<rect opacity="0.8" x="144.948" y="209" width="16" height="16" rx="3" fill="#D9D9D9"/>
<rect opacity="0.8" x="178.948" y="209" width="16" height="16" rx="3" fill="#D9D9D9"/>
<rect opacity="0.8" x="212.948" y="209" width="16" height="16" rx="3" fill="#D9D9D9"/>
<rect opacity="0.8" x="246.948" y="209" width="16" height="16" rx="3" fill="#D9D9D9"/>
<rect x="62.5" y="31.5" width="164" height="22" rx="3.5" fill="white" stroke="black"/>
<path d="M65.6245 24H62.7886V16H65.6479C66.4526 16 67.1453 16.1602 67.7261 16.4805C68.3068 16.7982 68.7534 17.2552 69.0659 17.8516C69.381 18.4479 69.5386 19.1615 69.5386 19.9922C69.5386 20.8255 69.381 21.5417 69.0659 22.1406C68.7534 22.7396 68.3042 23.1992 67.7183 23.5195C67.1349 23.8398 66.437 24 65.6245 24ZM64.48 22.5508H65.5542C66.0542 22.5508 66.4748 22.4622 66.8159 22.2852C67.1597 22.1055 67.4175 21.8281 67.5894 21.4531C67.7638 21.0755 67.8511 20.5885 67.8511 19.9922C67.8511 19.401 67.7638 18.918 67.5894 18.543C67.4175 18.168 67.161 17.8919 66.8198 17.7148C66.4787 17.5378 66.0581 17.4492 65.5581 17.4492H64.48V22.5508ZM72.4712 24.1133C72.0884 24.1133 71.7472 24.0469 71.4478 23.9141C71.1483 23.7786 70.9113 23.5794 70.7368 23.3164C70.5649 23.0508 70.479 22.7201 70.479 22.3242C70.479 21.9909 70.5402 21.7109 70.6626 21.4844C70.785 21.2578 70.9517 21.0755 71.1626 20.9375C71.3735 20.7995 71.6131 20.6953 71.8813 20.625C72.1522 20.5547 72.436 20.5052 72.7329 20.4766C73.0819 20.4401 73.3631 20.4062 73.5767 20.375C73.7902 20.3411 73.9451 20.2917 74.0415 20.2266C74.1379 20.1615 74.186 20.0651 74.186 19.9375V19.9141C74.186 19.6667 74.1079 19.4753 73.9517 19.3398C73.798 19.2044 73.5793 19.1367 73.2954 19.1367C72.9959 19.1367 72.7576 19.2031 72.5806 19.3359C72.4035 19.4661 72.2863 19.6302 72.229 19.8281L70.6899 19.7031C70.7681 19.3385 70.9217 19.0234 71.1509 18.7578C71.38 18.4896 71.6756 18.2839 72.0376 18.1406C72.4022 17.9948 72.8241 17.9219 73.3032 17.9219C73.6366 17.9219 73.9556 17.9609 74.2603 18.0391C74.5675 18.1172 74.8397 18.2383 75.0767 18.4023C75.3162 18.5664 75.505 18.7773 75.6431 19.0352C75.7811 19.2904 75.8501 19.5964 75.8501 19.9531V24H74.272V23.168H74.2251C74.1287 23.3555 73.9998 23.5208 73.8384 23.6641C73.6769 23.8047 73.4829 23.9154 73.2563 23.9961C73.0298 24.0742 72.7681 24.1133 72.4712 24.1133ZM72.9478 22.9648C73.1925 22.9648 73.4087 22.9167 73.5962 22.8203C73.7837 22.7214 73.9308 22.5885 74.0376 22.4219C74.1444 22.2552 74.1978 22.0664 74.1978 21.8555V21.2188C74.1457 21.2526 74.0741 21.2839 73.9829 21.3125C73.8944 21.3385 73.7941 21.3633 73.6821 21.3867C73.5701 21.4076 73.4582 21.4271 73.3462 21.4453C73.2342 21.4609 73.1326 21.4753 73.0415 21.4883C72.8462 21.5169 72.6756 21.5625 72.5298 21.625C72.384 21.6875 72.2707 21.7721 72.1899 21.8789C72.1092 21.9831 72.0688 22.1133 72.0688 22.2695C72.0688 22.4961 72.1509 22.6693 72.3149 22.7891C72.4816 22.9062 72.6925 22.9648 72.9478 22.9648ZM80.3325 18V19.25H76.7192V18H80.3325ZM77.5396 16.5625H79.2036V22.1562C79.2036 22.3099 79.2271 22.4297 79.2739 22.5156C79.3208 22.599 79.3859 22.6576 79.4692 22.6914C79.5552 22.7253 79.6541 22.7422 79.7661 22.7422C79.8442 22.7422 79.9224 22.7357 80.0005 22.7227C80.0786 22.707 80.1385 22.6953 80.1802 22.6875L80.4419 23.9258C80.3586 23.9518 80.2414 23.9818 80.0903 24.0156C79.9393 24.0521 79.7557 24.0742 79.5396 24.082C79.1385 24.0977 78.7869 24.0443 78.4849 23.9219C78.1854 23.7995 77.9523 23.6094 77.7856 23.3516C77.619 23.0937 77.5369 22.7682 77.5396 22.375V16.5625ZM84.0864 24.1172C83.4692 24.1172 82.938 23.9922 82.4927 23.7422C82.05 23.4896 81.7088 23.1328 81.4692 22.6719C81.2297 22.2083 81.1099 21.6602 81.1099 21.0273C81.1099 20.4102 81.2297 19.8685 81.4692 19.4023C81.7088 18.9362 82.0461 18.5729 82.481 18.3125C82.9185 18.0521 83.4315 17.9219 84.02 17.9219C84.4159 17.9219 84.7843 17.9857 85.1255 18.1133C85.4692 18.2383 85.7687 18.4271 86.0239 18.6797C86.2817 18.9323 86.4823 19.25 86.6255 19.6328C86.7687 20.013 86.8403 20.4583 86.8403 20.9687V21.4258H81.7739V20.3945H85.2739C85.2739 20.1549 85.2218 19.9427 85.1177 19.7578C85.0135 19.5729 84.869 19.4284 84.6841 19.3242C84.5018 19.2174 84.2896 19.1641 84.0474 19.1641C83.7948 19.1641 83.5708 19.2227 83.3755 19.3398C83.1828 19.4544 83.0317 19.6094 82.9224 19.8047C82.813 19.9974 82.757 20.2122 82.7544 20.4492V21.4297C82.7544 21.7266 82.8091 21.9831 82.9185 22.1992C83.0304 22.4154 83.188 22.582 83.3911 22.6992C83.5942 22.8164 83.8351 22.875 84.1138 22.875C84.2987 22.875 84.4679 22.849 84.6216 22.7969C84.7752 22.7448 84.9067 22.6667 85.0161 22.5625C85.1255 22.4583 85.2088 22.3307 85.2661 22.1797L86.8052 22.2812C86.7271 22.651 86.5669 22.974 86.3247 23.25C86.0851 23.5234 85.7752 23.737 85.395 23.8906C85.0174 24.0417 84.5812 24.1172 84.0864 24.1172ZM87.9263 26.25V18H89.5669V19.0078H89.6411C89.714 18.8464 89.8195 18.6823 89.9575 18.5156C90.0981 18.3464 90.2804 18.2057 90.5044 18.0938C90.731 17.9792 91.0122 17.9219 91.3481 17.9219C91.7856 17.9219 92.1893 18.0365 92.5591 18.2656C92.9289 18.4922 93.2244 18.8346 93.4458 19.293C93.6672 19.7487 93.7778 20.3203 93.7778 21.0078C93.7778 21.6771 93.6698 22.2422 93.4536 22.7031C93.2401 23.1615 92.9484 23.5091 92.5786 23.7461C92.2114 23.9805 91.8 24.0977 91.3442 24.0977C91.0213 24.0977 90.7466 24.0443 90.52 23.9375C90.2961 23.8307 90.1125 23.6966 89.9692 23.5352C89.826 23.3711 89.7166 23.2057 89.6411 23.0391H89.5903V26.25H87.9263ZM89.5552 21C89.5552 21.3568 89.6047 21.668 89.7036 21.9336C89.8026 22.1992 89.9458 22.4062 90.1333 22.5547C90.3208 22.7005 90.5487 22.7734 90.8169 22.7734C91.0877 22.7734 91.3169 22.6992 91.5044 22.5508C91.6919 22.3997 91.8338 22.1914 91.9302 21.9258C92.0291 21.6576 92.0786 21.349 92.0786 21C92.0786 20.6536 92.0304 20.349 91.9341 20.0859C91.8377 19.8229 91.6958 19.6172 91.5083 19.4687C91.3208 19.3203 91.0903 19.2461 90.8169 19.2461C90.5461 19.2461 90.3169 19.3177 90.1294 19.4609C89.9445 19.6042 89.8026 19.8073 89.7036 20.0703C89.6047 20.3333 89.5552 20.6432 89.5552 21ZM94.8872 24V18H96.5513V24H94.8872ZM95.7231 17.2266C95.4757 17.2266 95.2635 17.1445 95.0864 16.9805C94.9119 16.8138 94.8247 16.6146 94.8247 16.3828C94.8247 16.1536 94.9119 15.957 95.0864 15.793C95.2635 15.6263 95.4757 15.543 95.7231 15.543C95.9705 15.543 96.1815 15.6263 96.356 15.793C96.533 15.957 96.6216 16.1536 96.6216 16.3828C96.6216 16.6146 96.533 16.8138 96.356 16.9805C96.1815 17.1445 95.9705 17.2266 95.7231 17.2266ZM100.595 24.1172C99.9806 24.1172 99.452 23.987 99.0093 23.7266C98.5692 23.4635 98.2306 23.099 97.9937 22.6328C97.7593 22.1667 97.6421 21.6302 97.6421 21.0234C97.6421 20.4089 97.7606 19.8698 97.9976 19.4062C98.2371 18.9401 98.577 18.5768 99.0171 18.3164C99.4572 18.0534 99.9806 17.9219 100.587 17.9219C101.111 17.9219 101.569 18.0169 101.962 18.207C102.356 18.3971 102.667 18.6641 102.896 19.0078C103.125 19.3516 103.251 19.7552 103.275 20.2188H101.705C101.66 19.9193 101.543 19.6784 101.353 19.4961C101.166 19.3112 100.919 19.2187 100.615 19.2187C100.357 19.2187 100.132 19.2891 99.939 19.4297C99.7489 19.5677 99.6004 19.7695 99.4937 20.0352C99.3869 20.3008 99.3335 20.6224 99.3335 21C99.3335 21.3828 99.3856 21.7083 99.4897 21.9766C99.5965 22.2448 99.7463 22.4492 99.939 22.5898C100.132 22.7305 100.357 22.8008 100.615 22.8008C100.805 22.8008 100.975 22.7617 101.126 22.6836C101.28 22.6055 101.406 22.4922 101.505 22.3437C101.607 22.1927 101.673 22.0117 101.705 21.8008H103.275C103.249 22.2591 103.124 22.6628 102.9 23.0117C102.679 23.3581 102.373 23.6289 101.982 23.8242C101.591 24.0195 101.129 24.1172 100.595 24.1172ZM105.848 22.2734L105.852 20.2773H106.094L108.016 18H109.926L107.344 21.0156H106.95L105.848 22.2734ZM104.34 24V16H106.004V24H104.34ZM108.09 24L106.325 21.3867L107.434 20.2109L110.04 24H108.09ZM113.23 24.1172C112.613 24.1172 112.082 23.9922 111.636 23.7422C111.194 23.4896 110.852 23.1328 110.613 22.6719C110.373 22.2083 110.253 21.6602 110.253 21.0273C110.253 20.4102 110.373 19.8685 110.613 19.4023C110.852 18.9362 111.19 18.5729 111.625 18.3125C112.062 18.0521 112.575 17.9219 113.164 17.9219C113.559 17.9219 113.928 17.9857 114.269 18.1133C114.613 18.2383 114.912 18.4271 115.167 18.6797C115.425 18.9323 115.626 19.25 115.769 19.6328C115.912 20.013 115.984 20.4583 115.984 20.9687V21.4258H110.917V20.3945H114.417C114.417 20.1549 114.365 19.9427 114.261 19.7578C114.157 19.5729 114.013 19.4284 113.828 19.3242C113.645 19.2174 113.433 19.1641 113.191 19.1641C112.938 19.1641 112.714 19.2227 112.519 19.3398C112.326 19.4544 112.175 19.6094 112.066 19.8047C111.957 19.9974 111.901 20.2122 111.898 20.4492V21.4297C111.898 21.7266 111.953 21.9831 112.062 22.1992C112.174 22.4154 112.332 22.582 112.535 22.6992C112.738 22.8164 112.979 22.875 113.257 22.875C113.442 22.875 113.611 22.849 113.765 22.7969C113.919 22.7448 114.05 22.6667 114.16 22.5625C114.269 22.4583 114.352 22.3307 114.41 22.1797L115.949 22.2812C115.871 22.651 115.71 22.974 115.468 23.25C115.229 23.5234 114.919 23.737 114.539 23.8906C114.161 24.0417 113.725 24.1172 113.23 24.1172ZM117.07 24V18H118.683V19.0469H118.746C118.855 18.6745 119.039 18.3932 119.296 18.2031C119.554 18.0104 119.851 17.9141 120.187 17.9141C120.27 17.9141 120.36 17.9193 120.457 17.9297C120.553 17.9401 120.638 17.9544 120.71 17.9727V19.4492C120.632 19.4258 120.524 19.4049 120.386 19.3867C120.248 19.3685 120.122 19.3594 120.007 19.3594C119.763 19.3594 119.544 19.4128 119.351 19.5195C119.161 19.6237 119.01 19.7695 118.898 19.957C118.789 20.1445 118.734 20.3607 118.734 20.6055V24H117.07Z" fill="black"/>
<g clip-path="url(#clip0_31_2356)">
<path opacity="0.3" d="M70.9165 40.6667H79.0832V39.5H70.9165V40.6667Z" fill="#FF00F5"/>
<path d="M72.0833 42.4165H73.25V43.5832H72.0833V42.4165ZM79.0833 38.3332H78.5V37.1665H77.3333V38.3332H72.6667V37.1665H71.5V38.3332H70.9167C70.2692 38.3332 69.7558 38.8582 69.7558 39.4998L69.75 47.6665C69.75 48.3082 70.2692 48.8332 70.9167 48.8332H79.0833C79.725 48.8332 80.25 48.3082 80.25 47.6665V39.4998C80.25 38.8582 79.725 38.3332 79.0833 38.3332ZM79.0833 47.6665H70.9167V41.8332H79.0833V47.6665ZM79.0833 40.6665H70.9167V39.4998H79.0833V40.6665ZM76.75 42.4165H77.9167V43.5832H76.75V42.4165ZM74.4167 42.4165H75.5833V43.5832H74.4167V42.4165Z" fill="#FF00F5"/>
</g>
<defs>
<filter id="filter0_d_31_2356" x="58" y="56" width="226" height="188" filterUnits="userSpaceOnUse" color-interpolation-filters="sRGB">
<feFlood flood-opacity="0" result="BackgroundImageFix"/>
<feColorMatrix in="SourceAlpha" type="matrix" values="0 0 0 0 0 0 0 0 0 0 0 0 0 0 0 0 0 0 127 0" result="hardAlpha"/>
<feOffset dy="2"/>
<feGaussianBlur stdDeviation="2"/>
<feComposite in2="hardAlpha" operator="out"/>
<feColorMatrix type="matrix" values="0 0 0 0 0 0 0 0 0 0 0 0 0 0 0 0 0 0 0.05 0"/>
<feBlend mode="normal" in2="BackgroundImageFix" result="effect1_dropShadow_31_2356"/>
<feBlend mode="normal" in="SourceGraphic" in2="effect1_dropShadow_31_2356" result="shape"/>
</filter>
<clipPath id="clip0_31_2356">
<rect width="14" height="14" fill="white" transform="translate(68 36)"/>
</clipPath>
</defs>
</svg>
