<svg width="100%" height="100%" viewBox="0 0 342 250" fill="none" xmlns="http://www.w3.org/2000/svg">
<rect x="0.5" y="0.5" width="341" height="249" rx="7.5" fill="white" stroke="black"/>
<rect x="341" y="27" width="26" height="340" transform="rotate(90 341 27)" fill="#BEBEBE"/>
<rect x="41" y="33" width="26.25" height="14" rx="3" fill="#FF00F5"/>
<rect x="74.25" y="33" width="26.25" height="14" rx="3" fill="#D9D9D9"/>
<rect x="107.5" y="33" width="26.25" height="14" rx="3" fill="#D9D9D9"/>
<rect x="140.75" y="33" width="26.25" height="14" rx="3" fill="#D9D9D9"/>
<rect x="274" y="33" width="26" height="14" rx="3" fill="#D9D9D9"/>
<rect x="41.5" y="113.5" width="258" height="83" rx="3.5" fill="white" stroke="black" stroke-dasharray="2 2"/>
<path d="M47.8924 77.5455H49.6051V83.7223C49.6051 84.3994 49.4451 84.9949 49.125 85.5089C48.808 86.0228 48.3617 86.4245 47.7862 86.7138C47.2107 87 46.5382 87.1431 45.7688 87.1431C44.9963 87.1431 44.3223 87 43.7468 86.7138C43.1713 86.4245 42.725 86.0228 42.408 85.5089C42.091 84.9949 41.9325 84.3994 41.9325 83.7223V77.5455H43.6452V83.5792C43.6452 83.9731 43.7314 84.324 43.9038 84.6317C44.0792 84.9395 44.3254 85.1811 44.6424 85.3565C44.9594 85.5289 45.3349 85.6151 45.7688 85.6151C46.2028 85.6151 46.5782 85.5289 46.8952 85.3565C47.2153 85.1811 47.4615 84.9395 47.6339 84.6317C47.8062 84.324 47.8924 83.9731 47.8924 83.5792V77.5455ZM56.9972 81.7834L55.4738 81.9496C55.4307 81.7957 55.3553 81.651 55.2476 81.5156C55.143 81.3802 55.0014 81.271 54.8229 81.1879C54.6444 81.1048 54.4259 81.0632 54.1673 81.0632C53.8196 81.0632 53.5272 81.1386 53.2902 81.2894C53.0563 81.4402 52.9409 81.6357 52.944 81.8757C52.9409 82.0819 53.0163 82.2496 53.1702 82.3789C53.3271 82.5082 53.5857 82.6143 53.9458 82.6974L55.1553 82.956C55.8262 83.1006 56.3248 83.3299 56.651 83.6438C56.9803 83.9577 57.1465 84.3686 57.1496 84.8764C57.1465 85.3227 57.0157 85.7166 56.7572 86.0582C56.5017 86.3968 56.1463 86.6615 55.6908 86.8523C55.2353 87.0431 54.7121 87.1385 54.1212 87.1385C53.2533 87.1385 52.5547 86.9569 52.0253 86.5938C51.4959 86.2275 51.1805 85.7182 51.0789 85.0657L52.7085 84.9087C52.7824 85.2288 52.9394 85.4704 53.1794 85.6335C53.4195 85.7966 53.7319 85.8782 54.1166 85.8782C54.5136 85.8782 54.8321 85.7966 55.0722 85.6335C55.3153 85.4704 55.4369 85.2688 55.4369 85.0288C55.4369 84.8256 55.3584 84.6579 55.2014 84.5256C55.0476 84.3932 54.8075 84.2917 54.4813 84.2209L53.2718 83.967C52.5916 83.8254 52.0884 83.5869 51.7622 83.2514C51.4359 82.9129 51.2744 82.4851 51.2774 81.968C51.2744 81.531 51.3928 81.1525 51.6329 80.8324C51.876 80.5092 52.213 80.2599 52.6439 80.0845C53.0779 79.906 53.578 79.8168 54.1443 79.8168C54.9752 79.8168 55.6292 79.9937 56.1063 80.3477C56.5864 80.7016 56.8834 81.1802 56.9972 81.7834ZM61.6668 87.1385C60.9559 87.1385 60.3419 86.9908 59.8248 86.6953C59.3109 86.3968 58.9154 85.9751 58.6384 85.4304C58.3614 84.8826 58.2229 84.2378 58.2229 83.4961C58.2229 82.7667 58.3614 82.1265 58.6384 81.5756C58.9185 81.0217 59.3093 80.5908 59.811 80.283C60.3126 79.9722 60.902 79.8168 61.5791 79.8168C62.0161 79.8168 62.4285 79.8875 62.8163 80.0291C63.2072 80.1676 63.5519 80.383 63.8504 80.6754C64.152 80.9678 64.389 81.3402 64.5613 81.7926C64.7337 82.242 64.8199 82.7775 64.8199 83.3991V83.9116H59.0077V82.7852H63.218C63.2149 82.4651 63.1456 82.1804 63.0102 81.9311C62.8748 81.6787 62.6855 81.4802 62.4424 81.3356C62.2023 81.1909 61.9223 81.1186 61.6022 81.1186C61.2606 81.1186 60.9605 81.2017 60.702 81.3679C60.4434 81.531 60.2419 81.7464 60.0972 82.0142C59.9556 82.2789 59.8833 82.5697 59.8802 82.8867V83.87C59.8802 84.2824 59.9556 84.6364 60.1064 84.9318C60.2573 85.2242 60.4681 85.4489 60.7389 85.6058C61.0097 85.7597 61.3267 85.8366 61.6899 85.8366C61.933 85.8366 62.1531 85.8028 62.3501 85.7351C62.547 85.6643 62.7178 85.5612 62.8625 85.4258C63.0071 85.2904 63.1164 85.1226 63.1903 84.9226L64.7506 85.098C64.6521 85.5104 64.4644 85.8705 64.1874 86.1783C63.9135 86.483 63.5626 86.7199 63.1349 86.8892C62.7071 87.0554 62.2177 87.1385 61.6668 87.1385ZM66.2337 87V79.9091H67.854V81.0909H67.9279C68.0572 80.6816 68.2788 80.3661 68.5927 80.1445C68.9097 79.9199 69.2713 79.8075 69.6776 79.8075C69.7699 79.8075 69.873 79.8121 69.9869 79.8214C70.1038 79.8275 70.2008 79.8383 70.2777 79.8537V81.391C70.2069 81.3664 70.0946 81.3448 69.9407 81.3263C69.7899 81.3048 69.6437 81.294 69.5021 81.294C69.1974 81.294 68.9235 81.3602 68.6804 81.4925C68.4403 81.6218 68.2511 81.8018 68.1126 82.0327C67.9741 82.2635 67.9048 82.5297 67.9048 82.8313V87H66.2337ZM76.9924 81.7834L75.4689 81.9496C75.4258 81.7957 75.3504 81.651 75.2427 81.5156C75.1381 81.3802 74.9965 81.271 74.818 81.1879C74.6395 81.1048 74.421 81.0632 74.1625 81.0632C73.8147 81.0632 73.5223 81.1386 73.2853 81.2894C73.0514 81.4402 72.936 81.6357 72.9391 81.8757C72.936 82.0819 73.0114 82.2496 73.1653 82.3789C73.3223 82.5082 73.5808 82.6143 73.9409 82.6974L75.1504 82.956C75.8213 83.1006 76.3199 83.3299 76.6461 83.6438C76.9754 83.9577 77.1416 84.3686 77.1447 84.8764C77.1416 85.3227 77.0108 85.7166 76.7523 86.0582C76.4969 86.3968 76.1414 86.6615 75.6859 86.8523C75.2304 87.0431 74.7072 87.1385 74.1163 87.1385C73.2484 87.1385 72.5498 86.9569 72.0204 86.5938C71.4911 86.2275 71.1756 85.7182 71.074 85.0657L72.7037 84.9087C72.7775 85.2288 72.9345 85.4704 73.1745 85.6335C73.4146 85.7966 73.727 85.8782 74.1117 85.8782C74.5087 85.8782 74.8272 85.7966 75.0673 85.6335C75.3104 85.4704 75.432 85.2688 75.432 85.0288C75.432 84.8256 75.3535 84.6579 75.1966 84.5256C75.0427 84.3932 74.8026 84.2917 74.4764 84.2209L73.2669 83.967C72.5867 83.8254 72.0835 83.5869 71.7573 83.2514C71.431 82.9129 71.2695 82.4851 71.2725 81.968C71.2695 81.531 71.388 81.1525 71.628 80.8324C71.8712 80.5092 72.2082 80.2599 72.639 80.0845C73.073 79.906 73.5731 79.8168 74.1394 79.8168C74.9703 79.8168 75.6243 79.9937 76.1014 80.3477C76.5815 80.7016 76.8785 81.1802 76.9924 81.7834Z" fill="black"/>
<line x1="341" y1="53.5" x2="1" y2="53.5" stroke="black"/>
<line x1="1" y1="26.5" x2="341" y2="26.5" stroke="black"/>
<rect x="41" y="6" width="15" height="15" rx="7.5" fill="#FF00F5"/>
<rect x="274" y="8" width="26" height="10" rx="4" fill="#676767"/>
<rect x="280" y="12" width="14" height="2" rx="1" fill="white"/>
<rect x="59" y="129" width="174" height="3" rx="1.5" fill="#D9D9D9"/>
<rect x="59" y="139" width="126" height="3" rx="1.5" fill="#D9D9D9"/>
<rect x="59" y="149" width="155" height="3" rx="1.5" fill="#D9D9D9"/>
<rect x="59" y="159" width="81" height="3" rx="1.5" fill="#D9D9D9"/>
<rect x="59" y="169" width="174" height="3" rx="1.5" fill="#D9D9D9"/>
<rect x="59" y="179" width="148" height="3" rx="1.5" fill="#D9D9D9"/>
</svg>
