<svg width="100%" height="100%" viewBox="0 0 342 250" fill="none" xmlns="http://www.w3.org/2000/svg">
<rect x="0.5" y="0.5" width="341" height="249" rx="7.5" fill="white" stroke="black"/>
<path d="M1 9.00001C1 4.58173 4.58172 1 9 1H333C337.418 1 341 4.58172 341 9V241C341 245.418 337.418 249 333 249H9C4.58172 249 1 245.418 1 241V9.00001Z" fill="#BEBEBE"/>
<g filter="url(#filter0_d_29_1675)">
<rect x="75" y="42" width="191" height="147" rx="4" fill="white"/>
<rect x="75.5" y="42.5" width="190" height="146" rx="3.5" stroke="black"/>
</g>
<path opacity="0.4" d="M76 47C76 44.7909 77.7909 43 80 43H261C263.209 43 265 44.7909 265 47V107H76V47Z" fill="#E1E1E1"/>
<g filter="url(#filter1_d_29_1675)">
<path d="M87.6667 125C87.6667 127.946 90.0545 130.333 93 130.333C95.9455 130.333 98.3333 127.946 98.3333 125C98.3333 122.054 95.9455 119.667 93 119.667C90.0545 119.667 87.6667 122.054 87.6667 125ZM242.667 153.099C242.667 156.044 245.054 158.432 248 158.432C250.946 158.432 253.333 156.044 253.333 153.099C253.333 150.153 250.946 147.765 248 147.765C245.054 147.765 242.667 150.153 242.667 153.099ZM220.426 138.847L219.804 138.064L220.426 138.847ZM198.001 151.009L197.579 151.915L198.001 151.009ZM206.357 150.022L205.735 149.239L206.357 150.022ZM178.532 146.735L179.146 147.524L178.532 146.735ZM186.824 145.798L187.246 144.892L186.824 145.798ZM157.838 159.224L157.63 160.202L157.838 159.224ZM164.417 157.714L163.803 156.925L164.417 157.714ZM127.634 151.969L127.02 152.758L127.634 151.969ZM92.3856 125.789L127.02 152.758L128.249 151.18L93.6144 124.211L92.3856 125.789ZM130.674 154.46L157.63 160.202L158.046 158.246L131.091 152.504L130.674 154.46ZM165.031 158.504L179.146 147.524L177.918 145.946L163.803 156.925L165.031 158.504ZM186.401 146.705L197.579 151.915L198.424 150.103L187.246 144.892L186.401 146.705ZM206.979 150.805L221.048 139.63L219.804 138.064L205.735 149.239L206.979 150.805ZM229.804 139.669L247.371 153.876L248.629 152.321L231.061 138.114L229.804 139.669ZM221.048 139.63C223.616 137.591 227.254 137.607 229.804 139.669L231.061 138.114C227.784 135.463 223.105 135.442 219.804 138.064L221.048 139.63ZM197.579 151.915C200.669 153.356 204.309 152.926 206.979 150.805L205.735 149.239C203.658 150.889 200.828 151.223 198.424 150.103L197.579 151.915ZM179.146 147.524C181.219 145.911 184.021 145.595 186.401 146.705L187.246 144.892C184.185 143.465 180.583 143.872 177.918 145.946L179.146 147.524ZM157.63 160.202C160.227 160.756 162.935 160.134 165.031 158.504L163.803 156.925C162.173 158.193 160.066 158.677 158.046 158.246L157.63 160.202ZM127.02 152.758C128.094 153.594 129.343 154.176 130.674 154.46L131.091 152.504C130.056 152.283 129.084 151.831 128.249 151.18L127.02 152.758Z" fill="#FF00F5"/>
</g>
<g filter="url(#filter2_d_29_1675)">
<path d="M90.8333 143C90.8333 144.473 92.0272 145.667 93.5 145.667C94.9728 145.667 96.1667 144.473 96.1667 143C96.1667 141.527 94.9728 140.333 93.5 140.333C92.0272 140.333 90.8333 141.527 90.8333 143ZM246.333 170C246.333 171.473 247.527 172.667 249 172.667C250.473 172.667 251.667 171.473 251.667 170C251.667 168.527 250.473 167.333 249 167.333C247.527 167.333 246.333 168.527 246.333 170ZM101 156.847L100.561 157.085L101 156.847ZM114.074 158.283L113.696 157.955L114.074 158.283ZM215.968 136.162L215.61 136.511L215.968 136.162ZM192.676 142.114L192.442 142.555L192.676 142.114ZM171.851 140.378L172.299 140.6L171.851 140.378ZM149.014 171.813L148.559 172.019L149.014 171.813ZM156.242 171.934L155.794 171.712L156.242 171.934ZM138.149 147.853L137.693 148.06L138.149 147.853ZM137.693 148.06L148.559 172.019L149.469 171.606L138.604 147.647L137.693 148.06ZM156.69 172.156L172.299 140.6L171.402 140.156L155.794 171.712L156.69 172.156ZM182.537 137.3L192.442 142.555L192.91 141.672L183.005 136.416L182.537 137.3ZM215.61 136.511L248.642 170.349L249.358 169.651L216.326 135.813L215.61 136.511ZM93.0604 143.238L100.561 157.085L101.44 156.608L93.9396 142.762L93.0604 143.238ZM114.451 158.611L125.201 146.238L124.446 145.582L113.696 157.955L114.451 158.611ZM100.561 157.085C103.388 162.304 110.558 163.092 114.451 158.611L113.696 157.955C110.261 161.909 103.934 161.214 101.44 156.608L100.561 157.085ZM203.824 138.626C205.901 133.954 212.038 132.853 215.61 136.511L216.326 135.813C212.26 131.648 205.274 132.902 202.91 138.22L203.824 138.626ZM192.442 142.555C196.657 144.792 201.886 142.988 203.824 138.626L202.91 138.22C201.208 142.052 196.614 143.637 192.91 141.672L192.442 142.555ZM172.299 140.6C174.172 136.812 178.804 135.319 182.537 137.3L183.005 136.416C178.775 134.172 173.526 135.864 171.402 140.156L172.299 140.6ZM148.559 172.019C150.126 175.477 155.007 175.559 156.69 172.156L155.794 171.712C154.485 174.359 150.689 174.295 149.469 171.606L148.559 172.019ZM138.604 147.647C136.046 142.006 128.508 140.907 124.446 145.582L125.201 146.238C128.785 142.113 135.436 143.083 137.693 148.06L138.604 147.647Z" fill="#676767"/>
</g>
<rect x="130" y="67" width="50" height="8" rx="3" fill="#676767"/>
<rect opacity="0.8" x="130" y="79" width="73" height="5" rx="2.5" fill="#D9D9D9"/>
<g filter="url(#filter3_d_29_1675)">
<rect x="89" y="61" width="29" height="29" rx="4" fill="white"/>
<rect x="89.5" y="61.5" width="28" height="28" rx="3.5" stroke="black"/>
</g>
<defs>
<filter id="filter0_d_29_1675" x="71" y="40" width="199" height="155" filterUnits="userSpaceOnUse" color-interpolation-filters="sRGB">
<feFlood flood-opacity="0" result="BackgroundImageFix"/>
<feColorMatrix in="SourceAlpha" type="matrix" values="0 0 0 0 0 0 0 0 0 0 0 0 0 0 0 0 0 0 127 0" result="hardAlpha"/>
<feOffset dy="2"/>
<feGaussianBlur stdDeviation="2"/>
<feComposite in2="hardAlpha" operator="out"/>
<feColorMatrix type="matrix" values="0 0 0 0 0 0 0 0 0 0 0 0 0 0 0 0 0 0 0.05 0"/>
<feBlend mode="normal" in2="BackgroundImageFix" result="effect1_dropShadow_29_1675"/>
<feBlend mode="normal" in="SourceGraphic" in2="effect1_dropShadow_29_1675" result="shape"/>
</filter>
<filter id="filter1_d_29_1675" x="87.6665" y="117.667" width="168.667" height="42.7334" filterUnits="userSpaceOnUse" color-interpolation-filters="sRGB">
<feFlood flood-opacity="0" result="BackgroundImageFix"/>
<feColorMatrix in="SourceAlpha" type="matrix" values="0 0 0 0 0 0 0 0 0 0 0 0 0 0 0 0 0 0 127 0" result="hardAlpha"/>
<feOffset dx="2" dy="-1"/>
<feGaussianBlur stdDeviation="0.5"/>
<feComposite in2="hardAlpha" operator="out"/>
<feColorMatrix type="matrix" values="0 0 0 0 0 0 0 0 0 0 0 0 0 0 0 0 0 0 0.05 0"/>
<feBlend mode="normal" in2="BackgroundImageFix" result="effect1_dropShadow_29_1675"/>
<feBlend mode="normal" in="SourceGraphic" in2="effect1_dropShadow_29_1675" result="shape"/>
</filter>
<filter id="filter2_d_29_1675" x="90.8335" y="131.329" width="163.833" height="43.3315" filterUnits="userSpaceOnUse" color-interpolation-filters="sRGB">
<feFlood flood-opacity="0" result="BackgroundImageFix"/>
<feColorMatrix in="SourceAlpha" type="matrix" values="0 0 0 0 0 0 0 0 0 0 0 0 0 0 0 0 0 0 127 0" result="hardAlpha"/>
<feOffset dx="2" dy="-1"/>
<feGaussianBlur stdDeviation="0.5"/>
<feComposite in2="hardAlpha" operator="out"/>
<feColorMatrix type="matrix" values="0 0 0 0 0 0 0 0 0 0 0 0 0 0 0 0 0 0 0.05 0"/>
<feBlend mode="normal" in2="BackgroundImageFix" result="effect1_dropShadow_29_1675"/>
<feBlend mode="normal" in="SourceGraphic" in2="effect1_dropShadow_29_1675" result="shape"/>
</filter>
<filter id="filter3_d_29_1675" x="85" y="59" width="37" height="37" filterUnits="userSpaceOnUse" color-interpolation-filters="sRGB">
<feFlood flood-opacity="0" result="BackgroundImageFix"/>
<feColorMatrix in="SourceAlpha" type="matrix" values="0 0 0 0 0 0 0 0 0 0 0 0 0 0 0 0 0 0 127 0" result="hardAlpha"/>
<feOffset dy="2"/>
<feGaussianBlur stdDeviation="2"/>
<feComposite in2="hardAlpha" operator="out"/>
<feColorMatrix type="matrix" values="0 0 0 0 0 0 0 0 0 0 0 0 0 0 0 0 0 0 0.05 0"/>
<feBlend mode="normal" in2="BackgroundImageFix" result="effect1_dropShadow_29_1675"/>
<feBlend mode="normal" in="SourceGraphic" in2="effect1_dropShadow_29_1675" result="shape"/>
</filter>
</defs>
</svg>
