<svg width="100%" height="100%" viewBox="0 0 342 250" fill="none" xmlns="http://www.w3.org/2000/svg">
<rect x="0.5" y="0.5" width="341" height="249" rx="7.5" fill="white" stroke="black"/>
<rect x="341" y="27" width="59" height="340" transform="rotate(90 341 27)" fill="#BEBEBE"/>
<g opacity="0.3">
<rect x="65" y="11" width="26.25" height="6" rx="3" fill="#FF00F5"/>
<rect x="98.25" y="11" width="26.25" height="6" rx="3" fill="#D9D9D9"/>
<rect x="131.5" y="11" width="26.25" height="6" rx="3" fill="#D9D9D9"/>
<rect x="164.75" y="11" width="26.25" height="6" rx="3" fill="#D9D9D9"/>
</g>
<rect x="41.5" y="105.5" width="258" height="122" rx="3.5" fill="white" stroke="black" stroke-dasharray="2 2"/>
<path d="M43.1467 53H41.3185L44.647 43.5455H46.7614L50.0945 53H48.2663L45.7411 45.4844H45.6673L43.1467 53ZM43.2067 49.293H48.1925V50.6687H43.2067V49.293ZM52.9371 48.8452V53H51.2659V45.9091H52.8632V47.114H52.9463C53.1094 46.717 53.3695 46.4015 53.7265 46.1676C54.0866 45.9337 54.5313 45.8168 55.0606 45.8168C55.55 45.8168 55.9762 45.9214 56.3394 46.1307C56.7056 46.34 56.9888 46.6431 57.1888 47.0401C57.392 47.4371 57.492 47.9188 57.4889 48.4851V53H55.8177V48.7436C55.8177 48.2696 55.6946 47.8988 55.4484 47.631C55.2053 47.3633 54.8683 47.2294 54.4374 47.2294C54.145 47.2294 53.885 47.294 53.6572 47.4233C53.4326 47.5495 53.2556 47.7326 53.1263 47.9727C53.0001 48.2127 52.9371 48.5036 52.9371 48.8452ZM61.2282 53.1431C60.7789 53.1431 60.3742 53.0631 60.0141 52.9031C59.6571 52.7399 59.374 52.4999 59.1647 52.1829C58.9585 51.8659 58.8554 51.475 58.8554 51.0103C58.8554 50.6102 58.9292 50.2794 59.077 50.0178C59.2247 49.7562 59.4263 49.5469 59.6817 49.3899C59.9372 49.233 60.2249 49.1145 60.545 49.0344C60.8682 48.9513 61.2021 48.8913 61.5468 48.8544C61.9623 48.8113 62.2993 48.7728 62.5578 48.739C62.8163 48.7021 63.0041 48.6467 63.121 48.5728C63.241 48.4959 63.301 48.3774 63.301 48.2173V48.1896C63.301 47.8419 63.1979 47.5726 62.9917 47.3817C62.7855 47.1909 62.4885 47.0955 62.1008 47.0955C61.6914 47.0955 61.3667 47.1848 61.1267 47.3633C60.8897 47.5418 60.7297 47.7526 60.6466 47.9957L59.0862 47.7741C59.2093 47.3433 59.4124 46.9832 59.6956 46.6939C59.9787 46.4015 60.325 46.183 60.7343 46.0384C61.1436 45.8906 61.596 45.8168 62.0915 45.8168C62.4332 45.8168 62.7732 45.8568 63.1118 45.9368C63.4503 46.0168 63.7596 46.1491 64.0397 46.3338C64.3198 46.5154 64.5444 46.7631 64.7137 47.0771C64.886 47.391 64.9722 47.7834 64.9722 48.2543V53H63.3657V52.0259H63.3103C63.2087 52.2229 63.0656 52.4076 62.8809 52.5799C62.6994 52.7492 62.4701 52.8861 62.1931 52.9908C61.9192 53.0923 61.5976 53.1431 61.2282 53.1431ZM61.6622 51.9151C61.9977 51.9151 62.2885 51.849 62.5347 51.7166C62.7809 51.5812 62.9702 51.4027 63.1025 51.1811C63.238 50.9595 63.3057 50.7179 63.3057 50.4563V49.6207C63.2533 49.6638 63.1641 49.7038 63.0379 49.7408C62.9148 49.7777 62.7763 49.81 62.6224 49.8377C62.4685 49.8654 62.3162 49.89 62.1654 49.9116C62.0146 49.9331 61.8838 49.9516 61.773 49.967C61.5237 50.0008 61.3006 50.0562 61.1036 50.1332C60.9066 50.2101 60.7512 50.3178 60.6373 50.4563C60.5235 50.5917 60.4665 50.7672 60.4665 50.9826C60.4665 51.2904 60.5789 51.5227 60.8035 51.6797C61.0282 51.8366 61.3144 51.9151 61.6622 51.9151ZM68.3238 43.5455V53H66.6526V43.5455H68.3238ZM71.081 55.6591C70.8532 55.6591 70.6424 55.6406 70.4485 55.6037C70.2577 55.5698 70.1054 55.5298 69.9915 55.4837L70.3793 54.1818C70.6224 54.2526 70.8394 54.2865 71.0302 54.2834C71.221 54.2803 71.3887 54.2203 71.5334 54.1033C71.6811 53.9895 71.8058 53.7987 71.9073 53.5309L72.0504 53.1477L69.479 45.9091H71.2518L72.886 51.2642H72.9599L74.5987 45.9091H76.3761L73.5369 53.8587C73.4046 54.2341 73.2292 54.5558 73.0107 54.8235C72.7921 55.0943 72.5244 55.3005 72.2074 55.4421C71.8935 55.5868 71.518 55.6591 71.081 55.6591ZM81.0733 45.9091V47.2017H76.997V45.9091H81.0733ZM78.0034 44.2102H79.6745V50.8672C79.6745 51.0919 79.7084 51.2642 79.7761 51.3842C79.8469 51.5012 79.9392 51.5812 80.0531 51.6243C80.167 51.6674 80.2931 51.6889 80.4316 51.6889C80.5363 51.6889 80.6317 51.6812 80.7179 51.6658C80.8071 51.6504 80.8748 51.6366 80.921 51.6243L81.2026 52.9308C81.1133 52.9615 80.9856 52.9954 80.8194 53.0323C80.6563 53.0692 80.4563 53.0908 80.2193 53.0969C79.8007 53.1093 79.4237 53.0462 79.0882 52.9077C78.7528 52.7661 78.4866 52.5476 78.2896 52.2521C78.0957 51.9567 78.0003 51.5874 78.0034 51.1442V44.2102ZM82.471 53V45.9091H84.1421V53H82.471ZM83.3112 44.9027C83.0465 44.9027 82.8187 44.815 82.6279 44.6396C82.4371 44.4611 82.3417 44.2472 82.3417 43.9979C82.3417 43.7455 82.4371 43.5316 82.6279 43.3562C82.8187 43.1777 83.0465 43.0884 83.3112 43.0884C83.5789 43.0884 83.8067 43.1777 83.9944 43.3562C84.1852 43.5316 84.2806 43.7455 84.2806 43.9979C84.2806 44.2472 84.1852 44.4611 83.9944 44.6396C83.8067 44.815 83.5789 44.9027 83.3112 44.9027ZM88.9537 53.1385C88.2458 53.1385 87.638 52.9831 87.1301 52.6722C86.6254 52.3614 86.2361 51.9321 85.9622 51.3842C85.6913 50.8333 85.5559 50.1993 85.5559 49.4822C85.5559 48.7621 85.6944 48.1265 85.9714 47.5756C86.2484 47.0217 86.6393 46.5908 87.144 46.283C87.6518 45.9722 88.252 45.8168 88.9444 45.8168C89.5199 45.8168 90.0293 45.9229 90.4725 46.1353C90.9187 46.3446 91.2742 46.6416 91.5389 47.0263C91.8036 47.4079 91.9544 47.8542 91.9913 48.3651H90.394C90.3294 48.0234 90.1755 47.7388 89.9324 47.511C89.6923 47.2802 89.3707 47.1648 88.9675 47.1648C88.6259 47.1648 88.3258 47.2571 88.0673 47.4418C87.8088 47.6233 87.6072 47.8849 87.4625 48.2266C87.321 48.5682 87.2502 48.9775 87.2502 49.4545C87.2502 49.9377 87.321 50.3532 87.4625 50.701C87.6041 51.0457 87.8026 51.3119 88.0581 51.4996C88.3166 51.6843 88.6197 51.7766 88.9675 51.7766C89.2137 51.7766 89.4338 51.7305 89.6277 51.6381C89.8246 51.5427 89.9893 51.4058 90.1216 51.2273C90.254 51.0488 90.3448 50.8318 90.394 50.5763H91.9913C91.9513 51.078 91.8036 51.5227 91.5481 51.9105C91.2927 52.2952 90.9449 52.5968 90.5048 52.8153C90.0647 53.0308 89.5476 53.1385 88.9537 53.1385ZM98.968 47.7834L97.4445 47.9496C97.4014 47.7957 97.326 47.651 97.2183 47.5156C97.1137 47.3802 96.9721 47.271 96.7936 47.1879C96.6151 47.1048 96.3966 47.0632 96.1381 47.0632C95.7903 47.0632 95.4979 47.1386 95.2609 47.2894C95.027 47.4402 94.9116 47.6357 94.9147 47.8757C94.9116 48.0819 94.987 48.2496 95.1409 48.3789C95.2979 48.5082 95.5564 48.6143 95.9165 48.6974L97.126 48.956C97.7969 49.1006 98.2955 49.3299 98.6217 49.6438C98.951 49.9577 99.1172 50.3686 99.1203 50.8764C99.1172 51.3227 98.9864 51.7166 98.7279 52.0582C98.4724 52.3968 98.117 52.6615 97.6615 52.8523C97.206 53.0431 96.6828 53.1385 96.0919 53.1385C95.224 53.1385 94.5254 52.9569 93.996 52.5938C93.4666 52.2275 93.1512 51.7182 93.0496 51.0657L94.6792 50.9087C94.7531 51.2288 94.9101 51.4704 95.1501 51.6335C95.3902 51.7966 95.7026 51.8782 96.0873 51.8782C96.4843 51.8782 96.8028 51.7966 97.0429 51.6335C97.286 51.4704 97.4076 51.2688 97.4076 51.0288C97.4076 50.8256 97.3291 50.6579 97.1721 50.5256C97.0183 50.3932 96.7782 50.2917 96.452 50.2209L95.2425 49.967C94.5623 49.8254 94.0591 49.5869 93.7329 49.2514C93.4066 48.9129 93.2451 48.4851 93.2481 47.968C93.2451 47.531 93.3635 47.1525 93.6036 46.8324C93.8467 46.5092 94.1837 46.2599 94.6146 46.0845C95.0486 45.906 95.5487 45.8168 96.115 45.8168C96.9459 45.8168 97.5999 45.9937 98.077 46.3477C98.5571 46.7016 98.8541 47.1802 98.968 47.7834Z" fill="black"/>
<path opacity="0.6" d="M41.3977 62.8317V61.7273H47.2003V62.8317H44.9524V69H43.6456V62.8317H41.3977ZM49.5476 65.804V69H48.2621V61.7273H49.5192V64.4723H49.5831C49.7109 64.1645 49.9086 63.9219 50.1761 63.7443C50.446 63.5644 50.7893 63.4744 51.206 63.4744C51.5848 63.4744 51.915 63.5537 52.1967 63.7124C52.4785 63.871 52.6963 64.103 52.8501 64.4084C53.0064 64.7138 53.0845 65.0866 53.0845 65.527V69H51.799V65.7259C51.799 65.3589 51.7043 65.0736 51.5149 64.87C51.3279 64.6641 51.0651 64.5611 50.7266 64.5611C50.4993 64.5611 50.2957 64.6108 50.1158 64.7102C49.9382 64.8073 49.7985 64.9482 49.6967 65.1328C49.5973 65.3175 49.5476 65.5412 49.5476 65.804ZM54.3949 69V63.5455H55.6804V69H54.3949ZM55.0412 62.7713C54.8376 62.7713 54.6624 62.7038 54.5156 62.5689C54.3688 62.4316 54.2955 62.267 54.2955 62.0753C54.2955 61.8812 54.3688 61.7166 54.5156 61.5817C54.6624 61.4444 54.8376 61.3757 55.0412 61.3757C55.2472 61.3757 55.4223 61.4444 55.5668 61.5817C55.7135 61.7166 55.7869 61.8812 55.7869 62.0753C55.7869 62.267 55.7135 62.4316 55.5668 62.5689C55.4223 62.7038 55.2472 62.7713 55.0412 62.7713ZM61.3134 64.9872L60.1415 65.1151C60.1084 64.9967 60.0504 64.8854 59.9675 64.7812C59.887 64.6771 59.7781 64.593 59.6408 64.5291C59.5035 64.4652 59.3354 64.4332 59.1365 64.4332C58.869 64.4332 58.6441 64.4912 58.4618 64.6072C58.2819 64.7232 58.1931 64.8736 58.1955 65.0582C58.1931 65.2169 58.2511 65.3459 58.3695 65.4453C58.4902 65.5447 58.6891 65.6264 58.9661 65.6903L59.8965 65.8892C60.4126 66.0005 60.7961 66.1768 61.0471 66.4183C61.3004 66.6598 61.4282 66.9759 61.4306 67.3665C61.4282 67.7098 61.3276 68.0128 61.1287 68.2756C60.9322 68.536 60.6588 68.7396 60.3084 68.8864C59.958 69.0331 59.5556 69.1065 59.101 69.1065C58.4334 69.1065 57.896 68.9669 57.4888 68.6875C57.0816 68.4058 56.839 68.014 56.7608 67.5121L58.0144 67.3913C58.0712 67.6375 58.1919 67.8234 58.3766 67.9489C58.5613 68.0743 58.8016 68.1371 59.0975 68.1371C59.4029 68.1371 59.6479 68.0743 59.8326 67.9489C60.0196 67.8234 60.1131 67.6683 60.1131 67.4837C60.1131 67.3274 60.0527 67.1984 59.932 67.0966C59.8136 66.9948 59.629 66.9167 59.378 66.8622L58.4476 66.6669C57.9244 66.558 57.5373 66.3745 57.2864 66.1165C57.0355 65.8561 56.9112 65.527 56.9135 65.1293C56.9112 64.7931 57.0023 64.5019 57.187 64.2557C57.374 64.0071 57.6332 63.8153 57.9647 63.6804C58.2985 63.5431 58.6832 63.4744 59.1188 63.4744C59.758 63.4744 60.2611 63.6106 60.628 63.8828C60.9973 64.1551 61.2258 64.5232 61.3134 64.9872ZM64.9711 69V63.5455H66.2566V69H64.9711ZM65.6174 62.7713C65.4138 62.7713 65.2386 62.7038 65.0918 62.5689C64.945 62.4316 64.8716 62.267 64.8716 62.0753C64.8716 61.8812 64.945 61.7166 65.0918 61.5817C65.2386 61.4444 65.4138 61.3757 65.6174 61.3757C65.8233 61.3757 65.9985 61.4444 66.1429 61.5817C66.2897 61.7166 66.3631 61.8812 66.3631 62.0753C66.3631 62.267 66.2897 62.4316 66.1429 62.5689C65.9985 62.7038 65.8233 62.7713 65.6174 62.7713ZM71.8896 64.9872L70.7177 65.1151C70.6845 64.9967 70.6265 64.8854 70.5437 64.7812C70.4632 64.6771 70.3543 64.593 70.217 64.5291C70.0797 64.4652 69.9116 64.4332 69.7127 64.4332C69.4452 64.4332 69.2203 64.4912 69.038 64.6072C68.8581 64.7232 68.7693 64.8736 68.7717 65.0582C68.7693 65.2169 68.8273 65.3459 68.9457 65.4453C69.0664 65.5447 69.2653 65.6264 69.5423 65.6903L70.4727 65.8892C70.9888 66.0005 71.3723 66.1768 71.6232 66.4183C71.8765 66.6598 72.0044 66.9759 72.0067 67.3665C72.0044 67.7098 71.9038 68.0128 71.7049 68.2756C71.5084 68.536 71.235 68.7396 70.8846 68.8864C70.5342 69.0331 70.1317 69.1065 69.6772 69.1065C69.0096 69.1065 68.4722 68.9669 68.065 68.6875C67.6578 68.4058 67.4151 68.014 67.337 67.5121L68.5906 67.3913C68.6474 67.6375 68.7681 67.8234 68.9528 67.9489C69.1374 68.0743 69.3777 68.1371 69.6737 68.1371C69.979 68.1371 70.2241 68.0743 70.4087 67.9489C70.5958 67.8234 70.6893 67.6683 70.6893 67.4837C70.6893 67.3274 70.6289 67.1984 70.5082 67.0966C70.3898 66.9948 70.2051 66.9167 69.9542 66.8622L69.0238 66.6669C68.5006 66.558 68.1135 66.3745 67.8626 66.1165C67.6116 65.8561 67.4873 65.527 67.4897 65.1293C67.4873 64.7931 67.5785 64.5019 67.7631 64.2557C67.9502 64.0071 68.2094 63.8153 68.5408 63.6804C68.8746 63.5431 69.2594 63.4744 69.695 63.4744C70.3342 63.4744 70.8372 63.6106 71.2042 63.8828C71.5735 64.1551 71.802 64.5232 71.8896 64.9872ZM77.1168 69.1101C76.7712 69.1101 76.4599 69.0485 76.1829 68.9254C75.9083 68.8 75.6905 68.6153 75.5295 68.3714C75.3709 68.1276 75.2915 67.8269 75.2915 67.4695C75.2915 67.1617 75.3484 66.9072 75.462 66.706C75.5756 66.5047 75.7307 66.3438 75.9272 66.223C76.1237 66.1023 76.3451 66.0111 76.5913 65.9496C76.8398 65.8857 77.0967 65.8395 77.3619 65.8111C77.6815 65.7779 77.9407 65.7483 78.1396 65.7223C78.3384 65.6939 78.4828 65.6513 78.5728 65.5945C78.6651 65.5353 78.7113 65.4441 78.7113 65.321V65.2997C78.7113 65.0322 78.632 64.825 78.4734 64.6783C78.3147 64.5315 78.0863 64.4581 77.788 64.4581C77.4731 64.4581 77.2234 64.5268 77.0387 64.6641C76.8564 64.8014 76.7333 64.9635 76.6694 65.1506L75.4691 64.9801C75.5638 64.6487 75.7201 64.3717 75.9379 64.1491C76.1557 63.9242 76.422 63.7562 76.7369 63.6449C77.0517 63.5312 77.3997 63.4744 77.7809 63.4744C78.0437 63.4744 78.3053 63.5052 78.5657 63.5668C78.8261 63.6283 79.064 63.7301 79.2795 63.8722C79.4949 64.0118 79.6677 64.2024 79.7979 64.4439C79.9305 64.6854 79.9968 64.9872 79.9968 65.3494V69H78.761V68.2507H78.7184C78.6403 68.4022 78.5302 68.5443 78.3881 68.6768C78.2485 68.8071 78.0721 68.9124 77.859 68.9929C77.6483 69.071 77.4009 69.1101 77.1168 69.1101ZM77.4506 68.1655C77.7087 68.1655 77.9324 68.1146 78.1218 68.0128C78.3112 67.9086 78.4568 67.7713 78.5586 67.6009C78.6628 67.4304 78.7148 67.2446 78.7148 67.0433V66.4006C78.6746 66.4337 78.6059 66.4645 78.5089 66.4929C78.4142 66.5213 78.3076 66.5462 78.1893 66.5675C78.0709 66.5888 77.9537 66.6077 77.8377 66.6243C77.7217 66.6409 77.6211 66.6551 77.5359 66.6669C77.3441 66.6929 77.1725 66.7356 77.021 66.7947C76.8694 66.8539 76.7499 66.9368 76.6623 67.0433C76.5747 67.1475 76.5309 67.2824 76.5309 67.4482C76.5309 67.6849 76.6173 67.8636 76.7901 67.9844C76.9629 68.1051 77.1831 68.1655 77.4506 68.1655ZM85.0554 65.804V69H83.7699V61.7273H85.027V64.4723H85.0909C85.2188 64.1645 85.4164 63.9219 85.6839 63.7443C85.9538 63.5644 86.2971 63.4744 86.7138 63.4744C87.0926 63.4744 87.4228 63.5537 87.7045 63.7124C87.9863 63.871 88.2041 64.103 88.358 64.4084C88.5142 64.7138 88.5923 65.0866 88.5923 65.527V69H87.3068V65.7259C87.3068 65.3589 87.2121 65.0736 87.0227 64.87C86.8357 64.6641 86.5729 64.5611 86.2344 64.5611C86.0071 64.5611 85.8035 64.6108 85.6236 64.7102C85.446 64.8073 85.3063 64.9482 85.2045 65.1328C85.1051 65.3175 85.0554 65.5412 85.0554 65.804ZM92.3175 69.1065C91.7706 69.1065 91.2983 68.9929 90.9006 68.7656C90.5052 68.536 90.201 68.2116 89.9879 67.7926C89.7749 67.3712 89.6683 66.8752 89.6683 66.3047C89.6683 65.7436 89.7749 65.2512 89.9879 64.8274C90.2034 64.4013 90.504 64.0698 90.8899 63.8331C91.2758 63.594 91.7292 63.4744 92.25 63.4744C92.5862 63.4744 92.9034 63.5289 93.2017 63.6378C93.5024 63.7443 93.7675 63.91 93.9972 64.1349C94.2292 64.3598 94.4115 64.6463 94.544 64.9943C94.6766 65.34 94.7429 65.7519 94.7429 66.2301V66.6243H90.272V65.7578H93.5107C93.5083 65.5116 93.455 65.2926 93.3509 65.1009C93.2467 64.9067 93.1011 64.754 92.9141 64.6428C92.7294 64.5315 92.514 64.4759 92.2678 64.4759C92.005 64.4759 91.7741 64.5398 91.5753 64.6676C91.3764 64.7931 91.2214 64.9588 91.1101 65.1648C91.0012 65.3684 90.9455 65.5921 90.9432 65.8359V66.5923C90.9432 66.9096 91.0012 67.1818 91.1172 67.4091C91.2332 67.634 91.3954 67.8068 91.6037 67.9276C91.812 68.0459 92.0559 68.1051 92.3352 68.1051C92.5223 68.1051 92.6915 68.0791 92.843 68.027C92.9946 67.9725 93.1259 67.8932 93.2372 67.7891C93.3485 67.6849 93.4325 67.5559 93.4893 67.402L94.6896 67.5369C94.6139 67.8542 94.4695 68.1312 94.2564 68.3679C94.0457 68.6023 93.7758 68.7846 93.4467 68.9148C93.1177 69.0426 92.7412 69.1065 92.3175 69.1065ZM97.4 69.1101C97.0544 69.1101 96.7431 69.0485 96.4661 68.9254C96.1915 68.8 95.9737 68.6153 95.8127 68.3714C95.6541 68.1276 95.5748 67.8269 95.5748 67.4695C95.5748 67.1617 95.6316 66.9072 95.7452 66.706C95.8588 66.5047 96.0139 66.3438 96.2104 66.223C96.4069 66.1023 96.6283 66.0111 96.8745 65.9496C97.123 65.8857 97.3799 65.8395 97.6451 65.8111C97.9647 65.7779 98.2239 65.7483 98.4228 65.7223C98.6216 65.6939 98.766 65.6513 98.856 65.5945C98.9483 65.5353 98.9945 65.4441 98.9945 65.321V65.2997C98.9945 65.0322 98.9152 64.825 98.7566 64.6783C98.598 64.5315 98.3695 64.4581 98.0712 64.4581C97.7563 64.4581 97.5066 64.5268 97.3219 64.6641C97.1396 64.8014 97.0165 64.9635 96.9526 65.1506L95.7523 64.9801C95.847 64.6487 96.0033 64.3717 96.2211 64.1491C96.4389 63.9242 96.7052 63.7562 97.0201 63.6449C97.3349 63.5312 97.6829 63.4744 98.0641 63.4744C98.3269 63.4744 98.5885 63.5052 98.8489 63.5668C99.1093 63.6283 99.3472 63.7301 99.5627 63.8722C99.7781 64.0118 99.9509 64.2024 100.081 64.4439C100.214 64.6854 100.28 64.9872 100.28 65.3494V69H99.0442V68.2507H99.0016C98.9235 68.4022 98.8134 68.5443 98.6713 68.6768C98.5317 68.8071 98.3553 68.9124 98.1422 68.9929C97.9315 69.071 97.6841 69.1101 97.4 69.1101ZM97.7338 68.1655C97.9919 68.1655 98.2156 68.1146 98.405 68.0128C98.5944 67.9086 98.74 67.7713 98.8418 67.6009C98.946 67.4304 98.998 67.2446 98.998 67.0433V66.4006C98.9578 66.4337 98.8891 66.4645 98.7921 66.4929C98.6974 66.5213 98.5908 66.5462 98.4725 66.5675C98.3541 66.5888 98.2369 66.6077 98.1209 66.6243C98.0049 66.6409 97.9043 66.6551 97.8191 66.6669C97.6273 66.6929 97.4557 66.7356 97.3042 66.7947C97.1526 66.8539 97.0331 66.9368 96.9455 67.0433C96.8579 67.1475 96.8141 67.2824 96.8141 67.4482C96.8141 67.6849 96.9005 67.8636 97.0733 67.9844C97.2462 68.1051 97.4663 68.1655 97.7338 68.1655ZM103.597 69.0959C103.168 69.0959 102.785 68.9858 102.446 68.7656C102.108 68.5455 101.84 68.2259 101.644 67.8068C101.447 67.3878 101.349 66.8788 101.349 66.2798C101.349 65.6738 101.448 65.1624 101.647 64.7457C101.848 64.3267 102.119 64.0107 102.46 63.7976C102.801 63.5821 103.181 63.4744 103.6 63.4744C103.92 63.4744 104.183 63.5289 104.389 63.6378C104.595 63.7443 104.758 63.8733 104.879 64.0249C104.999 64.174 105.093 64.3149 105.159 64.4474H105.213V61.7273H106.502V69H105.237V68.1406H105.159C105.093 68.2732 104.997 68.4141 104.872 68.5632C104.746 68.71 104.58 68.8355 104.374 68.9396C104.169 69.0438 103.909 69.0959 103.597 69.0959ZM103.955 68.0412C104.228 68.0412 104.46 67.9678 104.651 67.821C104.843 67.6719 104.989 67.4647 105.088 67.1996C105.188 66.9344 105.237 66.6255 105.237 66.2727C105.237 65.92 105.188 65.6134 105.088 65.353C104.991 65.0926 104.847 64.8902 104.655 64.7457C104.466 64.6013 104.232 64.5291 103.955 64.5291C103.669 64.5291 103.43 64.6037 103.238 64.7528C103.046 64.902 102.902 65.108 102.805 65.3707C102.708 65.6335 102.659 65.9342 102.659 66.2727C102.659 66.6136 102.708 66.9179 102.805 67.1854C102.904 67.4505 103.05 67.66 103.242 67.8139C103.436 67.9654 103.674 68.0412 103.955 68.0412ZM107.871 69V63.5455H109.157V69H107.871ZM108.518 62.7713C108.314 62.7713 108.139 62.7038 107.992 62.5689C107.845 62.4316 107.772 62.267 107.772 62.0753C107.772 61.8812 107.845 61.7166 107.992 61.5817C108.139 61.4444 108.314 61.3757 108.518 61.3757C108.724 61.3757 108.899 61.4444 109.043 61.5817C109.19 61.7166 109.263 61.8812 109.263 62.0753C109.263 62.267 109.19 62.4316 109.043 62.5689C108.899 62.7038 108.724 62.7713 108.518 62.7713ZM111.764 65.804V69H110.479V63.5455H111.708V64.4723H111.771C111.897 64.1669 112.097 63.9242 112.372 63.7443C112.649 63.5644 112.991 63.4744 113.398 63.4744C113.774 63.4744 114.102 63.5549 114.382 63.7159C114.663 63.8769 114.881 64.1101 115.035 64.4155C115.191 64.7209 115.268 65.0914 115.266 65.527V69H113.98V65.7259C113.98 65.3613 113.886 65.076 113.696 64.87C113.509 64.6641 113.25 64.5611 112.919 64.5611C112.694 64.5611 112.494 64.6108 112.318 64.7102C112.146 64.8073 112.009 64.9482 111.91 65.1328C111.813 65.3175 111.764 65.5412 111.764 65.804ZM118.945 71.1591C118.483 71.1591 118.087 71.0964 117.755 70.9709C117.424 70.8478 117.157 70.6821 116.956 70.4737C116.755 70.2654 116.615 70.0346 116.537 69.7812L117.695 69.5007C117.747 69.6072 117.823 69.7126 117.922 69.8168C118.021 69.9233 118.155 70.0109 118.323 70.0795C118.494 70.1506 118.708 70.1861 118.966 70.1861C119.331 70.1861 119.633 70.0973 119.872 69.9197C120.111 69.7446 120.23 69.4557 120.23 69.0533V68.0199H120.166C120.1 68.1525 120.003 68.2886 119.875 68.4283C119.75 68.5679 119.583 68.6851 119.374 68.7798C119.169 68.8745 118.909 68.9219 118.597 68.9219C118.178 68.9219 117.798 68.8236 117.457 68.6271C117.118 68.4283 116.848 68.1323 116.647 67.7393C116.448 67.344 116.349 66.8492 116.349 66.255C116.349 65.656 116.448 65.1506 116.647 64.7386C116.848 64.3243 117.119 64.0107 117.46 63.7976C117.801 63.5821 118.181 63.4744 118.6 63.4744C118.92 63.4744 119.183 63.5289 119.389 63.6378C119.597 63.7443 119.763 63.8733 119.886 64.0249C120.009 64.174 120.102 64.3149 120.166 64.4474H120.237V63.5455H121.505V69.0888C121.505 69.5552 121.394 69.9411 121.171 70.2464C120.949 70.5518 120.645 70.7803 120.259 70.9318C119.873 71.0833 119.435 71.1591 118.945 71.1591ZM118.955 67.9134C119.228 67.9134 119.46 67.8471 119.651 67.7145C119.843 67.5819 119.989 67.3913 120.088 67.1428C120.188 66.8942 120.237 66.5959 120.237 66.2479C120.237 65.9046 120.188 65.6039 120.088 65.3459C119.991 65.0878 119.847 64.8878 119.655 64.7457C119.466 64.6013 119.232 64.5291 118.955 64.5291C118.669 64.5291 118.43 64.6037 118.238 64.7528C118.046 64.902 117.902 65.1068 117.805 65.3672C117.708 65.6252 117.659 65.9188 117.659 66.2479C117.659 66.5817 117.708 66.8741 117.805 67.125C117.904 67.3736 118.05 67.5677 118.242 67.7074C118.436 67.8447 118.674 67.9134 118.955 67.9134ZM127.327 69.0959C126.899 69.0959 126.515 68.9858 126.177 68.7656C125.838 68.5455 125.571 68.2259 125.374 67.8068C125.178 67.3878 125.079 66.8788 125.079 66.2798C125.079 65.6738 125.179 65.1624 125.378 64.7457C125.579 64.3267 125.85 64.0107 126.191 63.7976C126.532 63.5821 126.912 63.4744 127.331 63.4744C127.65 63.4744 127.913 63.5289 128.119 63.6378C128.325 63.7443 128.488 63.8733 128.609 64.0249C128.73 64.174 128.823 64.3149 128.89 64.4474H128.943V61.7273H130.232V69H128.968V68.1406H128.89C128.823 68.2732 128.728 68.4141 128.602 68.5632C128.477 68.71 128.311 68.8355 128.105 68.9396C127.899 69.0438 127.64 69.0959 127.327 69.0959ZM127.686 68.0412C127.958 68.0412 128.19 67.9678 128.382 67.821C128.574 67.6719 128.719 67.4647 128.819 67.1996C128.918 66.9344 128.968 66.6255 128.968 66.2727C128.968 65.92 128.918 65.6134 128.819 65.353C128.722 65.0926 128.577 64.8902 128.385 64.7457C128.196 64.6013 127.963 64.5291 127.686 64.5291C127.399 64.5291 127.16 64.6037 126.969 64.7528C126.777 64.902 126.632 65.108 126.535 65.3707C126.438 65.6335 126.39 65.9342 126.39 66.2727C126.39 66.6136 126.438 66.9179 126.535 67.1854C126.635 67.4505 126.78 67.66 126.972 67.8139C127.166 67.9654 127.404 68.0412 127.686 68.0412ZM134.017 69.1065C133.47 69.1065 132.998 68.9929 132.6 68.7656C132.204 68.536 131.9 68.2116 131.687 67.7926C131.474 67.3712 131.368 66.8752 131.368 66.3047C131.368 65.7436 131.474 65.2512 131.687 64.8274C131.903 64.4013 132.203 64.0698 132.589 63.8331C132.975 63.594 133.428 63.4744 133.949 63.4744C134.285 63.4744 134.603 63.5289 134.901 63.6378C135.202 63.7443 135.467 63.91 135.696 64.1349C135.928 64.3598 136.111 64.6463 136.243 64.9943C136.376 65.34 136.442 65.7519 136.442 66.2301V66.6243H131.971V65.7578H135.21C135.208 65.5116 135.154 65.2926 135.05 65.1009C134.946 64.9067 134.8 64.754 134.613 64.6428C134.429 64.5315 134.213 64.4759 133.967 64.4759C133.704 64.4759 133.473 64.5398 133.275 64.6676C133.076 64.7931 132.921 64.9588 132.809 65.1648C132.7 65.3684 132.645 65.5921 132.642 65.8359V66.5923C132.642 66.9096 132.7 67.1818 132.816 67.4091C132.932 67.634 133.095 67.8068 133.303 67.9276C133.511 68.0459 133.755 68.1051 134.034 68.1051C134.221 68.1051 134.391 68.0791 134.542 68.027C134.694 67.9725 134.825 67.8932 134.936 67.7891C135.048 67.6849 135.132 67.5559 135.189 67.402L136.389 67.5369C136.313 67.8542 136.169 68.1312 135.956 68.3679C135.745 68.6023 135.475 68.7846 135.146 68.9148C134.817 69.0426 134.44 69.1065 134.017 69.1065ZM141.841 64.9872L140.669 65.1151C140.636 64.9967 140.578 64.8854 140.495 64.7812C140.414 64.6771 140.305 64.593 140.168 64.5291C140.031 64.4652 139.863 64.4332 139.664 64.4332C139.396 64.4332 139.171 64.4912 138.989 64.6072C138.809 64.7232 138.72 64.8736 138.723 65.0582C138.72 65.2169 138.778 65.3459 138.897 65.4453C139.018 65.5447 139.216 65.6264 139.493 65.6903L140.424 65.8892C140.94 66.0005 141.323 66.1768 141.574 66.4183C141.828 66.6598 141.956 66.9759 141.958 67.3665C141.956 67.7098 141.855 68.0128 141.656 68.2756C141.46 68.536 141.186 68.7396 140.836 68.8864C140.485 69.0331 140.083 69.1065 139.628 69.1065C138.961 69.1065 138.423 68.9669 138.016 68.6875C137.609 68.4058 137.366 68.014 137.288 67.5121L138.542 67.3913C138.599 67.6375 138.719 67.8234 138.904 67.9489C139.089 68.0743 139.329 68.1371 139.625 68.1371C139.93 68.1371 140.175 68.0743 140.36 67.9489C140.547 67.8234 140.64 67.6683 140.64 67.4837C140.64 67.3274 140.58 67.1984 140.459 67.0966C140.341 66.9948 140.156 66.9167 139.905 66.8622L138.975 66.6669C138.452 66.558 138.065 66.3745 137.814 66.1165C137.563 65.8561 137.439 65.527 137.441 65.1293C137.439 64.7931 137.53 64.5019 137.714 64.2557C137.901 64.0071 138.161 63.8153 138.492 63.6804C138.826 63.5431 139.211 63.4744 139.646 63.4744C140.285 63.4744 140.788 63.6106 141.155 63.8828C141.525 64.1551 141.753 64.5232 141.841 64.9872ZM145.397 69.1065C144.853 69.1065 144.385 68.987 143.994 68.7479C143.606 68.5088 143.307 68.1785 143.096 67.7571C142.888 67.3333 142.784 66.8456 142.784 66.294C142.784 65.7401 142.89 65.2512 143.103 64.8274C143.316 64.4013 143.617 64.0698 144.005 63.8331C144.396 63.594 144.857 63.4744 145.39 63.4744C145.833 63.4744 146.225 63.5561 146.566 63.7195C146.909 63.8804 147.182 64.1089 147.386 64.4048C147.589 64.6984 147.705 65.0417 147.734 65.4347H146.505C146.455 65.1719 146.337 64.9529 146.15 64.7777C145.965 64.6001 145.718 64.5114 145.408 64.5114C145.145 64.5114 144.914 64.5824 144.715 64.7244C144.517 64.8641 144.361 65.0653 144.25 65.3281C144.141 65.5909 144.087 65.9058 144.087 66.2727C144.087 66.6444 144.141 66.964 144.25 67.2315C144.359 67.4967 144.512 67.7015 144.708 67.8459C144.907 67.9879 145.14 68.0589 145.408 68.0589C145.597 68.0589 145.767 68.0234 145.916 67.9524C146.067 67.879 146.194 67.7737 146.296 67.6364C146.397 67.4991 146.467 67.3321 146.505 67.1357H147.734C147.703 67.5215 147.589 67.8636 147.393 68.1619C147.196 68.4579 146.929 68.6899 146.59 68.858C146.252 69.0237 145.854 69.1065 145.397 69.1065ZM148.789 69V63.5455H150.036V64.4545H150.093C150.192 64.1397 150.363 63.897 150.604 63.7266C150.848 63.5537 151.126 63.4673 151.439 63.4673C151.51 63.4673 151.589 63.4709 151.676 63.478C151.766 63.4827 151.841 63.491 151.9 63.5028V64.6854C151.846 64.6664 151.759 64.6499 151.641 64.6357C151.525 64.6191 151.413 64.6108 151.304 64.6108C151.069 64.6108 150.859 64.6617 150.672 64.7635C150.487 64.8629 150.341 65.0014 150.235 65.179C150.128 65.3565 150.075 65.5613 150.075 65.7933V69H148.789ZM152.754 69V63.5455H154.04V69H152.754ZM153.401 62.7713C153.197 62.7713 153.022 62.7038 152.875 62.5689C152.728 62.4316 152.655 62.267 152.655 62.0753C152.655 61.8812 152.728 61.7166 152.875 61.5817C153.022 61.4444 153.197 61.3757 153.401 61.3757C153.607 61.3757 153.782 61.4444 153.926 61.5817C154.073 61.7166 154.146 61.8812 154.146 62.0753C154.146 62.267 154.073 62.4316 153.926 62.5689C153.782 62.7038 153.607 62.7713 153.401 62.7713ZM155.362 71.0455V63.5455H156.626V64.4474H156.7C156.767 64.3149 156.86 64.174 156.981 64.0249C157.102 63.8733 157.265 63.7443 157.471 63.6378C157.677 63.5289 157.94 63.4744 158.259 63.4744C158.681 63.4744 159.061 63.5821 159.399 63.7976C159.74 64.0107 160.01 64.3267 160.209 64.7457C160.41 65.1624 160.511 65.6738 160.511 66.2798C160.511 66.8788 160.413 67.3878 160.216 67.8068C160.02 68.2259 159.752 68.5455 159.414 68.7656C159.075 68.9858 158.691 69.0959 158.263 69.0959C157.95 69.0959 157.691 69.0438 157.485 68.9396C157.279 68.8355 157.114 68.71 156.988 68.5632C156.865 68.4141 156.769 68.2732 156.7 68.1406H156.647V71.0455H155.362ZM156.622 66.2727C156.622 66.6255 156.672 66.9344 156.771 67.1996C156.873 67.4647 157.019 67.6719 157.208 67.821C157.4 67.9678 157.632 68.0412 157.904 68.0412C158.188 68.0412 158.426 67.9654 158.618 67.8139C158.81 67.66 158.954 67.4505 159.051 67.1854C159.151 66.9179 159.2 66.6136 159.2 66.2727C159.2 65.9342 159.152 65.6335 159.055 65.3707C158.958 65.108 158.813 64.902 158.622 64.7528C158.43 64.6037 158.191 64.5291 157.904 64.5291C157.63 64.5291 157.396 64.6013 157.205 64.7457C157.013 64.8902 156.867 65.0926 156.768 65.353C156.671 65.6134 156.622 65.92 156.622 66.2727ZM164.335 63.5455V64.5398H161.2V63.5455H164.335ZM161.974 62.2386H163.259V67.3594C163.259 67.5322 163.285 67.6648 163.338 67.7571C163.392 67.8471 163.463 67.9086 163.551 67.9418C163.638 67.9749 163.735 67.9915 163.842 67.9915C163.922 67.9915 163.996 67.9856 164.062 67.9737C164.131 67.9619 164.183 67.9512 164.218 67.9418L164.435 68.9467C164.366 68.9704 164.268 68.9964 164.14 69.0249C164.015 69.0533 163.861 69.0698 163.678 69.0746C163.356 69.084 163.066 69.0355 162.808 68.929C162.55 68.8201 162.346 68.652 162.194 68.4247C162.045 68.1974 161.972 67.9134 161.974 67.5724V62.2386ZM165.411 69V63.5455H166.696V69H165.411ZM166.057 62.7713C165.853 62.7713 165.678 62.7038 165.531 62.5689C165.384 62.4316 165.311 62.267 165.311 62.0753C165.311 61.8812 165.384 61.7166 165.531 61.5817C165.678 61.4444 165.853 61.3757 166.057 61.3757C166.263 61.3757 166.438 61.4444 166.582 61.5817C166.729 61.7166 166.803 61.8812 166.803 62.0753C166.803 62.267 166.729 62.4316 166.582 62.5689C166.438 62.7038 166.263 62.7713 166.057 62.7713ZM170.397 69.1065C169.865 69.1065 169.403 68.9893 169.012 68.755C168.622 68.5206 168.319 68.1927 168.103 67.7713C167.89 67.3499 167.784 66.8575 167.784 66.294C167.784 65.7306 167.89 65.237 168.103 64.8132C168.319 64.3894 168.622 64.0604 169.012 63.826C169.403 63.5916 169.865 63.4744 170.397 63.4744C170.93 63.4744 171.392 63.5916 171.782 63.826C172.173 64.0604 172.475 64.3894 172.688 64.8132C172.903 65.237 173.011 65.7306 173.011 66.294C173.011 66.8575 172.903 67.3499 172.688 67.7713C172.475 68.1927 172.173 68.5206 171.782 68.755C171.392 68.9893 170.93 69.1065 170.397 69.1065ZM170.404 68.0767C170.693 68.0767 170.935 67.9974 171.129 67.8388C171.323 67.6778 171.467 67.4624 171.562 67.1925C171.659 66.9226 171.708 66.6219 171.708 66.2905C171.708 65.9567 171.659 65.6548 171.562 65.3849C171.467 65.1127 171.323 64.8961 171.129 64.7351C170.935 64.5741 170.693 64.4936 170.404 64.4936C170.108 64.4936 169.862 64.5741 169.666 64.7351C169.472 64.8961 169.326 65.1127 169.229 65.3849C169.134 65.6548 169.087 65.9567 169.087 66.2905C169.087 66.6219 169.134 66.9226 169.229 67.1925C169.326 67.4624 169.472 67.6778 169.666 67.8388C169.862 67.9974 170.108 68.0767 170.404 68.0767ZM175.387 65.804V69H174.102V63.5455H175.331V64.4723H175.395C175.52 64.1669 175.72 63.9242 175.995 63.7443C176.272 63.5644 176.614 63.4744 177.021 63.4744C177.397 63.4744 177.725 63.5549 178.005 63.7159C178.286 63.8769 178.504 64.1101 178.658 64.4155C178.814 64.7209 178.891 65.0914 178.889 65.527V69H177.603V65.7259C177.603 65.3613 177.509 65.076 177.319 64.87C177.132 64.6641 176.873 64.5611 176.542 64.5611C176.317 64.5611 176.117 64.6108 175.941 64.7102C175.769 64.8073 175.632 64.9482 175.533 65.1328C175.436 65.3175 175.387 65.5412 175.387 65.804Z" fill="black"/>
<line x1="1" y1="26.5" x2="341" y2="26.5" stroke="black"/>
<line x1="1" y1="86.5" x2="341" y2="86.5" stroke="black"/>
<rect opacity="0.3" x="41" y="6" width="15" height="15" rx="7.5" fill="#FF00F5"/>
<g opacity="0.3">
<rect x="274" y="8" width="26" height="10" rx="4" fill="#676767"/>
<rect x="280" y="12" width="14" height="2" rx="1" fill="white"/>
</g>
<rect x="253" y="48" width="47" height="16" rx="4" fill="#FF00F5"/>
<rect x="259" y="54.5" width="35" height="3" rx="1.5" fill="white"/>
</svg>
