<svg width="100%" height="100%" viewBox="0 0 342 250" fill="none" xmlns="http://www.w3.org/2000/svg">
<rect x="0.5" y="0.5" width="341" height="249" rx="7.5" fill="white" stroke="black"/>
<path d="M1 9.00001C1 4.58173 4.58172 1 9 1H333C337.418 1 341 4.58172 341 9V241C341 245.418 337.418 249 333 249H9C4.58172 249 1 245.418 1 241V9.00001Z" fill="white"/>
<path d="M116.167 67.8667H105.871L102.583 57L99.2962 67.8667H89L97.3809 73.8569L94.2024 84.1667L102.583 77.7961L110.964 84.1667L107.772 73.8569L116.167 67.8667Z" fill="#CF4B01"/>
<path d="M252 67.8667H241.704L238.417 57L235.13 67.8667H224.833L233.214 73.8569L230.036 84.1667L238.417 77.7961L246.798 84.1667L243.606 73.8569L252 67.8667Z" fill="#747474"/>
<path d="M150.125 67.8667H139.829L136.542 57L133.255 67.8667H122.958L131.339 73.8569L128.161 84.1667L136.542 77.7961L144.923 84.1667L141.731 73.8569L150.125 67.8667Z" fill="#CF4B01"/>
<path d="M218.042 67.8667H207.746L204.458 57L201.171 67.8667H190.875L199.256 73.8569L196.077 84.1667L204.458 77.7961L212.839 84.1667L209.647 73.8569L218.042 67.8667Z" fill="#747474"/>
<path d="M184.083 67.8667H173.787L170.5 57L167.213 67.8667H156.917L165.297 73.8569L162.119 84.1667L170.5 77.7961L178.881 84.1667L175.689 73.8569L184.083 67.8667Z" fill="#CF4B01"/>
</svg>
