<svg width="100%" height="100%" viewBox="0 0 342 250" fill="none" xmlns="http://www.w3.org/2000/svg">
<rect x="0.5" y="0.5" width="341" height="249" rx="7.5" fill="white" stroke="black"/>
<g filter="url(#filter0_d_31_2171)">
<rect x="62" y="66" width="218" height="128" rx="4" fill="white"/>
<rect x="62.5" y="66.5" width="217" height="127" rx="3.5" stroke="black"/>
</g>
<rect x="76.9478" y="81" width="21" height="21" rx="10.5" fill="#E1E1E1"/>
<rect x="103.948" y="82" width="36" height="8" rx="3" fill="#676767"/>
<rect opacity="0.8" x="103.948" y="96" width="79" height="5" rx="2.5" fill="#D9D9D9"/>
<rect x="76.9478" y="158" width="21" height="21" rx="10.5" fill="#E1E1E1"/>
<rect x="103.948" y="159" width="36" height="8" rx="3" fill="#676767"/>
<rect opacity="0.8" x="103.948" y="173" width="79" height="5" rx="2.5" fill="#D9D9D9"/>
<rect x="76.9478" y="119" width="21" height="21" rx="10.5" fill="#E1E1E1"/>
<rect x="103.948" y="120" width="36" height="8" rx="3" fill="#676767"/>
<rect opacity="0.8" x="103.948" y="134" width="79" height="5" rx="2.5" fill="#D9D9D9"/>
<rect x="62.5" y="36.5" width="217" height="22" rx="3.5" fill="white" stroke="black"/>
<path d="M67.4927 22.3008C67.4614 21.9857 67.3273 21.7409 67.0903 21.5664C66.8534 21.3919 66.5317 21.3047 66.1255 21.3047C65.8494 21.3047 65.6164 21.3437 65.4263 21.4219C65.2362 21.4974 65.0903 21.6029 64.9888 21.7383C64.8898 21.8737 64.8403 22.0273 64.8403 22.1992C64.8351 22.3424 64.8651 22.4674 64.9302 22.5742C64.9979 22.681 65.0903 22.7734 65.2075 22.8516C65.3247 22.9271 65.4601 22.9935 65.6138 23.0508C65.7674 23.1055 65.9315 23.1523 66.106 23.1914L66.8247 23.3633C67.1737 23.4414 67.494 23.5456 67.7856 23.6758C68.0773 23.806 68.3299 23.9661 68.5435 24.1562C68.757 24.3464 68.9224 24.5703 69.0396 24.8281C69.1593 25.0859 69.2205 25.3815 69.2231 25.7148C69.2205 26.2044 69.0955 26.6289 68.8481 26.9883C68.6034 27.3451 68.2492 27.6224 67.7856 27.8203C67.3247 28.0156 66.7687 28.1133 66.1177 28.1133C65.4718 28.1133 64.9093 28.0143 64.4302 27.8164C63.9536 27.6185 63.5812 27.3255 63.313 26.9375C63.0474 26.5469 62.908 26.0638 62.895 25.4883H64.5317C64.55 25.7565 64.6268 25.9805 64.7622 26.1602C64.9002 26.3372 65.0838 26.4714 65.313 26.5625C65.5448 26.651 65.8065 26.6953 66.0981 26.6953C66.3846 26.6953 66.6333 26.6536 66.8442 26.5703C67.0578 26.487 67.2231 26.3711 67.3403 26.2227C67.4575 26.0742 67.5161 25.9036 67.5161 25.7109C67.5161 25.5312 67.4627 25.3802 67.356 25.2578C67.2518 25.1354 67.0981 25.0312 66.895 24.9453C66.6945 24.8594 66.4484 24.7812 66.1567 24.7109L65.2856 24.4922C64.6112 24.3281 64.0786 24.0716 63.688 23.7227C63.2974 23.3737 63.1034 22.9036 63.106 22.3125C63.1034 21.8281 63.2323 21.4049 63.4927 21.043C63.7557 20.681 64.1164 20.3984 64.5747 20.1953C65.033 19.9922 65.5539 19.8906 66.1372 19.8906C66.731 19.8906 67.2492 19.9922 67.6919 20.1953C68.1372 20.3984 68.4836 20.681 68.731 21.043C68.9784 21.4049 69.106 21.8242 69.1138 22.3008H67.4927ZM73.064 28.1172C72.4468 28.1172 71.9155 27.9922 71.4702 27.7422C71.0275 27.4896 70.6864 27.1328 70.4468 26.6719C70.2072 26.2083 70.0874 25.6602 70.0874 25.0273C70.0874 24.4102 70.2072 23.8685 70.4468 23.4023C70.6864 22.9362 71.0236 22.5729 71.4585 22.3125C71.896 22.0521 72.409 21.9219 72.9976 21.9219C73.3934 21.9219 73.7619 21.9857 74.103 22.1133C74.4468 22.2383 74.7463 22.4271 75.0015 22.6797C75.2593 22.9323 75.4598 23.25 75.603 23.6328C75.7463 24.013 75.8179 24.4583 75.8179 24.9687V25.4258H70.7515V24.3945H74.2515C74.2515 24.1549 74.1994 23.9427 74.0952 23.7578C73.991 23.5729 73.8465 23.4284 73.6616 23.3242C73.4793 23.2174 73.2671 23.1641 73.0249 23.1641C72.7723 23.1641 72.5483 23.2227 72.353 23.3398C72.1603 23.4544 72.0093 23.6094 71.8999 23.8047C71.7905 23.9974 71.7345 24.2122 71.7319 24.4492V25.4297C71.7319 25.7266 71.7866 25.9831 71.896 26.1992C72.008 26.4154 72.1655 26.582 72.3687 26.6992C72.5718 26.8164 72.8127 26.875 73.0913 26.875C73.2762 26.875 73.4455 26.849 73.5991 26.7969C73.7528 26.7448 73.8843 26.6667 73.9937 26.5625C74.103 26.4583 74.1864 26.3307 74.2437 26.1797L75.7827 26.2812C75.7046 26.651 75.5444 26.974 75.3022 27.25C75.0627 27.5234 74.7528 27.737 74.3726 27.8906C73.995 28.0417 73.5588 28.1172 73.064 28.1172ZM78.5679 20V28H76.9038V20H78.5679ZM82.6353 28.1172C82.0181 28.1172 81.4868 27.9922 81.0415 27.7422C80.5988 27.4896 80.2576 27.1328 80.0181 26.6719C79.7785 26.2083 79.6587 25.6602 79.6587 25.0273C79.6587 24.4102 79.7785 23.8685 80.0181 23.4023C80.2576 22.9362 80.5949 22.5729 81.0298 22.3125C81.4673 22.0521 81.9803 21.9219 82.5688 21.9219C82.9647 21.9219 83.3332 21.9857 83.6743 22.1133C84.0181 22.2383 84.3175 22.4271 84.5728 22.6797C84.8306 22.9323 85.0311 23.25 85.1743 23.6328C85.3175 24.013 85.3892 24.4583 85.3892 24.9687V25.4258H80.3228V24.3945H83.8228C83.8228 24.1549 83.7707 23.9427 83.6665 23.7578C83.5623 23.5729 83.4178 23.4284 83.2329 23.3242C83.0506 23.2174 82.8384 23.1641 82.5962 23.1641C82.3436 23.1641 82.1196 23.2227 81.9243 23.3398C81.7316 23.4544 81.5806 23.6094 81.4712 23.8047C81.3618 23.9974 81.3058 24.2122 81.3032 24.4492V25.4297C81.3032 25.7266 81.3579 25.9831 81.4673 26.1992C81.5793 26.4154 81.7368 26.582 81.9399 26.6992C82.1431 26.8164 82.384 26.875 82.6626 26.875C82.8475 26.875 83.0168 26.849 83.1704 26.7969C83.3241 26.7448 83.4556 26.6667 83.5649 26.5625C83.6743 26.4583 83.7576 26.3307 83.8149 26.1797L85.354 26.2812C85.2759 26.651 85.1157 26.974 84.8735 27.25C84.634 27.5234 84.3241 27.737 83.9438 27.8906C83.5662 28.0417 83.13 28.1172 82.6353 28.1172ZM89.186 28.1172C88.5715 28.1172 88.0428 27.987 87.6001 27.7266C87.16 27.4635 86.8215 27.099 86.5845 26.6328C86.3501 26.1667 86.2329 25.6302 86.2329 25.0234C86.2329 24.4089 86.3514 23.8698 86.5884 23.4062C86.828 22.9401 87.1678 22.5768 87.6079 22.3164C88.048 22.0534 88.5715 21.9219 89.1782 21.9219C89.7017 21.9219 90.16 22.0169 90.5532 22.207C90.9465 22.3971 91.2576 22.6641 91.4868 23.0078C91.716 23.3516 91.8423 23.7552 91.8657 24.2188H90.2954C90.2511 23.9193 90.134 23.6784 89.9438 23.4961C89.7563 23.3112 89.5103 23.2187 89.2056 23.2187C88.9478 23.2187 88.7225 23.2891 88.5298 23.4297C88.3397 23.5677 88.1912 23.7695 88.0845 24.0352C87.9777 24.3008 87.9243 24.6224 87.9243 25C87.9243 25.3828 87.9764 25.7083 88.0806 25.9766C88.1873 26.2448 88.3371 26.4492 88.5298 26.5898C88.7225 26.7305 88.9478 26.8008 89.2056 26.8008C89.3957 26.8008 89.5662 26.7617 89.7173 26.6836C89.8709 26.6055 89.9972 26.4922 90.0962 26.3437C90.1978 26.1927 90.2642 26.0117 90.2954 25.8008H91.8657C91.8397 26.2591 91.7147 26.6628 91.4907 27.0117C91.2694 27.3581 90.9634 27.6289 90.5728 27.8242C90.1821 28.0195 89.7199 28.1172 89.186 28.1172ZM96.1226 22V23.25H92.5093V22H96.1226ZM93.3296 20.5625H94.9937V26.1562C94.9937 26.3099 95.0171 26.4297 95.064 26.5156C95.1108 26.599 95.1759 26.6576 95.2593 26.6914C95.3452 26.7253 95.4442 26.7422 95.5562 26.7422C95.6343 26.7422 95.7124 26.7357 95.7905 26.7227C95.8687 26.707 95.9285 26.6953 95.9702 26.6875L96.2319 27.9258C96.1486 27.9518 96.0314 27.9818 95.8804 28.0156C95.7293 28.0521 95.5457 28.0742 95.3296 28.082C94.9285 28.0977 94.577 28.0443 94.2749 27.9219C93.9754 27.7995 93.7424 27.6094 93.5757 27.3516C93.409 27.0937 93.327 26.7682 93.3296 26.375V20.5625Z" fill="black"/>
<rect x="68" y="42" width="12" height="12" rx="6" fill="#E1E1E1"/>
<rect x="86" y="45.5" width="44" height="5" rx="2.5" fill="#676767"/>
<g clip-path="url(#clip0_31_2171)">
<path d="M271.75 46.0832L270.751 45.0845L267.5 48.3286L264.249 45.0845L263.25 46.0832L267.5 50.3332L271.75 46.0832Z" fill="#FF00F5"/>
</g>
<defs>
<filter id="filter0_d_31_2171" x="58" y="64" width="226" height="136" filterUnits="userSpaceOnUse" color-interpolation-filters="sRGB">
<feFlood flood-opacity="0" result="BackgroundImageFix"/>
<feColorMatrix in="SourceAlpha" type="matrix" values="0 0 0 0 0 0 0 0 0 0 0 0 0 0 0 0 0 0 127 0" result="hardAlpha"/>
<feOffset dy="2"/>
<feGaussianBlur stdDeviation="2"/>
<feComposite in2="hardAlpha" operator="out"/>
<feColorMatrix type="matrix" values="0 0 0 0 0 0 0 0 0 0 0 0 0 0 0 0 0 0 0.05 0"/>
<feBlend mode="normal" in2="BackgroundImageFix" result="effect1_dropShadow_31_2171"/>
<feBlend mode="normal" in="SourceGraphic" in2="effect1_dropShadow_31_2171" result="shape"/>
</filter>
<clipPath id="clip0_31_2171">
<rect width="17" height="17" fill="white" transform="translate(276 39) rotate(90)"/>
</clipPath>
</defs>
</svg>
