<svg width="100%" height="100%" viewBox="0 0 342 250" fill="none" xmlns="http://www.w3.org/2000/svg">
<rect x="0.5" y="0.5" width="341" height="249" rx="7.5" fill="white" stroke="black"/>
<path d="M1 9.00001C1 4.58173 4.58172 1 9 1H333C337.418 1 341 4.58172 341 9V241C341 245.418 337.418 249 333 249H9C4.58172 249 1 245.418 1 241V9.00001Z" fill="white"/>
<rect x="65" y="70" width="211" height="4" rx="2" fill="#D9D9D9"/>
<rect x="65" y="70" width="120" height="4" rx="2" fill="#FF00F5"/>
<g filter="url(#filter0_d_31_2419)">
<rect x="176" y="64" width="16" height="16" rx="8" fill="white"/>
<rect x="176.5" y="64.5" width="15" height="15" rx="7.5" stroke="#FF00F5"/>
</g>
<rect opacity="0.3" x="182" y="70" width="4" height="4" rx="2" fill="#FF00F5"/>
<path opacity="0.65" d="M68.0969 89.1438C67.5472 89.1417 67.0742 89.0064 66.6779 88.7379C66.2837 88.4695 65.9801 88.0806 65.767 87.5714C65.5561 87.0621 65.4517 86.4496 65.4538 85.7337C65.4538 85.0199 65.5593 84.4116 65.7702 83.9087C65.9833 83.4059 66.2869 83.0234 66.6811 82.7614C67.0774 82.4972 67.5494 82.3651 68.0969 82.3651C68.6445 82.3651 69.1154 82.4972 69.5096 82.7614C69.9059 83.0256 70.2106 83.4091 70.4237 83.9119C70.6367 84.4126 70.7422 85.0199 70.7401 85.7337C70.7401 86.4517 70.6335 87.0653 70.4205 87.5746C70.2095 88.0838 69.907 88.4727 69.5128 88.7411C69.1186 89.0096 68.6467 89.1438 68.0969 89.1438ZM68.0969 87.9964C68.4719 87.9964 68.7713 87.8079 68.995 87.4308C69.2188 87.0536 69.3295 86.4879 69.3274 85.7337C69.3274 85.2372 69.2763 84.8239 69.174 84.4936C69.0739 84.1634 68.9311 83.9151 68.7457 83.7489C68.5625 83.5827 68.3462 83.4996 68.0969 83.4996C67.7241 83.4996 67.4258 83.6861 67.2021 84.0589C66.9783 84.4318 66.8654 84.9901 66.8633 85.7337C66.8633 86.2365 66.9134 86.6562 67.0135 86.9929C67.1158 87.3274 67.2596 87.5788 67.445 87.7472C67.6303 87.9134 67.8477 87.9964 68.0969 87.9964Z" fill="#747474"/>
<path opacity="0.8" d="M262.378 80.4545V87H260.994V81.7681H260.956L259.457 82.7077V81.4805L261.077 80.4545H262.378ZM266.5 87.1438C265.951 87.1417 265.478 87.0064 265.081 86.7379C264.687 86.4695 264.383 86.0806 264.17 85.5714C263.959 85.0621 263.855 84.4496 263.857 83.7337C263.857 83.0199 263.963 82.4116 264.174 81.9087C264.387 81.4059 264.69 81.0234 265.084 80.7614C265.481 80.4972 265.953 80.3651 266.5 80.3651C267.048 80.3651 267.519 80.4972 267.913 80.7614C268.309 81.0256 268.614 81.4091 268.827 81.9119C269.04 82.4126 269.146 83.0199 269.143 83.7337C269.143 84.4517 269.037 85.0653 268.824 85.5746C268.613 86.0838 268.31 86.4727 267.916 86.7411C267.522 87.0096 267.05 87.1438 266.5 87.1438ZM266.5 85.9964C266.875 85.9964 267.175 85.8079 267.398 85.4308C267.622 85.0536 267.733 84.4879 267.731 83.7337C267.731 83.2372 267.68 82.8239 267.577 82.4936C267.477 82.1634 267.334 81.9151 267.149 81.7489C266.966 81.5827 266.75 81.4996 266.5 81.4996C266.127 81.4996 265.829 81.6861 265.605 82.0589C265.382 82.4318 265.269 82.9901 265.267 83.7337C265.267 84.2365 265.317 84.6562 265.417 84.9929C265.519 85.3274 265.663 85.5788 265.848 85.7472C266.034 85.9134 266.251 85.9964 266.5 85.9964ZM272.697 87.1438C272.147 87.1417 271.674 87.0064 271.278 86.7379C270.883 86.4695 270.58 86.0806 270.367 85.5714C270.156 85.0621 270.051 84.4496 270.053 83.7337C270.053 83.0199 270.159 82.4116 270.37 81.9087C270.583 81.4059 270.887 81.0234 271.281 80.7614C271.677 80.4972 272.149 80.3651 272.697 80.3651C273.244 80.3651 273.715 80.4972 274.109 80.7614C274.506 81.0256 274.81 81.4091 275.023 81.9119C275.236 82.4126 275.342 83.0199 275.34 83.7337C275.34 84.4517 275.233 85.0653 275.02 85.5746C274.809 86.0838 274.507 86.4727 274.112 86.7411C273.718 87.0096 273.246 87.1438 272.697 87.1438ZM272.697 85.9964C273.072 85.9964 273.371 85.8079 273.595 85.4308C273.818 85.0536 273.929 84.4879 273.927 83.7337C273.927 83.2372 273.876 82.8239 273.774 82.4936C273.673 82.1634 273.531 81.9151 273.345 81.7489C273.162 81.5827 272.946 81.4996 272.697 81.4996C272.324 81.4996 272.025 81.6861 271.802 82.0589C271.578 82.4318 271.465 82.9901 271.463 83.7337C271.463 84.2365 271.513 84.6562 271.613 84.9929C271.715 85.3274 271.859 85.5788 272.045 85.7472C272.23 85.9134 272.447 85.9964 272.697 85.9964Z" fill="#747474"/>
<path d="M70.0352 47.3008C70.0039 46.9857 69.8698 46.7409 69.6328 46.5664C69.3958 46.3919 69.0742 46.3047 68.668 46.3047C68.3919 46.3047 68.1589 46.3437 67.9688 46.4219C67.7786 46.4974 67.6328 46.6029 67.5313 46.7383C67.4323 46.8737 67.3828 47.0273 67.3828 47.1992C67.3776 47.3424 67.4076 47.4674 67.4727 47.5742C67.5404 47.681 67.6328 47.7734 67.75 47.8516C67.8672 47.9271 68.0026 47.9935 68.1562 48.0508C68.3099 48.1055 68.474 48.1523 68.6484 48.1914L69.3672 48.3633C69.7161 48.4414 70.0365 48.5456 70.3281 48.6758C70.6198 48.806 70.8724 48.9661 71.0859 49.1562C71.2995 49.3464 71.4648 49.5703 71.582 49.8281C71.7018 50.0859 71.763 50.3815 71.7656 50.7148C71.763 51.2044 71.638 51.6289 71.3906 51.9883C71.1458 52.3451 70.7917 52.6224 70.3281 52.8203C69.8672 53.0156 69.3112 53.1133 68.6602 53.1133C68.0143 53.1133 67.4518 53.0143 66.9727 52.8164C66.4961 52.6185 66.1237 52.3255 65.8555 51.9375C65.5898 51.5469 65.4505 51.0638 65.4375 50.4883H67.0742C67.0924 50.7565 67.1693 50.9805 67.3047 51.1602C67.4427 51.3372 67.6263 51.4714 67.8555 51.5625C68.0872 51.651 68.349 51.6953 68.6406 51.6953C68.9271 51.6953 69.1758 51.6536 69.3867 51.5703C69.6003 51.487 69.7656 51.3711 69.8828 51.2227C70 51.0742 70.0586 50.9036 70.0586 50.7109C70.0586 50.5312 70.0052 50.3802 69.8984 50.2578C69.7943 50.1354 69.6406 50.0312 69.4375 49.9453C69.237 49.8594 68.9909 49.7812 68.6992 49.7109L67.8281 49.4922C67.1536 49.3281 66.6211 49.0716 66.2305 48.7227C65.8398 48.3737 65.6458 47.9036 65.6484 47.3125C65.6458 46.8281 65.7747 46.4049 66.0352 46.043C66.2982 45.681 66.6589 45.3984 67.1172 45.1953C67.5755 44.9922 68.0964 44.8906 68.6797 44.8906C69.2734 44.8906 69.7917 44.9922 70.2344 45.1953C70.6797 45.3984 71.026 45.681 71.2734 46.043C71.5208 46.4049 71.6484 46.8242 71.6562 47.3008H70.0352ZM74.5361 45V53H72.8721V45H74.5361ZM75.8691 53V47H77.5332V53H75.8691ZM76.7051 46.2266C76.4577 46.2266 76.2454 46.1445 76.0684 45.9805C75.8939 45.8138 75.8066 45.6146 75.8066 45.3828C75.8066 45.1536 75.8939 44.957 76.0684 44.793C76.2454 44.6263 76.4577 44.543 76.7051 44.543C76.9525 44.543 77.1634 44.6263 77.3379 44.793C77.515 44.957 77.6035 45.1536 77.6035 45.3828C77.6035 45.6146 77.515 45.8138 77.3379 45.9805C77.1634 46.1445 76.9525 46.2266 76.7051 46.2266ZM81.0771 53.0977C80.6214 53.0977 80.2087 52.9805 79.8389 52.7461C79.4717 52.5091 79.18 52.1615 78.9639 51.7031C78.7503 51.2422 78.6436 50.6771 78.6436 50.0078C78.6436 49.3203 78.7542 48.7487 78.9756 48.293C79.1969 47.8346 79.4912 47.4922 79.8584 47.2656C80.2282 47.0365 80.6331 46.9219 81.0732 46.9219C81.4092 46.9219 81.6891 46.9792 81.9131 47.0938C82.1396 47.2057 82.3219 47.3464 82.46 47.5156C82.6006 47.6823 82.7074 47.8464 82.7803 48.0078H82.8311V45H84.4912V53H82.8506V52.0391H82.7803C82.7021 52.2057 82.5915 52.3711 82.4482 52.5352C82.3076 52.6966 82.124 52.8307 81.8975 52.9375C81.6735 53.0443 81.4001 53.0977 81.0771 53.0977ZM81.6045 51.7734C81.8727 51.7734 82.0993 51.7005 82.2842 51.5547C82.4717 51.4062 82.6149 51.1992 82.7139 50.9336C82.8154 50.668 82.8662 50.3568 82.8662 50C82.8662 49.6432 82.8167 49.3333 82.7178 49.0703C82.6188 48.8073 82.4756 48.6042 82.2881 48.4609C82.1006 48.3177 81.8727 48.2461 81.6045 48.2461C81.3311 48.2461 81.1006 48.3203 80.9131 48.4687C80.7256 48.6172 80.5837 48.8229 80.4873 49.0859C80.391 49.349 80.3428 49.6536 80.3428 50C80.3428 50.349 80.391 50.6576 80.4873 50.9258C80.5863 51.1914 80.7282 51.3997 80.9131 51.5508C81.1006 51.6992 81.3311 51.7734 81.6045 51.7734ZM88.5938 53.1172C87.9766 53.1172 87.4453 52.9922 87 52.7422C86.5573 52.4896 86.2161 52.1328 85.9766 51.6719C85.737 51.2083 85.6172 50.6602 85.6172 50.0273C85.6172 49.4102 85.737 48.8685 85.9766 48.4023C86.2161 47.9362 86.5534 47.5729 86.9883 47.3125C87.4258 47.0521 87.9388 46.9219 88.5273 46.9219C88.9232 46.9219 89.2917 46.9857 89.6328 47.1133C89.9766 47.2383 90.276 47.4271 90.5313 47.6797C90.7891 47.9323 90.9896 48.25 91.1328 48.6328C91.276 49.013 91.3477 49.4583 91.3477 49.9687V50.4258H86.2813V49.3945H89.7813C89.7813 49.1549 89.7292 48.9427 89.625 48.7578C89.5208 48.5729 89.3763 48.4284 89.1914 48.3242C89.0091 48.2174 88.7969 48.1641 88.5547 48.1641C88.3021 48.1641 88.0781 48.2227 87.8828 48.3398C87.6901 48.4544 87.5391 48.6094 87.4297 48.8047C87.3203 48.9974 87.2643 49.2122 87.2617 49.4492V50.4297C87.2617 50.7266 87.3164 50.9831 87.4258 51.1992C87.5378 51.4154 87.6953 51.582 87.8984 51.6992C88.1016 51.8164 88.3424 51.875 88.6211 51.875C88.806 51.875 88.9753 51.849 89.1289 51.7969C89.2826 51.7448 89.4141 51.6667 89.5234 51.5625C89.6328 51.4583 89.7161 51.3307 89.7734 51.1797L91.3125 51.2812C91.2344 51.651 91.0742 51.974 90.832 52.25C90.5924 52.5234 90.2826 52.737 89.9023 52.8906C89.5247 53.0417 89.0885 53.1172 88.5938 53.1172ZM92.4336 53V47H94.0469V48.0469H94.1094C94.2188 47.6745 94.4023 47.3932 94.6602 47.2031C94.918 47.0104 95.2148 46.9141 95.5508 46.9141C95.6341 46.9141 95.724 46.9193 95.8203 46.9297C95.9167 46.9401 96.0013 46.9544 96.0742 46.9727V48.4492C95.9961 48.4258 95.888 48.4049 95.75 48.3867C95.612 48.3685 95.4857 48.3594 95.3711 48.3594C95.1263 48.3594 94.9076 48.4128 94.7148 48.5195C94.5247 48.6237 94.3737 48.7695 94.2617 48.957C94.1523 49.1445 94.0977 49.3607 94.0977 49.6055V53H92.4336ZM101.927 48.7109L100.403 48.8047C100.377 48.6745 100.321 48.5573 100.235 48.4531C100.149 48.3464 100.036 48.2617 99.8955 48.1992C99.7575 48.1341 99.5921 48.1016 99.3994 48.1016C99.1416 48.1016 98.9242 48.1562 98.7471 48.2656C98.57 48.3724 98.4814 48.5156 98.4814 48.6953C98.4814 48.8385 98.5387 48.9596 98.6533 49.0586C98.7679 49.1576 98.9645 49.237 99.2432 49.2969L100.329 49.5156C100.912 49.6354 101.347 49.8281 101.634 50.0937C101.92 50.3594 102.063 50.7083 102.063 51.1406C102.063 51.5339 101.948 51.8789 101.716 52.1758C101.487 52.4727 101.172 52.7044 100.771 52.8711C100.372 53.0352 99.9124 53.1172 99.3916 53.1172C98.5973 53.1172 97.9645 52.9518 97.4932 52.6211C97.0244 52.2878 96.7497 51.8346 96.6689 51.2617L98.3057 51.1758C98.3551 51.418 98.4749 51.6029 98.665 51.7305C98.8551 51.8555 99.0986 51.918 99.3955 51.918C99.6872 51.918 99.9215 51.862 100.099 51.75C100.278 51.6354 100.369 51.4883 100.372 51.3086C100.369 51.1576 100.306 51.0339 100.181 50.9375C100.056 50.8385 99.863 50.763 99.6025 50.7109L98.5635 50.5039C97.9775 50.3867 97.5413 50.1836 97.2549 49.8945C96.971 49.6055 96.8291 49.237 96.8291 48.7891C96.8291 48.4036 96.9333 48.0716 97.1416 47.793C97.3525 47.5143 97.6481 47.2995 98.0283 47.1484C98.4111 46.9974 98.859 46.9219 99.3721 46.9219C100.13 46.9219 100.726 47.082 101.161 47.4023C101.599 47.7227 101.854 48.1589 101.927 48.7109Z" fill="black"/>
<defs>
<filter id="filter0_d_31_2419" x="172" y="62" width="24" height="24" filterUnits="userSpaceOnUse" color-interpolation-filters="sRGB">
<feFlood flood-opacity="0" result="BackgroundImageFix"/>
<feColorMatrix in="SourceAlpha" type="matrix" values="0 0 0 0 0 0 0 0 0 0 0 0 0 0 0 0 0 0 127 0" result="hardAlpha"/>
<feOffset dy="2"/>
<feGaussianBlur stdDeviation="2"/>
<feComposite in2="hardAlpha" operator="out"/>
<feColorMatrix type="matrix" values="0 0 0 0 0 0 0 0 0 0 0 0 0 0 0 0 0 0 0.05 0"/>
<feBlend mode="normal" in2="BackgroundImageFix" result="effect1_dropShadow_31_2419"/>
<feBlend mode="normal" in="SourceGraphic" in2="effect1_dropShadow_31_2419" result="shape"/>
</filter>
</defs>
</svg>
