<svg width="100%" height="100%" viewBox="0 0 342 250" fill="none" xmlns="http://www.w3.org/2000/svg">
<rect x="0.5" y="0.5" width="341" height="249" rx="7.5" fill="white" stroke="black"/>
<rect x="341" y="27" width="22" height="340" transform="rotate(90 341 27)" fill="#BEBEBE"/>
<rect x="41" y="35" width="26.25" height="6" rx="3" fill="#FF00F5"/>
<rect x="74.25" y="35" width="26.25" height="6" rx="3" fill="#D9D9D9"/>
<rect x="107.5" y="35" width="26.25" height="6" rx="3" fill="#D9D9D9"/>
<rect x="140.75" y="35" width="26.25" height="6" rx="3" fill="#D9D9D9"/>
<rect x="284" y="35" width="16" height="6" rx="3" fill="#D9D9D9"/>
<rect x="41.5" y="93.5" width="258" height="138" rx="3.5" fill="white" stroke="black" stroke-dasharray="2 2"/>
<path d="M47.8924 65.5455H49.6051V71.7223C49.6051 72.3994 49.4451 72.9949 49.125 73.5089C48.808 74.0228 48.3617 74.4245 47.7862 74.7138C47.2107 75 46.5382 75.1431 45.7688 75.1431C44.9963 75.1431 44.3223 75 43.7468 74.7138C43.1713 74.4245 42.725 74.0228 42.408 73.5089C42.091 72.9949 41.9325 72.3994 41.9325 71.7223V65.5455H43.6452V71.5792C43.6452 71.9731 43.7314 72.324 43.9038 72.6317C44.0792 72.9395 44.3254 73.1811 44.6424 73.3565C44.9594 73.5289 45.3349 73.6151 45.7688 73.6151C46.2028 73.6151 46.5782 73.5289 46.8952 73.3565C47.2153 73.1811 47.4615 72.9395 47.6339 72.6317C47.8062 72.324 47.8924 71.9731 47.8924 71.5792V65.5455ZM56.9972 69.7834L55.4738 69.9496C55.4307 69.7957 55.3553 69.651 55.2476 69.5156C55.143 69.3802 55.0014 69.271 54.8229 69.1879C54.6444 69.1048 54.4259 69.0632 54.1673 69.0632C53.8196 69.0632 53.5272 69.1386 53.2902 69.2894C53.0563 69.4402 52.9409 69.6357 52.944 69.8757C52.9409 70.0819 53.0163 70.2496 53.1702 70.3789C53.3271 70.5082 53.5857 70.6143 53.9458 70.6974L55.1553 70.956C55.8262 71.1006 56.3248 71.3299 56.651 71.6438C56.9803 71.9577 57.1465 72.3686 57.1496 72.8764C57.1465 73.3227 57.0157 73.7166 56.7572 74.0582C56.5017 74.3968 56.1463 74.6615 55.6908 74.8523C55.2353 75.0431 54.7121 75.1385 54.1212 75.1385C53.2533 75.1385 52.5547 74.9569 52.0253 74.5938C51.4959 74.2275 51.1805 73.7182 51.0789 73.0657L52.7085 72.9087C52.7824 73.2288 52.9394 73.4704 53.1794 73.6335C53.4195 73.7966 53.7319 73.8782 54.1166 73.8782C54.5136 73.8782 54.8321 73.7966 55.0722 73.6335C55.3153 73.4704 55.4369 73.2688 55.4369 73.0288C55.4369 72.8256 55.3584 72.6579 55.2014 72.5256C55.0476 72.3932 54.8075 72.2917 54.4813 72.2209L53.2718 71.967C52.5916 71.8254 52.0884 71.5869 51.7622 71.2514C51.4359 70.9129 51.2744 70.4851 51.2774 69.968C51.2744 69.531 51.3928 69.1525 51.6329 68.8324C51.876 68.5092 52.213 68.2599 52.6439 68.0845C53.0779 67.906 53.578 67.8168 54.1443 67.8168C54.9752 67.8168 55.6292 67.9937 56.1063 68.3477C56.5864 68.7016 56.8834 69.1802 56.9972 69.7834ZM61.6668 75.1385C60.9559 75.1385 60.3419 74.9908 59.8248 74.6953C59.3109 74.3968 58.9154 73.9751 58.6384 73.4304C58.3614 72.8826 58.2229 72.2378 58.2229 71.4961C58.2229 70.7667 58.3614 70.1265 58.6384 69.5756C58.9185 69.0217 59.3093 68.5908 59.811 68.283C60.3126 67.9722 60.902 67.8168 61.5791 67.8168C62.0161 67.8168 62.4285 67.8875 62.8163 68.0291C63.2072 68.1676 63.5519 68.383 63.8504 68.6754C64.152 68.9678 64.389 69.3402 64.5613 69.7926C64.7337 70.242 64.8199 70.7775 64.8199 71.3991V71.9116H59.0077V70.7852H63.218C63.2149 70.4651 63.1456 70.1804 63.0102 69.9311C62.8748 69.6787 62.6855 69.4802 62.4424 69.3356C62.2023 69.1909 61.9223 69.1186 61.6022 69.1186C61.2606 69.1186 60.9605 69.2017 60.702 69.3679C60.4434 69.531 60.2419 69.7464 60.0972 70.0142C59.9556 70.2789 59.8833 70.5697 59.8802 70.8867V71.87C59.8802 72.2824 59.9556 72.6364 60.1064 72.9318C60.2573 73.2242 60.4681 73.4489 60.7389 73.6058C61.0097 73.7597 61.3267 73.8366 61.6899 73.8366C61.933 73.8366 62.1531 73.8028 62.3501 73.7351C62.547 73.6643 62.7178 73.5612 62.8625 73.4258C63.0071 73.2904 63.1164 73.1226 63.1903 72.9226L64.7506 73.098C64.6521 73.5104 64.4644 73.8705 64.1874 74.1783C63.9135 74.483 63.5626 74.7199 63.1349 74.8892C62.7071 75.0554 62.2177 75.1385 61.6668 75.1385ZM66.2337 75V67.9091H67.854V69.0909H67.9279C68.0572 68.6816 68.2788 68.3661 68.5927 68.1445C68.9097 67.9199 69.2713 67.8075 69.6776 67.8075C69.7699 67.8075 69.873 67.8121 69.9869 67.8214C70.1038 67.8275 70.2008 67.8383 70.2777 67.8537V69.391C70.2069 69.3664 70.0946 69.3448 69.9407 69.3263C69.7899 69.3048 69.6437 69.294 69.5021 69.294C69.1974 69.294 68.9235 69.3602 68.6804 69.4925C68.4403 69.6218 68.2511 69.8018 68.1126 70.0327C67.9741 70.2635 67.9048 70.5297 67.9048 70.8313V75H66.2337ZM76.9924 69.7834L75.4689 69.9496C75.4258 69.7957 75.3504 69.651 75.2427 69.5156C75.1381 69.3802 74.9965 69.271 74.818 69.1879C74.6395 69.1048 74.421 69.0632 74.1625 69.0632C73.8147 69.0632 73.5223 69.1386 73.2853 69.2894C73.0514 69.4402 72.936 69.6357 72.9391 69.8757C72.936 70.0819 73.0114 70.2496 73.1653 70.3789C73.3223 70.5082 73.5808 70.6143 73.9409 70.6974L75.1504 70.956C75.8213 71.1006 76.3199 71.3299 76.6461 71.6438C76.9754 71.9577 77.1416 72.3686 77.1447 72.8764C77.1416 73.3227 77.0108 73.7166 76.7523 74.0582C76.4969 74.3968 76.1414 74.6615 75.6859 74.8523C75.2304 75.0431 74.7072 75.1385 74.1163 75.1385C73.2484 75.1385 72.5498 74.9569 72.0204 74.5938C71.4911 74.2275 71.1756 73.7182 71.074 73.0657L72.7037 72.9087C72.7775 73.2288 72.9345 73.4704 73.1745 73.6335C73.4146 73.7966 73.727 73.8782 74.1117 73.8782C74.5087 73.8782 74.8272 73.7966 75.0673 73.6335C75.3104 73.4704 75.432 73.2688 75.432 73.0288C75.432 72.8256 75.3535 72.6579 75.1966 72.5256C75.0427 72.3932 74.8026 72.2917 74.4764 72.2209L73.2669 71.967C72.5867 71.8254 72.0835 71.5869 71.7573 71.2514C71.431 70.9129 71.2695 70.4851 71.2725 69.968C71.2695 69.531 71.388 69.1525 71.628 68.8324C71.8712 68.5092 72.2082 68.2599 72.639 68.0845C73.073 67.906 73.5731 67.8168 74.1394 67.8168C74.9703 67.8168 75.6243 67.9937 76.1014 68.3477C76.5815 68.7016 76.8785 69.1802 76.9924 69.7834Z" fill="black"/>
<line x1="341" y1="49.5" x2="1" y2="49.5" stroke="black"/>
<line x1="1" y1="26.5" x2="341" y2="26.5" stroke="black"/>
<rect x="41" y="6" width="15" height="15" rx="7.5" fill="#FF00F5"/>
<rect x="267" y="8" width="33" height="10" rx="4" fill="#FF00F5"/>
<rect x="273" y="12" width="21" height="2" rx="1" fill="white"/>
<rect x="235" y="8" width="26" height="10" rx="4" fill="#676767"/>
<rect x="241" y="12" width="14" height="2" rx="1" fill="white"/>
</svg>
