<svg width="100%" height="100%" viewBox="0 0 342 250" fill="none" xmlns="http://www.w3.org/2000/svg">
<rect x="0.5" y="0.5" width="341" height="249" rx="7.5" fill="white" stroke="black"/>
<rect x="140" y="112" width="41" height="11" rx="4" fill="#FF00F5"/>
<rect x="144" y="116" width="33" height="3" rx="1.5" fill="white"/>
<line x1="126" y1="49" x2="126" y2="79" stroke="#D9D9D9" stroke-width="2"/>
<line x1="126" y1="96" x2="126" y2="142" stroke="#D9D9D9" stroke-width="2"/>
<rect x="140" y="39" width="37" height="6" rx="3" fill="#676767"/>
<rect x="121.5" y="37.5" width="9" height="9" rx="4.5" fill="white" stroke="#1865FA"/>
<rect x="121.5" y="82.5" width="9" height="9" rx="4.5" fill="white" stroke="#1865FA"/>
<rect x="121.5" y="145.5" width="9" height="9" rx="4.5" fill="white" stroke="#1865FA"/>
<rect x="140" y="54" width="107" height="3" rx="1.5" fill="#D9D9D9"/>
<rect x="140" y="62" width="78" height="3" rx="1.5" fill="#D9D9D9"/>
<rect x="140" y="147" width="37" height="6" rx="3" fill="#676767"/>
<rect x="140" y="162" width="107" height="3" rx="1.5" fill="#D9D9D9"/>
<rect x="140" y="170" width="78" height="3" rx="1.5" fill="#D9D9D9"/>
<rect x="140" y="86" width="54" height="3" rx="1.5" fill="#D9D9D9"/>
<rect x="140" y="94" width="78" height="3" rx="1.5" fill="#D9D9D9"/>
<rect x="140" y="102" width="68" height="3" rx="1.5" fill="#D9D9D9"/>
<path opacity="0.8" d="M97.2521 39.6364V44H96.3295V40.5121H96.304L95.3047 41.1385V40.3203L96.3849 39.6364H97.2521ZM98.2892 44V43.3352L99.8425 41.897C99.9746 41.7692 100.085 41.6541 100.175 41.5518C100.266 41.4496 100.335 41.3494 100.382 41.2514C100.428 41.152 100.452 41.0447 100.452 40.9297C100.452 40.8018 100.423 40.6918 100.365 40.5994C100.306 40.5057 100.227 40.4339 100.126 40.3842C100.025 40.3331 99.9107 40.3075 99.7828 40.3075C99.6493 40.3075 99.5328 40.3345 99.4334 40.3885C99.334 40.4425 99.2573 40.5199 99.2033 40.6207C99.1493 40.7216 99.1223 40.8416 99.1223 40.9808H98.2466C98.2466 40.6953 98.3113 40.4474 98.4405 40.2372C98.5698 40.027 98.7509 39.8643 98.9838 39.7493C99.2168 39.6342 99.4853 39.5767 99.7892 39.5767C100.102 39.5767 100.374 39.6321 100.605 39.7429C100.838 39.8523 101.019 40.0043 101.149 40.1989C101.278 40.3935 101.343 40.6165 101.343 40.8679C101.343 41.0327 101.31 41.1953 101.244 41.3558C101.181 41.5163 101.066 41.6946 100.901 41.8906C100.737 42.0852 100.504 42.3189 100.205 42.5916L99.5676 43.2159V43.2457H101.4V44H98.2892ZM103.483 44V39.6364H106.372V40.397H104.405V41.4368H106.18V42.1974H104.405V44H103.483ZM108.227 44.0639C107.89 44.0639 107.6 43.9957 107.357 43.8594C107.116 43.7216 106.93 43.527 106.799 43.2756C106.669 43.0227 106.603 42.7237 106.603 42.3786C106.603 42.0419 106.669 41.7464 106.799 41.4922C106.93 41.2379 107.114 41.0398 107.351 40.8977C107.59 40.7557 107.869 40.6847 108.191 40.6847C108.406 40.6847 108.607 40.7195 108.794 40.7891C108.981 40.8572 109.144 40.9602 109.284 41.098C109.424 41.2358 109.534 41.4091 109.612 41.6179C109.69 41.8253 109.729 42.0682 109.729 42.3466V42.5959H106.965V42.0334H108.874C108.874 41.9027 108.846 41.7869 108.789 41.6861C108.732 41.5852 108.654 41.5064 108.553 41.4496C108.453 41.3913 108.338 41.3622 108.205 41.3622C108.068 41.3622 107.945 41.3942 107.839 41.4581C107.734 41.5206 107.651 41.6051 107.592 41.7116C107.532 41.8168 107.502 41.9339 107.5 42.0632V42.598C107.5 42.7599 107.53 42.8999 107.59 43.0178C107.651 43.1357 107.737 43.2266 107.847 43.2905C107.958 43.3544 108.09 43.3864 108.242 43.3864C108.343 43.3864 108.435 43.3722 108.519 43.3438C108.602 43.3153 108.674 43.2727 108.734 43.2159C108.794 43.1591 108.839 43.0895 108.87 43.0071L109.71 43.0625C109.667 43.2642 109.58 43.4403 109.448 43.5909C109.317 43.7401 109.148 43.8565 108.941 43.9403C108.735 44.0227 108.497 44.0639 108.227 44.0639ZM110.338 44V39.6364H111.246V41.277H111.274C111.313 41.1889 111.371 41.0994 111.446 41.0085C111.523 40.9162 111.622 40.8395 111.744 40.7784C111.868 40.7159 112.021 40.6847 112.205 40.6847C112.443 40.6847 112.664 40.7472 112.865 40.8722C113.067 40.9957 113.228 41.1825 113.349 41.4325C113.47 41.6811 113.53 41.9929 113.53 42.3679C113.53 42.733 113.471 43.0412 113.353 43.2926C113.237 43.5426 113.078 43.7322 112.876 43.8615C112.676 43.9893 112.451 44.0533 112.203 44.0533C112.026 44.0533 111.877 44.0241 111.753 43.9659C111.631 43.9077 111.531 43.8345 111.453 43.7464C111.374 43.657 111.315 43.5668 111.274 43.4759H111.233V44H110.338ZM111.227 42.3636C111.227 42.5582 111.254 42.728 111.308 42.8729C111.362 43.0178 111.44 43.1307 111.542 43.2116C111.644 43.2912 111.769 43.331 111.915 43.331C112.063 43.331 112.188 43.2905 112.29 43.2095C112.392 43.1271 112.47 43.0135 112.522 42.8686C112.576 42.7223 112.603 42.554 112.603 42.3636C112.603 42.1747 112.577 42.0085 112.524 41.8651C112.472 41.7216 112.394 41.6094 112.292 41.5284C112.19 41.4474 112.064 41.407 111.915 41.407C111.767 41.407 111.642 41.446 111.54 41.5241C111.439 41.6023 111.362 41.7131 111.308 41.8565C111.254 42 111.227 42.169 111.227 42.3636Z" fill="#747474"/>
<path opacity="0.8" d="M97.2521 84.6364V89H96.3295V85.5121H96.304L95.3047 86.1385V85.3203L96.3849 84.6364H97.2521ZM100 89.0959C99.6337 89.0945 99.3184 89.0043 99.0542 88.8253C98.7914 88.6463 98.589 88.3871 98.4469 88.0476C98.3063 87.7081 98.2367 87.2997 98.2381 86.8224C98.2381 86.3466 98.3084 85.9411 98.449 85.6058C98.5911 85.2706 98.7935 85.0156 99.0563 84.8409C99.3205 84.6648 99.6351 84.5767 100 84.5767C100.365 84.5767 100.679 84.6648 100.942 84.8409C101.206 85.017 101.409 85.2727 101.551 85.608C101.693 85.9418 101.764 86.3466 101.762 86.8224C101.762 87.3011 101.691 87.7102 101.549 88.0497C101.409 88.3892 101.207 88.6484 100.944 88.8274C100.681 89.0064 100.367 89.0959 100 89.0959ZM100 88.331C100.25 88.331 100.45 88.2053 100.599 87.9538C100.748 87.7024 100.822 87.3253 100.82 86.8224C100.82 86.4915 100.786 86.2159 100.718 85.9957C100.651 85.7756 100.556 85.6101 100.433 85.4993C100.311 85.3885 100.166 85.3331 100 85.3331C99.7516 85.3331 99.5527 85.4574 99.4036 85.706C99.2544 85.9545 99.1792 86.3267 99.1777 86.8224C99.1777 87.1577 99.2111 87.4375 99.2779 87.6619C99.3461 87.8849 99.4419 88.0526 99.5655 88.1648C99.6891 88.2756 99.834 88.331 100 88.331ZM103.834 89V84.6364H106.724V85.397H104.757V86.4368H106.532V87.1974H104.757V89H103.834ZM108.578 89.0639C108.242 89.0639 107.952 88.9957 107.709 88.8594C107.468 88.7216 107.281 88.527 107.151 88.2756C107.02 88.0227 106.955 87.7237 106.955 87.3786C106.955 87.0419 107.02 86.7464 107.151 86.4922C107.281 86.2379 107.465 86.0398 107.703 85.8977C107.941 85.7557 108.221 85.6847 108.542 85.6847C108.758 85.6847 108.959 85.7195 109.145 85.7891C109.333 85.8572 109.496 85.9602 109.635 86.098C109.776 86.2358 109.885 86.4091 109.963 86.6179C110.041 86.8253 110.08 87.0682 110.08 87.3466V87.5959H107.317V87.0334H109.226C109.226 86.9027 109.198 86.7869 109.141 86.6861C109.084 86.5852 109.005 86.5064 108.904 86.4496C108.805 86.3913 108.689 86.3622 108.557 86.3622C108.419 86.3622 108.297 86.3942 108.191 86.4581C108.085 86.5206 108.003 86.6051 107.943 86.7116C107.884 86.8168 107.853 86.9339 107.852 87.0632V87.598C107.852 87.7599 107.882 87.8999 107.941 88.0178C108.002 88.1357 108.088 88.2266 108.199 88.2905C108.31 88.3544 108.441 88.3864 108.593 88.3864C108.694 88.3864 108.786 88.3722 108.87 88.3438C108.954 88.3153 109.026 88.2727 109.085 88.2159C109.145 88.1591 109.191 88.0895 109.222 88.0071L110.061 88.0625C110.019 88.2642 109.931 88.4403 109.799 88.5909C109.669 88.7401 109.499 88.8565 109.292 88.9403C109.086 89.0227 108.848 89.0639 108.578 89.0639ZM110.69 89V84.6364H111.597V86.277H111.625C111.665 86.1889 111.722 86.0994 111.798 86.0085C111.874 85.9162 111.974 85.8395 112.096 85.7784C112.22 85.7159 112.373 85.6847 112.556 85.6847C112.795 85.6847 113.015 85.7472 113.217 85.8722C113.419 85.9957 113.58 86.1825 113.7 86.4325C113.821 86.6811 113.882 86.9929 113.882 87.3679C113.882 87.733 113.823 88.0412 113.705 88.2926C113.588 88.5426 113.429 88.7322 113.227 88.8615C113.027 88.9893 112.803 89.0533 112.554 89.0533C112.378 89.0533 112.228 89.0241 112.105 88.9659C111.982 88.9077 111.882 88.8345 111.804 88.7464C111.726 88.657 111.666 88.5668 111.625 88.4759H111.585V89H110.69ZM111.578 87.3636C111.578 87.5582 111.605 87.728 111.659 87.8729C111.713 88.0178 111.791 88.1307 111.894 88.2116C111.996 88.2912 112.12 88.331 112.267 88.331C112.414 88.331 112.539 88.2905 112.642 88.2095C112.744 88.1271 112.821 88.0135 112.874 87.8686C112.928 87.7223 112.955 87.554 112.955 87.3636C112.955 87.1747 112.928 87.0085 112.876 86.8651C112.823 86.7216 112.746 86.6094 112.644 86.5284C112.541 86.4474 112.416 86.407 112.267 86.407C112.119 86.407 111.994 86.446 111.892 86.5241C111.791 86.6023 111.713 86.7131 111.659 86.8565C111.605 87 111.578 87.169 111.578 87.3636Z" fill="#747474"/>
<path opacity="0.8" d="M99.9561 152.06C99.628 152.06 99.3361 152.006 99.0804 151.9C98.8262 151.792 98.6266 151.645 98.4817 151.459C98.3368 151.273 98.2644 151.062 98.2644 150.826C98.2644 150.644 98.3056 150.477 98.388 150.325C98.4718 150.172 98.5854 150.045 98.7289 149.944C98.8723 149.842 99.0328 149.776 99.2104 149.748V149.718C98.9775 149.671 98.7885 149.558 98.6436 149.379C98.4988 149.199 98.4263 148.989 98.4263 148.751C98.4263 148.525 98.4924 148.324 98.6245 148.148C98.7566 147.97 98.9377 147.831 99.1678 147.73C99.3993 147.628 99.6621 147.577 99.9561 147.577C100.25 147.577 100.512 147.628 100.742 147.73C100.974 147.832 101.156 147.972 101.288 148.15C101.42 148.326 101.487 148.526 101.488 148.751C101.487 148.991 101.413 149.2 101.267 149.379C101.12 149.558 100.933 149.671 100.704 149.718V149.748C100.879 149.776 101.037 149.842 101.179 149.944C101.323 150.045 101.436 150.172 101.52 150.325C101.605 150.477 101.649 150.644 101.65 150.826C101.649 151.062 101.575 151.273 101.431 151.459C101.286 151.645 101.085 151.792 100.83 151.9C100.575 152.006 100.284 152.06 99.9561 152.06ZM99.9561 151.382C100.102 151.382 100.23 151.356 100.34 151.303C100.449 151.249 100.534 151.175 100.595 151.082C100.658 150.987 100.689 150.877 100.689 150.754C100.689 150.627 100.657 150.516 100.593 150.419C100.529 150.321 100.443 150.244 100.333 150.189C100.224 150.132 100.098 150.104 99.9561 150.104C99.8155 150.104 99.6898 150.132 99.579 150.189C99.4682 150.244 99.3809 150.321 99.3169 150.419C99.2544 150.516 99.2232 150.627 99.2232 150.754C99.2232 150.877 99.2537 150.987 99.3148 151.082C99.3759 151.175 99.4618 151.249 99.5726 151.303C99.6834 151.356 99.8113 151.382 99.9561 151.382ZM99.9561 149.433C100.078 149.433 100.187 149.408 100.282 149.358C100.377 149.308 100.452 149.239 100.506 149.151C100.56 149.063 100.587 148.962 100.587 148.847C100.587 148.733 100.56 148.634 100.506 148.548C100.452 148.462 100.378 148.394 100.284 148.346C100.191 148.296 100.081 148.271 99.9561 148.271C99.8326 148.271 99.7232 148.296 99.628 148.346C99.5328 148.394 99.4583 148.462 99.4043 148.548C99.3517 148.634 99.3255 148.733 99.3255 148.847C99.3255 148.962 99.3525 149.063 99.4064 149.151C99.4604 149.239 99.535 149.308 99.6301 149.358C99.7253 149.408 99.834 149.433 99.9561 149.433ZM103.709 152V147.636H106.599V148.397H104.632V149.437H106.407V150.197H104.632V152H103.709ZM108.453 152.064C108.117 152.064 107.827 151.996 107.584 151.859C107.343 151.722 107.156 151.527 107.026 151.276C106.895 151.023 106.83 150.724 106.83 150.379C106.83 150.042 106.895 149.746 107.026 149.492C107.156 149.238 107.34 149.04 107.578 148.898C107.816 148.756 108.096 148.685 108.417 148.685C108.633 148.685 108.834 148.719 109.02 148.789C109.208 148.857 109.371 148.96 109.51 149.098C109.651 149.236 109.76 149.409 109.838 149.618C109.916 149.825 109.955 150.068 109.955 150.347V150.596H107.192V150.033H109.101C109.101 149.903 109.073 149.787 109.016 149.686C108.959 149.585 108.88 149.506 108.779 149.45C108.68 149.391 108.564 149.362 108.432 149.362C108.294 149.362 108.172 149.394 108.066 149.458C107.96 149.521 107.878 149.605 107.818 149.712C107.759 149.817 107.728 149.934 107.727 150.063V150.598C107.727 150.76 107.757 150.9 107.816 151.018C107.877 151.136 107.963 151.227 108.074 151.29C108.185 151.354 108.316 151.386 108.468 151.386C108.569 151.386 108.661 151.372 108.745 151.344C108.829 151.315 108.901 151.273 108.96 151.216C109.02 151.159 109.066 151.089 109.097 151.007L109.936 151.062C109.894 151.264 109.806 151.44 109.674 151.591C109.544 151.74 109.374 151.857 109.167 151.94C108.961 152.023 108.723 152.064 108.453 152.064ZM110.565 152V147.636H111.472V149.277H111.5C111.54 149.189 111.597 149.099 111.673 149.009C111.749 148.916 111.849 148.839 111.971 148.778C112.095 148.716 112.248 148.685 112.431 148.685C112.67 148.685 112.89 148.747 113.092 148.872C113.294 148.996 113.455 149.183 113.575 149.433C113.696 149.681 113.757 149.993 113.757 150.368C113.757 150.733 113.698 151.041 113.58 151.293C113.463 151.543 113.304 151.732 113.102 151.862C112.902 151.989 112.678 152.053 112.429 152.053C112.253 152.053 112.103 152.024 111.98 151.966C111.857 151.908 111.757 151.835 111.679 151.746C111.601 151.657 111.541 151.567 111.5 151.476H111.46V152H110.565ZM111.453 150.364C111.453 150.558 111.48 150.728 111.534 150.873C111.588 151.018 111.666 151.131 111.769 151.212C111.871 151.291 111.995 151.331 112.142 151.331C112.289 151.331 112.414 151.29 112.517 151.21C112.619 151.127 112.696 151.013 112.749 150.869C112.803 150.722 112.83 150.554 112.83 150.364C112.83 150.175 112.803 150.009 112.751 149.865C112.698 149.722 112.621 149.609 112.519 149.528C112.416 149.447 112.291 149.407 112.142 149.407C111.994 149.407 111.869 149.446 111.767 149.524C111.666 149.602 111.588 149.713 111.534 149.857C111.48 150 111.453 150.169 111.453 150.364Z" fill="#747474"/>
</svg>
