<svg width="100%" height="100%" viewBox="0 0 342 250" fill="none" xmlns="http://www.w3.org/2000/svg">
<rect x="0.5" y="0.5" width="341" height="249" rx="7.5" fill="white" stroke="black"/>
<rect x="78" y="6" width="16" height="6" rx="3" fill="#FF00F5"/>
<rect x="101" y="6" width="16" height="6" rx="3" fill="#D9D9D9"/>
<rect x="124" y="6" width="16" height="6" rx="3" fill="#D9D9D9"/>
<rect x="313" y="6" width="16" height="6" rx="3" fill="#D9D9D9"/>
<path d="M67 19H341V241C341 245.418 337.418 249 333 249H67V19Z" fill="#BEBEBE"/>
<rect x="78.5" y="57.5" width="250" height="178" rx="3.5" fill="white" stroke="black" stroke-dasharray="2 2"/>
<path d="M80.1467 41H78.3185L81.647 31.5455H83.7614L87.0945 41H85.2663L82.7411 33.4844H82.6673L80.1467 41ZM80.2067 37.293H85.1925V38.6687H80.2067V37.293ZM89.9371 36.8452V41H88.2659V33.9091H89.8632V35.114H89.9463C90.1094 34.717 90.3695 34.4015 90.7265 34.1676C91.0866 33.9337 91.5313 33.8168 92.0606 33.8168C92.55 33.8168 92.9762 33.9214 93.3394 34.1307C93.7056 34.34 93.9888 34.6431 94.1888 35.0401C94.392 35.4371 94.492 35.9188 94.4889 36.4851V41H92.8177V36.7436C92.8177 36.2696 92.6946 35.8988 92.4484 35.631C92.2053 35.3633 91.8683 35.2294 91.4374 35.2294C91.145 35.2294 90.885 35.294 90.6572 35.4233C90.4326 35.5495 90.2556 35.7326 90.1263 35.9727C90.0001 36.2127 89.9371 36.5036 89.9371 36.8452ZM98.2282 41.1431C97.7789 41.1431 97.3742 41.0631 97.0141 40.9031C96.6571 40.7399 96.374 40.4999 96.1647 40.1829C95.9585 39.8659 95.8554 39.475 95.8554 39.0103C95.8554 38.6102 95.9292 38.2794 96.077 38.0178C96.2247 37.7562 96.4263 37.5469 96.6817 37.3899C96.9372 37.233 97.2249 37.1145 97.545 37.0344C97.8682 36.9513 98.2021 36.8913 98.5468 36.8544C98.9623 36.8113 99.2993 36.7728 99.5578 36.739C99.8163 36.7021 100.004 36.6467 100.121 36.5728C100.241 36.4959 100.301 36.3774 100.301 36.2173V36.1896C100.301 35.8419 100.198 35.5726 99.9917 35.3817C99.7855 35.1909 99.4885 35.0955 99.1008 35.0955C98.6914 35.0955 98.3667 35.1848 98.1267 35.3633C97.8897 35.5418 97.7297 35.7526 97.6466 35.9957L96.0862 35.7741C96.2093 35.3433 96.4124 34.9832 96.6956 34.6939C96.9787 34.4015 97.325 34.183 97.7343 34.0384C98.1436 33.8906 98.596 33.8168 99.0915 33.8168C99.4332 33.8168 99.7732 33.8568 100.112 33.9368C100.45 34.0168 100.76 34.1491 101.04 34.3338C101.32 34.5154 101.544 34.7631 101.714 35.0771C101.886 35.391 101.972 35.7834 101.972 36.2543V41H100.366V40.0259H100.31C100.209 40.2229 100.066 40.4076 99.8809 40.5799C99.6994 40.7492 99.4701 40.8861 99.1931 40.9908C98.9192 41.0923 98.5976 41.1431 98.2282 41.1431ZM98.6622 39.9151C98.9977 39.9151 99.2885 39.849 99.5347 39.7166C99.7809 39.5812 99.9702 39.4027 100.103 39.1811C100.238 38.9595 100.306 38.7179 100.306 38.4563V37.6207C100.253 37.6638 100.164 37.7038 100.038 37.7408C99.9148 37.7777 99.7763 37.81 99.6224 37.8377C99.4685 37.8654 99.3162 37.89 99.1654 37.9116C99.0146 37.9331 98.8838 37.9516 98.773 37.967C98.5237 38.0008 98.3006 38.0562 98.1036 38.1332C97.9066 38.2101 97.7512 38.3178 97.6373 38.4563C97.5235 38.5917 97.4665 38.7672 97.4665 38.9826C97.4665 39.2904 97.5789 39.5227 97.8035 39.6797C98.0282 39.8366 98.3144 39.9151 98.6622 39.9151ZM105.324 31.5455V41H103.653V31.5455H105.324ZM108.081 43.6591C107.853 43.6591 107.642 43.6406 107.449 43.6037C107.258 43.5698 107.105 43.5298 106.991 43.4837L107.379 42.1818C107.622 42.2526 107.839 42.2865 108.03 42.2834C108.221 42.2803 108.389 42.2203 108.533 42.1033C108.681 41.9895 108.806 41.7987 108.907 41.5309L109.05 41.1477L106.479 33.9091H108.252L109.886 39.2642H109.96L111.599 33.9091H113.376L110.537 41.8587C110.405 42.2341 110.229 42.5558 110.011 42.8235C109.792 43.0943 109.524 43.3005 109.207 43.4421C108.893 43.5868 108.518 43.6591 108.081 43.6591ZM118.073 33.9091V35.2017H113.997V33.9091H118.073ZM115.003 32.2102H116.675V38.8672C116.675 39.0919 116.708 39.2642 116.776 39.3842C116.847 39.5012 116.939 39.5812 117.053 39.6243C117.167 39.6674 117.293 39.6889 117.432 39.6889C117.536 39.6889 117.632 39.6812 117.718 39.6658C117.807 39.6504 117.875 39.6366 117.921 39.6243L118.203 40.9308C118.113 40.9615 117.986 40.9954 117.819 41.0323C117.656 41.0692 117.456 41.0908 117.219 41.0969C116.801 41.1093 116.424 41.0462 116.088 40.9077C115.753 40.7661 115.487 40.5476 115.29 40.2521C115.096 39.9567 115 39.5874 115.003 39.1442V32.2102ZM119.471 41V33.9091H121.142V41H119.471ZM120.311 32.9027C120.046 32.9027 119.819 32.815 119.628 32.6396C119.437 32.4611 119.342 32.2472 119.342 31.9979C119.342 31.7455 119.437 31.5316 119.628 31.3562C119.819 31.1777 120.046 31.0884 120.311 31.0884C120.579 31.0884 120.807 31.1777 120.994 31.3562C121.185 31.5316 121.281 31.7455 121.281 31.9979C121.281 32.2472 121.185 32.4611 120.994 32.6396C120.807 32.815 120.579 32.9027 120.311 32.9027ZM125.954 41.1385C125.246 41.1385 124.638 40.9831 124.13 40.6722C123.625 40.3614 123.236 39.9321 122.962 39.3842C122.691 38.8333 122.556 38.1993 122.556 37.4822C122.556 36.7621 122.694 36.1265 122.971 35.5756C123.248 35.0217 123.639 34.5908 124.144 34.283C124.652 33.9722 125.252 33.8168 125.944 33.8168C126.52 33.8168 127.029 33.9229 127.472 34.1353C127.919 34.3446 128.274 34.6416 128.539 35.0263C128.804 35.4079 128.954 35.8542 128.991 36.3651H127.394C127.329 36.0234 127.175 35.7388 126.932 35.511C126.692 35.2802 126.371 35.1648 125.968 35.1648C125.626 35.1648 125.326 35.2571 125.067 35.4418C124.809 35.6233 124.607 35.8849 124.463 36.2266C124.321 36.5682 124.25 36.9775 124.25 37.4545C124.25 37.9377 124.321 38.3532 124.463 38.701C124.604 39.0457 124.803 39.3119 125.058 39.4996C125.317 39.6843 125.62 39.7766 125.968 39.7766C126.214 39.7766 126.434 39.7305 126.628 39.6381C126.825 39.5427 126.989 39.4058 127.122 39.2273C127.254 39.0488 127.345 38.8318 127.394 38.5763H128.991C128.951 39.078 128.804 39.5227 128.548 39.9105C128.293 40.2952 127.945 40.5968 127.505 40.8153C127.065 41.0308 126.548 41.1385 125.954 41.1385ZM135.968 35.7834L134.445 35.9496C134.401 35.7957 134.326 35.651 134.218 35.5156C134.114 35.3802 133.972 35.271 133.794 35.1879C133.615 35.1048 133.397 35.0632 133.138 35.0632C132.79 35.0632 132.498 35.1386 132.261 35.2894C132.027 35.4402 131.912 35.6357 131.915 35.8757C131.912 36.0819 131.987 36.2496 132.141 36.3789C132.298 36.5082 132.556 36.6143 132.916 36.6974L134.126 36.956C134.797 37.1006 135.295 37.3299 135.622 37.6438C135.951 37.9577 136.117 38.3686 136.12 38.8764C136.117 39.3227 135.986 39.7166 135.728 40.0582C135.472 40.3968 135.117 40.6615 134.661 40.8523C134.206 41.0431 133.683 41.1385 133.092 41.1385C132.224 41.1385 131.525 40.9569 130.996 40.5938C130.467 40.2275 130.151 39.7182 130.05 39.0657L131.679 38.9087C131.753 39.2288 131.91 39.4704 132.15 39.6335C132.39 39.7966 132.703 39.8782 133.087 39.8782C133.484 39.8782 133.803 39.7966 134.043 39.6335C134.286 39.4704 134.408 39.2688 134.408 39.0288C134.408 38.8256 134.329 38.6579 134.172 38.5256C134.018 38.3932 133.778 38.2917 133.452 38.2209L132.242 37.967C131.562 37.8254 131.059 37.5869 130.733 37.2514C130.407 36.9129 130.245 36.4851 130.248 35.968C130.245 35.531 130.364 35.1525 130.604 34.8324C130.847 34.5092 131.184 34.2599 131.615 34.0845C132.049 33.906 132.549 33.8168 133.115 33.8168C133.946 33.8168 134.6 33.9937 135.077 34.3477C135.557 34.7016 135.854 35.1802 135.968 35.7834Z" fill="black"/>
<line x1="66.5" y1="-2.18557e-08" x2="66.5" y2="249" stroke="black"/>
<line x1="67" y1="18.5" x2="341" y2="18.5" stroke="black"/>
<rect x="7" y="6" width="16" height="16" rx="8" fill="#FF00F5"/>
<rect x="9" y="31" width="51" height="5" rx="2.5" fill="#D9D9D9"/>
<rect x="9" y="67" width="51" height="5" rx="2.5" fill="#D9D9D9"/>
<rect x="9" y="79" width="46" height="5" rx="2.5" fill="#D9D9D9"/>
<rect x="9" y="43" width="46" height="5" rx="2.5" fill="#D9D9D9"/>
<rect x="9" y="115" width="46" height="5" rx="2.5" fill="#D9D9D9"/>
<rect x="9" y="55" width="8" height="5" rx="2.5" fill="#747474"/>
<rect x="9" y="103" width="8" height="5" rx="2.5" fill="#747474"/>
<rect x="9" y="91" width="37" height="5" rx="2.5" fill="#D9D9D9"/>
<rect x="9" y="127" width="37" height="5" rx="2.5" fill="#D9D9D9"/>
<rect x="8" y="228" width="51" height="14" rx="4" fill="#FF00F5"/>
<rect x="14" y="234" width="39" height="2" rx="1" fill="white"/>
</svg>
