<svg width="100%" height="100%" viewBox="0 0 342 250" fill="none" xmlns="http://www.w3.org/2000/svg">
<rect x="0.5" y="0.5" width="341" height="249" rx="7.5" fill="white" stroke="black"/>
<rect x="70.5" y="37.5" width="201" height="115" rx="3.5" fill="white" stroke="black" stroke-dasharray="2 2"/>
<g filter="url(#filter0_d_27_174)">
<rect x="160" y="57" width="22" height="22" rx="11" fill="#1C8500"/>
</g>
<g clip-path="url(#clip0_27_174)">
<path d="M169 70.8001L166.2 68.0001L165.267 68.9334L169 72.6667L177 64.6667L176.067 63.7334L169 70.8001Z" fill="white"/>
</g>
<rect x="121" y="90" width="99" height="8" rx="3" fill="#676767"/>
<rect opacity="0.8" x="91" y="104" width="160" height="5" rx="2.5" fill="#D9D9D9"/>
<rect x="172" y="123" width="28" height="11" rx="3" fill="#676767"/>
<rect x="178" y="127.5" width="16" height="2" rx="1" fill="white"/>
<g opacity="0.2">
<rect x="141" y="123" width="22" height="11" rx="3" fill="#676767"/>
<rect x="147" y="127.5" width="10" height="2" rx="1" fill="white"/>
</g>
<defs>
<filter id="filter0_d_27_174" x="160" y="57" width="26" height="26" filterUnits="userSpaceOnUse" color-interpolation-filters="sRGB">
<feFlood flood-opacity="0" result="BackgroundImageFix"/>
<feColorMatrix in="SourceAlpha" type="matrix" values="0 0 0 0 0 0 0 0 0 0 0 0 0 0 0 0 0 0 127 0" result="hardAlpha"/>
<feOffset dx="2" dy="2"/>
<feGaussianBlur stdDeviation="1"/>
<feComposite in2="hardAlpha" operator="out"/>
<feColorMatrix type="matrix" values="0 0 0 0 0 0 0 0 0 0 0 0 0 0 0 0 0 0 0.04 0"/>
<feBlend mode="normal" in2="BackgroundImageFix" result="effect1_dropShadow_27_174"/>
<feBlend mode="normal" in="SourceGraphic" in2="effect1_dropShadow_27_174" result="shape"/>
</filter>
<clipPath id="clip0_27_174">
<rect width="16" height="16" fill="white" transform="translate(163 60)"/>
</clipPath>
</defs>
</svg>
