<svg width="100%" height="100%" viewBox="0 0 342 250" fill="none" xmlns="http://www.w3.org/2000/svg">
<rect x="0.5" y="0.5" width="341" height="249" rx="7.5" fill="white" stroke="black"/>
<path d="M1 9.00001C1 4.58173 4.58172 1 9 1H333C337.418 1 341 4.58172 341 9V241C341 245.418 337.418 249 333 249H9C4.58172 249 1 245.418 1 241V9.00001Z" fill="white"/>
<rect x="167" y="47" width="54" height="54" rx="27" fill="#FF00F5" stroke="white" stroke-width="2" stroke-linecap="round"/>
<rect x="121" y="47" width="54" height="54" rx="27" fill="#1C8500" stroke="white" stroke-width="2" stroke-linecap="round"/>
<path d="M143.663 69.5455H145.362V76.1932C145.358 76.8026 145.229 77.3273 144.974 77.7674C144.718 78.2044 144.361 78.5414 143.903 78.7784C143.447 79.0123 142.916 79.1293 142.31 79.1293C141.756 79.1293 141.257 79.0308 140.814 78.8338C140.374 78.6338 140.025 78.3383 139.766 77.9474C139.508 77.5566 139.379 77.0703 139.379 76.4886H141.082C141.085 76.7441 141.141 76.9641 141.248 77.1488C141.359 77.3335 141.511 77.475 141.705 77.5735C141.899 77.672 142.122 77.7212 142.375 77.7212C142.649 77.7212 142.881 77.6643 143.072 77.5504C143.263 77.4335 143.407 77.2611 143.506 77.0334C143.607 76.8056 143.66 76.5256 143.663 76.1932V69.5455ZM150.423 79H147.22V69.5455H150.488C151.427 69.5455 152.233 69.7347 152.907 70.1133C153.584 70.4888 154.104 71.0289 154.468 71.7337C154.831 72.4384 155.012 73.2817 155.012 74.2635C155.012 75.2483 154.829 76.0947 154.463 76.8026C154.1 77.5104 153.575 78.0536 152.889 78.4322C152.205 78.8107 151.384 79 150.423 79ZM148.932 77.5181H150.34C150.999 77.5181 151.548 77.3981 151.988 77.158C152.429 76.9149 152.759 76.5533 152.981 76.0732C153.203 75.59 153.313 74.9867 153.313 74.2635C153.313 73.5402 153.203 72.9401 152.981 72.4631C152.759 71.983 152.432 71.6244 151.998 71.3874C151.567 71.1474 151.031 71.0273 150.391 71.0273H148.932V77.5181Z" fill="white"/>
<path d="M185.933 79V69.5455H189.478C190.204 69.5455 190.814 69.6716 191.306 69.924C191.802 70.1764 192.176 70.5303 192.428 70.9858C192.683 71.4382 192.811 71.966 192.811 72.5692C192.811 73.1755 192.682 73.7018 192.423 74.1481C192.168 74.5913 191.791 74.9344 191.292 75.1776C190.794 75.4176 190.181 75.5376 189.455 75.5376H186.93V74.1158H189.224C189.649 74.1158 189.997 74.0573 190.267 73.9403C190.538 73.8203 190.738 73.6464 190.868 73.4187C191 73.1879 191.066 72.9047 191.066 72.5692C191.066 72.2338 191 71.9476 190.868 71.7106C190.735 71.4705 190.534 71.2889 190.263 71.1658C189.992 71.0397 189.643 70.9766 189.215 70.9766H187.645V79H185.933ZM190.817 74.7159L193.157 79H191.246L188.947 74.7159H190.817ZM195.602 79H193.774L197.102 69.5455H199.216L202.55 79H200.721L198.196 71.4844H198.122L195.602 79ZM195.662 75.293H200.648V76.6687H195.662V75.293Z" fill="white"/>
</svg>
