<svg width="100%" height="100%" viewBox="0 0 342 250" fill="none" xmlns="http://www.w3.org/2000/svg">
<rect x="0.5" y="0.5" width="341" height="249" rx="7.5" fill="white" stroke="black"/>
<path d="M1 9.00001C1 4.58173 4.58172 1 9 1H333C337.418 1 341 4.58172 341 9V241C341 245.418 337.418 249 333 249H9C4.58172 249 1 245.418 1 241V9.00001Z" fill="#BEBEBE"/>
<g filter="url(#filter0_d_29_1662)">
<rect x="75" y="42" width="191" height="166" rx="4" fill="white"/>
<rect x="75.5" y="42.5" width="190" height="165" rx="3.5" stroke="black"/>
</g>
<path opacity="0.4" d="M76 143H265V203C265 205.209 263.209 207 261 207H80C77.7909 207 76 205.209 76 203V143Z" fill="#E1E1E1"/>
<path d="M147.885 64V56H151.041C151.645 56 152.161 56.1081 152.588 56.3242C153.018 56.5378 153.344 56.8411 153.568 57.2344C153.795 57.625 153.908 58.0846 153.908 58.6133C153.908 59.1445 153.794 59.6016 153.564 59.9844C153.335 60.3646 153.003 60.6562 152.568 60.8594C152.136 61.0625 151.613 61.1641 150.998 61.1641H148.885V59.8047H150.725C151.048 59.8047 151.316 59.7604 151.529 59.6719C151.743 59.5833 151.902 59.4505 152.006 59.2734C152.113 59.0964 152.166 58.8763 152.166 58.6133C152.166 58.3477 152.113 58.1237 152.006 57.9414C151.902 57.7591 151.742 57.6211 151.525 57.5273C151.312 57.431 151.042 57.3828 150.717 57.3828H149.576V64H147.885ZM152.205 60.3594L154.193 64H152.326L150.381 60.3594H152.205ZM157.71 64.1172C157.093 64.1172 156.562 63.9922 156.116 63.7422C155.674 63.4896 155.332 63.1328 155.093 62.6719C154.853 62.2083 154.733 61.6602 154.733 61.0273C154.733 60.4102 154.853 59.8685 155.093 59.4023C155.332 58.9362 155.67 58.5729 156.104 58.3125C156.542 58.0521 157.055 57.9219 157.644 57.9219C158.039 57.9219 158.408 57.9857 158.749 58.1133C159.093 58.2383 159.392 58.4271 159.647 58.6797C159.905 58.9323 160.106 59.25 160.249 59.6328C160.392 60.013 160.464 60.4583 160.464 60.9687V61.4258H155.397V60.3945H158.897C158.897 60.1549 158.845 59.9427 158.741 59.7578C158.637 59.5729 158.493 59.4284 158.308 59.3242C158.125 59.2174 157.913 59.1641 157.671 59.1641C157.418 59.1641 157.194 59.2227 156.999 59.3398C156.806 59.4544 156.655 59.6094 156.546 59.8047C156.437 59.9974 156.381 60.2122 156.378 60.4492V61.4297C156.378 61.7266 156.433 61.9831 156.542 62.1992C156.654 62.4154 156.812 62.582 157.015 62.6992C157.218 62.8164 157.459 62.875 157.737 62.875C157.922 62.875 158.091 62.849 158.245 62.7969C158.399 62.7448 158.53 62.6667 158.64 62.5625C158.749 62.4583 158.832 62.3307 158.89 62.1797L160.429 62.2812C160.351 62.651 160.19 62.974 159.948 63.25C159.709 63.5234 159.399 63.737 159.019 63.8906C158.641 64.0417 158.205 64.1172 157.71 64.1172ZM166.982 58L164.885 64H163.01L160.912 58H162.67L163.916 62.293H163.979L165.221 58H166.982ZM170.375 64.1172C169.758 64.1172 169.227 63.9922 168.781 63.7422C168.339 63.4896 167.997 63.1328 167.758 62.6719C167.518 62.2083 167.398 61.6602 167.398 61.0273C167.398 60.4102 167.518 59.8685 167.758 59.4023C167.997 58.9362 168.335 58.5729 168.77 58.3125C169.207 58.0521 169.72 57.9219 170.309 57.9219C170.704 57.9219 171.073 57.9857 171.414 58.1133C171.758 58.2383 172.057 58.4271 172.313 58.6797C172.57 58.9323 172.771 59.25 172.914 59.6328C173.057 60.013 173.129 60.4583 173.129 60.9687V61.4258H168.063V60.3945H171.563C171.563 60.1549 171.51 59.9427 171.406 59.7578C171.302 59.5729 171.158 59.4284 170.973 59.3242C170.79 59.2174 170.578 59.1641 170.336 59.1641C170.083 59.1641 169.859 59.2227 169.664 59.3398C169.471 59.4544 169.32 59.6094 169.211 59.8047C169.102 59.9974 169.046 60.2122 169.043 60.4492V61.4297C169.043 61.7266 169.098 61.9831 169.207 62.1992C169.319 62.4154 169.477 62.582 169.68 62.6992C169.883 62.8164 170.124 62.875 170.402 62.875C170.587 62.875 170.757 62.849 170.91 62.7969C171.064 62.7448 171.195 62.6667 171.305 62.5625C171.414 62.4583 171.497 62.3307 171.555 62.1797L173.094 62.2812C173.016 62.651 172.855 62.974 172.613 63.25C172.374 63.5234 172.064 63.737 171.684 63.8906C171.306 64.0417 170.87 64.1172 170.375 64.1172ZM175.879 60.5313V64H174.215V58H175.801V59.0586H175.871C176.004 58.7096 176.227 58.4336 176.539 58.2305C176.852 58.0247 177.23 57.9219 177.676 57.9219C178.092 57.9219 178.456 58.013 178.766 58.1953C179.076 58.3776 179.316 58.638 179.488 58.9766C179.66 59.3125 179.746 59.7135 179.746 60.1797V64H178.082V60.4766C178.085 60.1094 177.991 59.8229 177.801 59.6172C177.611 59.4089 177.349 59.3047 177.016 59.3047C176.792 59.3047 176.594 59.3529 176.422 59.4492C176.253 59.5456 176.12 59.6862 176.023 59.8711C175.93 60.0534 175.882 60.2734 175.879 60.5313ZM184.905 61.4453V58H186.569V64H184.972V62.9102H184.909C184.774 63.2617 184.549 63.5443 184.233 63.7578C183.921 63.9714 183.539 64.0781 183.089 64.0781C182.688 64.0781 182.335 63.987 182.03 63.8047C181.726 63.6224 181.487 63.3633 181.315 63.0273C181.146 62.6914 181.06 62.2891 181.058 61.8203V58H182.722V61.5234C182.724 61.8776 182.819 62.1576 183.007 62.3633C183.194 62.569 183.446 62.6719 183.761 62.6719C183.961 62.6719 184.149 62.6263 184.323 62.5352C184.498 62.4414 184.638 62.3034 184.745 62.1211C184.854 61.9388 184.908 61.7135 184.905 61.4453ZM190.635 64.1172C190.018 64.1172 189.486 63.9922 189.041 63.7422C188.598 63.4896 188.257 63.1328 188.018 62.6719C187.778 62.2083 187.658 61.6602 187.658 61.0273C187.658 60.4102 187.778 59.8685 188.018 59.4023C188.257 58.9362 188.594 58.5729 189.029 58.3125C189.467 58.0521 189.98 57.9219 190.568 57.9219C190.964 57.9219 191.333 57.9857 191.674 58.1133C192.018 58.2383 192.317 58.4271 192.572 58.6797C192.83 58.9323 193.031 59.25 193.174 59.6328C193.317 60.013 193.389 60.4583 193.389 60.9687V61.4258H188.322V60.3945H191.822C191.822 60.1549 191.77 59.9427 191.666 59.7578C191.562 59.5729 191.417 59.4284 191.232 59.3242C191.05 59.2174 190.838 59.1641 190.596 59.1641C190.343 59.1641 190.119 59.2227 189.924 59.3398C189.731 59.4544 189.58 59.6094 189.471 59.8047C189.361 59.9974 189.305 60.2122 189.303 60.4492V61.4297C189.303 61.7266 189.357 61.9831 189.467 62.1992C189.579 62.4154 189.736 62.582 189.939 62.6992C190.143 62.8164 190.383 62.875 190.662 62.875C190.847 62.875 191.016 62.849 191.17 62.7969C191.324 62.7448 191.455 62.6667 191.564 62.5625C191.674 62.4583 191.757 62.3307 191.814 62.1797L193.354 62.2812C193.275 62.651 193.115 62.974 192.873 63.25C192.633 63.5234 192.324 63.737 191.943 63.8906C191.566 64.0417 191.13 64.1172 190.635 64.1172Z" fill="black"/>
<rect x="116.5" y="154" width="27" height="5" rx="2.5" fill="#676767"/>
<rect opacity="0.8" x="107.5" y="163" width="45" height="3" rx="1.5" fill="#D9D9D9"/>
<rect x="197.5" y="154" width="27" height="5" rx="2.5" fill="#676767"/>
<rect opacity="0.8" x="188.5" y="163" width="45" height="3" rx="1.5" fill="#D9D9D9"/>
<rect x="116.5" y="184" width="27" height="5" rx="2.5" fill="#676767"/>
<rect opacity="0.8" x="107.5" y="193" width="45" height="3" rx="1.5" fill="#D9D9D9"/>
<rect x="197.5" y="184" width="27" height="5" rx="2.5" fill="#676767"/>
<rect opacity="0.8" x="188.5" y="193" width="45" height="3" rx="1.5" fill="#D9D9D9"/>
<rect x="97" y="78" width="10" height="52" rx="2" fill="#D9D9D9"/>
<rect x="114" y="94" width="10" height="36" rx="2" fill="#D9D9D9"/>
<rect x="131" y="84" width="10" height="46" rx="2" fill="#D9D9D9"/>
<rect x="148" y="115" width="10" height="15" rx="2" fill="#D9D9D9"/>
<rect x="165" y="101" width="10" height="29" rx="2" fill="#D9D9D9"/>
<rect x="182" y="89" width="10" height="41" rx="2" fill="#D9D9D9"/>
<rect x="199" y="81" width="10" height="49" rx="2" fill="#D9D9D9"/>
<rect x="216" y="94" width="10" height="36" rx="2" fill="#D9D9D9"/>
<rect x="233" y="105" width="10" height="25" rx="2" fill="#D9D9D9"/>
<defs>
<filter id="filter0_d_29_1662" x="71" y="40" width="199" height="174" filterUnits="userSpaceOnUse" color-interpolation-filters="sRGB">
<feFlood flood-opacity="0" result="BackgroundImageFix"/>
<feColorMatrix in="SourceAlpha" type="matrix" values="0 0 0 0 0 0 0 0 0 0 0 0 0 0 0 0 0 0 127 0" result="hardAlpha"/>
<feOffset dy="2"/>
<feGaussianBlur stdDeviation="2"/>
<feComposite in2="hardAlpha" operator="out"/>
<feColorMatrix type="matrix" values="0 0 0 0 0 0 0 0 0 0 0 0 0 0 0 0 0 0 0.05 0"/>
<feBlend mode="normal" in2="BackgroundImageFix" result="effect1_dropShadow_29_1662"/>
<feBlend mode="normal" in="SourceGraphic" in2="effect1_dropShadow_29_1662" result="shape"/>
</filter>
</defs>
</svg>
