<svg width="100%" height="100%" viewBox="0 0 342 250" fill="none" xmlns="http://www.w3.org/2000/svg">
<rect x="0.5" y="0.5" width="341" height="249" rx="7.5" fill="white" stroke="black"/>
<path d="M1 9.00001C1 4.58173 4.58172 1 9 1H333C337.418 1 341 4.58172 341 9V241C341 245.418 337.418 249 333 249H9C4.58172 249 1 245.418 1 241V9.00001Z" fill="#BEBEBE"/>
<g filter="url(#filter0_d_27_94)">
<rect x="24" y="83" width="294" height="43" rx="4" fill="white"/>
<rect x="24.5" y="83.5" width="293" height="42" rx="3.5" stroke="black"/>
</g>
<path d="M46.3042 109.5V100.773H47.8851V104.467H51.9292V100.773H53.5144V109.5H51.9292V105.793H47.8851V109.5H46.3042ZM58.0208 109.628C57.3816 109.628 56.8276 109.487 56.3588 109.206C55.8901 108.925 55.5265 108.531 55.2679 108.026C55.0123 107.52 54.8844 106.929 54.8844 106.253C54.8844 105.577 55.0123 104.984 55.2679 104.476C55.5265 103.967 55.8901 103.572 56.3588 103.291C56.8276 103.01 57.3816 102.869 58.0208 102.869C58.66 102.869 59.214 103.01 59.6827 103.291C60.1515 103.572 60.5137 103.967 60.7694 104.476C61.0279 104.984 61.1571 105.577 61.1571 106.253C61.1571 106.929 61.0279 107.52 60.7694 108.026C60.5137 108.531 60.1515 108.925 59.6827 109.206C59.214 109.487 58.66 109.628 58.0208 109.628ZM58.0293 108.392C58.3759 108.392 58.6657 108.297 58.8986 108.107C59.1316 107.913 59.3049 107.655 59.4185 107.331C59.535 107.007 59.5932 106.646 59.5932 106.249C59.5932 105.848 59.535 105.486 59.4185 105.162C59.3049 104.835 59.1316 104.575 58.8986 104.382C58.6657 104.189 58.3759 104.092 58.0293 104.092C57.6742 104.092 57.3787 104.189 57.1429 104.382C56.91 104.575 56.7353 104.835 56.6188 105.162C56.5051 105.486 56.4483 105.848 56.4483 106.249C56.4483 106.646 56.5051 107.007 56.6188 107.331C56.7353 107.655 56.91 107.913 57.1429 108.107C57.3787 108.297 57.6742 108.392 58.0293 108.392ZM62.4664 109.5V102.955H63.9409V104.067H64.0176C64.1539 103.692 64.3798 103.399 64.6951 103.189C65.0105 102.976 65.3869 102.869 65.8244 102.869C66.2676 102.869 66.6412 102.977 66.9451 103.193C67.252 103.406 67.4679 103.697 67.5929 104.067H67.661C67.8059 103.703 68.0502 103.413 68.394 103.197C68.7406 102.979 69.1511 102.869 69.6255 102.869C70.2278 102.869 70.7193 103.06 71.1 103.44C71.4806 103.821 71.671 104.376 71.671 105.107V109.5H70.1241V105.345C70.1241 104.939 70.0162 104.642 69.8002 104.455C69.5843 104.264 69.3201 104.169 69.0076 104.169C68.6355 104.169 68.3443 104.286 68.1341 104.518C67.9267 104.749 67.823 105.048 67.823 105.418V109.5H66.3102V105.281C66.3102 104.943 66.2079 104.673 66.0034 104.472C65.8017 104.27 65.5375 104.169 65.2108 104.169C64.9892 104.169 64.7875 104.226 64.6056 104.339C64.4238 104.45 64.2789 104.608 64.171 104.812C64.063 105.014 64.0091 105.25 64.0091 105.52V109.5H62.4664ZM76.1337 109.628C75.4775 109.628 74.9107 109.491 74.4334 109.219C73.959 108.943 73.5939 108.554 73.3382 108.051C73.0826 107.545 72.9547 106.95 72.9547 106.266C72.9547 105.592 73.0826 105.001 73.3382 104.493C73.5968 103.982 73.9576 103.584 74.4206 103.3C74.8837 103.013 75.4277 102.869 76.0527 102.869C76.4561 102.869 76.8368 102.935 77.1948 103.065C77.5556 103.193 77.8738 103.392 78.1493 103.662C78.4277 103.932 78.6465 104.276 78.8056 104.693C78.9647 105.108 79.0442 105.602 79.0442 106.176V106.649H73.6792V105.609H77.5655C77.5627 105.314 77.4988 105.051 77.3738 104.821C77.2488 104.588 77.074 104.405 76.8496 104.271C76.628 104.138 76.3695 104.071 76.074 104.071C75.7587 104.071 75.4817 104.148 75.2431 104.301C75.0044 104.452 74.8184 104.651 74.6848 104.898C74.5542 105.142 74.4874 105.411 74.4846 105.703V106.611C74.4846 106.991 74.5542 107.318 74.6934 107.591C74.8326 107.861 75.0272 108.068 75.2772 108.213C75.5272 108.355 75.8198 108.426 76.155 108.426C76.3794 108.426 76.5826 108.395 76.7644 108.332C76.9462 108.267 77.1039 108.172 77.2374 108.047C77.3709 107.922 77.4718 107.767 77.54 107.582L78.9803 107.744C78.8894 108.125 78.7161 108.457 78.4604 108.741C78.2076 109.023 77.8837 109.241 77.4888 109.398C77.0939 109.551 76.6422 109.628 76.1337 109.628Z" fill="#FF00F5"/>
<path d="M100.582 100.364L97.7692 110.812H96.4183L99.2308 100.364H100.582Z" fill="#676767"/>
<rect x="117" y="96" width="26" height="18" rx="3" fill="#D9D9D9"/>
<g clip-path="url(#clip0_27_94)">
<path d="M126 103.667C125.267 103.667 124.667 104.267 124.667 105C124.667 105.733 125.267 106.333 126 106.333C126.733 106.333 127.333 105.733 127.333 105C127.333 104.267 126.733 103.667 126 103.667ZM134 103.667C133.267 103.667 132.667 104.267 132.667 105C132.667 105.733 133.267 106.333 134 106.333C134.733 106.333 135.333 105.733 135.333 105C135.333 104.267 134.733 103.667 134 103.667ZM130 103.667C129.267 103.667 128.667 104.267 128.667 105C128.667 105.733 129.267 106.333 130 106.333C130.733 106.333 131.333 105.733 131.333 105C131.333 104.267 130.733 103.667 130 103.667Z" fill="black"/>
</g>
<path d="M163.582 100.364L160.769 110.812H159.418L162.231 100.364H163.582Z" fill="#676767"/>
<path d="M186.741 100.773H188.322V106.474C188.322 107.099 188.174 107.649 187.879 108.124C187.586 108.598 187.174 108.969 186.643 109.236C186.112 109.5 185.491 109.632 184.781 109.632C184.068 109.632 183.446 109.5 182.914 109.236C182.383 108.969 181.971 108.598 181.679 108.124C181.386 107.649 181.24 107.099 181.24 106.474V100.773H182.821V106.342C182.821 106.706 182.9 107.03 183.059 107.314C183.221 107.598 183.449 107.821 183.741 107.983C184.034 108.142 184.38 108.222 184.781 108.222C185.181 108.222 185.528 108.142 185.821 107.983C186.116 107.821 186.343 107.598 186.502 107.314C186.662 107.03 186.741 106.706 186.741 106.342V100.773ZM195.146 104.685L193.739 104.838C193.7 104.696 193.63 104.562 193.531 104.438C193.434 104.312 193.303 104.212 193.138 104.135C192.974 104.058 192.772 104.02 192.533 104.02C192.212 104.02 191.942 104.089 191.724 104.229C191.508 104.368 191.401 104.548 191.404 104.77C191.401 104.96 191.471 105.115 191.613 105.234C191.758 105.354 191.996 105.452 192.329 105.528L193.445 105.767C194.065 105.901 194.525 106.112 194.826 106.402C195.13 106.692 195.283 107.071 195.286 107.54C195.283 107.952 195.163 108.315 194.924 108.631C194.688 108.943 194.36 109.187 193.94 109.364C193.519 109.54 193.036 109.628 192.491 109.628C191.69 109.628 191.045 109.46 190.556 109.125C190.067 108.787 189.776 108.317 189.683 107.714L191.187 107.57C191.255 107.865 191.4 108.088 191.621 108.239C191.843 108.389 192.131 108.464 192.487 108.464C192.853 108.464 193.147 108.389 193.369 108.239C193.593 108.088 193.705 107.902 193.705 107.68C193.705 107.493 193.633 107.338 193.488 107.216C193.346 107.094 193.124 107 192.823 106.935L191.707 106.7C191.079 106.57 190.614 106.349 190.313 106.04C190.012 105.727 189.863 105.332 189.866 104.855C189.863 104.452 189.972 104.102 190.194 103.807C190.418 103.509 190.729 103.278 191.127 103.116C191.528 102.952 191.989 102.869 192.512 102.869C193.279 102.869 193.883 103.033 194.323 103.359C194.766 103.686 195.04 104.128 195.146 104.685ZM199.456 109.628C198.8 109.628 198.233 109.491 197.756 109.219C197.281 108.943 196.916 108.554 196.661 108.051C196.405 107.545 196.277 106.95 196.277 106.266C196.277 105.592 196.405 105.001 196.661 104.493C196.919 103.982 197.28 103.584 197.743 103.3C198.206 103.013 198.75 102.869 199.375 102.869C199.778 102.869 200.159 102.935 200.517 103.065C200.878 103.193 201.196 103.392 201.472 103.662C201.75 103.932 201.969 104.276 202.128 104.693C202.287 105.108 202.366 105.602 202.366 106.176V106.649H197.001V105.609H200.888C200.885 105.314 200.821 105.051 200.696 104.821C200.571 104.588 200.396 104.405 200.172 104.271C199.95 104.138 199.692 104.071 199.396 104.071C199.081 104.071 198.804 104.148 198.565 104.301C198.327 104.452 198.141 104.651 198.007 104.898C197.876 105.142 197.81 105.411 197.807 105.703V106.611C197.807 106.991 197.876 107.318 198.016 107.591C198.155 107.861 198.349 108.068 198.599 108.213C198.849 108.355 199.142 108.426 199.477 108.426C199.702 108.426 199.905 108.395 200.087 108.332C200.268 108.267 200.426 108.172 200.56 108.047C200.693 107.922 200.794 107.767 200.862 107.582L202.303 107.744C202.212 108.125 202.038 108.457 201.783 108.741C201.53 109.023 201.206 109.241 200.811 109.398C200.416 109.551 199.964 109.628 199.456 109.628ZM203.672 109.5V102.955H205.167V104.045H205.235C205.355 103.668 205.559 103.376 205.849 103.172C206.142 102.964 206.475 102.861 206.85 102.861C206.936 102.861 207.031 102.865 207.136 102.874C207.244 102.879 207.333 102.889 207.404 102.903V104.322C207.339 104.3 207.235 104.28 207.093 104.263C206.954 104.243 206.819 104.233 206.689 104.233C206.407 104.233 206.154 104.294 205.93 104.416C205.708 104.536 205.534 104.702 205.406 104.915C205.278 105.128 205.214 105.374 205.214 105.652V109.5H203.672ZM211.406 111.955V102.955H212.923V104.037H213.012C213.092 103.878 213.204 103.709 213.349 103.53C213.494 103.348 213.69 103.193 213.937 103.065C214.184 102.935 214.5 102.869 214.883 102.869C215.389 102.869 215.845 102.999 216.251 103.257C216.66 103.513 216.984 103.892 217.223 104.395C217.464 104.895 217.585 105.509 217.585 106.236C217.585 106.955 217.467 107.565 217.231 108.068C216.995 108.571 216.674 108.955 216.268 109.219C215.862 109.483 215.402 109.615 214.887 109.615C214.512 109.615 214.201 109.553 213.954 109.428C213.707 109.303 213.508 109.152 213.358 108.976C213.21 108.797 213.095 108.628 213.012 108.469H212.949V111.955H211.406ZM212.919 106.227C212.919 106.651 212.978 107.021 213.098 107.339C213.22 107.658 213.395 107.906 213.622 108.085C213.852 108.261 214.13 108.349 214.457 108.349C214.798 108.349 215.083 108.259 215.314 108.077C215.544 107.892 215.717 107.641 215.833 107.322C215.953 107.001 216.012 106.636 216.012 106.227C216.012 105.821 215.954 105.46 215.838 105.145C215.721 104.83 215.548 104.582 215.318 104.403C215.088 104.224 214.801 104.135 214.457 104.135C214.127 104.135 213.848 104.222 213.618 104.395C213.387 104.568 213.213 104.811 213.093 105.124C212.977 105.436 212.919 105.804 212.919 106.227ZM218.906 109.5V102.955H220.402V104.045H220.47C220.589 103.668 220.794 103.376 221.083 103.172C221.376 102.964 221.71 102.861 222.085 102.861C222.17 102.861 222.265 102.865 222.37 102.874C222.478 102.879 222.568 102.889 222.639 102.903V104.322C222.574 104.3 222.47 104.28 222.328 104.263C222.189 104.243 222.054 104.233 221.923 104.233C221.642 104.233 221.389 104.294 221.164 104.416C220.943 104.536 220.768 104.702 220.64 104.915C220.512 105.128 220.449 105.374 220.449 105.652V109.5H218.906ZM226.249 109.628C225.61 109.628 225.056 109.487 224.587 109.206C224.119 108.925 223.755 108.531 223.496 108.026C223.241 107.52 223.113 106.929 223.113 106.253C223.113 105.577 223.241 104.984 223.496 104.476C223.755 103.967 224.119 103.572 224.587 103.291C225.056 103.01 225.61 102.869 226.249 102.869C226.888 102.869 227.442 103.01 227.911 103.291C228.38 103.572 228.742 103.967 228.998 104.476C229.256 104.984 229.386 105.577 229.386 106.253C229.386 106.929 229.256 107.52 228.998 108.026C228.742 108.531 228.38 108.925 227.911 109.206C227.442 109.487 226.888 109.628 226.249 109.628ZM226.258 108.392C226.604 108.392 226.894 108.297 227.127 108.107C227.36 107.913 227.533 107.655 227.647 107.331C227.763 107.007 227.822 106.646 227.822 106.249C227.822 105.848 227.763 105.486 227.647 105.162C227.533 104.835 227.36 104.575 227.127 104.382C226.894 104.189 226.604 104.092 226.258 104.092C225.903 104.092 225.607 104.189 225.371 104.382C225.138 104.575 224.964 104.835 224.847 105.162C224.734 105.486 224.677 105.848 224.677 106.249C224.677 106.646 224.734 107.007 224.847 107.331C224.964 107.655 225.138 107.913 225.371 108.107C225.607 108.297 225.903 108.392 226.258 108.392ZM234.01 102.955V104.148H230.141V102.955H234.01ZM231.108 109.5V102.337C231.108 101.896 231.199 101.53 231.381 101.237C231.566 100.945 231.813 100.726 232.123 100.581C232.432 100.436 232.776 100.364 233.154 100.364C233.421 100.364 233.658 100.385 233.865 100.428C234.073 100.47 234.226 100.509 234.326 100.543L234.019 101.736C233.953 101.716 233.871 101.696 233.772 101.676C233.672 101.653 233.561 101.642 233.439 101.642C233.152 101.642 232.949 101.712 232.83 101.851C232.713 101.987 232.655 102.183 232.655 102.439V109.5H231.108ZM235.218 109.5V102.955H236.761V109.5H235.218ZM235.994 102.026C235.75 102.026 235.539 101.945 235.363 101.783C235.187 101.618 235.099 101.42 235.099 101.19C235.099 100.957 235.187 100.76 235.363 100.598C235.539 100.433 235.75 100.351 235.994 100.351C236.241 100.351 236.451 100.433 236.625 100.598C236.801 100.76 236.889 100.957 236.889 101.19C236.889 101.42 236.801 101.618 236.625 101.783C236.451 101.945 236.241 102.026 235.994 102.026ZM239.89 100.773V109.5H238.347V100.773H239.89ZM244.374 109.628C243.718 109.628 243.151 109.491 242.674 109.219C242.199 108.943 241.834 108.554 241.578 108.051C241.323 107.545 241.195 106.95 241.195 106.266C241.195 105.592 241.323 105.001 241.578 104.493C241.837 103.982 242.198 103.584 242.661 103.3C243.124 103.013 243.668 102.869 244.293 102.869C244.696 102.869 245.077 102.935 245.435 103.065C245.796 103.193 246.114 103.392 246.39 103.662C246.668 103.932 246.887 104.276 247.046 104.693C247.205 105.108 247.284 105.602 247.284 106.176V106.649H241.919V105.609H245.806C245.803 105.314 245.739 105.051 245.614 104.821C245.489 104.588 245.314 104.405 245.09 104.271C244.868 104.138 244.61 104.071 244.314 104.071C243.999 104.071 243.722 104.148 243.483 104.301C243.245 104.452 243.059 104.651 242.925 104.898C242.794 105.142 242.728 105.411 242.725 105.703V106.611C242.725 106.991 242.794 107.318 242.934 107.591C243.073 107.861 243.267 108.068 243.517 108.213C243.767 108.355 244.06 108.426 244.395 108.426C244.62 108.426 244.823 108.395 245.005 108.332C245.186 108.267 245.344 108.172 245.478 108.047C245.611 107.922 245.712 107.767 245.78 107.582L247.221 107.744C247.13 108.125 246.956 108.457 246.701 108.741C246.448 109.023 246.124 109.241 245.729 109.398C245.334 109.551 244.882 109.628 244.374 109.628ZM254.881 102.955V104.148H251.012V102.955H254.881ZM251.979 109.5V102.337C251.979 101.896 252.07 101.53 252.252 101.237C252.437 100.945 252.684 100.726 252.994 100.581C253.303 100.436 253.647 100.364 254.025 100.364C254.292 100.364 254.529 100.385 254.737 100.428C254.944 100.47 255.097 100.509 255.197 100.543L254.89 101.736C254.825 101.716 254.742 101.696 254.643 101.676C254.543 101.653 254.433 101.642 254.31 101.642C254.023 101.642 253.82 101.712 253.701 101.851C253.585 101.987 253.526 102.183 253.526 102.439V109.5H251.979ZM258.699 109.628C258.059 109.628 257.505 109.487 257.037 109.206C256.568 108.925 256.204 108.531 255.946 108.026C255.69 107.52 255.562 106.929 255.562 106.253C255.562 105.577 255.69 104.984 255.946 104.476C256.204 103.967 256.568 103.572 257.037 103.291C257.505 103.01 258.059 102.869 258.699 102.869C259.338 102.869 259.892 103.01 260.36 103.291C260.829 103.572 261.191 103.967 261.447 104.476C261.706 104.984 261.835 105.577 261.835 106.253C261.835 106.929 261.706 107.52 261.447 108.026C261.191 108.531 260.829 108.925 260.36 109.206C259.892 109.487 259.338 109.628 258.699 109.628ZM258.707 108.392C259.054 108.392 259.343 108.297 259.576 108.107C259.809 107.913 259.983 107.655 260.096 107.331C260.213 107.007 260.271 106.646 260.271 106.249C260.271 105.848 260.213 105.486 260.096 105.162C259.983 104.835 259.809 104.575 259.576 104.382C259.343 104.189 259.054 104.092 258.707 104.092C258.352 104.092 258.056 104.189 257.821 104.382C257.588 104.575 257.413 104.835 257.297 105.162C257.183 105.486 257.126 105.848 257.126 106.249C257.126 106.646 257.183 107.007 257.297 107.331C257.413 107.655 257.588 107.913 257.821 108.107C258.056 108.297 258.352 108.392 258.707 108.392ZM263.144 109.5V102.955H264.64V104.045H264.708C264.827 103.668 265.032 103.376 265.322 103.172C265.614 102.964 265.948 102.861 266.323 102.861C266.408 102.861 266.504 102.865 266.609 102.874C266.717 102.879 266.806 102.889 266.877 102.903V104.322C266.812 104.3 266.708 104.28 266.566 104.263C266.427 104.243 266.292 104.233 266.161 104.233C265.88 104.233 265.627 104.294 265.403 104.416C265.181 104.536 265.006 104.702 264.879 104.915C264.751 105.128 264.687 105.374 264.687 105.652V109.5H263.144ZM272.067 109.5H270.38L273.452 100.773H275.404L278.481 109.5H276.793L274.462 102.562H274.394L272.067 109.5ZM272.123 106.078H276.725V107.348H272.123V106.078ZM281.105 100.773V109.5H279.562V100.773H281.105ZM285.589 109.628C284.933 109.628 284.366 109.491 283.888 109.219C283.414 108.943 283.049 108.554 282.793 108.051C282.538 107.545 282.41 106.95 282.41 106.266C282.41 105.592 282.538 105.001 282.793 104.493C283.052 103.982 283.413 103.584 283.876 103.3C284.339 103.013 284.883 102.869 285.508 102.869C285.911 102.869 286.292 102.935 286.65 103.065C287.011 103.193 287.329 103.392 287.604 103.662C287.883 103.932 288.102 104.276 288.261 104.693C288.42 105.108 288.499 105.602 288.499 106.176V106.649H283.134V105.609H287.021C287.018 105.314 286.954 105.051 286.829 104.821C286.704 104.588 286.529 104.405 286.305 104.271C286.083 104.138 285.825 104.071 285.529 104.071C285.214 104.071 284.937 104.148 284.698 104.301C284.46 104.452 284.273 104.651 284.14 104.898C284.009 105.142 283.942 105.411 283.94 105.703V106.611C283.94 106.991 284.009 107.318 284.148 107.591C284.288 107.861 284.482 108.068 284.732 108.213C284.982 108.355 285.275 108.426 285.61 108.426C285.835 108.426 286.038 108.395 286.219 108.332C286.401 108.267 286.559 108.172 286.692 108.047C286.826 107.922 286.927 107.767 286.995 107.582L288.435 107.744C288.344 108.125 288.171 108.457 287.915 108.741C287.663 109.023 287.339 109.241 286.944 109.398C286.549 109.551 286.097 109.628 285.589 109.628ZM290.925 102.955L292.246 105.371L293.588 102.955H295.221L293.248 106.227L295.255 109.5H293.631L292.246 107.143L290.874 109.5H289.238L291.232 106.227L289.289 102.955H290.925Z" fill="black"/>
<defs>
<filter id="filter0_d_27_94" x="20" y="81" width="302" height="51" filterUnits="userSpaceOnUse" color-interpolation-filters="sRGB">
<feFlood flood-opacity="0" result="BackgroundImageFix"/>
<feColorMatrix in="SourceAlpha" type="matrix" values="0 0 0 0 0 0 0 0 0 0 0 0 0 0 0 0 0 0 127 0" result="hardAlpha"/>
<feOffset dy="2"/>
<feGaussianBlur stdDeviation="2"/>
<feComposite in2="hardAlpha" operator="out"/>
<feColorMatrix type="matrix" values="0 0 0 0 0 0 0 0 0 0 0 0 0 0 0 0 0 0 0.05 0"/>
<feBlend mode="normal" in2="BackgroundImageFix" result="effect1_dropShadow_27_94"/>
<feBlend mode="normal" in="SourceGraphic" in2="effect1_dropShadow_27_94" result="shape"/>
</filter>
<clipPath id="clip0_27_94">
<rect width="16" height="16" fill="white" transform="translate(122 97)"/>
</clipPath>
</defs>
</svg>
