<svg width="100%" height="100%" viewBox="0 0 342 250" fill="none" xmlns="http://www.w3.org/2000/svg">
<rect x="0.5" y="0.5" width="341" height="249" rx="7.5" fill="white" stroke="black"/>
<g filter="url(#filter0_d_11_2073)">
<rect x="111" y="67" width="105" height="40" rx="4" fill="#FF00F5"/>
</g>
<path d="M126.933 91V81.5455H130.552C131.235 81.5455 131.803 81.6532 132.255 81.8686C132.711 82.081 133.051 82.3718 133.276 82.7411C133.503 83.1104 133.617 83.529 133.617 83.9968C133.617 84.3815 133.543 84.7108 133.396 84.9847C133.248 85.2556 133.049 85.4756 132.8 85.6449C132.551 85.8142 132.272 85.9357 131.964 86.0096V86.1019C132.3 86.1204 132.622 86.2235 132.929 86.4112C133.24 86.5959 133.494 86.8575 133.691 87.196C133.888 87.5346 133.987 87.9439 133.987 88.424C133.987 88.9134 133.868 89.3535 133.631 89.7443C133.394 90.1321 133.037 90.4383 132.56 90.663C132.083 90.8877 131.483 91 130.76 91H126.933ZM128.645 89.5689H130.487C131.109 89.5689 131.557 89.4504 131.831 89.2134C132.108 88.9734 132.246 88.6656 132.246 88.2901C132.246 88.0101 132.177 87.7577 132.038 87.533C131.9 87.3053 131.703 87.1268 131.447 86.9975C131.192 86.8652 130.887 86.799 130.533 86.799H128.645V89.5689ZM128.645 85.5664H130.339C130.635 85.5664 130.901 85.5125 131.138 85.4048C131.375 85.294 131.561 85.1386 131.697 84.9386C131.835 84.7354 131.904 84.4954 131.904 84.2184C131.904 83.8522 131.775 83.5505 131.517 83.3136C131.261 83.0766 130.881 82.9581 130.376 82.9581H128.645V85.5664ZM139.922 88.0178V83.9091H141.593V91H139.973V89.7397H139.899C139.739 90.1367 139.476 90.4614 139.11 90.7138C138.746 90.9661 138.299 91.0923 137.766 91.0923C137.302 91.0923 136.891 90.9892 136.534 90.783C136.18 90.5737 135.903 90.2706 135.703 89.8736C135.503 89.4735 135.403 88.9903 135.403 88.424V83.9091H137.074V88.1655C137.074 88.6148 137.197 88.9718 137.443 89.2365C137.689 89.5012 138.012 89.6335 138.413 89.6335C138.659 89.6335 138.897 89.5735 139.128 89.4535C139.359 89.3335 139.548 89.1549 139.696 88.918C139.847 88.6779 139.922 88.3778 139.922 88.0178ZM146.853 83.9091V85.2017H142.776V83.9091H146.853ZM143.783 82.2102H145.454V88.8672C145.454 89.0919 145.488 89.2642 145.555 89.3842C145.626 89.5012 145.719 89.5812 145.832 89.6243C145.946 89.6674 146.072 89.6889 146.211 89.6889C146.316 89.6889 146.411 89.6812 146.497 89.6658C146.586 89.6504 146.654 89.6366 146.7 89.6243L146.982 90.9308C146.893 90.9615 146.765 90.9954 146.599 91.0323C146.436 91.0692 146.236 91.0908 145.999 91.0969C145.58 91.1093 145.203 91.0462 144.868 90.9077C144.532 90.7661 144.266 90.5476 144.069 90.2521C143.875 89.9567 143.78 89.5874 143.783 89.1442V82.2102ZM151.791 83.9091V85.2017H147.715V83.9091H151.791ZM148.721 82.2102H150.392V88.8672C150.392 89.0919 150.426 89.2642 150.494 89.3842C150.565 89.5012 150.657 89.5812 150.771 89.6243C150.885 89.6674 151.011 89.6889 151.149 89.6889C151.254 89.6889 151.349 89.6812 151.436 89.6658C151.525 89.6504 151.593 89.6366 151.639 89.6243L151.92 90.9308C151.831 90.9615 151.703 90.9954 151.537 91.0323C151.374 91.0692 151.174 91.0908 150.937 91.0969C150.518 91.1093 150.141 91.0462 149.806 90.9077C149.471 90.7661 149.204 90.5476 149.007 90.2521C148.813 89.9567 148.718 89.5874 148.721 89.1442V82.2102ZM156.206 91.1385C155.513 91.1385 154.913 90.9862 154.405 90.6815C153.897 90.3768 153.503 89.9505 153.223 89.4027C152.946 88.8549 152.808 88.2147 152.808 87.4822C152.808 86.7498 152.946 86.1081 153.223 85.5572C153.503 85.0063 153.897 84.5785 154.405 84.2738C154.913 83.9691 155.513 83.8168 156.206 83.8168C156.898 83.8168 157.498 83.9691 158.006 84.2738C158.514 84.5785 158.906 85.0063 159.183 85.5572C159.463 86.1081 159.603 86.7498 159.603 87.4822C159.603 88.2147 159.463 88.8549 159.183 89.4027C158.906 89.9505 158.514 90.3768 158.006 90.6815C157.498 90.9862 156.898 91.1385 156.206 91.1385ZM156.215 89.7997C156.59 89.7997 156.904 89.6966 157.157 89.4904C157.409 89.2811 157.597 89.0011 157.72 88.6502C157.846 88.2994 157.909 87.9085 157.909 87.4776C157.909 87.0437 157.846 86.6513 157.72 86.3004C157.597 85.9465 157.409 85.6649 157.157 85.4556C156.904 85.2463 156.59 85.1417 156.215 85.1417C155.83 85.1417 155.51 85.2463 155.255 85.4556C155.002 85.6649 154.813 85.9465 154.687 86.3004C154.564 86.6513 154.502 87.0437 154.502 87.4776C154.502 87.9085 154.564 88.2994 154.687 88.6502C154.813 89.0011 155.002 89.2811 155.255 89.4904C155.51 89.6966 155.83 89.7997 156.215 89.7997ZM162.693 86.8452V91H161.022V83.9091H162.619V85.114H162.702C162.865 84.717 163.125 84.4015 163.482 84.1676C163.842 83.9337 164.287 83.8168 164.816 83.8168C165.306 83.8168 165.732 83.9214 166.095 84.1307C166.461 84.34 166.745 84.6431 166.945 85.0401C167.148 85.4371 167.248 85.9188 167.245 86.4851V91H165.574V86.7436C165.574 86.2696 165.45 85.8988 165.204 85.631C164.961 85.3633 164.624 85.2294 164.193 85.2294C163.901 85.2294 163.641 85.294 163.413 85.4233C163.188 85.5495 163.011 85.7326 162.882 85.9727C162.756 86.2127 162.693 86.5036 162.693 86.8452ZM174.548 85.7834L173.025 85.9496C172.982 85.7957 172.906 85.651 172.798 85.5156C172.694 85.3802 172.552 85.271 172.374 85.1879C172.195 85.1048 171.977 85.0632 171.718 85.0632C171.37 85.0632 171.078 85.1386 170.841 85.2894C170.607 85.4402 170.492 85.6357 170.495 85.8757C170.492 86.0819 170.567 86.2496 170.721 86.3789C170.878 86.5082 171.136 86.6143 171.497 86.6974L172.706 86.956C173.377 87.1006 173.876 87.3299 174.202 87.6438C174.531 87.9577 174.697 88.3686 174.7 88.8764C174.697 89.3227 174.566 89.7166 174.308 90.0582C174.053 90.3968 173.697 90.6615 173.242 90.8523C172.786 91.0431 172.263 91.1385 171.672 91.1385C170.804 91.1385 170.105 90.9569 169.576 90.5938C169.047 90.2275 168.731 89.7182 168.63 89.0657L170.259 88.9087C170.333 89.2288 170.49 89.4704 170.73 89.6335C170.97 89.7966 171.283 89.8782 171.667 89.8782C172.064 89.8782 172.383 89.7966 172.623 89.6335C172.866 89.4704 172.988 89.2688 172.988 89.0288C172.988 88.8256 172.909 88.6579 172.752 88.5256C172.598 88.3932 172.358 88.2917 172.032 88.2209L170.823 87.967C170.142 87.8254 169.639 87.5869 169.313 87.2514C168.987 86.9129 168.825 86.4851 168.828 85.968C168.825 85.531 168.944 85.1525 169.184 84.8324C169.427 84.5092 169.764 84.2599 170.195 84.0845C170.629 83.906 171.129 83.8168 171.695 83.8168C172.526 83.8168 173.18 83.9937 173.657 84.3477C174.137 84.7016 174.434 85.1802 174.548 85.7834Z" fill="white"/>
<g clip-path="url(#clip0_11_2073)">
<path d="M191 79.6667L189.707 80.9592L194.822 86.0833H183.667V87.9167H194.822L189.707 93.0408L191 94.3333L198.333 87L191 79.6667Z" fill="white"/>
</g>
<defs>
<filter id="filter0_d_11_2073" x="107" y="65" width="113" height="48" filterUnits="userSpaceOnUse" color-interpolation-filters="sRGB">
<feFlood flood-opacity="0" result="BackgroundImageFix"/>
<feColorMatrix in="SourceAlpha" type="matrix" values="0 0 0 0 0 0 0 0 0 0 0 0 0 0 0 0 0 0 127 0" result="hardAlpha"/>
<feOffset dy="2"/>
<feGaussianBlur stdDeviation="2"/>
<feComposite in2="hardAlpha" operator="out"/>
<feColorMatrix type="matrix" values="0 0 0 0 0 0 0 0 0 0 0 0 0 0 0 0 0 0 0.05 0"/>
<feBlend mode="normal" in2="BackgroundImageFix" result="effect1_dropShadow_11_2073"/>
<feBlend mode="normal" in="SourceGraphic" in2="effect1_dropShadow_11_2073" result="shape"/>
</filter>
<clipPath id="clip0_11_2073">
<rect width="22" height="22" fill="white" transform="translate(180 76)"/>
</clipPath>
</defs>
</svg>
