<svg width="100%" height="100%" viewBox="0 0 342 250" fill="none" xmlns="http://www.w3.org/2000/svg">
<rect x="0.5" y="0.5" width="341" height="249" rx="7.5" fill="white" stroke="black"/>
<path d="M1 9.00001C1 4.58173 4.58172 1 9 1H333C337.418 1 341 4.58172 341 9V241C341 245.418 337.418 249 333 249H9C4.58172 249 1 245.418 1 241V9.00001Z" fill="#BEBEBE"/>
<g filter="url(#filter0_d_11_2018)">
<rect x="59" y="27" width="224" height="136" rx="4" fill="white"/>
<rect x="59.5" y="27.5" width="223" height="135" rx="3.5" stroke="black"/>
</g>
<rect opacity="0.5" x="75" y="79" width="191" height="65" rx="4" fill="white" stroke="black" stroke-width="2" stroke-linecap="round" stroke-dasharray="2 4"/>
<line x1="59" y1="64.9615" x2="281.769" y2="64.9615" stroke="black"/>
<rect x="240" y="42" width="29" height="8" rx="4" fill="#FF00F5"/>
<rect x="246" y="45" width="17" height="2" rx="1" fill="white"/>
<rect x="212" y="42" width="23" height="8" rx="4" fill="#676767"/>
<rect x="218" y="45" width="11" height="2" rx="1" fill="white"/>
<rect x="93" y="48" width="60" height="4" rx="2" fill="#D9D9D9"/>
<rect x="93" y="40" width="29" height="4" rx="2" fill="#747474"/>
<rect opacity="0.5" x="69" y="36" width="19" height="19" rx="9.5" fill="#FF00F5"/>
<defs>
<filter id="filter0_d_11_2018" x="55" y="25" width="232" height="144" filterUnits="userSpaceOnUse" color-interpolation-filters="sRGB">
<feFlood flood-opacity="0" result="BackgroundImageFix"/>
<feColorMatrix in="SourceAlpha" type="matrix" values="0 0 0 0 0 0 0 0 0 0 0 0 0 0 0 0 0 0 127 0" result="hardAlpha"/>
<feOffset dy="2"/>
<feGaussianBlur stdDeviation="2"/>
<feComposite in2="hardAlpha" operator="out"/>
<feColorMatrix type="matrix" values="0 0 0 0 0 0 0 0 0 0 0 0 0 0 0 0 0 0 0.05 0"/>
<feBlend mode="normal" in2="BackgroundImageFix" result="effect1_dropShadow_11_2018"/>
<feBlend mode="normal" in="SourceGraphic" in2="effect1_dropShadow_11_2018" result="shape"/>
</filter>
</defs>
</svg>
