<svg width="100%" height="100%"  viewBox="0 0 342 250" fill="none" xmlns="http://www.w3.org/2000/svg">
<rect x="0.5" y="0.5" width="341" height="249" rx="7.5" fill="white" stroke="black"/>
<path d="M1 9.00001C1 4.58173 4.58172 1 9 1H333C337.418 1 341 4.58172 341 9V241C341 245.418 337.418 249 333 249H9C4.58172 249 1 245.418 1 241V9.00001Z" fill="#BEBEBE"/>
<g filter="url(#filter0_d_11_1901)">
<rect x="59" y="27" width="224" height="156.308" rx="4" fill="white"/>
<rect x="59.5" y="27.5" width="223" height="155.308" rx="3.5" stroke="black"/>
</g>
<rect x="72" y="37.3077" width="198" height="18" rx="4" fill="white" stroke="black" stroke-linecap="round" stroke-dasharray="5 5"/>
<rect opacity="0.5" x="72" y="76.3077" width="198" height="65" rx="4" fill="#D9D9D9" stroke="black" stroke-width="2" stroke-linecap="round" stroke-dasharray="2 4"/>
<rect x="72" y="161.308" width="198" height="14" rx="4" fill="white" stroke="black" stroke-linecap="round" stroke-dasharray="5 5"/>
<line x1="59" y1="151.962" x2="281.769" y2="151.962" stroke="black"/>
<line x1="59" y1="64.9615" x2="281.769" y2="64.9615" stroke="black"/>
<defs>
<filter id="filter0_d_11_1901" x="55" y="25" width="232" height="164.308" filterUnits="userSpaceOnUse" color-interpolation-filters="sRGB">
<feFlood flood-opacity="0" result="BackgroundImageFix"/>
<feColorMatrix in="SourceAlpha" type="matrix" values="0 0 0 0 0 0 0 0 0 0 0 0 0 0 0 0 0 0 127 0" result="hardAlpha"/>
<feOffset dy="2"/>
<feGaussianBlur stdDeviation="2"/>
<feComposite in2="hardAlpha" operator="out"/>
<feColorMatrix type="matrix" values="0 0 0 0 0 0 0 0 0 0 0 0 0 0 0 0 0 0 0.05 0"/>
<feBlend mode="normal" in2="BackgroundImageFix" result="effect1_dropShadow_11_1901"/>
<feBlend mode="normal" in="SourceGraphic" in2="effect1_dropShadow_11_1901" result="shape"/>
</filter>
</defs>
</svg>
