<svg width="100%" height="100%" viewBox="0 0 342 250" fill="none" xmlns="http://www.w3.org/2000/svg">
<rect x="0.5" y="0.5" width="341" height="249" rx="7.5" fill="white" stroke="black"/>
<path d="M1 9.00001C1 4.58173 4.58172 1 9 1H333C337.418 1 341 4.58172 341 9V241C341 245.418 337.418 249 333 249H9C4.58172 249 1 245.418 1 241V9.00001Z" fill="#BEBEBE"/>
<g filter="url(#filter0_d_31_2095)">
<rect x="58" y="30" width="225" height="191" rx="4" fill="white"/>
<rect x="58.5" y="30.5" width="224" height="190" rx="3.5" stroke="black"/>
</g>
<g filter="url(#filter1_d_31_2095)">
<rect x="70" y="43" width="85" height="8" rx="4" fill="#676767"/>
</g>
<rect x="214" y="191" width="60" height="22" rx="4" fill="#FF00F5"/>
<rect x="220" y="199" width="48" height="6" rx="3" fill="white"/>
<rect opacity="0.8" x="70" y="59" width="54" height="5" rx="2.5" fill="#D9D9D9"/>
<rect x="70.5" y="94.5" width="12" height="12" rx="3.5" fill="white" stroke="black"/>
<g filter="url(#filter2_d_31_2095)">
<rect x="90" y="96.5" width="33" height="8" rx="4" fill="#676767"/>
</g>
<rect opacity="0.8" x="130" y="98" width="74" height="5" rx="2.5" fill="#D9D9D9"/>
<rect x="70.5" y="123.5" width="12" height="12" rx="3.5" fill="white" stroke="#FF00F5"/>
<g filter="url(#filter3_d_31_2095)">
<rect x="90" y="125.5" width="33" height="8" rx="4" fill="#FF00F5"/>
</g>
<rect opacity="0.2" x="130" y="127" width="74" height="5" rx="2.5" fill="#FF00F5"/>
<g clip-path="url(#clip0_31_2095)">
<path d="M75.1251 131.411L73.2138 129.5L72.563 130.146L75.1251 132.708L80.6251 127.208L79.9788 126.562L75.1251 131.411Z" fill="#FF00F5"/>
</g>
<rect x="70.5" y="152.5" width="12" height="12" rx="3.5" fill="white" stroke="black"/>
<g filter="url(#filter4_d_31_2095)">
<rect x="90" y="154.5" width="33" height="8" rx="4" fill="#676767"/>
</g>
<rect opacity="0.8" x="130" y="156" width="74" height="5" rx="2.5" fill="#D9D9D9"/>
<line x1="59" y1="181.5" x2="282" y2="181.5" stroke="#E1E1E1"/>
<line x1="59" y1="76.5" x2="282" y2="76.5" stroke="#E1E1E1"/>
<defs>
<filter id="filter0_d_31_2095" x="54" y="28" width="233" height="199" filterUnits="userSpaceOnUse" color-interpolation-filters="sRGB">
<feFlood flood-opacity="0" result="BackgroundImageFix"/>
<feColorMatrix in="SourceAlpha" type="matrix" values="0 0 0 0 0 0 0 0 0 0 0 0 0 0 0 0 0 0 127 0" result="hardAlpha"/>
<feOffset dy="2"/>
<feGaussianBlur stdDeviation="2"/>
<feComposite in2="hardAlpha" operator="out"/>
<feColorMatrix type="matrix" values="0 0 0 0 0 0 0 0 0 0 0 0 0 0 0 0 0 0 0.05 0"/>
<feBlend mode="normal" in2="BackgroundImageFix" result="effect1_dropShadow_31_2095"/>
<feBlend mode="normal" in="SourceGraphic" in2="effect1_dropShadow_31_2095" result="shape"/>
</filter>
<filter id="filter1_d_31_2095" x="66" y="41" width="93" height="16" filterUnits="userSpaceOnUse" color-interpolation-filters="sRGB">
<feFlood flood-opacity="0" result="BackgroundImageFix"/>
<feColorMatrix in="SourceAlpha" type="matrix" values="0 0 0 0 0 0 0 0 0 0 0 0 0 0 0 0 0 0 127 0" result="hardAlpha"/>
<feOffset dy="2"/>
<feGaussianBlur stdDeviation="2"/>
<feComposite in2="hardAlpha" operator="out"/>
<feColorMatrix type="matrix" values="0 0 0 0 0 0 0 0 0 0 0 0 0 0 0 0 0 0 0.05 0"/>
<feBlend mode="normal" in2="BackgroundImageFix" result="effect1_dropShadow_31_2095"/>
<feBlend mode="normal" in="SourceGraphic" in2="effect1_dropShadow_31_2095" result="shape"/>
</filter>
<filter id="filter2_d_31_2095" x="86" y="94.5" width="41" height="16" filterUnits="userSpaceOnUse" color-interpolation-filters="sRGB">
<feFlood flood-opacity="0" result="BackgroundImageFix"/>
<feColorMatrix in="SourceAlpha" type="matrix" values="0 0 0 0 0 0 0 0 0 0 0 0 0 0 0 0 0 0 127 0" result="hardAlpha"/>
<feOffset dy="2"/>
<feGaussianBlur stdDeviation="2"/>
<feComposite in2="hardAlpha" operator="out"/>
<feColorMatrix type="matrix" values="0 0 0 0 0 0 0 0 0 0 0 0 0 0 0 0 0 0 0.05 0"/>
<feBlend mode="normal" in2="BackgroundImageFix" result="effect1_dropShadow_31_2095"/>
<feBlend mode="normal" in="SourceGraphic" in2="effect1_dropShadow_31_2095" result="shape"/>
</filter>
<filter id="filter3_d_31_2095" x="86" y="123.5" width="41" height="16" filterUnits="userSpaceOnUse" color-interpolation-filters="sRGB">
<feFlood flood-opacity="0" result="BackgroundImageFix"/>
<feColorMatrix in="SourceAlpha" type="matrix" values="0 0 0 0 0 0 0 0 0 0 0 0 0 0 0 0 0 0 127 0" result="hardAlpha"/>
<feOffset dy="2"/>
<feGaussianBlur stdDeviation="2"/>
<feComposite in2="hardAlpha" operator="out"/>
<feColorMatrix type="matrix" values="0 0 0 0 0 0 0 0 0 0 0 0 0 0 0 0 0 0 0.05 0"/>
<feBlend mode="normal" in2="BackgroundImageFix" result="effect1_dropShadow_31_2095"/>
<feBlend mode="normal" in="SourceGraphic" in2="effect1_dropShadow_31_2095" result="shape"/>
</filter>
<filter id="filter4_d_31_2095" x="86" y="152.5" width="41" height="16" filterUnits="userSpaceOnUse" color-interpolation-filters="sRGB">
<feFlood flood-opacity="0" result="BackgroundImageFix"/>
<feColorMatrix in="SourceAlpha" type="matrix" values="0 0 0 0 0 0 0 0 0 0 0 0 0 0 0 0 0 0 127 0" result="hardAlpha"/>
<feOffset dy="2"/>
<feGaussianBlur stdDeviation="2"/>
<feComposite in2="hardAlpha" operator="out"/>
<feColorMatrix type="matrix" values="0 0 0 0 0 0 0 0 0 0 0 0 0 0 0 0 0 0 0.05 0"/>
<feBlend mode="normal" in2="BackgroundImageFix" result="effect1_dropShadow_31_2095"/>
<feBlend mode="normal" in="SourceGraphic" in2="effect1_dropShadow_31_2095" result="shape"/>
</filter>
<clipPath id="clip0_31_2095">
<rect width="11" height="11" fill="white" transform="translate(71 124)"/>
</clipPath>
</defs>
</svg>
