<svg width="100%" height="100%" viewBox="0 0 342 250" fill="none" xmlns="http://www.w3.org/2000/svg">
<rect x="0.5" y="0.5" width="341" height="249" rx="7.5" fill="white" stroke="black"/>
<path d="M1 9.00001C1 4.58173 4.58172 1 9 1H333C337.418 1 341 4.58172 341 9V241C341 245.418 337.418 249 333 249H9C4.58172 249 1 245.418 1 241V9.00001Z" fill="white"/>
<rect x="144.5" y="61.5" width="52" height="28" rx="7.5" fill="#FF00F5" fill-opacity="0.15" stroke="#FF00F5"/>
<path d="M164.025 73.7354H162.299C162.249 73.4523 162.159 73.2015 162.026 72.983C161.894 72.7614 161.729 72.5736 161.532 72.4197C161.335 72.2659 161.111 72.1504 160.858 72.0735C160.609 71.9935 160.34 71.9535 160.05 71.9535C159.536 71.9535 159.081 72.0827 158.684 72.3413C158.287 72.5967 157.976 72.9722 157.751 73.4677C157.527 73.9601 157.414 74.5618 157.414 75.2727C157.414 75.996 157.527 76.6054 157.751 77.1009C157.979 77.5933 158.29 77.9657 158.684 78.218C159.081 78.4673 159.535 78.592 160.046 78.592C160.329 78.592 160.594 78.555 160.84 78.4812C161.089 78.4042 161.312 78.2919 161.509 78.1442C161.709 77.9964 161.877 77.8149 162.012 77.5994C162.151 77.384 162.246 77.1378 162.299 76.8608L164.025 76.87C163.961 77.3194 163.821 77.741 163.605 78.1349C163.393 78.5289 163.114 78.8767 162.77 79.1783C162.425 79.4768 162.022 79.7107 161.56 79.88C161.098 80.0462 160.586 80.1293 160.023 80.1293C159.192 80.1293 158.45 79.9369 157.798 79.5522C157.145 79.1675 156.631 78.612 156.256 77.8857C155.88 77.1593 155.692 76.2884 155.692 75.2727C155.692 74.254 155.882 73.383 156.26 72.6598C156.639 71.9335 157.154 71.378 157.807 70.9933C158.459 70.6085 159.198 70.4162 160.023 70.4162C160.549 70.4162 161.038 70.4901 161.491 70.6378C161.943 70.7855 162.346 71.0025 162.7 71.2887C163.054 71.5719 163.345 71.9196 163.573 72.332C163.804 72.7414 163.954 73.2092 164.025 73.7354ZM167.191 75.8452V80H165.52V70.5455H167.154V74.114H167.237C167.403 73.7139 167.66 73.3984 168.008 73.1676C168.359 72.9337 168.805 72.8168 169.347 72.8168C169.839 72.8168 170.269 72.9199 170.635 73.1261C171.001 73.3323 171.284 73.6339 171.484 74.0309C171.687 74.4279 171.789 74.9126 171.789 75.4851V80H170.118V75.7436C170.118 75.2666 169.995 74.8957 169.748 74.631C169.505 74.3633 169.164 74.2294 168.724 74.2294C168.428 74.2294 168.164 74.294 167.93 74.4233C167.699 74.5495 167.517 74.7326 167.385 74.9727C167.256 75.2127 167.191 75.5036 167.191 75.8452ZM173.492 80V72.9091H175.164V80H173.492ZM174.333 71.9027C174.068 71.9027 173.84 71.815 173.649 71.6396C173.459 71.4611 173.363 71.2472 173.363 70.9979C173.363 70.7455 173.459 70.5316 173.649 70.3562C173.84 70.1777 174.068 70.0884 174.333 70.0884C174.6 70.0884 174.828 70.1777 175.016 70.3562C175.207 70.5316 175.302 70.7455 175.302 70.9979C175.302 71.2472 175.207 71.4611 175.016 71.6396C174.828 71.815 174.6 71.9027 174.333 71.9027ZM176.882 82.6591V72.9091H178.526V74.0817H178.623C178.709 73.9093 178.83 73.7262 178.987 73.5323C179.144 73.3353 179.357 73.1676 179.624 73.0291C179.892 72.8875 180.234 72.8168 180.649 72.8168C181.197 72.8168 181.691 72.9568 182.131 73.2369C182.574 73.5138 182.925 73.9247 183.184 74.4695C183.445 75.0111 183.576 75.6759 183.576 76.4638C183.576 77.2424 183.448 77.9041 183.193 78.4489C182.937 78.9936 182.59 79.4091 182.15 79.6953C181.709 79.9815 181.211 80.1246 180.654 80.1246C180.248 80.1246 179.911 80.0569 179.643 79.9215C179.375 79.7861 179.16 79.623 178.996 79.4322C178.836 79.2383 178.712 79.0552 178.623 78.8828H178.553V82.6591H176.882ZM178.521 76.4545C178.521 76.9131 178.586 77.3147 178.715 77.6594C178.847 78.0041 179.036 78.2734 179.283 78.4673C179.532 78.6581 179.834 78.7536 180.188 78.7536C180.557 78.7536 180.866 78.6551 181.115 78.4581C181.365 78.258 181.552 77.9857 181.679 77.641C181.808 77.2932 181.873 76.8977 181.873 76.4545C181.873 76.0144 181.809 75.6236 181.683 75.282C181.557 74.9403 181.369 74.6726 181.12 74.4787C180.871 74.2848 180.56 74.1879 180.188 74.1879C179.83 74.1879 179.527 74.2817 179.278 74.4695C179.029 74.6572 178.839 74.9203 178.71 75.2589C178.584 75.5974 178.521 75.996 178.521 76.4545Z" fill="#FF00F5"/>
</svg>
