<svg width="100%" height="100%" viewBox="0 0 342 250" fill="none" xmlns="http://www.w3.org/2000/svg">
<rect x="0.5" y="0.5" width="341" height="249" rx="7.5" fill="white" stroke="black"/>
<rect x="124" y="6" width="17" height="6" rx="3" fill="#FF00F5"/>
<rect x="148" y="6" width="17" height="6" rx="3" fill="#D9D9D9"/>
<rect x="172" y="6" width="17" height="6" rx="3" fill="#D9D9D9"/>
<rect x="308" y="6" width="16" height="6" rx="3" fill="#D9D9D9"/>
<rect x="27" y="1" width="80" height="248" fill="#BEBEBE"/>
<rect x="34" y="29" width="65" height="4" rx="2" fill="#D9D9D9"/>
<rect x="34" y="65" width="65" height="4" rx="2" fill="#D9D9D9"/>
<rect x="34" y="77" width="59" height="4" rx="2" fill="#D9D9D9"/>
<rect x="34" y="41" width="59" height="4" rx="2" fill="#D9D9D9"/>
<rect x="34" y="113" width="59" height="4" rx="2" fill="#D9D9D9"/>
<rect x="34" y="53" width="10" height="4" rx="2" fill="#747474"/>
<rect x="34" y="17" width="10" height="4" rx="2" fill="#747474"/>
<rect x="34" y="101" width="10" height="4" rx="2" fill="#747474"/>
<rect x="34" y="89" width="47" height="4" rx="2" fill="#D9D9D9"/>
<rect x="34" y="125" width="47" height="4" rx="2" fill="#D9D9D9"/>
<rect x="124.5" y="61.5" width="199" height="170" rx="3.5" fill="white" stroke="black" stroke-dasharray="2 2"/>
<path d="M128.136 44H124.933V34.5455H128.201C129.14 34.5455 129.946 34.7347 130.62 35.1133C131.297 35.4888 131.817 36.0289 132.18 36.7337C132.544 37.4384 132.725 38.2817 132.725 39.2635C132.725 40.2483 132.542 41.0947 132.176 41.8026C131.813 42.5104 131.288 43.0536 130.602 43.4322C129.918 43.8107 129.097 44 128.136 44ZM126.645 42.5181H128.053C128.712 42.5181 129.261 42.3981 129.701 42.158C130.141 41.9149 130.472 41.5533 130.694 41.0732C130.915 40.59 131.026 39.9867 131.026 39.2635C131.026 38.5402 130.915 37.9401 130.694 37.4631C130.472 36.983 130.145 36.6244 129.711 36.3874C129.28 36.1474 128.744 36.0273 128.104 36.0273H126.645V42.5181ZM136.319 44.1431C135.87 44.1431 135.465 44.0631 135.105 43.9031C134.748 43.7399 134.465 43.4999 134.256 43.1829C134.049 42.8659 133.946 42.475 133.946 42.0103C133.946 41.6102 134.02 41.2794 134.168 41.0178C134.316 40.7562 134.517 40.5469 134.773 40.3899C135.028 40.233 135.316 40.1145 135.636 40.0344C135.959 39.9513 136.293 39.8913 136.638 39.8544C137.053 39.8113 137.39 39.7728 137.649 39.739C137.907 39.7021 138.095 39.6467 138.212 39.5728C138.332 39.4959 138.392 39.3774 138.392 39.2173V39.1896C138.392 38.8419 138.289 38.5726 138.083 38.3817C137.876 38.1909 137.579 38.0955 137.192 38.0955C136.782 38.0955 136.458 38.1848 136.218 38.3633C135.981 38.5418 135.82 38.7526 135.737 38.9957L134.177 38.7741C134.3 38.3433 134.503 37.9832 134.786 37.6939C135.07 37.4015 135.416 37.183 135.825 37.0384C136.234 36.8906 136.687 36.8168 137.182 36.8168C137.524 36.8168 137.864 36.8568 138.203 36.9368C138.541 37.0168 138.85 37.1491 139.131 37.3338C139.411 37.5154 139.635 37.7631 139.805 38.0771C139.977 38.391 140.063 38.7834 140.063 39.2543V44H138.456V43.0259H138.401C138.3 43.2229 138.156 43.4076 137.972 43.5799C137.79 43.7492 137.561 43.8861 137.284 43.9908C137.01 44.0923 136.688 44.1431 136.319 44.1431ZM136.753 42.9151C137.088 42.9151 137.379 42.849 137.626 42.7166C137.872 42.5812 138.061 42.4027 138.193 42.1811C138.329 41.9595 138.396 41.7179 138.396 41.4563V40.6207C138.344 40.6638 138.255 40.7038 138.129 40.7408C138.006 40.7777 137.867 40.81 137.713 40.8377C137.559 40.8654 137.407 40.89 137.256 40.9116C137.105 40.9331 136.975 40.9516 136.864 40.967C136.615 41.0008 136.391 41.0562 136.194 41.1332C135.997 41.2101 135.842 41.3178 135.728 41.4563C135.614 41.5917 135.557 41.7672 135.557 41.9826C135.557 42.2904 135.67 42.5227 135.894 42.6797C136.119 42.8366 136.405 42.9151 136.753 42.9151ZM147.348 38.7834L145.824 38.9496C145.781 38.7957 145.706 38.651 145.598 38.5156C145.494 38.3802 145.352 38.271 145.173 38.1879C144.995 38.1048 144.776 38.0632 144.518 38.0632C144.17 38.0632 143.878 38.1386 143.641 38.2894C143.407 38.4402 143.291 38.6357 143.295 38.8757C143.291 39.0819 143.367 39.2496 143.521 39.3789C143.678 39.5082 143.936 39.6143 144.296 39.6974L145.506 39.956C146.177 40.1006 146.675 40.3299 147.002 40.6438C147.331 40.9577 147.497 41.3686 147.5 41.8764C147.497 42.3227 147.366 42.7166 147.108 43.0582C146.852 43.3968 146.497 43.6615 146.041 43.8523C145.586 44.0431 145.063 44.1385 144.472 44.1385C143.604 44.1385 142.905 43.9569 142.376 43.5938C141.847 43.2275 141.531 42.7182 141.43 42.0657L143.059 41.9087C143.133 42.2288 143.29 42.4704 143.53 42.6335C143.77 42.7966 144.082 42.8782 144.467 42.8782C144.864 42.8782 145.183 42.7966 145.423 42.6335C145.666 42.4704 145.787 42.2688 145.787 42.0288C145.787 41.8256 145.709 41.6579 145.552 41.5256C145.398 41.3932 145.158 41.2917 144.832 41.2209L143.622 40.967C142.942 40.8254 142.439 40.5869 142.113 40.2514C141.787 39.9129 141.625 39.4851 141.628 38.968C141.625 38.531 141.743 38.1525 141.983 37.8324C142.227 37.5092 142.564 37.2599 142.994 37.0845C143.428 36.906 143.929 36.8168 144.495 36.8168C145.326 36.8168 145.98 36.9937 146.457 37.3477C146.937 37.7016 147.234 38.1802 147.348 38.7834ZM150.549 39.8452V44H148.878V34.5455H150.512V38.114H150.596C150.762 37.7139 151.019 37.3984 151.366 37.1676C151.717 36.9337 152.164 36.8168 152.705 36.8168C153.198 36.8168 153.627 36.9199 153.993 37.1261C154.359 37.3323 154.643 37.6339 154.843 38.0309C155.046 38.4279 155.147 38.9126 155.147 39.4851V44H153.476V39.7436C153.476 39.2666 153.353 38.8957 153.107 38.631C152.864 38.3633 152.522 38.2294 152.082 38.2294C151.787 38.2294 151.522 38.294 151.288 38.4233C151.057 38.5495 150.876 38.7326 150.743 38.9727C150.614 39.2127 150.549 39.5036 150.549 39.8452ZM156.925 44V34.5455H158.596V38.0817H158.665C158.751 37.9093 158.873 37.7262 159.03 37.5323C159.187 37.3353 159.399 37.1676 159.667 37.0291C159.935 36.8875 160.276 36.8168 160.692 36.8168C161.24 36.8168 161.734 36.9568 162.174 37.2369C162.617 37.5138 162.968 37.9247 163.226 38.4695C163.488 39.0111 163.619 39.6759 163.619 40.4638C163.619 41.2424 163.491 41.9041 163.235 42.4489C162.98 42.9936 162.632 43.4091 162.192 43.6953C161.752 43.9815 161.253 44.1246 160.696 44.1246C160.29 44.1246 159.953 44.0569 159.685 43.9215C159.418 43.7861 159.202 43.623 159.039 43.4322C158.879 43.2383 158.754 43.0552 158.665 42.8828H158.568V44H156.925ZM158.564 40.4545C158.564 40.9131 158.628 41.3147 158.757 41.6594C158.89 42.0041 159.079 42.2734 159.325 42.4673C159.575 42.6581 159.876 42.7536 160.23 42.7536C160.599 42.7536 160.909 42.6551 161.158 42.4581C161.407 42.258 161.595 41.9857 161.721 41.641C161.85 41.2932 161.915 40.8977 161.915 40.4545C161.915 40.0144 161.852 39.6236 161.726 39.282C161.6 38.9403 161.412 38.6726 161.163 38.4787C160.913 38.2848 160.603 38.1879 160.23 38.1879C159.873 38.1879 159.57 38.2817 159.321 38.4695C159.071 38.6572 158.882 38.9203 158.753 39.2589C158.627 39.5974 158.564 39.996 158.564 40.4545ZM168.132 44.1385C167.44 44.1385 166.84 43.9862 166.332 43.6815C165.824 43.3768 165.43 42.9505 165.15 42.4027C164.873 41.8549 164.735 41.2147 164.735 40.4822C164.735 39.7498 164.873 39.1081 165.15 38.5572C165.43 38.0063 165.824 37.5785 166.332 37.2738C166.84 36.9691 167.44 36.8168 168.132 36.8168C168.825 36.8168 169.425 36.9691 169.933 37.2738C170.441 37.5785 170.833 38.0063 171.11 38.5572C171.39 39.1081 171.53 39.7498 171.53 40.4822C171.53 41.2147 171.39 41.8549 171.11 42.4027C170.833 42.9505 170.441 43.3768 169.933 43.6815C169.425 43.9862 168.825 44.1385 168.132 44.1385ZM168.142 42.7997C168.517 42.7997 168.831 42.6966 169.083 42.4904C169.336 42.2811 169.523 42.0011 169.647 41.6502C169.773 41.2994 169.836 40.9085 169.836 40.4776C169.836 40.0437 169.773 39.6513 169.647 39.3004C169.523 38.9465 169.336 38.6649 169.083 38.4556C168.831 38.2463 168.517 38.1417 168.142 38.1417C167.757 38.1417 167.437 38.2463 167.181 38.4556C166.929 38.6649 166.74 38.9465 166.614 39.3004C166.49 39.6513 166.429 40.0437 166.429 40.4776C166.429 40.9085 166.49 41.2994 166.614 41.6502C166.74 42.0011 166.929 42.2811 167.181 42.4904C167.437 42.6966 167.757 42.7997 168.142 42.7997ZM174.989 44.1431C174.54 44.1431 174.135 44.0631 173.775 43.9031C173.418 43.7399 173.135 43.4999 172.925 43.1829C172.719 42.8659 172.616 42.475 172.616 42.0103C172.616 41.6102 172.69 41.2794 172.838 41.0178C172.985 40.7562 173.187 40.5469 173.442 40.3899C173.698 40.233 173.986 40.1145 174.306 40.0344C174.629 39.9513 174.963 39.8913 175.308 39.8544C175.723 39.8113 176.06 39.7728 176.319 39.739C176.577 39.7021 176.765 39.6467 176.882 39.5728C177.002 39.4959 177.062 39.3774 177.062 39.2173V39.1896C177.062 38.8419 176.959 38.5726 176.752 38.3817C176.546 38.1909 176.249 38.0955 175.862 38.0955C175.452 38.0955 175.127 38.1848 174.887 38.3633C174.65 38.5418 174.49 38.7526 174.407 38.9957L172.847 38.7741C172.97 38.3433 173.173 37.9832 173.456 37.6939C173.739 37.4015 174.086 37.183 174.495 37.0384C174.904 36.8906 175.357 36.8168 175.852 36.8168C176.194 36.8168 176.534 36.8568 176.873 36.9368C177.211 37.0168 177.52 37.1491 177.8 37.3338C178.08 37.5154 178.305 37.7631 178.474 38.0771C178.647 38.391 178.733 38.7834 178.733 39.2543V44H177.126V43.0259H177.071C176.969 43.2229 176.826 43.4076 176.642 43.5799C176.46 43.7492 176.231 43.8861 175.954 43.9908C175.68 44.0923 175.358 44.1431 174.989 44.1431ZM175.423 42.9151C175.758 42.9151 176.049 42.849 176.295 42.7166C176.542 42.5812 176.731 42.4027 176.863 42.1811C176.999 41.9595 177.066 41.7179 177.066 41.4563V40.6207C177.014 40.6638 176.925 40.7038 176.799 40.7408C176.676 40.7777 176.537 40.81 176.383 40.8377C176.229 40.8654 176.077 40.89 175.926 40.9116C175.775 40.9331 175.645 40.9516 175.534 40.967C175.284 41.0008 175.061 41.0562 174.864 41.1332C174.667 41.2101 174.512 41.3178 174.398 41.4563C174.284 41.5917 174.227 41.7672 174.227 41.9826C174.227 42.2904 174.34 42.5227 174.564 42.6797C174.789 42.8366 175.075 42.9151 175.423 42.9151ZM180.413 44V36.9091H182.034V38.0909H182.108C182.237 37.6816 182.458 37.3661 182.772 37.1445C183.089 36.9199 183.451 36.8075 183.857 36.8075C183.95 36.8075 184.053 36.8121 184.167 36.8214C184.283 36.8275 184.38 36.8383 184.457 36.8537V38.391C184.387 38.3664 184.274 38.3448 184.12 38.3263C183.97 38.3048 183.823 38.294 183.682 38.294C183.377 38.294 183.103 38.3602 182.86 38.4925C182.62 38.6218 182.431 38.8018 182.292 39.0327C182.154 39.2635 182.085 39.5297 182.085 39.8313V44H180.413ZM187.907 44.1246C187.35 44.1246 186.851 43.9815 186.411 43.6953C185.971 43.4091 185.623 42.9936 185.368 42.4489C185.113 41.9041 184.985 41.2424 184.985 40.4638C184.985 39.6759 185.114 39.0111 185.373 38.4695C185.634 37.9247 185.987 37.5138 186.43 37.2369C186.873 36.9568 187.367 36.8168 187.912 36.8168C188.327 36.8168 188.669 36.8875 188.937 37.0291C189.204 37.1676 189.417 37.3353 189.574 37.5323C189.731 37.7262 189.852 37.9093 189.938 38.0817H190.008V34.5455H191.683V44H190.04V42.8828H189.938C189.852 43.0552 189.727 43.2383 189.564 43.4322C189.401 43.623 189.186 43.7861 188.918 43.9215C188.65 44.0569 188.313 44.1246 187.907 44.1246ZM188.373 42.7536C188.727 42.7536 189.029 42.6581 189.278 42.4673C189.527 42.2734 189.717 42.0041 189.846 41.6594C189.975 41.3147 190.04 40.9131 190.04 40.4545C190.04 39.996 189.975 39.5974 189.846 39.2589C189.72 38.9203 189.532 38.6572 189.283 38.4695C189.037 38.2817 188.733 38.1879 188.373 38.1879C188.001 38.1879 187.69 38.2848 187.441 38.4787C187.191 38.6726 187.004 38.9403 186.878 39.282C186.751 39.6236 186.688 40.0144 186.688 40.4545C186.688 40.8977 186.751 41.2932 186.878 41.641C187.007 41.9857 187.196 42.258 187.445 42.4581C187.698 42.6551 188.007 42.7536 188.373 42.7536Z" fill="black"/>
<line x1="26.5" y1="-2.18557e-08" x2="26.5" y2="249" stroke="black"/>
<line x1="107.5" y1="-2.18557e-08" x2="107.5" y2="249" stroke="black"/>
<line x1="108" y1="18.5" x2="341" y2="18.5" stroke="black"/>
<rect x="7" y="6" width="13" height="13" rx="6.5" fill="#FF00F5"/>
<rect x="7" y="27" width="13" height="4" rx="2" fill="#D9D9D9"/>
<rect x="7" y="63" width="13" height="4" rx="2" fill="#D9D9D9"/>
<rect x="7" y="75" width="13" height="4" rx="2" fill="#D9D9D9"/>
<rect x="7" y="39" width="13" height="4" rx="2" fill="#D9D9D9"/>
<rect x="7" y="111" width="13" height="4" rx="2" fill="#D9D9D9"/>
<rect x="7" y="51" width="13" height="4" rx="2" fill="#D9D9D9"/>
<rect x="7" y="99" width="13" height="4" rx="2" fill="#D9D9D9"/>
<rect x="7" y="87" width="13" height="4" rx="2" fill="#D9D9D9"/>
<rect x="7" y="123" width="13" height="4" rx="2" fill="#D9D9D9"/>
<rect x="7" y="230" width="13" height="13" rx="4" fill="#FF00F5"/>
<rect x="13" y="235.5" width="1" height="2" rx="0.5" fill="white"/>
</svg>
