<svg width="100%" height="100%" viewBox="0 0 342 250" fill="none" xmlns="http://www.w3.org/2000/svg">
<rect x="0.5" y="0.5" width="341" height="249" rx="7.5" fill="white" stroke="black"/>
<g filter="url(#filter0_d_31_1884)">
<rect x="24" y="38" width="293" height="135" rx="4" fill="white"/>
<rect x="24.5" y="38.5" width="292" height="134" rx="3.5" stroke="black"/>
</g>
<path opacity="0.4" d="M122 39H312C314.209 39 316 40.7909 316 43V168C316 170.209 314.209 172 312 172H122V39Z" fill="#E1E1E1"/>
<g filter="url(#filter1_d_31_1884)">
<rect x="60.5" y="68" width="26" height="26" rx="4" fill="white"/>
<rect x="61" y="68.5" width="25" height="25" rx="3.5" stroke="black"/>
</g>
<rect x="48.5" y="106" width="50" height="5" rx="2.5" fill="#676767"/>
<rect opacity="0.8" x="37" y="115" width="73" height="4" rx="2" fill="#D9D9D9"/>
<rect x="37.25" y="131" width="72.5" height="12" rx="2" fill="#FF00F5"/>
<rect x="41.25" y="135" width="64.5" height="4" rx="2" fill="white"/>
<g filter="url(#filter2_d_31_1884)">
<rect x="138" y="59" width="75" height="93" rx="4" fill="white"/>
<rect x="138.5" y="59.5" width="74" height="92" rx="3.5" stroke="black"/>
</g>
<rect x="169" y="70" width="12" height="12" rx="2" fill="#E1E1E1"/>
<rect x="162" y="93" width="26" height="4" rx="2" fill="#747474"/>
<rect x="154" y="101" width="42" height="4" rx="2" fill="#E1E1E1"/>
<path d="M148.5 142C148.5 127.641 160.364 116 175 116C189.636 116 201.5 127.641 201.5 142" stroke="#FF00F5" stroke-width="4" stroke-linecap="round" stroke-linejoin="round" stroke-dasharray="9 9"/>
<g filter="url(#filter3_d_31_1884)">
<rect x="225" y="59" width="75" height="93" rx="4" fill="white"/>
<rect x="225.5" y="59.5" width="74" height="92" rx="3.5" stroke="black"/>
</g>
<rect x="256" y="70" width="12" height="12" rx="2" fill="#E1E1E1"/>
<rect x="249" y="93" width="26" height="4" rx="2" fill="#747474"/>
<rect x="241" y="101" width="42" height="4" rx="2" fill="#E1E1E1"/>
<path d="M235.5 142C235.5 127.641 247.364 116 262 116C276.636 116 288.5 127.641 288.5 142" stroke="#FF00F5" stroke-width="4" stroke-linecap="round" stroke-linejoin="round" stroke-dasharray="9 9"/>
<line x1="121.5" y1="39" x2="121.5" y2="172" stroke="black"/>
<defs>
<filter id="filter0_d_31_1884" x="20" y="36" width="301" height="143" filterUnits="userSpaceOnUse" color-interpolation-filters="sRGB">
<feFlood flood-opacity="0" result="BackgroundImageFix"/>
<feColorMatrix in="SourceAlpha" type="matrix" values="0 0 0 0 0 0 0 0 0 0 0 0 0 0 0 0 0 0 127 0" result="hardAlpha"/>
<feOffset dy="2"/>
<feGaussianBlur stdDeviation="2"/>
<feComposite in2="hardAlpha" operator="out"/>
<feColorMatrix type="matrix" values="0 0 0 0 0 0 0 0 0 0 0 0 0 0 0 0 0 0 0.05 0"/>
<feBlend mode="normal" in2="BackgroundImageFix" result="effect1_dropShadow_31_1884"/>
<feBlend mode="normal" in="SourceGraphic" in2="effect1_dropShadow_31_1884" result="shape"/>
</filter>
<filter id="filter1_d_31_1884" x="56.5" y="66" width="34" height="34" filterUnits="userSpaceOnUse" color-interpolation-filters="sRGB">
<feFlood flood-opacity="0" result="BackgroundImageFix"/>
<feColorMatrix in="SourceAlpha" type="matrix" values="0 0 0 0 0 0 0 0 0 0 0 0 0 0 0 0 0 0 127 0" result="hardAlpha"/>
<feOffset dy="2"/>
<feGaussianBlur stdDeviation="2"/>
<feComposite in2="hardAlpha" operator="out"/>
<feColorMatrix type="matrix" values="0 0 0 0 0 0 0 0 0 0 0 0 0 0 0 0 0 0 0.05 0"/>
<feBlend mode="normal" in2="BackgroundImageFix" result="effect1_dropShadow_31_1884"/>
<feBlend mode="normal" in="SourceGraphic" in2="effect1_dropShadow_31_1884" result="shape"/>
</filter>
<filter id="filter2_d_31_1884" x="134" y="57" width="83" height="101" filterUnits="userSpaceOnUse" color-interpolation-filters="sRGB">
<feFlood flood-opacity="0" result="BackgroundImageFix"/>
<feColorMatrix in="SourceAlpha" type="matrix" values="0 0 0 0 0 0 0 0 0 0 0 0 0 0 0 0 0 0 127 0" result="hardAlpha"/>
<feOffset dy="2"/>
<feGaussianBlur stdDeviation="2"/>
<feComposite in2="hardAlpha" operator="out"/>
<feColorMatrix type="matrix" values="0 0 0 0 0 0 0 0 0 0 0 0 0 0 0 0 0 0 0.05 0"/>
<feBlend mode="normal" in2="BackgroundImageFix" result="effect1_dropShadow_31_1884"/>
<feBlend mode="normal" in="SourceGraphic" in2="effect1_dropShadow_31_1884" result="shape"/>
</filter>
<filter id="filter3_d_31_1884" x="221" y="57" width="83" height="101" filterUnits="userSpaceOnUse" color-interpolation-filters="sRGB">
<feFlood flood-opacity="0" result="BackgroundImageFix"/>
<feColorMatrix in="SourceAlpha" type="matrix" values="0 0 0 0 0 0 0 0 0 0 0 0 0 0 0 0 0 0 127 0" result="hardAlpha"/>
<feOffset dy="2"/>
<feGaussianBlur stdDeviation="2"/>
<feComposite in2="hardAlpha" operator="out"/>
<feColorMatrix type="matrix" values="0 0 0 0 0 0 0 0 0 0 0 0 0 0 0 0 0 0 0.05 0"/>
<feBlend mode="normal" in2="BackgroundImageFix" result="effect1_dropShadow_31_1884"/>
<feBlend mode="normal" in="SourceGraphic" in2="effect1_dropShadow_31_1884" result="shape"/>
</filter>
</defs>
</svg>
