<svg width="100%" height="100%" viewBox="0 0 342 250" fill="none" xmlns="http://www.w3.org/2000/svg">
<rect x="0.5" y="0.5" width="341" height="249" rx="7.5" fill="white" stroke="black"/>
<g filter="url(#filter0_d_29_1516)">
<rect x="28" y="38" width="285" height="135" rx="4" fill="white"/>
<rect x="28.5" y="38.5" width="284" height="134" rx="3.5" stroke="black"/>
</g>
<path opacity="0.4" d="M29 43C29 40.7909 30.7909 39 33 39H201V172H33C30.7909 172 29 170.209 29 168V43Z" fill="#E1E1E1"/>
<g filter="url(#filter1_d_29_1516)">
<rect x="231.5" y="53" width="46" height="47" rx="23" fill="white"/>
<rect x="232" y="53.5" width="45" height="46" rx="22.5" stroke="black"/>
</g>
<rect x="229.5" y="112" width="50" height="8" rx="3" fill="#676767"/>
<rect opacity="0.8" x="218" y="124" width="73" height="5" rx="2.5" fill="#D9D9D9"/>
<rect x="220.5" y="141" width="18" height="18" rx="2" fill="#FF00F5"/>
<rect x="226.5" y="148" width="6" height="4" rx="2" fill="white"/>
<rect x="245.5" y="141" width="18" height="18" rx="2" fill="#FF00F5"/>
<rect x="251.5" y="148" width="6" height="4" rx="2" fill="white"/>
<rect x="270.5" y="141" width="18" height="18" rx="2" fill="#FF00F5"/>
<rect x="276.5" y="148" width="6" height="4" rx="2" fill="white"/>
<g filter="url(#filter2_d_29_1516)">
<rect x="46" y="79" width="63" height="53" rx="4" fill="white"/>
<rect x="46.5" y="79.5" width="62" height="52" rx="3.5" stroke="black"/>
</g>
<rect x="55" y="91" width="12" height="12" rx="2" fill="#E1E1E1"/>
<rect x="55" y="109" width="26" height="4" rx="2" fill="#747474"/>
<rect x="55" y="117" width="42" height="4" rx="2" fill="#E1E1E1"/>
<g filter="url(#filter3_d_29_1516)">
<rect x="121" y="79" width="63" height="53" rx="4" fill="white"/>
<rect x="121.5" y="79.5" width="62" height="52" rx="3.5" stroke="black"/>
</g>
<rect x="130" y="91" width="12" height="12" rx="2" fill="#E1E1E1"/>
<rect x="130" y="109" width="26" height="4" rx="2" fill="#747474"/>
<rect x="130" y="117" width="42" height="4" rx="2" fill="#E1E1E1"/>
<line x1="201.5" y1="39" x2="201.5" y2="172" stroke="black"/>
<defs>
<filter id="filter0_d_29_1516" x="24" y="36" width="293" height="143" filterUnits="userSpaceOnUse" color-interpolation-filters="sRGB">
<feFlood flood-opacity="0" result="BackgroundImageFix"/>
<feColorMatrix in="SourceAlpha" type="matrix" values="0 0 0 0 0 0 0 0 0 0 0 0 0 0 0 0 0 0 127 0" result="hardAlpha"/>
<feOffset dy="2"/>
<feGaussianBlur stdDeviation="2"/>
<feComposite in2="hardAlpha" operator="out"/>
<feColorMatrix type="matrix" values="0 0 0 0 0 0 0 0 0 0 0 0 0 0 0 0 0 0 0.05 0"/>
<feBlend mode="normal" in2="BackgroundImageFix" result="effect1_dropShadow_29_1516"/>
<feBlend mode="normal" in="SourceGraphic" in2="effect1_dropShadow_29_1516" result="shape"/>
</filter>
<filter id="filter1_d_29_1516" x="227.5" y="51" width="54" height="55" filterUnits="userSpaceOnUse" color-interpolation-filters="sRGB">
<feFlood flood-opacity="0" result="BackgroundImageFix"/>
<feColorMatrix in="SourceAlpha" type="matrix" values="0 0 0 0 0 0 0 0 0 0 0 0 0 0 0 0 0 0 127 0" result="hardAlpha"/>
<feOffset dy="2"/>
<feGaussianBlur stdDeviation="2"/>
<feComposite in2="hardAlpha" operator="out"/>
<feColorMatrix type="matrix" values="0 0 0 0 0 0 0 0 0 0 0 0 0 0 0 0 0 0 0.05 0"/>
<feBlend mode="normal" in2="BackgroundImageFix" result="effect1_dropShadow_29_1516"/>
<feBlend mode="normal" in="SourceGraphic" in2="effect1_dropShadow_29_1516" result="shape"/>
</filter>
<filter id="filter2_d_29_1516" x="42" y="77" width="71" height="61" filterUnits="userSpaceOnUse" color-interpolation-filters="sRGB">
<feFlood flood-opacity="0" result="BackgroundImageFix"/>
<feColorMatrix in="SourceAlpha" type="matrix" values="0 0 0 0 0 0 0 0 0 0 0 0 0 0 0 0 0 0 127 0" result="hardAlpha"/>
<feOffset dy="2"/>
<feGaussianBlur stdDeviation="2"/>
<feComposite in2="hardAlpha" operator="out"/>
<feColorMatrix type="matrix" values="0 0 0 0 0 0 0 0 0 0 0 0 0 0 0 0 0 0 0.05 0"/>
<feBlend mode="normal" in2="BackgroundImageFix" result="effect1_dropShadow_29_1516"/>
<feBlend mode="normal" in="SourceGraphic" in2="effect1_dropShadow_29_1516" result="shape"/>
</filter>
<filter id="filter3_d_29_1516" x="117" y="77" width="71" height="61" filterUnits="userSpaceOnUse" color-interpolation-filters="sRGB">
<feFlood flood-opacity="0" result="BackgroundImageFix"/>
<feColorMatrix in="SourceAlpha" type="matrix" values="0 0 0 0 0 0 0 0 0 0 0 0 0 0 0 0 0 0 127 0" result="hardAlpha"/>
<feOffset dy="2"/>
<feGaussianBlur stdDeviation="2"/>
<feComposite in2="hardAlpha" operator="out"/>
<feColorMatrix type="matrix" values="0 0 0 0 0 0 0 0 0 0 0 0 0 0 0 0 0 0 0.05 0"/>
<feBlend mode="normal" in2="BackgroundImageFix" result="effect1_dropShadow_29_1516"/>
<feBlend mode="normal" in="SourceGraphic" in2="effect1_dropShadow_29_1516" result="shape"/>
</filter>
</defs>
</svg>
