<svg width="100%" height="100%" viewBox="0 0 342 250" fill="none" xmlns="http://www.w3.org/2000/svg">
<rect x="0.5" y="0.5" width="341" height="249" rx="7.5" fill="white" stroke="black"/>
<path d="M1 9.00001C1 4.58173 4.58172 1 9 1H333C337.418 1 341 4.58172 341 9V241C341 245.418 337.418 249 333 249H9C4.58172 249 1 245.418 1 241V9.00001Z" fill="#BEBEBE"/>
<rect x="23.5" y="177.5" width="93" height="52" rx="3.5" fill="white" stroke="black" stroke-dasharray="2 2"/>
<rect x="35.3955" y="201" width="47.5165" height="5" rx="2.5" fill="#D9D9D9"/>
<rect x="35.3955" y="189" width="22.7253" height="5" rx="2.5" fill="#747474"/>
<rect x="35.3955" y="213" width="38.2198" height="5" rx="2.5" fill="#D9D9D9"/>
<rect x="199.5" y="18.5" width="121" height="102" rx="3.5" fill="white" stroke="black" stroke-dasharray="2 2"/>
<rect x="215" y="51" width="62" height="7" rx="3.5" fill="#D9D9D9"/>
<rect x="215" y="32" width="30" height="7" rx="3.5" fill="#747474"/>
<rect x="215" y="70" width="50" height="7" rx="3.5" fill="#D9D9D9"/>
<rect x="215" y="89" width="38" height="7" rx="3.5" fill="#D9D9D9"/>
<rect x="23.5" y="18.5" width="71.345" height="44" rx="3.5" fill="white" stroke="black" stroke-dasharray="2 2"/>
<path d="M60.7353 36.2247V45.6792H59.0226V37.8912H58.9672L56.7559 39.3038V37.7342L59.1057 36.2247H60.7353Z" fill="black"/>
<rect x="23.5" y="76.5" width="71.345" height="44" rx="3.5" fill="white" stroke="black" stroke-dasharray="2 2"/>
<path d="M59.1721 103.808C58.5073 103.808 57.9164 103.695 57.3993 103.467C56.8854 103.239 56.4791 102.922 56.1806 102.516C55.8821 102.11 55.7236 101.64 55.7051 101.108H57.4409C57.4563 101.363 57.5409 101.586 57.6948 101.777C57.8487 101.965 58.0533 102.111 58.3088 102.216C58.5642 102.32 58.8504 102.373 59.1674 102.373C59.506 102.373 59.8061 102.314 60.0677 102.197C60.3293 102.077 60.5339 101.911 60.6816 101.699C60.8294 101.486 60.9017 101.242 60.8986 100.965C60.9017 100.678 60.8278 100.426 60.677 100.208C60.5262 99.9891 60.3077 99.8183 60.0215 99.6952C59.7383 99.5721 59.3967 99.5105 58.9966 99.5105H58.1611V98.1902H58.9966C59.3259 98.1902 59.6137 98.1333 59.8599 98.0194C60.1092 97.9055 60.3046 97.7455 60.4462 97.5393C60.5878 97.33 60.657 97.0884 60.6539 96.8145C60.657 96.5467 60.597 96.3144 60.4739 96.1174C60.3539 95.9174 60.1831 95.7619 59.9615 95.6511C59.743 95.5403 59.486 95.485 59.1905 95.485C58.9012 95.485 58.6335 95.5373 58.3873 95.6419C58.141 95.7466 57.9425 95.8958 57.7917 96.0897C57.6409 96.2805 57.5609 96.5083 57.5517 96.7729H55.9036C55.9159 96.2436 56.0682 95.7789 56.3606 95.3788C56.6561 94.9756 57.05 94.6617 57.5424 94.437C58.0349 94.2093 58.5873 94.0954 59.1998 94.0954C59.8307 94.0954 60.3785 94.2139 60.8432 94.4509C61.311 94.6848 61.6727 95.0002 61.9281 95.3972C62.1835 95.7943 62.3113 96.2328 62.3113 96.7129C62.3143 97.2454 62.1574 97.6916 61.8404 98.0517C61.5265 98.4118 61.1141 98.6472 60.6032 98.758V98.8319C61.2679 98.9242 61.7773 99.1704 62.1312 99.5705C62.4882 99.9676 62.6652 100.462 62.6621 101.052C62.6621 101.582 62.5113 102.056 62.2097 102.474C61.9112 102.89 61.4988 103.216 60.9725 103.453C60.4493 103.69 59.8491 103.808 59.1721 103.808Z" fill="black"/>
<rect x="110.155" y="18.5" width="71.345" height="44" rx="3.5" fill="white" stroke="black" stroke-dasharray="2 2"/>
<path d="M142.631 45.6792V44.442L145.913 41.2243C146.227 40.9073 146.488 40.6257 146.698 40.3795C146.907 40.1333 147.064 39.8948 147.169 39.6639C147.273 39.4331 147.325 39.1869 147.325 38.9253C147.325 38.6268 147.258 38.3713 147.122 38.159C146.987 37.9435 146.801 37.7773 146.564 37.6604C146.327 37.5434 146.057 37.485 145.756 37.485C145.445 37.485 145.173 37.5496 144.939 37.6788C144.705 37.805 144.523 37.9851 144.394 38.219C144.268 38.4529 144.205 38.7314 144.205 39.0546H142.575C142.575 38.4544 142.712 37.9328 142.986 37.4896C143.26 37.0464 143.637 36.7032 144.117 36.4601C144.6 36.217 145.154 36.0954 145.779 36.0954C146.413 36.0954 146.97 36.2139 147.45 36.4509C147.93 36.6878 148.303 37.0125 148.567 37.4249C148.835 37.8373 148.969 38.3082 148.969 38.8376C148.969 39.1915 148.901 39.5393 148.766 39.8809C148.63 40.2225 148.392 40.6011 148.05 41.0166C147.712 41.432 147.236 41.9352 146.624 42.5261L144.994 44.1835V44.2481H149.112V45.6792H142.631Z" fill="black"/>
<rect x="110.155" y="76.5" width="71.345" height="44" rx="3.5" fill="white" stroke="black" stroke-dasharray="2 2"/>
<path d="M142.168 101.925V100.563L146.179 94.2247H147.315V96.1636H146.623L143.922 100.443V100.517H149.522V101.925H142.168ZM146.678 103.679V101.509L146.696 100.9V94.2247H148.312V103.679H146.678Z" fill="black"/>
<rect x="134.5" y="177.5" width="185" height="52" rx="3.5" fill="white" stroke="black" stroke-dasharray="2 2"/>
<rect x="147.45" y="201" width="59.4031" height="5" rx="2.5" fill="#D9D9D9"/>
<rect x="147.45" y="189" width="28.2408" height="5" rx="2.5" fill="#747474"/>
<rect x="147.45" y="213" width="47.7173" height="5" rx="2.5" fill="#D9D9D9"/>
<rect x="279.1" y="201" width="26.2932" height="5" rx="2.5" fill="#D9D9D9"/>
<rect x="269.361" y="213" width="36.0314" height="5" rx="2.5" fill="#D9D9D9"/>
<rect x="23.5" y="136.5" width="296" height="25" rx="3.5" fill="white" stroke="black" stroke-dasharray="2 2"/>
<rect x="37" y="146.706" width="94.8534" height="3.82353" rx="1.91176" fill="#D9D9D9"/>
<rect x="260" y="146.706" width="45.0942" height="3.82353" rx="1.91176" fill="#747474"/>
</svg>
