<svg width="100%" height="100%" viewBox="0 0 342 250" fill="none" xmlns="http://www.w3.org/2000/svg">
<rect x="0.5" y="0.5" width="341" height="249" rx="7.5" fill="white" stroke="black"/>
<path d="M1 9.00001C1 4.58173 4.58172 1 9 1H333C337.418 1 341 4.58172 341 9V241C341 245.418 337.418 249 333 249H9C4.58172 249 1 245.418 1 241V9.00001Z" fill="#BEBEBE"/>
<g opacity="0.3">
<g filter="url(#filter0_d_11_1967)">
<rect x="21" y="28" width="300" height="60" rx="4" fill="white"/>
<rect x="21.5" y="28.5" width="299" height="59" rx="3.5" stroke="black"/>
</g>
<rect x="37" y="42" width="267" height="31" rx="4" fill="white" stroke="black" stroke-width="2" stroke-linecap="round" stroke-dasharray="3 4"/>
</g>
<g opacity="0.3">
<g filter="url(#filter1_d_11_1967)">
<rect x="21" y="137" width="300" height="87" rx="4" fill="white"/>
<rect x="21.5" y="137.5" width="299" height="86" rx="3.5" stroke="black"/>
</g>
<rect x="37" y="179" width="267" height="28" rx="4" fill="white" stroke="black" stroke-width="2" stroke-linecap="round" stroke-dasharray="3 4"/>
</g>
<line x1="321" y1="112" x2="21" y2="112" stroke="black" stroke-width="2"/>
<rect x="139.5" y="101.5" width="58" height="21" rx="6.5" fill="#FF00F5"/>
<rect x="148" y="111" width="41" height="2" rx="1" fill="white"/>
<rect x="139.5" y="101.5" width="58" height="21" rx="6.5" stroke="#BEBEBE" stroke-width="5"/>
<rect x="37" y="151" width="51" height="4.10891" rx="2.05446" fill="#D9D9D9"/>
<rect x="37" y="161" width="32" height="4" rx="2" fill="#D9D9D9"/>
<defs>
<filter id="filter0_d_11_1967" x="17" y="26" width="308" height="68" filterUnits="userSpaceOnUse" color-interpolation-filters="sRGB">
<feFlood flood-opacity="0" result="BackgroundImageFix"/>
<feColorMatrix in="SourceAlpha" type="matrix" values="0 0 0 0 0 0 0 0 0 0 0 0 0 0 0 0 0 0 127 0" result="hardAlpha"/>
<feOffset dy="2"/>
<feGaussianBlur stdDeviation="2"/>
<feComposite in2="hardAlpha" operator="out"/>
<feColorMatrix type="matrix" values="0 0 0 0 0 0 0 0 0 0 0 0 0 0 0 0 0 0 0.05 0"/>
<feBlend mode="normal" in2="BackgroundImageFix" result="effect1_dropShadow_11_1967"/>
<feBlend mode="normal" in="SourceGraphic" in2="effect1_dropShadow_11_1967" result="shape"/>
</filter>
<filter id="filter1_d_11_1967" x="17" y="135" width="308" height="95" filterUnits="userSpaceOnUse" color-interpolation-filters="sRGB">
<feFlood flood-opacity="0" result="BackgroundImageFix"/>
<feColorMatrix in="SourceAlpha" type="matrix" values="0 0 0 0 0 0 0 0 0 0 0 0 0 0 0 0 0 0 127 0" result="hardAlpha"/>
<feOffset dy="2"/>
<feGaussianBlur stdDeviation="2"/>
<feComposite in2="hardAlpha" operator="out"/>
<feColorMatrix type="matrix" values="0 0 0 0 0 0 0 0 0 0 0 0 0 0 0 0 0 0 0.05 0"/>
<feBlend mode="normal" in2="BackgroundImageFix" result="effect1_dropShadow_11_1967"/>
<feBlend mode="normal" in="SourceGraphic" in2="effect1_dropShadow_11_1967" result="shape"/>
</filter>
</defs>
</svg>
