<svg width="100%" height="100%" viewBox="0 0 342 250" fill="none" xmlns="http://www.w3.org/2000/svg">
<rect x="0.5" y="1.5" width="341" height="249" rx="7.5" fill="white" stroke="black"/>
<rect x="82" y="7" width="16" height="6" rx="3" fill="#FF00F5"/>
<rect x="105" y="7" width="16" height="6" rx="3" fill="#D9D9D9"/>
<rect x="128" y="7" width="16" height="6" rx="3" fill="#D9D9D9"/>
<rect x="309" y="7" width="16" height="6" rx="3" fill="#D9D9D9"/>
<path d="M67 20H341V242C341 246.418 337.418 250 333 250H67V20Z" fill="#BEBEBE"/>
<rect x="82.5" y="62.5" width="242" height="170" rx="3.5" fill="white" stroke="black" stroke-dasharray="2 2"/>
<path d="M84.1467 45H82.3185L85.647 35.5455H87.7614L91.0945 45H89.2663L86.7411 37.4844H86.6673L84.1467 45ZM84.2067 41.293H89.1925V42.6687H84.2067V41.293ZM93.9371 40.8452V45H92.2659V37.9091H93.8632V39.114H93.9463C94.1094 38.717 94.3695 38.4015 94.7265 38.1676C95.0866 37.9337 95.5313 37.8168 96.0606 37.8168C96.55 37.8168 96.9762 37.9214 97.3394 38.1307C97.7056 38.34 97.9888 38.6431 98.1888 39.0401C98.392 39.4371 98.492 39.9188 98.4889 40.4851V45H96.8177V40.7436C96.8177 40.2696 96.6946 39.8988 96.4484 39.631C96.2053 39.3633 95.8683 39.2294 95.4374 39.2294C95.145 39.2294 94.885 39.294 94.6572 39.4233C94.4326 39.5495 94.2556 39.7326 94.1263 39.9727C94.0001 40.2127 93.9371 40.5036 93.9371 40.8452ZM102.228 45.1431C101.779 45.1431 101.374 45.0631 101.014 44.9031C100.657 44.7399 100.374 44.4999 100.165 44.1829C99.9585 43.8659 99.8554 43.475 99.8554 43.0103C99.8554 42.6102 99.9292 42.2794 100.077 42.0178C100.225 41.7562 100.426 41.5469 100.682 41.3899C100.937 41.233 101.225 41.1145 101.545 41.0344C101.868 40.9513 102.202 40.8913 102.547 40.8544C102.962 40.8113 103.299 40.7728 103.558 40.739C103.816 40.7021 104.004 40.6467 104.121 40.5728C104.241 40.4959 104.301 40.3774 104.301 40.2173V40.1896C104.301 39.8419 104.198 39.5726 103.992 39.3817C103.786 39.1909 103.489 39.0955 103.101 39.0955C102.691 39.0955 102.367 39.1848 102.127 39.3633C101.89 39.5418 101.73 39.7526 101.647 39.9957L100.086 39.7741C100.209 39.3433 100.412 38.9832 100.696 38.6939C100.979 38.4015 101.325 38.183 101.734 38.0384C102.144 37.8906 102.596 37.8168 103.092 37.8168C103.433 37.8168 103.773 37.8568 104.112 37.9368C104.45 38.0168 104.76 38.1491 105.04 38.3338C105.32 38.5154 105.544 38.7631 105.714 39.0771C105.886 39.391 105.972 39.7834 105.972 40.2543V45H104.366V44.0259H104.31C104.209 44.2229 104.066 44.4076 103.881 44.5799C103.699 44.7492 103.47 44.8861 103.193 44.9908C102.919 45.0923 102.598 45.1431 102.228 45.1431ZM102.662 43.9151C102.998 43.9151 103.289 43.849 103.535 43.7166C103.781 43.5812 103.97 43.4027 104.103 43.1811C104.238 42.9595 104.306 42.7179 104.306 42.4563V41.6207C104.253 41.6638 104.164 41.7038 104.038 41.7408C103.915 41.7777 103.776 41.81 103.622 41.8377C103.469 41.8654 103.316 41.89 103.165 41.9116C103.015 41.9331 102.884 41.9516 102.773 41.967C102.524 42.0008 102.301 42.0562 102.104 42.1332C101.907 42.2101 101.751 42.3178 101.637 42.4563C101.523 42.5917 101.467 42.7672 101.467 42.9826C101.467 43.2904 101.579 43.5227 101.804 43.6797C102.028 43.8366 102.314 43.9151 102.662 43.9151ZM109.324 35.5455V45H107.653V35.5455H109.324ZM112.081 47.6591C111.853 47.6591 111.642 47.6406 111.449 47.6037C111.258 47.5698 111.105 47.5298 110.991 47.4837L111.379 46.1818C111.622 46.2526 111.839 46.2865 112.03 46.2834C112.221 46.2803 112.389 46.2203 112.533 46.1033C112.681 45.9895 112.806 45.7987 112.907 45.5309L113.05 45.1477L110.479 37.9091H112.252L113.886 43.2642H113.96L115.599 37.9091H117.376L114.537 45.8587C114.405 46.2341 114.229 46.5558 114.011 46.8235C113.792 47.0943 113.524 47.3005 113.207 47.4421C112.893 47.5868 112.518 47.6591 112.081 47.6591ZM122.073 37.9091V39.2017H117.997V37.9091H122.073ZM119.003 36.2102H120.675V42.8672C120.675 43.0919 120.708 43.2642 120.776 43.3842C120.847 43.5012 120.939 43.5812 121.053 43.6243C121.167 43.6674 121.293 43.6889 121.432 43.6889C121.536 43.6889 121.632 43.6812 121.718 43.6658C121.807 43.6504 121.875 43.6366 121.921 43.6243L122.203 44.9308C122.113 44.9615 121.986 44.9954 121.819 45.0323C121.656 45.0692 121.456 45.0908 121.219 45.0969C120.801 45.1093 120.424 45.0462 120.088 44.9077C119.753 44.7661 119.487 44.5476 119.29 44.2521C119.096 43.9567 119 43.5874 119.003 43.1442V36.2102ZM123.471 45V37.9091H125.142V45H123.471ZM124.311 36.9027C124.046 36.9027 123.819 36.815 123.628 36.6396C123.437 36.4611 123.342 36.2472 123.342 35.9979C123.342 35.7455 123.437 35.5316 123.628 35.3562C123.819 35.1777 124.046 35.0884 124.311 35.0884C124.579 35.0884 124.807 35.1777 124.994 35.3562C125.185 35.5316 125.281 35.7455 125.281 35.9979C125.281 36.2472 125.185 36.4611 124.994 36.6396C124.807 36.815 124.579 36.9027 124.311 36.9027ZM129.954 45.1385C129.246 45.1385 128.638 44.9831 128.13 44.6722C127.625 44.3614 127.236 43.9321 126.962 43.3842C126.691 42.8333 126.556 42.1993 126.556 41.4822C126.556 40.7621 126.694 40.1265 126.971 39.5756C127.248 39.0217 127.639 38.5908 128.144 38.283C128.652 37.9722 129.252 37.8168 129.944 37.8168C130.52 37.8168 131.029 37.9229 131.472 38.1353C131.919 38.3446 132.274 38.6416 132.539 39.0263C132.804 39.4079 132.954 39.8542 132.991 40.3651H131.394C131.329 40.0234 131.175 39.7388 130.932 39.511C130.692 39.2802 130.371 39.1648 129.968 39.1648C129.626 39.1648 129.326 39.2571 129.067 39.4418C128.809 39.6233 128.607 39.8849 128.463 40.2266C128.321 40.5682 128.25 40.9775 128.25 41.4545C128.25 41.9377 128.321 42.3532 128.463 42.701C128.604 43.0457 128.803 43.3119 129.058 43.4996C129.317 43.6843 129.62 43.7766 129.968 43.7766C130.214 43.7766 130.434 43.7305 130.628 43.6381C130.825 43.5427 130.989 43.4058 131.122 43.2273C131.254 43.0488 131.345 42.8318 131.394 42.5763H132.991C132.951 43.078 132.804 43.5227 132.548 43.9105C132.293 44.2952 131.945 44.5968 131.505 44.8153C131.065 45.0308 130.548 45.1385 129.954 45.1385ZM139.968 39.7834L138.445 39.9496C138.401 39.7957 138.326 39.651 138.218 39.5156C138.114 39.3802 137.972 39.271 137.794 39.1879C137.615 39.1048 137.397 39.0632 137.138 39.0632C136.79 39.0632 136.498 39.1386 136.261 39.2894C136.027 39.4402 135.912 39.6357 135.915 39.8757C135.912 40.0819 135.987 40.2496 136.141 40.3789C136.298 40.5082 136.556 40.6143 136.916 40.6974L138.126 40.956C138.797 41.1006 139.295 41.3299 139.622 41.6438C139.951 41.9577 140.117 42.3686 140.12 42.8764C140.117 43.3227 139.986 43.7166 139.728 44.0582C139.472 44.3968 139.117 44.6615 138.661 44.8523C138.206 45.0431 137.683 45.1385 137.092 45.1385C136.224 45.1385 135.525 44.9569 134.996 44.5938C134.467 44.2275 134.151 43.7182 134.05 43.0657L135.679 42.9087C135.753 43.2288 135.91 43.4704 136.15 43.6335C136.39 43.7966 136.703 43.8782 137.087 43.8782C137.484 43.8782 137.803 43.7966 138.043 43.6335C138.286 43.4704 138.408 43.2688 138.408 43.0288C138.408 42.8256 138.329 42.6579 138.172 42.5256C138.018 42.3932 137.778 42.2917 137.452 42.2209L136.242 41.967C135.562 41.8254 135.059 41.5869 134.733 41.2514C134.407 40.9129 134.245 40.4851 134.248 39.968C134.245 39.531 134.364 39.1525 134.604 38.8324C134.847 38.5092 135.184 38.2599 135.615 38.0845C136.049 37.906 136.549 37.8168 137.115 37.8168C137.946 37.8168 138.6 37.9937 139.077 38.3477C139.557 38.7016 139.854 39.1802 139.968 39.7834Z" fill="black"/>
<line x1="66.5" y1="1" x2="66.5" y2="250" stroke="black"/>
<line x1="67" y1="19.5" x2="341" y2="19.5" stroke="black"/>
<rect x="7" y="7" width="16" height="16" rx="8" fill="#FF00F5"/>
<rect x="9" y="38" width="51" height="5" rx="2.5" fill="#D9D9D9"/>
<rect x="9" y="74" width="51" height="5" rx="2.5" fill="#D9D9D9"/>
<rect x="9" y="86" width="46" height="5" rx="2.5" fill="#D9D9D9"/>
<rect x="9" y="50" width="46" height="5" rx="2.5" fill="#D9D9D9"/>
<rect x="9" y="122" width="46" height="5" rx="2.5" fill="#D9D9D9"/>
<rect x="9" y="62" width="8" height="5" rx="2.5" fill="#747474"/>
<rect x="9" y="110" width="8" height="5" rx="2.5" fill="#747474"/>
<rect x="9" y="98" width="37" height="5" rx="2.5" fill="#D9D9D9"/>
<rect x="9" y="134" width="37" height="5" rx="2.5" fill="#D9D9D9"/>
<rect x="8" y="229" width="51" height="14" rx="4" fill="#FF00F5"/>
<rect x="14" y="235" width="39" height="2" rx="1" fill="white"/>
<path opacity="0.8" d="M1 10C1 5.58173 4.58172 2 9 2H333C337.418 2 341 5.58172 341 10V242C341 246.418 337.418 250 333 250H9C4.58172 250 1 246.418 1 242V10Z" fill="white"/>
<g filter="url(#filter0_d_27_611)">
<path d="M203 2H333C337.418 2 341 5.58172 341 10V242C341 246.418 337.418 250 333 250H203V2Z" fill="white"/>
</g>
<path opacity="0.4" d="M204 168H341V242C341 246.418 337.418 250 333 250H204V168Z" fill="#E1E1E1"/>
<rect x="291" y="176" width="41" height="16" rx="4" fill="#FF00F5"/>
<rect x="297" y="182.5" width="29" height="3" rx="1.5" fill="white"/>
<g opacity="0.5">
<rect x="253" y="176" width="30" height="16" rx="4" fill="#676767"/>
<rect x="259" y="182.5" width="18" height="3" rx="1.5" fill="white"/>
</g>
<rect x="216" y="24" width="57.3239" height="6" rx="3" fill="#676767"/>
<rect opacity="0.8" x="216" y="40" width="110" height="5" rx="2.5" fill="#D9D9D9"/>
<rect opacity="0.5" x="216" y="50" width="81.338" height="5" rx="2.5" fill="#D9D9D9"/>
<rect x="216" y="124" width="75" height="6" rx="3" fill="#676767"/>
<rect opacity="0.8" x="216" y="140" width="110" height="5" rx="2.5" fill="#D9D9D9"/>
<rect x="216" y="74" width="39.0845" height="6" rx="3" fill="#676767"/>
<rect opacity="0.8" x="216" y="90" width="75" height="5" rx="2.5" fill="#D9D9D9"/>
<rect opacity="0.5" x="216" y="100" width="55.4577" height="5" rx="2.5" fill="#D9D9D9"/>
<g clip-path="url(#clip0_27_611)">
<path d="M331.5 11.205L330.795 10.5L328 13.295L325.205 10.5L324.5 11.205L327.295 14L324.5 16.795L325.205 17.5L328 14.705L330.795 17.5L331.5 16.795L328.705 14L331.5 11.205Z" fill="#676767"/>
</g>
<line x1="203.5" y1="2" x2="203.5" y2="250" stroke="black"/>
<defs>
<filter id="filter0_d_27_611" x="199" y="0" width="146" height="256" filterUnits="userSpaceOnUse" color-interpolation-filters="sRGB">
<feFlood flood-opacity="0" result="BackgroundImageFix"/>
<feColorMatrix in="SourceAlpha" type="matrix" values="0 0 0 0 0 0 0 0 0 0 0 0 0 0 0 0 0 0 127 0" result="hardAlpha"/>
<feOffset dy="2"/>
<feGaussianBlur stdDeviation="2"/>
<feComposite in2="hardAlpha" operator="out"/>
<feColorMatrix type="matrix" values="0 0 0 0 0 0 0 0 0 0 0 0 0 0 0 0 0 0 0.05 0"/>
<feBlend mode="normal" in2="BackgroundImageFix" result="effect1_dropShadow_27_611"/>
<feBlend mode="normal" in="SourceGraphic" in2="effect1_dropShadow_27_611" result="shape"/>
</filter>
<clipPath id="clip0_27_611">
<rect width="12" height="12" fill="white" transform="translate(322 8)"/>
</clipPath>
</defs>
</svg>
