<svg width="100%" height="100%" viewBox="0 0 342 250" fill="none" xmlns="http://www.w3.org/2000/svg">
<rect x="0.5" y="0.5" width="341" height="249" rx="7.5" fill="white" stroke="black"/>
<path d="M46.1747 43.2699V48H43.9055V37.0909H46.1108V41.2617H46.2067C46.3913 40.7788 46.6896 40.4006 47.1016 40.1271C47.5135 39.8501 48.0302 39.7116 48.6516 39.7116C49.2198 39.7116 49.7152 39.8359 50.1378 40.0845C50.5639 40.3295 50.8942 40.6829 51.1286 41.1445C51.3665 41.6026 51.4837 42.1513 51.4801 42.7905V48H49.2109V43.1953C49.2145 42.6911 49.0866 42.2987 48.8274 42.0181C48.5717 41.7376 48.2131 41.5973 47.7514 41.5973C47.4425 41.5973 47.169 41.663 46.9311 41.7944C46.6967 41.9258 46.5121 42.1175 46.3771 42.3697C46.2457 42.6183 46.1783 42.9183 46.1747 43.2699ZM57.3901 37.0909V48H55.0836V39.2802H55.0197L52.5215 40.8462V38.8008L55.2221 37.0909H57.3901ZM60.7446 48.1385C60.393 48.1385 60.0912 48.0142 59.839 47.7656C59.5905 47.5135 59.4662 47.2116 59.4662 46.8601C59.4662 46.5121 59.5905 46.2138 59.839 45.9652C60.0912 45.7166 60.393 45.5923 60.7446 45.5923C61.0855 45.5923 61.3838 45.7166 61.6395 45.9652C61.8952 46.2138 62.023 46.5121 62.023 46.8601C62.023 47.0945 61.9626 47.3093 61.8419 47.5046C61.7247 47.6964 61.5702 47.8509 61.3785 47.968C61.1867 48.0817 60.9754 48.1385 60.7446 48.1385ZM66.8876 48V37.0909H69.1941V41.592H73.8762V37.0909H76.1774V48H73.8762V43.4936H69.1941V48H66.8876ZM81.7651 48.1598C80.9235 48.1598 80.199 47.9893 79.5918 47.6484C78.9881 47.304 78.5229 46.8175 78.1962 46.1889C77.8695 45.5568 77.7061 44.8093 77.7061 43.9464C77.7061 43.1048 77.8695 42.3661 78.1962 41.7305C78.5229 41.0948 78.9828 40.5994 79.5758 40.2443C80.1724 39.8892 80.872 39.7116 81.6745 39.7116C82.2143 39.7116 82.7168 39.7987 83.182 39.9727C83.6507 40.1431 84.0591 40.4006 84.4071 40.745C84.7587 41.0895 85.0321 41.5227 85.2275 42.0447C85.4228 42.5632 85.5204 43.1705 85.5204 43.8665V44.4897H78.6117V43.0835H83.3844C83.3844 42.7567 83.3134 42.4673 83.1713 42.2152C83.0293 41.9631 82.8322 41.766 82.5801 41.6239C82.3315 41.4783 82.0421 41.4055 81.7118 41.4055C81.3674 41.4055 81.062 41.4854 80.7956 41.6452C80.5328 41.8015 80.3269 42.0128 80.1777 42.2791C80.0286 42.5419 79.9522 42.8349 79.9487 43.158V44.495C79.9487 44.8999 80.0233 45.2496 80.1724 45.5444C80.3251 45.8391 80.54 46.0664 80.8169 46.2262C81.0939 46.386 81.4224 46.4659 81.8024 46.4659C82.0545 46.4659 82.2853 46.4304 82.4949 46.3594C82.7044 46.2884 82.8837 46.1818 83.0328 46.0398C83.182 45.8977 83.2956 45.7237 83.3738 45.5178L85.4725 45.6562C85.3659 46.1605 85.1475 46.6009 84.8173 46.9773C84.4906 47.3501 84.068 47.6413 83.5495 47.8509C83.0346 48.0568 82.4398 48.1598 81.7651 48.1598ZM89.3343 48.1545C88.8123 48.1545 88.3471 48.0639 87.9387 47.8828C87.5304 47.6982 87.2072 47.4265 86.9693 47.0678C86.7349 46.7056 86.6177 46.2546 86.6177 45.7148C86.6177 45.2603 86.7012 44.8786 86.8681 44.5696C87.035 44.2607 87.2623 44.0121 87.5499 43.8239C87.8375 43.6357 88.1642 43.4936 88.53 43.3977C88.8993 43.3018 89.2864 43.2344 89.6912 43.1953C90.1671 43.1456 90.5506 43.0994 90.8418 43.0568C91.133 43.0107 91.3443 42.9432 91.4757 42.8544C91.6071 42.7656 91.6728 42.6342 91.6728 42.4602V42.4283C91.6728 42.0909 91.5662 41.8299 91.3532 41.6452C91.1436 41.4606 90.8453 41.3683 90.4583 41.3683C90.0499 41.3683 89.725 41.4588 89.4835 41.6399C89.242 41.8175 89.0822 42.0412 89.0041 42.3111L86.9054 42.1406C87.0119 41.6435 87.2214 41.2138 87.5339 40.8516C87.8464 40.4858 88.2495 40.2053 88.7431 40.0099C89.2402 39.8111 89.8155 39.7116 90.4689 39.7116C90.9235 39.7116 91.3585 39.7649 91.774 39.8714C92.193 39.978 92.5641 40.1431 92.8873 40.3668C93.214 40.5906 93.4714 40.8782 93.6596 41.2298C93.8478 41.5778 93.9419 41.995 93.9419 42.4815V48H91.79V46.8654H91.726C91.5946 47.1211 91.4189 47.3466 91.1987 47.5419C90.9785 47.7337 90.714 47.8846 90.405 47.9947C90.0961 48.1012 89.7392 48.1545 89.3343 48.1545ZM89.9842 46.5884C90.318 46.5884 90.6127 46.5227 90.8684 46.3913C91.1241 46.2564 91.3248 46.0753 91.4703 45.848C91.6159 45.6207 91.6887 45.3633 91.6887 45.0756V44.2074C91.6177 44.2536 91.5201 44.2962 91.3958 44.3352C91.275 44.3707 91.1383 44.4045 90.9856 44.4364C90.8329 44.4648 90.6802 44.4915 90.5275 44.5163C90.3748 44.5376 90.2363 44.5572 90.112 44.5749C89.8457 44.614 89.6131 44.6761 89.4142 44.7614C89.2154 44.8466 89.0609 44.962 88.9508 45.1076C88.8407 45.2496 88.7857 45.4272 88.7857 45.6403C88.7857 45.9492 88.8975 46.1854 89.1213 46.3487C89.3485 46.5085 89.6362 46.5884 89.9842 46.5884ZM98.7173 48.1332C98.0959 48.1332 97.533 47.9734 97.0288 47.6538C96.5281 47.3306 96.1303 46.8565 95.8356 46.2315C95.5444 45.603 95.3988 44.8324 95.3988 43.9197C95.3988 42.9822 95.5497 42.2028 95.8516 41.5813C96.1534 40.9563 96.5547 40.4893 97.0554 40.1804C97.5597 39.8679 98.1119 39.7116 98.712 39.7116C99.1701 39.7116 99.5518 39.7898 99.8572 39.946C100.166 40.0987 100.415 40.2905 100.603 40.5213C100.795 40.7486 100.94 40.9723 101.04 41.1925H101.109V37.0909H103.373V48H101.136V46.6896H101.04C100.933 46.9169 100.782 47.1424 100.587 47.3661C100.395 47.5863 100.145 47.7692 99.8359 47.9148C99.5305 48.0604 99.1577 48.1332 98.7173 48.1332ZM99.4364 46.3274C99.8022 46.3274 100.111 46.228 100.363 46.0291C100.619 45.8267 100.814 45.5444 100.949 45.1822C101.088 44.82 101.157 44.3956 101.157 43.9091C101.157 43.4226 101.089 43 100.955 42.6413C100.82 42.2827 100.624 42.0057 100.369 41.8104C100.113 41.6151 99.8022 41.5174 99.4364 41.5174C99.0636 41.5174 98.7493 41.6186 98.4936 41.821C98.2379 42.0234 98.0444 42.304 97.913 42.6626C97.7816 43.0213 97.7159 43.4368 97.7159 43.9091C97.7159 44.3849 97.7816 44.8058 97.913 45.1715C98.0479 45.5337 98.2415 45.8178 98.4936 46.0238C98.7493 46.2262 99.0636 46.3274 99.4364 46.3274ZM105.239 48V39.8182H107.508V48H105.239ZM106.378 38.7635C106.041 38.7635 105.752 38.6516 105.51 38.4279C105.272 38.2006 105.153 37.929 105.153 37.6129C105.153 37.3004 105.272 37.0323 105.51 36.8086C105.752 36.5813 106.041 36.4677 106.378 36.4677C106.716 36.4677 107.003 36.5813 107.241 36.8086C107.483 37.0323 107.604 37.3004 107.604 37.6129C107.604 37.929 107.483 38.2006 107.241 38.4279C107.003 38.6516 106.716 38.7635 106.378 38.7635ZM111.595 43.2699V48H109.325V39.8182H111.488V41.2617H111.584C111.765 40.7859 112.069 40.4094 112.495 40.1325C112.921 39.8519 113.438 39.7116 114.045 39.7116C114.613 39.7116 115.108 39.8359 115.531 40.0845C115.954 40.3331 116.282 40.6882 116.517 41.1499C116.751 41.608 116.868 42.1548 116.868 42.7905V48H114.599V43.1953C114.602 42.6946 114.475 42.304 114.215 42.0234C113.956 41.7393 113.599 41.5973 113.145 41.5973C112.839 41.5973 112.569 41.663 112.335 41.7944C112.104 41.9258 111.923 42.1175 111.792 42.3697C111.664 42.6183 111.598 42.9183 111.595 43.2699ZM122.343 51.2386C121.608 51.2386 120.977 51.1374 120.452 50.935C119.93 50.7362 119.514 50.4645 119.205 50.12C118.896 49.7756 118.696 49.3885 118.603 48.9588L120.702 48.6765C120.766 48.8398 120.867 48.9925 121.006 49.1346C121.144 49.2766 121.327 49.3903 121.554 49.4755C121.785 49.5643 122.066 49.6087 122.396 49.6087C122.889 49.6087 123.296 49.4879 123.616 49.2464C123.939 49.0085 124.1 48.609 124.1 48.0479V46.5511H124.005C123.905 46.7784 123.756 46.9933 123.557 47.1957C123.358 47.3981 123.103 47.5632 122.79 47.6911C122.478 47.8189 122.105 47.8828 121.671 47.8828C121.057 47.8828 120.498 47.7408 119.994 47.4567C119.493 47.169 119.093 46.7305 118.795 46.141C118.5 45.5479 118.353 44.7987 118.353 43.8931C118.353 42.9663 118.504 42.1921 118.806 41.5707C119.108 40.9492 119.509 40.484 120.009 40.1751C120.514 39.8661 121.066 39.7116 121.666 39.7116C122.124 39.7116 122.508 39.7898 122.817 39.946C123.126 40.0987 123.374 40.2905 123.562 40.5213C123.754 40.7486 123.902 40.9723 124.005 41.1925H124.09V39.8182H126.343V48.0799C126.343 48.7759 126.172 49.3583 125.832 49.8271C125.491 50.2958 125.018 50.6474 124.415 50.8817C123.815 51.1197 123.124 51.2386 122.343 51.2386ZM122.391 46.1783C122.756 46.1783 123.065 46.0877 123.317 45.9066C123.573 45.7219 123.768 45.4592 123.903 45.1183C124.042 44.7738 124.111 44.3619 124.111 43.8825C124.111 43.4031 124.044 42.9876 123.909 42.636C123.774 42.2809 123.578 42.0057 123.323 41.8104C123.067 41.6151 122.756 41.5174 122.391 41.5174C122.018 41.5174 121.703 41.6186 121.448 41.821C121.192 42.0199 120.998 42.2969 120.867 42.652C120.736 43.0071 120.67 43.4173 120.67 43.8825C120.67 44.3548 120.736 44.7631 120.867 45.1076C121.002 45.4485 121.196 45.7131 121.448 45.9013C121.703 46.0859 122.018 46.1783 122.391 46.1783Z" fill="black"/>
<path d="M45.7514 67.9006V72H43.7848V62.5455H45.696V66.1602H45.7791C45.9392 65.7416 46.1977 65.4138 46.5547 65.1768C46.9117 64.9368 47.3595 64.8168 47.8981 64.8168C48.3905 64.8168 48.8198 64.9245 49.1861 65.1399C49.5554 65.3523 49.8416 65.6585 50.0447 66.0586C50.2509 66.4556 50.3525 66.9311 50.3494 67.4851V72H48.3828V67.8359C48.3859 67.3989 48.2751 67.0588 48.0504 66.8157C47.8288 66.5726 47.518 66.451 47.1179 66.451C46.8501 66.451 46.6132 66.5079 46.407 66.6218C46.2038 66.7357 46.0438 66.9019 45.9268 67.1204C45.813 67.3358 45.7545 67.5959 45.7514 67.9006ZM51.8786 72V70.5597L55.2441 67.4435C55.5303 67.1665 55.7703 66.9173 55.9642 66.6957C56.1612 66.4741 56.3105 66.2571 56.412 66.0447C56.5136 65.8293 56.5644 65.5969 56.5644 65.3477C56.5644 65.0707 56.5013 64.8321 56.3751 64.6321C56.2489 64.429 56.0766 64.2736 55.858 64.1658C55.6395 64.055 55.3918 63.9996 55.1148 63.9996C54.8255 63.9996 54.5731 64.0581 54.3577 64.1751C54.1423 64.292 53.9761 64.4598 53.8591 64.6783C53.7422 64.8968 53.6837 65.1568 53.6837 65.4585H51.7863C51.7863 64.8398 51.9263 64.3028 52.2064 63.8473C52.4865 63.3918 52.8789 63.0394 53.3836 62.7901C53.8883 62.5408 54.47 62.4162 55.1286 62.4162C55.8057 62.4162 56.3951 62.5362 56.8968 62.7763C57.4015 63.0133 57.7939 63.3426 58.074 63.7642C58.354 64.1858 58.4941 64.669 58.4941 65.2138C58.4941 65.5708 58.4233 65.9232 58.2817 66.271C58.1432 66.6187 57.8954 67.005 57.5384 67.4297C57.1814 67.8513 56.6782 68.3576 56.0289 68.9485L54.6485 70.3011V70.3658H58.6187V72H51.8786ZM61.2351 72.12C60.9304 72.12 60.6688 72.0123 60.4503 71.7969C60.2348 71.5784 60.1271 71.3168 60.1271 71.0121C60.1271 70.7105 60.2348 70.4519 60.4503 70.2365C60.6688 70.0211 60.9304 69.9134 61.2351 69.9134C61.5305 69.9134 61.7891 70.0211 62.0107 70.2365C62.2322 70.4519 62.343 70.7105 62.343 71.0121C62.343 71.2152 62.2907 71.4014 62.1861 71.5707C62.0845 71.7369 61.9506 71.8707 61.7844 71.9723C61.6183 72.0708 61.4351 72.12 61.2351 72.12ZM66.559 72V62.5455H68.558V66.4464H72.6159V62.5455H74.6102V72H72.6159V68.0945H68.558V72H66.559ZM79.4529 72.1385C78.7235 72.1385 78.0956 71.9908 77.5693 71.6953C77.0461 71.3968 76.643 70.9751 76.3598 70.4304C76.0767 69.8826 75.9351 69.2347 75.9351 68.4869C75.9351 67.7575 76.0767 67.1173 76.3598 66.5664C76.643 66.0155 77.0415 65.5862 77.5555 65.2784C78.0725 64.9706 78.6788 64.8168 79.3744 64.8168C79.8422 64.8168 80.2777 64.8922 80.6808 65.043C81.0871 65.1907 81.441 65.4138 81.7426 65.7124C82.0473 66.0109 82.2843 66.3864 82.4536 66.8388C82.6228 67.2881 82.7075 67.8144 82.7075 68.4176V68.9577H76.7199V67.739H80.8563C80.8563 67.4558 80.7947 67.205 80.6716 66.9865C80.5485 66.768 80.3777 66.5972 80.1592 66.4741C79.9437 66.3479 79.6929 66.2848 79.4067 66.2848C79.1082 66.2848 78.8435 66.354 78.6127 66.4925C78.3849 66.628 78.2064 66.8111 78.0771 67.0419C77.9479 67.2696 77.8817 67.5236 77.8786 67.8036V68.9624C77.8786 69.3132 77.9433 69.6164 78.0725 69.8718C78.2049 70.1272 78.3911 70.3242 78.6311 70.4627C78.8712 70.6012 79.1559 70.6705 79.4852 70.6705C79.7037 70.6705 79.9037 70.6397 80.0853 70.5781C80.2669 70.5166 80.4223 70.4242 80.5516 70.3011C80.6808 70.178 80.7793 70.0272 80.847 69.8487L82.6659 69.9688C82.5736 70.4058 82.3843 70.7874 82.0981 71.1136C81.815 71.4368 81.4487 71.6892 80.9994 71.8707C80.5531 72.0492 80.0376 72.1385 79.4529 72.1385ZM86.0129 72.1339C85.5605 72.1339 85.1573 72.0554 84.8034 71.8984C84.4494 71.7384 84.1694 71.503 83.9632 71.1921C83.76 70.8782 83.6585 70.4873 83.6585 70.0195C83.6585 69.6256 83.7308 69.2947 83.8754 69.027C84.0201 68.7592 84.2171 68.5438 84.4664 68.3807C84.7156 68.2176 84.9988 68.0945 85.3158 68.0114C85.6359 67.9283 85.9713 67.8698 86.3222 67.8359C86.7346 67.7929 87.067 67.7528 87.3193 67.7159C87.5717 67.6759 87.7548 67.6174 87.8687 67.5405C87.9826 67.4635 88.0395 67.3497 88.0395 67.1989V67.1712C88.0395 66.8788 87.9472 66.6526 87.7625 66.4925C87.5809 66.3325 87.3224 66.2525 86.9869 66.2525C86.633 66.2525 86.3514 66.331 86.1421 66.4879C85.9329 66.6418 85.7944 66.8357 85.7267 67.0696L83.9078 66.9219C84.0001 66.491 84.1817 66.1186 84.4525 65.8047C84.7233 65.4877 85.0727 65.2446 85.5004 65.0753C85.9313 64.9029 86.4299 64.8168 86.9962 64.8168C87.3901 64.8168 87.7671 64.8629 88.1272 64.9553C88.4904 65.0476 88.812 65.1907 89.0921 65.3846C89.3752 65.5785 89.5983 65.8278 89.7615 66.1325C89.9246 66.4341 90.0061 66.7957 90.0061 67.2173V72H88.1411V71.0167H88.0857C87.9718 71.2383 87.8195 71.4337 87.6286 71.603C87.4378 71.7692 87.2085 71.9 86.9408 71.9954C86.673 72.0877 86.3637 72.1339 86.0129 72.1339ZM86.5761 70.7766C86.8654 70.7766 87.1208 70.7197 87.3424 70.6058C87.564 70.4889 87.7379 70.3319 87.8641 70.1349C87.9903 69.938 88.0534 69.7148 88.0534 69.4656V68.7131C87.9918 68.7531 87.9072 68.79 87.7994 68.8239C87.6948 68.8546 87.5763 68.8839 87.444 68.9116C87.3116 68.9362 87.1793 68.9593 87.047 68.9808C86.9146 68.9993 86.7946 69.0162 86.6869 69.0316C86.4561 69.0655 86.2545 69.1193 86.0821 69.1932C85.9098 69.267 85.7759 69.3671 85.6805 69.4933C85.5851 69.6164 85.5374 69.7702 85.5374 69.9549C85.5374 70.2227 85.6343 70.4273 85.8282 70.5689C86.0252 70.7074 86.2745 70.7766 86.5761 70.7766ZM94.1448 72.1154C93.6062 72.1154 93.1184 71.9769 92.6814 71.6999C92.2474 71.4199 91.9027 71.009 91.6473 70.4673C91.3949 69.9226 91.2687 69.2547 91.2687 68.4638C91.2687 67.6513 91.3995 66.9757 91.6611 66.4371C91.9227 65.8955 92.2705 65.4908 92.7045 65.223C93.1415 64.9522 93.6201 64.8168 94.1402 64.8168C94.5372 64.8168 94.868 64.8845 95.1327 65.0199C95.4005 65.1522 95.6159 65.3184 95.779 65.5185C95.9452 65.7154 96.0714 65.9093 96.1576 66.1001H96.2176V62.5455H98.1796V72H96.2407V70.8643H96.1576C96.0653 71.0613 95.9345 71.2567 95.7652 71.4506C95.599 71.6415 95.382 71.8 95.1143 71.9261C94.8496 72.0523 94.5264 72.1154 94.1448 72.1154ZM94.768 70.5504C95.085 70.5504 95.3528 70.4643 95.5713 70.2919C95.7929 70.1165 95.9622 69.8718 96.0791 69.5579C96.1991 69.244 96.2591 68.8762 96.2591 68.4545C96.2591 68.0329 96.2007 67.6667 96.0837 67.3558C95.9668 67.045 95.7975 66.8049 95.5759 66.6357C95.3543 66.4664 95.085 66.3817 94.768 66.3817C94.4449 66.3817 94.1725 66.4695 93.9509 66.6449C93.7293 66.8203 93.5616 67.0634 93.4477 67.3743C93.3338 67.6851 93.2769 68.0452 93.2769 68.4545C93.2769 68.867 93.3338 69.2317 93.4477 69.5487C93.5647 69.8626 93.7324 70.1088 93.9509 70.2873C94.1725 70.4627 94.4449 70.5504 94.768 70.5504ZM99.7965 72V64.9091H101.763V72H99.7965ZM100.784 63.995C100.492 63.995 100.241 63.8981 100.032 63.7042C99.8258 63.5072 99.7227 63.2718 99.7227 62.9979C99.7227 62.727 99.8258 62.4947 100.032 62.3008C100.241 62.1038 100.492 62.0053 100.784 62.0053C101.077 62.0053 101.326 62.1038 101.532 62.3008C101.742 62.4947 101.846 62.727 101.846 62.9979C101.846 63.2718 101.742 63.5072 101.532 63.7042C101.326 63.8981 101.077 63.995 100.784 63.995ZM105.305 67.9006V72H103.339V64.9091H105.213V66.1602H105.296C105.453 65.7478 105.716 65.4215 106.085 65.1815C106.455 64.9383 106.902 64.8168 107.429 64.8168C107.921 64.8168 108.35 64.9245 108.717 65.1399C109.083 65.3554 109.368 65.6631 109.571 66.0632C109.774 66.4602 109.875 66.9342 109.875 67.4851V72H107.909V67.8359C107.912 67.402 107.801 67.0634 107.576 66.8203C107.352 66.5741 107.042 66.451 106.649 66.451C106.384 66.451 106.15 66.5079 105.947 66.6218C105.747 66.7357 105.59 66.9019 105.476 67.1204C105.365 67.3358 105.308 67.5959 105.305 67.9006ZM114.62 74.8068C113.983 74.8068 113.437 74.7191 112.981 74.5437C112.529 74.3713 112.169 74.1359 111.901 73.8374C111.633 73.5388 111.459 73.2034 111.379 72.831L113.198 72.5863C113.254 72.7279 113.341 72.8602 113.461 72.9833C113.581 73.1064 113.74 73.2049 113.937 73.2788C114.137 73.3557 114.38 73.3942 114.666 73.3942C115.094 73.3942 115.446 73.2895 115.723 73.0803C116.003 72.8741 116.143 72.5278 116.143 72.0415V70.7443H116.06C115.974 70.9413 115.845 71.1275 115.673 71.3029C115.5 71.4783 115.279 71.6214 115.008 71.7322C114.737 71.843 114.414 71.8984 114.038 71.8984C113.506 71.8984 113.021 71.7753 112.584 71.5291C112.15 71.2798 111.804 70.8997 111.545 70.3888C111.29 69.8749 111.162 69.2255 111.162 68.4407C111.162 67.6374 111.293 66.9665 111.555 66.4279C111.816 65.8893 112.164 65.4862 112.598 65.2184C113.035 64.9506 113.514 64.8168 114.034 64.8168C114.431 64.8168 114.763 64.8845 115.031 65.0199C115.299 65.1522 115.514 65.3184 115.677 65.5185C115.843 65.7154 115.971 65.9093 116.06 66.1001H116.134V64.9091H118.087V72.0692C118.087 72.6725 117.939 73.1772 117.644 73.5835C117.348 73.9897 116.939 74.2944 116.416 74.4975C115.896 74.7037 115.297 74.8068 114.62 74.8068ZM114.662 70.4212C114.979 70.4212 115.246 70.3427 115.465 70.1857C115.686 70.0257 115.856 69.7979 115.973 69.5025C116.093 69.204 116.153 68.8469 116.153 68.4315C116.153 68.016 116.094 67.6559 115.977 67.3512C115.86 67.0434 115.691 66.8049 115.469 66.6357C115.248 66.4664 114.979 66.3817 114.662 66.3817C114.338 66.3817 114.066 66.4695 113.844 66.6449C113.623 66.8172 113.455 67.0573 113.341 67.3651C113.227 67.6728 113.17 68.0283 113.17 68.4315C113.17 68.8408 113.227 69.1947 113.341 69.4933C113.458 69.7887 113.626 70.018 113.844 70.1811C114.066 70.3411 114.338 70.4212 114.662 70.4212Z" fill="black"/>
<path d="M45.3281 89.5313V93H43.6641V85H45.2813V88.0586H45.3516C45.487 87.7044 45.7057 87.4271 46.0078 87.2266C46.3099 87.0234 46.6888 86.9219 47.1445 86.9219C47.5612 86.9219 47.9245 87.013 48.2344 87.1953C48.5469 87.375 48.7891 87.6341 48.9609 87.9727C49.1354 88.3086 49.2214 88.7109 49.2188 89.1797V93H47.5547V89.4766C47.5573 89.1068 47.4635 88.819 47.2734 88.6133C47.0859 88.4076 46.8229 88.3047 46.4844 88.3047C46.2578 88.3047 46.0573 88.3529 45.8828 88.4492C45.7109 88.5456 45.5755 88.6862 45.4766 88.8711C45.3802 89.0534 45.3307 89.2734 45.3281 89.5313ZM53.4697 93.1094C52.8864 93.1094 52.3669 93.0091 51.9111 92.8086C51.458 92.6055 51.0999 92.3268 50.8369 91.9727C50.5765 91.6159 50.4424 91.2044 50.4346 90.7383H52.1377C52.1481 90.9336 52.2119 91.1055 52.3291 91.2539C52.4489 91.3997 52.6077 91.513 52.8057 91.5938C53.0036 91.6745 53.2262 91.7148 53.4736 91.7148C53.7314 91.7148 53.9593 91.6693 54.1572 91.5781C54.3551 91.487 54.5101 91.3607 54.6221 91.1992C54.734 91.0378 54.79 90.8516 54.79 90.6406C54.79 90.4271 54.7301 90.2383 54.6104 90.0742C54.4932 89.9076 54.3239 89.7773 54.1025 89.6836C53.8838 89.5898 53.6234 89.543 53.3213 89.543H52.5752V88.3008H53.3213C53.5765 88.3008 53.8018 88.2565 53.9971 88.168C54.195 88.0794 54.3486 87.957 54.458 87.8008C54.5674 87.6419 54.6221 87.457 54.6221 87.2461C54.6221 87.0456 54.5739 86.8698 54.4775 86.7187C54.3838 86.5651 54.251 86.4453 54.0791 86.3594C53.9098 86.2734 53.7119 86.2305 53.4854 86.2305C53.2562 86.2305 53.0465 86.2721 52.8564 86.3555C52.6663 86.4362 52.514 86.5521 52.3994 86.7031C52.2848 86.8542 52.2236 87.0312 52.2158 87.2344H50.5947C50.6025 86.7734 50.734 86.3672 50.9893 86.0156C51.2445 85.6641 51.5882 85.3893 52.0205 85.1914C52.4554 84.9909 52.9463 84.8906 53.4932 84.8906C54.0452 84.8906 54.5283 84.9909 54.9424 85.1914C55.3564 85.3919 55.6781 85.6628 55.9072 86.0039C56.139 86.3424 56.2536 86.7227 56.251 87.1445C56.2536 87.5924 56.1143 87.9661 55.833 88.2656C55.5544 88.5651 55.1911 88.7552 54.7432 88.8359V88.8984C55.3317 88.974 55.7796 89.1784 56.0869 89.5117C56.3968 89.8424 56.5505 90.2565 56.5479 90.7539C56.5505 91.2096 56.4189 91.6146 56.1533 91.9688C55.8903 92.3229 55.527 92.6016 55.0635 92.8047C54.5999 93.0078 54.0687 93.1094 53.4697 93.1094ZM58.5264 93.1016C58.2686 93.1016 58.0472 93.0104 57.8623 92.8281C57.68 92.6432 57.5889 92.4219 57.5889 92.1641C57.5889 91.9089 57.68 91.6901 57.8623 91.5078C58.0472 91.3255 58.2686 91.2344 58.5264 91.2344C58.7764 91.2344 58.9951 91.3255 59.1826 91.5078C59.3701 91.6901 59.4639 91.9089 59.4639 92.1641C59.4639 92.3359 59.4196 92.4935 59.3311 92.6367C59.2451 92.7773 59.1318 92.8906 58.9912 92.9766C58.8506 93.0599 58.6956 93.1016 58.5264 93.1016ZM63.0312 93V85H64.7227V88.3008H68.1562V85H69.8438V93H68.1562V89.6953H64.7227V93H63.0312ZM73.9414 93.1172C73.3242 93.1172 72.793 92.9922 72.3477 92.7422C71.9049 92.4896 71.5638 92.1328 71.3242 91.6719C71.0846 91.2083 70.9648 90.6602 70.9648 90.0273C70.9648 89.4102 71.0846 88.8685 71.3242 88.4023C71.5638 87.9362 71.901 87.5729 72.3359 87.3125C72.7734 87.0521 73.2865 86.9219 73.875 86.9219C74.2708 86.9219 74.6393 86.9857 74.9805 87.1133C75.3242 87.2383 75.6237 87.4271 75.8789 87.6797C76.1367 87.9323 76.3372 88.25 76.4805 88.6328C76.6237 89.013 76.6953 89.4583 76.6953 89.9687V90.4258H71.6289V89.3945H75.1289C75.1289 89.1549 75.0768 88.9427 74.9727 88.7578C74.8685 88.5729 74.724 88.4284 74.5391 88.3242C74.3568 88.2174 74.1445 88.1641 73.9023 88.1641C73.6497 88.1641 73.4258 88.2227 73.2305 88.3398C73.0378 88.4544 72.8867 88.6094 72.7773 88.8047C72.668 88.9974 72.612 89.2122 72.6094 89.4492V90.4297C72.6094 90.7266 72.6641 90.9831 72.7734 91.1992C72.8854 91.4154 73.043 91.582 73.2461 91.6992C73.4492 91.8164 73.6901 91.875 73.9687 91.875C74.1536 91.875 74.3229 91.849 74.4766 91.7969C74.6302 91.7448 74.7617 91.6667 74.8711 91.5625C74.9805 91.4583 75.0638 91.3307 75.1211 91.1797L76.6602 91.2812C76.582 91.651 76.4219 91.974 76.1797 92.25C75.9401 92.5234 75.6302 92.737 75.25 92.8906C74.8724 93.0417 74.4362 93.1172 73.9414 93.1172ZM79.4922 93.1133C79.1094 93.1133 78.7682 93.0469 78.4688 92.9141C78.1693 92.7786 77.9323 92.5794 77.7578 92.3164C77.5859 92.0508 77.5 91.7201 77.5 91.3242C77.5 90.9909 77.5612 90.7109 77.6836 90.4844C77.806 90.2578 77.9727 90.0755 78.1836 89.9375C78.3945 89.7995 78.6341 89.6953 78.9023 89.625C79.1732 89.5547 79.457 89.5052 79.7539 89.4766C80.1029 89.4401 80.3841 89.4062 80.5977 89.375C80.8112 89.3411 80.9661 89.2917 81.0625 89.2266C81.1589 89.1615 81.207 89.0651 81.207 88.9375V88.9141C81.207 88.6667 81.1289 88.4753 80.9727 88.3398C80.819 88.2044 80.6003 88.1367 80.3164 88.1367C80.0169 88.1367 79.7786 88.2031 79.6016 88.3359C79.4245 88.4661 79.3073 88.6302 79.25 88.8281L77.7109 88.7031C77.7891 88.3385 77.9427 88.0234 78.1719 87.7578C78.401 87.4896 78.6966 87.2839 79.0586 87.1406C79.4232 86.9948 79.8451 86.9219 80.3242 86.9219C80.6576 86.9219 80.9766 86.9609 81.2813 87.0391C81.5885 87.1172 81.8607 87.2383 82.0977 87.4023C82.3372 87.5664 82.526 87.7773 82.6641 88.0352C82.8021 88.2904 82.8711 88.5964 82.8711 88.9531V93H81.293V92.168H81.2461C81.1497 92.3555 81.0208 92.5208 80.8594 92.6641C80.6979 92.8047 80.5039 92.9154 80.2773 92.9961C80.0508 93.0742 79.7891 93.1133 79.4922 93.1133ZM79.9688 91.9648C80.2135 91.9648 80.4297 91.9167 80.6172 91.8203C80.8047 91.7214 80.9518 91.5885 81.0586 91.4219C81.1654 91.2552 81.2188 91.0664 81.2188 90.8555V90.2188C81.1667 90.2526 81.0951 90.2839 81.0039 90.3125C80.9154 90.3385 80.8151 90.3633 80.7031 90.3867C80.5911 90.4076 80.4792 90.4271 80.3672 90.4453C80.2552 90.4609 80.1536 90.4753 80.0625 90.4883C79.8672 90.5169 79.6966 90.5625 79.5508 90.625C79.4049 90.6875 79.2917 90.7721 79.2109 90.8789C79.1302 90.9831 79.0898 91.1133 79.0898 91.2695C79.0898 91.4961 79.1719 91.6693 79.3359 91.7891C79.5026 91.9062 79.7135 91.9648 79.9688 91.9648ZM86.373 93.0977C85.9173 93.0977 85.5046 92.9805 85.1348 92.7461C84.7676 92.5091 84.4759 92.1615 84.2598 91.7031C84.0462 91.2422 83.9395 90.6771 83.9395 90.0078C83.9395 89.3203 84.0501 88.7487 84.2715 88.293C84.4928 87.8346 84.7871 87.4922 85.1543 87.2656C85.5241 87.0365 85.929 86.9219 86.3691 86.9219C86.7051 86.9219 86.985 86.9792 87.209 87.0938C87.4355 87.2057 87.6178 87.3464 87.7559 87.5156C87.8965 87.6823 88.0033 87.8464 88.0762 88.0078H88.127V85H89.7871V93H88.1465V92.0391H88.0762C87.998 92.2057 87.8874 92.3711 87.7441 92.5352C87.6035 92.6966 87.4199 92.8307 87.1934 92.9375C86.9694 93.0443 86.696 93.0977 86.373 93.0977ZM86.9004 91.7734C87.1686 91.7734 87.3952 91.7005 87.5801 91.5547C87.7676 91.4062 87.9108 91.1992 88.0098 90.9336C88.1113 90.668 88.1621 90.3568 88.1621 90C88.1621 89.6432 88.1126 89.3333 88.0137 89.0703C87.9147 88.8073 87.7715 88.6042 87.584 88.4609C87.3965 88.3177 87.1686 88.2461 86.9004 88.2461C86.627 88.2461 86.3965 88.3203 86.209 88.4687C86.0215 88.6172 85.8796 88.8229 85.7832 89.0859C85.6868 89.349 85.6387 89.6536 85.6387 90C85.6387 90.349 85.6868 90.6576 85.7832 90.9258C85.8822 91.1914 86.0241 91.3997 86.209 91.5508C86.3965 91.6992 86.627 91.7734 86.9004 91.7734ZM91.1553 93V87H92.8193V93H91.1553ZM91.9912 86.2266C91.7438 86.2266 91.5316 86.1445 91.3545 85.9805C91.18 85.8138 91.0928 85.6146 91.0928 85.3828C91.0928 85.1536 91.18 84.957 91.3545 84.793C91.5316 84.6263 91.7438 84.543 91.9912 84.543C92.2386 84.543 92.4495 84.6263 92.624 84.793C92.8011 84.957 92.8896 85.1536 92.8896 85.3828C92.8896 85.6146 92.8011 85.8138 92.624 85.9805C92.4495 86.1445 92.2386 86.2266 91.9912 86.2266ZM95.8164 89.5313V93H94.1523V87H95.7383V88.0586H95.8086C95.9414 87.7096 96.1641 87.4336 96.4766 87.2305C96.7891 87.0247 97.168 86.9219 97.6133 86.9219C98.0299 86.9219 98.3932 87.013 98.7031 87.1953C99.013 87.3776 99.2539 87.638 99.4258 87.9766C99.5977 88.3125 99.6836 88.7135 99.6836 89.1797V93H98.0195V89.4766C98.0221 89.1094 97.9284 88.8229 97.7383 88.6172C97.5482 88.4089 97.2865 88.3047 96.9531 88.3047C96.7292 88.3047 96.5313 88.3529 96.3594 88.4492C96.1901 88.5456 96.0573 88.6862 95.9609 88.8711C95.8672 89.0534 95.819 89.2734 95.8164 89.5313ZM103.698 95.375C103.159 95.375 102.697 95.3008 102.312 95.1523C101.929 95.0065 101.624 94.8073 101.397 94.5547C101.171 94.3021 101.024 94.0182 100.956 93.7031L102.495 93.4961C102.542 93.6159 102.616 93.7279 102.718 93.832C102.819 93.9362 102.953 94.0195 103.12 94.082C103.289 94.1471 103.495 94.1797 103.737 94.1797C104.099 94.1797 104.397 94.0911 104.632 93.9141C104.869 93.7396 104.987 93.4466 104.987 93.0352V91.9375H104.917C104.844 92.1042 104.735 92.2617 104.589 92.4102C104.443 92.5586 104.256 92.6797 104.026 92.7734C103.797 92.8672 103.524 92.9141 103.206 92.9141C102.756 92.9141 102.345 92.8099 101.976 92.6016C101.608 92.3906 101.315 92.069 101.097 91.6367C100.881 91.2018 100.772 90.6523 100.772 89.9883C100.772 89.3086 100.883 88.7409 101.104 88.2852C101.326 87.8294 101.62 87.4883 101.987 87.2617C102.357 87.0352 102.762 86.9219 103.202 86.9219C103.538 86.9219 103.819 86.9792 104.046 87.0938C104.272 87.2057 104.455 87.3464 104.593 87.5156C104.733 87.6823 104.841 87.8464 104.917 88.0078H104.979V87H106.632V93.0586C106.632 93.569 106.507 93.9961 106.257 94.3398C106.007 94.6836 105.66 94.9414 105.218 95.1133C104.778 95.2878 104.271 95.375 103.698 95.375ZM103.733 91.6641C104.002 91.6641 104.228 91.5977 104.413 91.4648C104.601 91.3294 104.744 91.1367 104.843 90.8867C104.944 90.6341 104.995 90.332 104.995 89.9805C104.995 89.6289 104.946 89.3242 104.847 89.0664C104.748 88.806 104.604 88.6042 104.417 88.4609C104.229 88.3177 104.002 88.2461 103.733 88.2461C103.46 88.2461 103.229 88.3203 103.042 88.4687C102.854 88.6146 102.713 88.8177 102.616 89.0781C102.52 89.3385 102.472 89.6393 102.472 89.9805C102.472 90.3268 102.52 90.6263 102.616 90.8789C102.715 91.1289 102.857 91.3229 103.042 91.4609C103.229 91.5964 103.46 91.6641 103.733 91.6641Z" fill="black"/>
<path d="M44.9048 108.162V111H43.5433V104.455H44.8665V106.957H44.924C45.0348 106.667 45.2138 106.44 45.4609 106.276C45.7081 106.11 46.0181 106.027 46.391 106.027C46.7319 106.027 47.0291 106.102 47.2827 106.251C47.5384 106.398 47.7365 106.61 47.8771 106.887C48.0199 107.162 48.0902 107.491 48.0881 107.874V111H46.7266V108.117C46.7287 107.815 46.652 107.579 46.4964 107.411C46.343 107.243 46.1278 107.158 45.8509 107.158C45.6655 107.158 45.5014 107.198 45.3587 107.277C45.218 107.355 45.1072 107.471 45.0263 107.622C44.9474 107.771 44.907 107.951 44.9048 108.162ZM49.0477 109.849V108.76L51.7803 104.455H52.7199V105.963H52.1638L50.4411 108.689V108.74H54.3243V109.849H49.0477ZM52.1894 111V109.517L52.2149 109.034V104.455H53.5125V111H52.1894ZM55.9319 111.083C55.721 111.083 55.5399 111.009 55.3886 110.859C55.2394 110.708 55.1649 110.527 55.1649 110.316C55.1649 110.107 55.2394 109.928 55.3886 109.779C55.5399 109.63 55.721 109.555 55.9319 109.555C56.1365 109.555 56.3154 109.63 56.4688 109.779C56.6222 109.928 56.699 110.107 56.699 110.316C56.699 110.457 56.6627 110.586 56.5903 110.703C56.52 110.818 56.4273 110.911 56.3122 110.981C56.1972 111.049 56.0704 111.083 55.9319 111.083ZM59.6177 111V104.455H61.0016V107.155H63.8109V104.455H65.1916V111H63.8109V108.296H61.0016V111H59.6177ZM68.5442 111.096C68.0392 111.096 67.6046 110.994 67.2402 110.789C66.878 110.582 66.5989 110.29 66.4029 109.913C66.2069 109.534 66.1088 109.086 66.1088 108.568C66.1088 108.063 66.2069 107.62 66.4029 107.238C66.5989 106.857 66.8748 106.56 67.2306 106.347C67.5886 106.134 68.0083 106.027 68.4899 106.027C68.8137 106.027 69.1152 106.079 69.3944 106.184C69.6756 106.286 69.9206 106.44 70.1294 106.647C70.3404 106.854 70.5044 107.114 70.6216 107.427C70.7388 107.738 70.7974 108.102 70.7974 108.52V108.894H66.6522V108.05H69.5158C69.5158 107.854 69.4732 107.68 69.388 107.529C69.3027 107.378 69.1845 107.26 69.0332 107.174C68.8841 107.087 68.7104 107.043 68.5123 107.043C68.3056 107.043 68.1223 107.091 67.9625 107.187C67.8049 107.281 67.6813 107.408 67.5918 107.567C67.5023 107.725 67.4565 107.901 67.4544 108.095V108.897C67.4544 109.14 67.4991 109.35 67.5886 109.527C67.6802 109.703 67.8091 109.84 67.9753 109.936C68.1415 110.032 68.3386 110.08 68.5666 110.08C68.7179 110.08 68.8564 110.058 68.9821 110.016C69.1078 109.973 69.2154 109.909 69.3049 109.824C69.3944 109.739 69.4625 109.634 69.5094 109.511L70.7686 109.594C70.7047 109.896 70.5737 110.161 70.3755 110.386C70.1795 110.61 69.926 110.785 69.6149 110.911C69.3059 111.034 68.949 111.096 68.5442 111.096ZM73.0858 111.093C72.7725 111.093 72.4934 111.038 72.2484 110.93C72.0034 110.819 71.8095 110.656 71.6667 110.441C71.5261 110.223 71.4558 109.953 71.4558 109.629C71.4558 109.356 71.5059 109.127 71.606 108.942C71.7061 108.756 71.8425 108.607 72.0151 108.494C72.1877 108.381 72.3837 108.296 72.6032 108.239C72.8248 108.181 73.057 108.141 73.2999 108.117C73.5854 108.087 73.8155 108.06 73.9902 108.034C74.165 108.006 74.2917 107.966 74.3706 107.913C74.4494 107.859 74.4888 107.781 74.4888 107.676V107.657C74.4888 107.455 74.4249 107.298 74.2971 107.187C74.1713 107.076 73.9924 107.021 73.7601 107.021C73.5151 107.021 73.3201 107.075 73.1752 107.184C73.0304 107.29 72.9345 107.425 72.8876 107.587L71.6284 107.484C71.6923 107.186 71.818 106.928 72.0055 106.711C72.193 106.491 72.4348 106.323 72.731 106.206C73.0293 106.087 73.3745 106.027 73.7665 106.027C74.0392 106.027 74.3002 106.059 74.5495 106.123C74.801 106.187 75.0236 106.286 75.2175 106.42C75.4135 106.554 75.568 106.727 75.6809 106.938C75.7939 107.147 75.8503 107.397 75.8503 107.689V111H74.5591V110.319H74.5208C74.4419 110.473 74.3365 110.608 74.2044 110.725C74.0723 110.84 73.9135 110.931 73.7282 110.997C73.5428 111.061 73.3287 111.093 73.0858 111.093ZM73.4757 110.153C73.676 110.153 73.8528 110.114 74.0062 110.035C74.1596 109.954 74.28 109.845 74.3674 109.709C74.4547 109.572 74.4984 109.418 74.4984 109.245V108.724C74.4558 108.752 74.3972 108.778 74.3226 108.801C74.2502 108.822 74.1681 108.843 74.0765 108.862C73.9849 108.879 73.8933 108.895 73.8017 108.91C73.71 108.923 73.627 108.934 73.5524 108.945C73.3926 108.968 73.253 109.006 73.1337 109.057C73.0144 109.108 72.9217 109.177 72.8556 109.265C72.7896 109.35 72.7566 109.456 72.7566 109.584C72.7566 109.77 72.8237 109.911 72.9579 110.009C73.0943 110.105 73.2669 110.153 73.4757 110.153ZM78.7156 111.08C78.3427 111.08 78.005 110.984 77.7024 110.792C77.402 110.598 77.1634 110.314 76.9865 109.939C76.8118 109.562 76.7244 109.099 76.7244 108.552C76.7244 107.989 76.815 107.522 76.9961 107.149C77.1772 106.774 77.418 106.494 77.7184 106.308C78.021 106.121 78.3523 106.027 78.7124 106.027C78.9872 106.027 79.2163 106.074 79.3995 106.168C79.5849 106.259 79.734 106.374 79.8469 106.513C79.962 106.649 80.0494 106.783 80.109 106.915H80.1506V104.455H81.5089V111H80.1665V110.214H80.109C80.0451 110.35 79.9545 110.485 79.8374 110.62C79.7223 110.752 79.5721 110.862 79.3867 110.949C79.2035 111.036 78.9798 111.08 78.7156 111.08ZM79.147 109.996C79.3665 109.996 79.5518 109.937 79.7031 109.817C79.8565 109.696 79.9737 109.527 80.0547 109.309C80.1378 109.092 80.1793 108.837 80.1793 108.545C80.1793 108.254 80.1388 108 80.0579 107.785C79.9769 107.57 79.8597 107.403 79.7063 107.286C79.5529 107.169 79.3665 107.11 79.147 107.11C78.9233 107.11 78.7347 107.171 78.5813 107.293C78.4279 107.414 78.3118 107.582 78.233 107.798C78.1541 108.013 78.1147 108.262 78.1147 108.545C78.1147 108.831 78.1541 109.083 78.233 109.303C78.3139 109.52 78.43 109.691 78.5813 109.814C78.7347 109.936 78.9233 109.996 79.147 109.996ZM82.6283 111V106.091H83.9898V111H82.6283ZM83.3122 105.458C83.1098 105.458 82.9362 105.391 82.7913 105.257C82.6485 105.12 82.5771 104.957 82.5771 104.768C82.5771 104.58 82.6485 104.419 82.7913 104.285C82.9362 104.149 83.1098 104.081 83.3122 104.081C83.5146 104.081 83.6872 104.149 83.83 104.285C83.9749 104.419 84.0473 104.58 84.0473 104.768C84.0473 104.957 83.9749 105.12 83.83 105.257C83.6872 105.391 83.5146 105.458 83.3122 105.458ZM86.4419 108.162V111H85.0804V106.091H86.378V106.957H86.4355C86.5442 106.672 86.7264 106.446 86.9821 106.279C87.2377 106.111 87.5478 106.027 87.9121 106.027C88.253 106.027 88.5502 106.102 88.8038 106.251C89.0574 106.4 89.2544 106.613 89.3951 106.89C89.5357 107.165 89.606 107.493 89.606 107.874V111H88.2445V108.117C88.2466 107.817 88.1699 107.582 88.0144 107.414C87.8588 107.244 87.6447 107.158 87.372 107.158C87.1887 107.158 87.0268 107.198 86.8862 107.277C86.7477 107.355 86.639 107.471 86.5602 107.622C86.4835 107.771 86.4441 107.951 86.4419 108.162ZM92.8907 112.943C92.4497 112.943 92.0715 112.882 91.7561 112.761C91.4429 112.642 91.1936 112.479 91.0083 112.272C90.8229 112.065 90.7025 111.833 90.6471 111.575L91.9063 111.406C91.9447 111.504 92.0054 111.596 92.0885 111.681C92.1716 111.766 92.2813 111.834 92.4177 111.885C92.5562 111.939 92.7245 111.965 92.9227 111.965C93.2188 111.965 93.4628 111.893 93.6546 111.748C93.8485 111.605 93.9454 111.365 93.9454 111.029V110.131H93.8879C93.8282 110.267 93.7387 110.396 93.6194 110.517C93.5001 110.639 93.3467 110.738 93.1592 110.815C92.9717 110.891 92.748 110.93 92.488 110.93C92.1194 110.93 91.7838 110.844 91.4813 110.674C91.1808 110.501 90.9411 110.238 90.7622 109.885C90.5853 109.529 90.4969 109.079 90.4969 108.536C90.4969 107.98 90.5874 107.515 90.7686 107.142C90.9497 106.77 91.1904 106.49 91.4909 106.305C91.7934 106.12 92.1247 106.027 92.4848 106.027C92.7597 106.027 92.9898 106.074 93.1752 106.168C93.3605 106.259 93.5097 106.374 93.6226 106.513C93.7377 106.649 93.8261 106.783 93.8879 106.915H93.939V106.091H95.2909V111.048C95.2909 111.466 95.1887 111.815 94.9841 112.096C94.7796 112.377 94.4962 112.588 94.134 112.729C93.7739 112.872 93.3595 112.943 92.8907 112.943ZM92.9195 109.907C93.1389 109.907 93.3243 109.853 93.4756 109.744C93.629 109.633 93.7462 109.475 93.8271 109.271C93.9102 109.064 93.9518 108.817 93.9518 108.529C93.9518 108.242 93.9113 107.993 93.8303 107.782C93.7494 107.569 93.6322 107.403 93.4788 107.286C93.3254 107.169 93.1389 107.11 92.9195 107.11C92.6958 107.11 92.5072 107.171 92.3538 107.293C92.2004 107.412 92.0843 107.578 92.0054 107.791C91.9266 108.004 91.8872 108.25 91.8872 108.529C91.8872 108.813 91.9266 109.058 92.0054 109.265C92.0864 109.469 92.2025 109.628 92.3538 109.741C92.5072 109.852 92.6958 109.907 92.9195 109.907Z" fill="black"/>
<path d="M44.3622 124.763V127H43.4624V121.909H44.3423V123.831H44.3871C44.4766 123.615 44.6149 123.445 44.8022 123.321C44.9911 123.195 45.2314 123.132 45.5231 123.132C45.7882 123.132 46.0194 123.188 46.2166 123.299C46.4138 123.41 46.5663 123.572 46.674 123.786C46.7834 124 46.8381 124.261 46.8381 124.569V127H45.9382V124.708C45.9382 124.451 45.8719 124.252 45.7393 124.109C45.6084 123.965 45.4245 123.893 45.1875 123.893C45.0284 123.893 44.8859 123.928 44.7599 123.997C44.6357 124.065 44.5379 124.164 44.4666 124.293C44.397 124.422 44.3622 124.579 44.3622 124.763ZM49.5153 127.07C49.1838 127.07 48.8872 127.007 48.6254 126.883C48.3635 126.757 48.1555 126.585 48.0014 126.366C47.849 126.147 47.7678 125.897 47.7578 125.615H48.6527C48.6693 125.824 48.7596 125.995 48.9237 126.127C49.0877 126.258 49.2849 126.324 49.5153 126.324C49.6959 126.324 49.8567 126.282 49.9975 126.2C50.1384 126.117 50.2494 126.002 50.3306 125.854C50.4118 125.707 50.4516 125.538 50.4499 125.349C50.4516 125.157 50.411 124.987 50.3281 124.837C50.2453 124.688 50.1317 124.571 49.9876 124.487C49.8434 124.401 49.6777 124.358 49.4904 124.358C49.3379 124.356 49.188 124.384 49.0405 124.442C48.893 124.5 48.7762 124.576 48.69 124.671L47.8572 124.534L48.1232 121.909H51.0763V122.68H48.8864L48.7397 124.029H48.7695C48.864 123.918 48.9974 123.826 49.1697 123.754C49.3421 123.679 49.531 123.642 49.7365 123.642C50.0447 123.642 50.3198 123.715 50.5618 123.86C50.8037 124.005 50.9943 124.203 51.1335 124.457C51.2727 124.711 51.3423 125.001 51.3423 125.327C51.3423 125.663 51.2644 125.963 51.1087 126.227C50.9545 126.489 50.7399 126.695 50.4648 126.846C50.1914 126.995 49.8749 127.07 49.5153 127.07ZM52.5684 127.055C52.4176 127.055 52.2884 127.002 52.1807 126.896C52.0729 126.79 52.0199 126.66 52.0216 126.508C52.0199 126.359 52.0729 126.231 52.1807 126.125C52.2884 126.019 52.4176 125.966 52.5684 125.966C52.7143 125.966 52.8411 126.019 52.9488 126.125C53.0581 126.231 53.1137 126.359 53.1153 126.508C53.1137 126.609 53.0872 126.701 53.0358 126.784C52.9861 126.867 52.9198 126.933 52.8369 126.983C52.7557 127.031 52.6662 127.055 52.5684 127.055ZM55.6633 127V121.909H56.5855V124.064H58.9445V121.909H59.8692V127H58.9445V124.837H56.5855V127H55.6633ZM62.5228 127.075C62.14 127.075 61.8094 126.995 61.531 126.836C61.2542 126.675 61.0413 126.448 60.8921 126.155C60.743 125.86 60.6684 125.513 60.6684 125.113C60.6684 124.721 60.743 124.376 60.8921 124.079C61.0429 123.781 61.2534 123.549 61.5235 123.383C61.7936 123.216 62.111 123.132 62.4756 123.132C62.7109 123.132 62.933 123.17 63.1418 123.246C63.3522 123.321 63.5378 123.437 63.6986 123.594C63.861 123.752 63.9886 123.952 64.0814 124.196C64.1742 124.438 64.2206 124.726 64.2206 125.061V125.337H61.091V124.73H63.358C63.3564 124.558 63.3191 124.405 63.2462 124.271C63.1733 124.135 63.0713 124.028 62.9404 123.95C62.8112 123.872 62.6604 123.833 62.488 123.833C62.3041 123.833 62.1425 123.878 62.0033 123.967C61.8641 124.055 61.7555 124.171 61.6776 124.315C61.6014 124.458 61.5625 124.614 61.5608 124.785V125.315C61.5608 125.537 61.6014 125.727 61.6826 125.886C61.7638 126.044 61.8773 126.165 62.0232 126.249C62.169 126.332 62.3397 126.374 62.5352 126.374C62.6662 126.374 62.7847 126.355 62.8907 126.319C62.9968 126.281 63.0887 126.225 63.1666 126.152C63.2445 126.079 63.3034 125.989 63.3431 125.881L64.1833 125.976C64.1303 126.198 64.0292 126.392 63.8801 126.558C63.7326 126.722 63.5436 126.849 63.3133 126.94C63.0829 127.03 62.8195 127.075 62.5228 127.075ZM66.0806 127.077C65.8387 127.077 65.6207 127.034 65.4268 126.948C65.2346 126.86 65.0821 126.731 64.9695 126.56C64.8584 126.389 64.8029 126.179 64.8029 125.929C64.8029 125.713 64.8427 125.535 64.9222 125.394C65.0018 125.253 65.1103 125.141 65.2479 125.056C65.3854 124.972 65.5404 124.908 65.7127 124.865C65.8867 124.82 66.0665 124.788 66.2521 124.768C66.4759 124.745 66.6573 124.724 66.7965 124.706C66.9357 124.686 67.0368 124.656 67.0998 124.616C67.1644 124.575 67.1967 124.511 67.1967 124.425V124.41C67.1967 124.223 67.1412 124.078 67.0302 123.975C66.9192 123.872 66.7592 123.821 66.5504 123.821C66.33 123.821 66.1552 123.869 66.0259 123.965C65.8983 124.061 65.8121 124.174 65.7674 124.305L64.9272 124.186C64.9935 123.954 65.1029 123.76 65.2553 123.604C65.4078 123.447 65.5942 123.329 65.8146 123.251C66.035 123.172 66.2786 123.132 66.5455 123.132C66.7294 123.132 66.9125 123.154 67.0948 123.197C67.2771 123.24 67.4437 123.311 67.5945 123.411C67.7453 123.508 67.8662 123.642 67.9574 123.811C68.0502 123.98 68.0966 124.191 68.0966 124.445V127H67.2315V126.475H67.2017C67.147 126.582 67.07 126.681 66.9705 126.774C66.8728 126.865 66.7493 126.939 66.6001 126.995C66.4527 127.05 66.2795 127.077 66.0806 127.077ZM66.3143 126.416C66.4949 126.416 66.6515 126.38 66.7841 126.309C66.9167 126.236 67.0186 126.14 67.0898 126.021C67.1628 125.901 67.1992 125.771 67.1992 125.63V125.18C67.171 125.204 67.123 125.225 67.055 125.245C66.9888 125.265 66.9142 125.282 66.8313 125.297C66.7485 125.312 66.6664 125.325 66.5852 125.337C66.504 125.349 66.4336 125.359 66.3739 125.367C66.2397 125.385 66.1196 125.415 66.0135 125.456C65.9074 125.498 65.8237 125.556 65.7624 125.63C65.7011 125.703 65.6705 125.798 65.6705 125.914C65.6705 126.079 65.7309 126.205 65.8519 126.289C65.9729 126.374 66.127 126.416 66.3143 126.416ZM70.4183 127.067C70.1184 127.067 69.8499 126.99 69.6129 126.836C69.3759 126.682 69.1887 126.458 69.0511 126.165C68.9136 125.871 68.8448 125.515 68.8448 125.096C68.8448 124.672 68.9144 124.314 69.0536 124.022C69.1945 123.729 69.3842 123.507 69.6229 123.358C69.8615 123.208 70.1275 123.132 70.4208 123.132C70.6445 123.132 70.8285 123.17 70.9727 123.246C71.1168 123.321 71.2312 123.411 71.3157 123.517C71.4002 123.622 71.4657 123.72 71.5121 123.813H71.5494V121.909H72.4517V127H71.5668V126.398H71.5121C71.4657 126.491 71.3986 126.59 71.3107 126.694C71.2229 126.797 71.1069 126.885 70.9627 126.958C70.8185 127.031 70.6371 127.067 70.4183 127.067ZM70.6694 126.329C70.86 126.329 71.0224 126.277 71.1566 126.175C71.2908 126.07 71.3928 125.925 71.4624 125.74C71.532 125.554 71.5668 125.338 71.5668 125.091C71.5668 124.844 71.532 124.629 71.4624 124.447C71.3944 124.265 71.2933 124.123 71.1591 124.022C71.0265 123.921 70.8633 123.87 70.6694 123.87C70.4689 123.87 70.3015 123.923 70.1673 124.027C70.033 124.131 69.9319 124.276 69.864 124.46C69.796 124.643 69.7621 124.854 69.7621 125.091C69.7621 125.33 69.796 125.542 69.864 125.73C69.9336 125.915 70.0355 126.062 70.1697 126.17C70.3056 126.276 70.4722 126.329 70.6694 126.329ZM73.4106 127V123.182H74.3105V127H73.4106ZM73.863 122.64C73.7205 122.64 73.5979 122.593 73.4951 122.498C73.3924 122.402 73.341 122.287 73.341 122.153C73.341 122.017 73.3924 121.902 73.4951 121.807C73.5979 121.711 73.7205 121.663 73.863 121.663C74.0072 121.663 74.1298 121.711 74.2309 121.807C74.3337 121.902 74.385 122.017 74.385 122.153C74.385 122.287 74.3337 122.402 74.2309 122.498C74.1298 122.593 74.0072 122.64 73.863 122.64ZM76.1357 124.763V127H75.2358V123.182H76.0959V123.831H76.1406C76.2285 123.617 76.3685 123.447 76.5607 123.321C76.7546 123.195 76.9941 123.132 77.2791 123.132C77.5426 123.132 77.7721 123.188 77.9677 123.301C78.1649 123.414 78.3174 123.577 78.4251 123.791C78.5344 124.005 78.5883 124.264 78.5866 124.569V127H77.6868V124.708C77.6868 124.453 77.6205 124.253 77.4879 124.109C77.357 123.965 77.1755 123.893 76.9435 123.893C76.7861 123.893 76.6461 123.928 76.5234 123.997C76.4025 124.065 76.3072 124.164 76.2376 124.293C76.1696 124.422 76.1357 124.579 76.1357 124.763ZM81.1619 128.511C80.8388 128.511 80.5612 128.467 80.3292 128.38C80.0972 128.293 79.9107 128.177 79.7699 128.032C79.629 127.886 79.5312 127.724 79.4766 127.547L80.2869 127.35C80.3234 127.425 80.3764 127.499 80.446 127.572C80.5156 127.646 80.6093 127.708 80.7269 127.756C80.8462 127.805 80.9962 127.83 81.1768 127.83C81.4321 127.83 81.6433 127.768 81.8107 127.644C81.9781 127.521 82.0618 127.319 82.0618 127.037V126.314H82.017C81.9706 126.407 81.9027 126.502 81.8132 126.6C81.7254 126.698 81.6085 126.78 81.4627 126.846C81.3185 126.912 81.1371 126.945 80.9183 126.945C80.625 126.945 80.359 126.877 80.1204 126.739C79.8834 126.6 79.6945 126.393 79.5536 126.118C79.4144 125.841 79.3448 125.494 79.3448 125.078C79.3448 124.659 79.4144 124.305 79.5536 124.017C79.6945 123.727 79.8842 123.507 80.1229 123.358C80.3615 123.208 80.6275 123.132 80.9208 123.132C81.1445 123.132 81.3285 123.17 81.4727 123.246C81.6185 123.321 81.7345 123.411 81.8207 123.517C81.9068 123.622 81.9723 123.72 82.017 123.813H82.0668V123.182H82.9542V127.062C82.9542 127.389 82.8763 127.659 82.7205 127.873C82.5647 128.086 82.3518 128.246 82.0817 128.352C81.8116 128.458 81.505 128.511 81.1619 128.511ZM81.1694 126.239C81.36 126.239 81.5224 126.193 81.6566 126.1C81.7908 126.007 81.8928 125.874 81.9624 125.7C82.032 125.526 82.0668 125.317 82.0668 125.074C82.0668 124.833 82.032 124.623 81.9624 124.442C81.8944 124.261 81.7933 124.121 81.6591 124.022C81.5265 123.921 81.3633 123.87 81.1694 123.87C80.9689 123.87 80.8015 123.923 80.6673 124.027C80.533 124.131 80.4319 124.275 80.364 124.457C80.296 124.638 80.2621 124.843 80.2621 125.074C80.2621 125.307 80.296 125.512 80.364 125.688C80.4336 125.862 80.5355 125.997 80.6697 126.095C80.8056 126.191 80.9722 126.239 81.1694 126.239Z" fill="black"/>
<path d="M43.8878 138.381V140H43.3569V136.364H43.8807V137.717H43.9144C43.9783 137.57 44.076 137.453 44.2074 137.367C44.3388 137.28 44.5104 137.237 44.7223 137.237C44.9093 137.237 45.0727 137.276 45.2124 137.353C45.3532 137.43 45.4621 137.544 45.5391 137.697C45.6172 137.849 45.6562 138.038 45.6562 138.265V140H45.1254V138.329C45.1254 138.129 45.0739 137.974 44.9709 137.864C44.8679 137.753 44.7247 137.697 44.5412 137.697C44.4157 137.697 44.3033 137.724 44.2038 137.777C44.1056 137.83 44.0281 137.908 43.9712 138.011C43.9156 138.113 43.8878 138.236 43.8878 138.381ZM47.6271 140.05C47.465 140.047 47.3052 140.018 47.1477 139.961C46.9915 139.904 46.8494 139.809 46.7216 139.677C46.5938 139.544 46.4914 139.366 46.4144 139.142C46.3387 138.919 46.3008 138.639 46.3008 138.304C46.3008 137.987 46.3321 137.705 46.3949 137.459C46.4588 137.213 46.5505 137.005 46.6701 136.836C46.7897 136.665 46.9341 136.536 47.1033 136.447C47.2726 136.358 47.4626 136.314 47.6733 136.314C47.8899 136.314 48.0823 136.357 48.2504 136.442C48.4184 136.527 48.5546 136.645 48.6587 136.795C48.7641 136.945 48.831 137.116 48.8594 137.308H48.3178C48.2811 137.157 48.2083 137.033 48.0994 136.937C47.9905 136.841 47.8485 136.793 47.6733 136.793C47.407 136.793 47.1992 136.909 47.0501 137.141C46.9021 137.373 46.8275 137.696 46.8263 138.109H46.853C46.9157 138.006 46.9927 137.918 47.0838 137.846C47.1761 137.773 47.2791 137.717 47.3928 137.678C47.5076 137.637 47.6283 137.617 47.755 137.617C47.9657 137.617 48.1563 137.669 48.3267 137.772C48.4983 137.873 48.6351 138.014 48.7369 138.194C48.8387 138.374 48.8896 138.58 48.8896 138.812C48.8896 139.044 48.8369 139.254 48.7315 139.442C48.6274 139.631 48.4806 139.78 48.2912 139.89C48.1018 139.999 47.8804 140.052 47.6271 140.05ZM47.6254 139.588C47.765 139.588 47.8899 139.554 48 139.485C48.1101 139.416 48.1971 139.324 48.261 139.208C48.3249 139.092 48.3569 138.962 48.3569 138.819C48.3569 138.68 48.3255 138.552 48.2628 138.438C48.2012 138.323 48.116 138.232 48.0071 138.164C47.8994 138.097 47.7763 138.063 47.6378 138.063C47.5324 138.063 47.4348 138.083 47.3448 138.123C47.256 138.163 47.1779 138.219 47.1104 138.29C47.043 138.361 46.9897 138.443 46.9506 138.535C46.9128 138.626 46.8938 138.723 46.8938 138.825C46.8938 138.961 46.9252 139.087 46.9879 139.203C47.0518 139.319 47.1388 139.412 47.2489 139.483C47.3602 139.553 47.4857 139.588 47.6254 139.588ZM49.7272 140.034C49.6301 140.034 49.5467 139.999 49.4768 139.931C49.407 139.861 49.3721 139.777 49.3721 139.679C49.3721 139.582 49.407 139.499 49.4768 139.43C49.5467 139.36 49.6301 139.325 49.7272 139.325C49.8242 139.325 49.9077 139.36 49.9775 139.43C50.0474 139.499 50.0823 139.582 50.0823 139.679C50.0823 139.744 50.0657 139.804 50.0326 139.858C50.0006 139.911 49.958 139.954 49.9047 139.986C49.8515 140.018 49.7923 140.034 49.7272 140.034ZM52.1007 140V136.364H52.6493V137.944H54.4622V136.364H55.0126V140H54.4622V138.414H52.6493V140H52.1007ZM56.9444 140.055C56.6757 140.055 56.4443 139.998 56.2502 139.883C56.0572 139.767 55.9081 139.604 55.8027 139.395C55.6986 139.184 55.6465 138.937 55.6465 138.654C55.6465 138.375 55.6986 138.129 55.8027 137.915C55.9081 137.702 56.0549 137.536 56.2431 137.417C56.4325 137.297 56.6538 137.237 56.9071 137.237C57.061 137.237 57.2102 137.263 57.3546 137.314C57.499 137.364 57.6286 137.444 57.7434 137.553C57.8583 137.662 57.9488 137.804 58.0151 137.978C58.0814 138.15 58.1145 138.361 58.1145 138.608V138.796H55.9466V138.398H57.5943C57.5943 138.259 57.5659 138.135 57.5091 138.027C57.4522 137.918 57.3723 137.833 57.2694 137.77C57.1676 137.707 57.048 137.676 56.9107 137.676C56.7615 137.676 56.6313 137.712 56.5201 137.786C56.41 137.858 56.3248 137.953 56.2644 138.07C56.2052 138.186 56.1756 138.312 56.1756 138.448V138.759C56.1756 138.941 56.2076 139.096 56.2715 139.224C56.3366 139.352 56.4271 139.45 56.5431 139.517C56.6592 139.583 56.7947 139.616 56.9498 139.616C57.0504 139.616 57.1421 139.602 57.225 139.574C57.3078 139.544 57.3794 139.5 57.4398 139.442C57.5002 139.384 57.5463 139.313 57.5783 139.228L58.0808 139.318C58.0405 139.466 57.9683 139.596 57.8642 139.707C57.7612 139.817 57.6316 139.903 57.4753 139.964C57.3203 140.025 57.1433 140.055 56.9444 140.055ZM59.4972 140.06C59.3244 140.06 59.1682 140.028 59.0285 139.964C58.8888 139.899 58.7781 139.805 58.6965 139.682C58.616 139.559 58.5757 139.408 58.5757 139.229C58.5757 139.076 58.6053 138.949 58.6645 138.849C58.7237 138.75 58.8036 138.671 58.9042 138.613C59.0048 138.555 59.1173 138.511 59.2416 138.482C59.3659 138.452 59.4925 138.43 59.6215 138.414C59.7849 138.395 59.9175 138.38 60.0193 138.368C60.1211 138.355 60.195 138.335 60.2412 138.306C60.2874 138.278 60.3105 138.232 60.3105 138.168V138.155C60.3105 138 60.2667 137.88 60.1791 137.795C60.0927 137.71 59.9636 137.667 59.792 137.667C59.6133 137.667 59.4724 137.707 59.3694 137.786C59.2676 137.864 59.1972 137.951 59.1581 138.047L58.6592 137.933C58.7184 137.768 58.8048 137.634 58.9184 137.532C59.0332 137.429 59.1652 137.354 59.3144 137.308C59.4635 137.261 59.6204 137.237 59.7849 137.237C59.8938 137.237 60.0092 137.25 60.1311 137.276C60.2542 137.301 60.3691 137.347 60.4756 137.415C60.5833 137.482 60.6715 137.579 60.7401 137.704C60.8088 137.828 60.8431 137.99 60.8431 138.189V140H60.3247V139.627H60.3034C60.269 139.696 60.2175 139.763 60.1489 139.83C60.0802 139.896 59.992 139.951 59.8843 139.995C59.7766 140.038 59.6476 140.06 59.4972 140.06ZM59.6127 139.634C59.7594 139.634 59.8849 139.605 59.9891 139.547C60.0944 139.489 60.1743 139.413 60.2288 139.32C60.2844 139.225 60.3122 139.124 60.3122 139.016V138.665C60.2933 138.684 60.2566 138.701 60.2021 138.718C60.1489 138.733 60.0879 138.747 60.0193 138.759C59.9506 138.77 59.8837 138.78 59.8186 138.789C59.7535 138.797 59.6991 138.804 59.6553 138.81C59.5523 138.823 59.4582 138.845 59.373 138.876C59.2889 138.907 59.2214 138.951 59.1705 139.009C59.1208 139.066 59.096 139.142 59.096 139.237C59.096 139.368 59.1445 139.467 59.2416 139.535C59.3386 139.601 59.4623 139.634 59.6127 139.634ZM62.5712 140.053C62.351 140.053 62.1545 139.997 61.9817 139.885C61.8101 139.771 61.6751 139.609 61.5769 139.4C61.4798 139.189 61.4313 138.936 61.4313 138.642C61.4313 138.347 61.4804 138.095 61.5787 137.885C61.6781 137.676 61.8142 137.515 61.987 137.404C62.1599 137.293 62.3558 137.237 62.5748 137.237C62.744 137.237 62.8801 137.266 62.9831 137.322C63.0873 137.378 63.1678 137.443 63.2246 137.518C63.2826 137.592 63.3276 137.658 63.3596 137.715H63.3915V136.364H63.9224V140H63.4039V139.576H63.3596C63.3276 139.634 63.2814 139.7 63.2211 139.775C63.1619 139.849 63.0802 139.914 62.976 139.97C62.8719 140.025 62.7369 140.053 62.5712 140.053ZM62.6884 139.6C62.8411 139.6 62.9701 139.56 63.0755 139.48C63.182 139.398 63.2625 139.285 63.3169 139.141C63.3726 138.996 63.4004 138.828 63.4004 138.636C63.4004 138.447 63.3732 138.281 63.3187 138.139C63.2643 137.997 63.1844 137.886 63.079 137.807C62.9737 137.728 62.8435 137.688 62.6884 137.688C62.5286 137.688 62.3954 137.73 62.2889 137.812C62.1824 137.895 62.1019 138.008 62.0474 138.152C61.9941 138.295 61.9675 138.456 61.9675 138.636C61.9675 138.819 61.9947 138.983 62.0492 139.128C62.1036 139.274 62.1841 139.389 62.2907 139.474C62.3984 139.558 62.531 139.6 62.6884 139.6ZM64.6801 140V137.273H65.211V140H64.6801ZM64.9482 136.852C64.8559 136.852 64.7766 136.821 64.7103 136.76C64.6452 136.697 64.6127 136.622 64.6127 136.536C64.6127 136.448 64.6452 136.374 64.7103 136.312C64.7766 136.249 64.8559 136.218 64.9482 136.218C65.0406 136.218 65.1193 136.249 65.1844 136.312C65.2507 136.374 65.2838 136.448 65.2838 136.536C65.2838 136.622 65.2507 136.697 65.1844 136.76C65.1193 136.821 65.0406 136.852 64.9482 136.852ZM66.4561 138.381V140H65.9252V137.273H66.4348V137.717H66.4686C66.5313 137.572 66.6296 137.456 66.7633 137.369C66.8983 137.281 67.0681 137.237 67.2729 137.237C67.4587 137.237 67.6215 137.276 67.7612 137.354C67.9009 137.431 68.0092 137.546 68.0861 137.699C68.1631 137.852 68.2015 138.04 68.2015 138.265V140H67.6706V138.329C67.6706 138.132 67.6191 137.977 67.5162 137.866C67.4132 137.753 67.2717 137.697 67.0918 137.697C66.9687 137.697 66.8592 137.724 66.7633 137.777C66.6686 137.83 66.5935 137.908 66.5378 138.011C66.4834 138.113 66.4561 138.236 66.4561 138.381ZM70.057 141.08C69.8404 141.08 69.6539 141.051 69.4977 140.994C69.3426 140.938 69.216 140.862 69.1177 140.769C69.0195 140.675 68.9461 140.573 68.8975 140.462L69.3539 140.273C69.3858 140.326 69.4284 140.381 69.4817 140.439C69.5362 140.498 69.6096 140.548 69.7019 140.589C69.7954 140.631 69.9155 140.652 70.0623 140.652C70.2636 140.652 70.4299 140.603 70.5613 140.504C70.6926 140.407 70.7583 140.252 70.7583 140.039V139.503H70.7246C70.6926 139.561 70.6465 139.625 70.5861 139.696C70.5269 139.767 70.4453 139.829 70.3411 139.881C70.2369 139.933 70.1014 139.959 69.9345 139.959C69.719 139.959 69.5249 139.909 69.3521 139.808C69.1805 139.706 69.0443 139.557 68.9437 139.359C68.8443 139.16 68.7946 138.916 68.7946 138.626C68.7946 138.336 68.8437 138.087 68.9419 137.88C69.0414 137.673 69.1775 137.514 69.3503 137.404C69.5231 137.293 69.719 137.237 69.938 137.237C70.1073 137.237 70.244 137.266 70.3482 137.322C70.4524 137.378 70.5334 137.443 70.5914 137.518C70.6506 137.592 70.6962 137.658 70.7282 137.715H70.7672V137.273H71.2875V140.06C71.2875 140.295 71.233 140.487 71.1241 140.637C71.0152 140.788 70.8678 140.899 70.682 140.971C70.4973 141.043 70.289 141.08 70.057 141.08ZM70.0517 139.519C70.2044 139.519 70.3334 139.483 70.4387 139.412C70.5453 139.34 70.6258 139.237 70.6802 139.103C70.7359 138.968 70.7637 138.807 70.7637 138.619C70.7637 138.435 70.7364 138.274 70.682 138.134C70.6275 137.994 70.5476 137.885 70.4423 137.807C70.3369 137.728 70.2067 137.688 70.0517 137.688C69.8919 137.688 69.7587 137.73 69.6522 137.812C69.5456 137.894 69.4651 138.005 69.4107 138.146C69.3574 138.287 69.3308 138.445 69.3308 138.619C69.3308 138.797 69.358 138.954 69.4125 139.089C69.4669 139.224 69.5474 139.329 69.6539 139.405C69.7617 139.481 69.8942 139.519 70.0517 139.519Z" fill="black"/>
<rect x="172" y="29" width="58" height="32.48" rx="8" fill="#1C8500"/>
<rect x="172" y="81.48" width="58" height="32.48" rx="8" fill="#0779D1"/>
<rect x="254" y="81.48" width="58" height="32.48" rx="8" fill="#CF4B01"/>
<rect x="254" y="29" width="58" height="32.48" rx="8" fill="#E42525"/>
<rect x="172" y="133.96" width="58" height="32.48" rx="8" fill="#FF00F5"/>
<rect x="254" y="133.96" width="58" height="32.48" rx="8" fill="#676767"/>
</svg>
