<svg width="100%" height="100%" viewBox="0 0 342 250" fill="none" xmlns="http://www.w3.org/2000/svg">
<rect x="0.5" y="0.5" width="341" height="249" rx="7.5" fill="white" stroke="black"/>
<path d="M1 9.00001C1 4.58173 4.58172 1 9 1H333C337.418 1 341 4.58172 341 9V241C341 245.418 337.418 249 333 249H9C4.58172 249 1 245.418 1 241V9.00001Z" fill="#BEBEBE"/>
<g filter="url(#filter0_d_27_694)">
<rect x="35" y="63" width="271" height="53" rx="4" fill="white"/>
<rect x="35.5" y="63.5" width="270" height="52" rx="3.5" stroke="black"/>
</g>
<rect x="74" y="73.8999" width="12" height="12" rx="2" fill="#E1E1E1"/>
<rect x="61" y="91.8999" width="38" height="4" rx="2" fill="#747474"/>
<rect x="47" y="99.8999" width="66" height="4" rx="2" fill="#E1E1E1"/>
<line opacity="0.5" x1="125.5" y1="70.3999" x2="125.5" y2="107.4" stroke="black"/>
<rect x="164" y="73.8999" width="12" height="12" rx="2" fill="#E1E1E1"/>
<rect x="151" y="91.8999" width="38" height="4" rx="2" fill="#747474"/>
<rect x="137" y="99.8999" width="66" height="4" rx="2" fill="#E1E1E1"/>
<line opacity="0.5" x1="215.5" y1="70.3999" x2="215.5" y2="107.4" stroke="black"/>
<rect x="254" y="73.8999" width="12" height="12" rx="2" fill="#E1E1E1"/>
<rect x="241" y="91.8999" width="38" height="4" rx="2" fill="#747474"/>
<rect x="227" y="99.8999" width="66" height="4" rx="2" fill="#E1E1E1"/>
<defs>
<filter id="filter0_d_27_694" x="31" y="61" width="279" height="61" filterUnits="userSpaceOnUse" color-interpolation-filters="sRGB">
<feFlood flood-opacity="0" result="BackgroundImageFix"/>
<feColorMatrix in="SourceAlpha" type="matrix" values="0 0 0 0 0 0 0 0 0 0 0 0 0 0 0 0 0 0 127 0" result="hardAlpha"/>
<feOffset dy="2"/>
<feGaussianBlur stdDeviation="2"/>
<feComposite in2="hardAlpha" operator="out"/>
<feColorMatrix type="matrix" values="0 0 0 0 0 0 0 0 0 0 0 0 0 0 0 0 0 0 0.05 0"/>
<feBlend mode="normal" in2="BackgroundImageFix" result="effect1_dropShadow_27_694"/>
<feBlend mode="normal" in="SourceGraphic" in2="effect1_dropShadow_27_694" result="shape"/>
</filter>
</defs>
</svg>
