<svg width="100%" height="100%" viewBox="0 0 342 250" fill="none" xmlns="http://www.w3.org/2000/svg">
<rect x="0.5" y="0.5" width="341" height="249" rx="7.5" fill="white" stroke="black"/>
<path d="M1 9.00001C1 4.58173 4.58172 1 9 1H333C337.418 1 341 4.58172 341 9V241C341 245.418 337.418 249 333 249H9C4.58172 249 1 245.418 1 241V9.00001Z" fill="#BEBEBE"/>
<g filter="url(#filter0_d_29_1406)">
<rect x="23" y="31" width="140" height="147" rx="4" fill="white"/>
<rect x="23.5" y="31.5" width="139" height="146" rx="3.5" stroke="black"/>
</g>
<g filter="url(#filter1_d_29_1406)">
<rect x="42" y="48" width="28" height="28" rx="4" fill="#676767"/>
</g>
<path d="M47.2422 91.1016C47.2005 90.7318 47.0286 90.4453 46.7266 90.2422C46.4245 90.0365 46.0443 89.9336 45.5859 89.9336C45.2578 89.9336 44.974 89.9857 44.7344 90.0898C44.4948 90.1914 44.3086 90.332 44.1758 90.5117C44.0456 90.6888 43.9805 90.8906 43.9805 91.1172C43.9805 91.3073 44.0247 91.4714 44.1133 91.6094C44.2044 91.7474 44.3229 91.8633 44.4688 91.957C44.6172 92.0482 44.776 92.125 44.9453 92.1875C45.1146 92.2474 45.2773 92.2969 45.4336 92.3359L46.2148 92.5391C46.4701 92.6016 46.7318 92.6862 47 92.793C47.2682 92.8997 47.5169 93.0404 47.7461 93.2148C47.9753 93.3893 48.1602 93.6055 48.3008 93.8633C48.444 94.1211 48.5156 94.4297 48.5156 94.7891C48.5156 95.2422 48.3984 95.6445 48.1641 95.9961C47.9323 96.3477 47.5951 96.625 47.1523 96.8281C46.7122 97.0313 46.1797 97.1328 45.5547 97.1328C44.9557 97.1328 44.4375 97.0378 44 96.8477C43.5625 96.6576 43.2201 96.388 42.9727 96.0391C42.7253 95.6875 42.5885 95.2708 42.5625 94.7891H43.7734C43.7969 95.0781 43.8906 95.319 44.0547 95.5117C44.2214 95.7018 44.4336 95.8437 44.6914 95.9375C44.9518 96.0286 45.237 96.0742 45.5469 96.0742C45.888 96.0742 46.1914 96.0208 46.457 95.9141C46.7253 95.8047 46.9362 95.6536 47.0898 95.4609C47.2435 95.2656 47.3203 95.0378 47.3203 94.7773C47.3203 94.5404 47.2526 94.3464 47.1172 94.1953C46.9844 94.0443 46.8034 93.9193 46.5742 93.8203C46.3477 93.7214 46.0911 93.6341 45.8047 93.5586L44.8594 93.3008C44.2188 93.1263 43.7109 92.8698 43.3359 92.5312C42.9635 92.1927 42.7773 91.7448 42.7773 91.1875C42.7773 90.7266 42.9023 90.3242 43.1523 89.9805C43.4023 89.6367 43.7409 89.3698 44.168 89.1797C44.5951 88.987 45.0768 88.8906 45.6133 88.8906C46.1549 88.8906 46.6328 88.9857 47.0469 89.1758C47.4635 89.3659 47.7917 89.6276 48.0313 89.9609C48.2708 90.2917 48.3958 90.6719 48.4063 91.1016H47.2422ZM52.665 91V91.9375H49.3877V91H52.665ZM50.2666 89.5625H51.4346V95.2383C51.4346 95.4648 51.4684 95.6354 51.5361 95.75C51.6038 95.862 51.6911 95.9388 51.7979 95.9805C51.9072 96.0195 52.0257 96.0391 52.1533 96.0391C52.2471 96.0391 52.3291 96.0326 52.3994 96.0195C52.4697 96.0065 52.5244 95.9961 52.5635 95.9883L52.7744 96.9531C52.7067 96.9792 52.6104 97.0052 52.4854 97.0313C52.3604 97.0599 52.2041 97.0755 52.0166 97.0781C51.7093 97.0833 51.4229 97.0286 51.1572 96.9141C50.8916 96.7995 50.6768 96.6224 50.5127 96.3828C50.3486 96.1432 50.2666 95.8424 50.2666 95.4805V89.5625ZM55.7031 97.1328C55.3229 97.1328 54.9792 97.0625 54.6719 96.9219C54.3646 96.7786 54.1211 96.5716 53.9414 96.3008C53.7643 96.0299 53.6758 95.6979 53.6758 95.3047C53.6758 94.9661 53.7409 94.6875 53.8711 94.4687C54.0013 94.25 54.1771 94.0768 54.3984 93.9492C54.6198 93.8216 54.8672 93.7253 55.1406 93.6602C55.4141 93.5951 55.6927 93.5456 55.9766 93.5117C56.3359 93.4701 56.6276 93.4362 56.8516 93.4102C57.0755 93.3815 57.2383 93.3359 57.3398 93.2734C57.4414 93.2109 57.4922 93.1094 57.4922 92.9687V92.9414C57.4922 92.6003 57.3958 92.3359 57.2031 92.1484C57.013 91.9609 56.7292 91.8672 56.3516 91.8672C55.9583 91.8672 55.6484 91.9544 55.4219 92.1289C55.1979 92.3008 55.043 92.4922 54.957 92.7031L53.8594 92.4531C53.9896 92.0885 54.1797 91.7943 54.4297 91.5703C54.6823 91.3437 54.9727 91.1797 55.3008 91.0781C55.6289 90.974 55.974 90.9219 56.3359 90.9219C56.5755 90.9219 56.8294 90.9505 57.0977 91.0078C57.3685 91.0625 57.6211 91.1641 57.8555 91.3125C58.0924 91.4609 58.2865 91.6732 58.4375 91.9492C58.5885 92.2227 58.6641 92.5781 58.6641 93.0156V97H57.5234V96.1797H57.4766C57.401 96.3307 57.2878 96.4792 57.1367 96.625C56.9857 96.7708 56.7917 96.8919 56.5547 96.9883C56.3177 97.0846 56.0339 97.1328 55.7031 97.1328ZM55.957 96.1953C56.2799 96.1953 56.556 96.1315 56.7852 96.0039C57.0169 95.8763 57.1927 95.7096 57.3125 95.5039C57.4349 95.2956 57.4961 95.0729 57.4961 94.8359V94.0625C57.4544 94.1042 57.3737 94.1432 57.2539 94.1797C57.1367 94.2135 57.0026 94.2435 56.8516 94.2695C56.7005 94.293 56.5534 94.3151 56.4102 94.3359C56.2669 94.3542 56.1471 94.3698 56.0508 94.3828C55.8242 94.4115 55.6172 94.4596 55.4297 94.5273C55.2448 94.5951 55.0964 94.6927 54.9844 94.8203C54.875 94.9453 54.8203 95.112 54.8203 95.3203C54.8203 95.6094 54.9271 95.8281 55.1406 95.9766C55.3542 96.1224 55.6263 96.1953 55.957 96.1953ZM63.0205 91V91.9375H59.7432V91H63.0205ZM60.6221 89.5625H61.79V95.2383C61.79 95.4648 61.8239 95.6354 61.8916 95.75C61.9593 95.862 62.0465 95.9388 62.1533 95.9805C62.2627 96.0195 62.3812 96.0391 62.5088 96.0391C62.6025 96.0391 62.6846 96.0326 62.7549 96.0195C62.8252 96.0065 62.8799 95.9961 62.9189 95.9883L63.1299 96.9531C63.0622 96.9792 62.9658 97.0052 62.8408 97.0313C62.7158 97.0599 62.5596 97.0755 62.3721 97.0781C62.0648 97.0833 61.7783 97.0286 61.5127 96.9141C61.2471 96.7995 61.0322 96.6224 60.8682 96.3828C60.7041 96.1432 60.6221 95.8424 60.6221 95.4805V89.5625ZM64.3125 97V91H65.4805V97H64.3125ZM64.9023 90.0742C64.6992 90.0742 64.5247 90.0065 64.3789 89.8711C64.2357 89.7331 64.1641 89.569 64.1641 89.3789C64.1641 89.1862 64.2357 89.0221 64.3789 88.8867C64.5247 88.7487 64.6992 88.6797 64.9023 88.6797C65.1055 88.6797 65.2786 88.7487 65.4219 88.8867C65.5677 89.0221 65.6406 89.1862 65.6406 89.3789C65.6406 89.569 65.5677 89.7331 65.4219 89.8711C65.2786 90.0065 65.1055 90.0742 64.9023 90.0742ZM71.5479 92.4648L70.4893 92.6523C70.445 92.5169 70.3747 92.388 70.2783 92.2656C70.1846 92.1432 70.057 92.043 69.8955 91.9648C69.734 91.8867 69.5322 91.8477 69.29 91.8477C68.9593 91.8477 68.6833 91.9219 68.4619 92.0703C68.2406 92.2161 68.1299 92.4049 68.1299 92.6367C68.1299 92.8372 68.2041 92.9987 68.3525 93.1211C68.501 93.2435 68.7406 93.3437 69.0713 93.4219L70.0244 93.6406C70.5765 93.7682 70.988 93.9648 71.2588 94.2305C71.5296 94.4961 71.665 94.8411 71.665 95.2656C71.665 95.625 71.5609 95.9453 71.3525 96.2266C71.1468 96.5052 70.859 96.724 70.4893 96.8828C70.1221 97.0417 69.6963 97.1211 69.2119 97.1211C68.54 97.1211 67.9919 96.9779 67.5674 96.6914C67.1429 96.4023 66.8825 95.9922 66.7861 95.4609L67.915 95.2891C67.9854 95.5833 68.1299 95.806 68.3486 95.957C68.5674 96.1055 68.8525 96.1797 69.2041 96.1797C69.5869 96.1797 69.8929 96.1003 70.1221 95.9414C70.3512 95.7799 70.4658 95.5833 70.4658 95.3516C70.4658 95.1641 70.3955 95.0065 70.2549 94.8789C70.1169 94.7513 69.9046 94.6549 69.6182 94.5898L68.6025 94.3672C68.0426 94.2396 67.6286 94.0365 67.3604 93.7578C67.0947 93.4792 66.9619 93.1263 66.9619 92.6992C66.9619 92.3451 67.0609 92.0352 67.2588 91.7695C67.4567 91.5039 67.7301 91.2969 68.0791 91.1484C68.4281 90.9974 68.8278 90.9219 69.2783 90.9219C69.9268 90.9219 70.4372 91.0625 70.8096 91.3437C71.182 91.6224 71.4281 91.9961 71.5479 92.4648ZM75.75 91V91.9375H72.4727V91H75.75ZM73.3516 89.5625H74.5195V95.2383C74.5195 95.4648 74.5534 95.6354 74.6211 95.75C74.6888 95.862 74.776 95.9388 74.8828 95.9805C74.9922 96.0195 75.1107 96.0391 75.2383 96.0391C75.332 96.0391 75.4141 96.0326 75.4844 96.0195C75.5547 96.0065 75.6094 95.9961 75.6484 95.9883L75.8594 96.9531C75.7917 96.9792 75.6953 97.0052 75.5703 97.0313C75.4453 97.0599 75.2891 97.0755 75.1016 97.0781C74.7943 97.0833 74.5078 97.0286 74.2422 96.9141C73.9766 96.7995 73.7617 96.6224 73.5977 96.3828C73.4336 96.1432 73.3516 95.8424 73.3516 95.4805V89.5625ZM77.042 97V91H78.21V97H77.042ZM77.6318 90.0742C77.4287 90.0742 77.2542 90.0065 77.1084 89.8711C76.9652 89.7331 76.8936 89.569 76.8936 89.3789C76.8936 89.1862 76.9652 89.0221 77.1084 88.8867C77.2542 88.7487 77.4287 88.6797 77.6318 88.6797C77.835 88.6797 78.0081 88.7487 78.1514 88.8867C78.2972 89.0221 78.3701 89.1862 78.3701 89.3789C78.3701 89.569 78.2972 89.7331 78.1514 89.8711C78.0081 90.0065 77.835 90.0742 77.6318 90.0742ZM82.3086 97.1211C81.7279 97.1211 81.2279 96.9896 80.8086 96.7266C80.3919 96.4609 80.0716 96.0951 79.8477 95.6289C79.6237 95.1628 79.5117 94.6289 79.5117 94.0273C79.5117 93.418 79.6263 92.8802 79.8555 92.4141C80.0846 91.9453 80.4076 91.5794 80.8242 91.3164C81.2409 91.0534 81.7318 90.9219 82.2969 90.9219C82.7526 90.9219 83.1589 91.0065 83.5156 91.1758C83.8724 91.3424 84.1602 91.5768 84.3789 91.8789C84.6003 92.181 84.7318 92.5339 84.7734 92.9375H83.6367C83.5742 92.6562 83.431 92.4141 83.207 92.2109C82.9857 92.0078 82.6888 91.9062 82.3164 91.9062C81.9909 91.9062 81.7057 91.9922 81.4609 92.1641C81.2188 92.3333 81.0299 92.5755 80.8945 92.8906C80.7591 93.2031 80.6914 93.5729 80.6914 94C80.6914 94.4375 80.7578 94.8151 80.8906 95.1328C81.0234 95.4505 81.2109 95.6966 81.4531 95.8711C81.6979 96.0456 81.9857 96.1328 82.3164 96.1328C82.5378 96.1328 82.7383 96.0924 82.918 96.0117C83.1003 95.9284 83.2526 95.8099 83.375 95.6562C83.5 95.5026 83.5872 95.3177 83.6367 95.1016H84.7734C84.7318 95.4896 84.6055 95.8359 84.3945 96.1406C84.1836 96.4453 83.901 96.6849 83.5469 96.8594C83.1953 97.0339 82.7826 97.1211 82.3086 97.1211ZM90.5186 92.4648L89.46 92.6523C89.4157 92.5169 89.3454 92.388 89.249 92.2656C89.1553 92.1432 89.0277 92.043 88.8662 91.9648C88.7048 91.8867 88.5029 91.8477 88.2607 91.8477C87.93 91.8477 87.654 91.9219 87.4326 92.0703C87.2113 92.2161 87.1006 92.4049 87.1006 92.6367C87.1006 92.8372 87.1748 92.9987 87.3232 93.1211C87.4717 93.2435 87.7113 93.3437 88.042 93.4219L88.9951 93.6406C89.5472 93.7682 89.9587 93.9648 90.2295 94.2305C90.5003 94.4961 90.6357 94.8411 90.6357 95.2656C90.6357 95.625 90.5316 95.9453 90.3232 96.2266C90.1175 96.5052 89.8298 96.724 89.46 96.8828C89.0928 97.0417 88.667 97.1211 88.1826 97.1211C87.5107 97.1211 86.9626 96.9779 86.5381 96.6914C86.1136 96.4023 85.8532 95.9922 85.7568 95.4609L86.8857 95.2891C86.9561 95.5833 87.1006 95.806 87.3193 95.957C87.5381 96.1055 87.8232 96.1797 88.1748 96.1797C88.5576 96.1797 88.8636 96.1003 89.0928 95.9414C89.3219 95.7799 89.4365 95.5833 89.4365 95.3516C89.4365 95.1641 89.3662 95.0065 89.2256 94.8789C89.0876 94.7513 88.8753 94.6549 88.5889 94.5898L87.5732 94.3672C87.0133 94.2396 86.5993 94.0365 86.3311 93.7578C86.0654 93.4792 85.9326 93.1263 85.9326 92.6992C85.9326 92.3451 86.0316 92.0352 86.2295 91.7695C86.4274 91.5039 86.7008 91.2969 87.0498 91.1484C87.3988 90.9974 87.7985 90.9219 88.249 90.9219C88.8975 90.9219 89.4079 91.0625 89.7803 91.3437C90.1527 91.6224 90.3988 91.9961 90.5186 92.4648Z" fill="black"/>
<rect x="42" y="118" width="102" height="3" rx="1.5" fill="#D9D9D9"/>
<rect x="42" y="125" width="60" height="3" rx="1.5" fill="#D9D9D9"/>
<rect x="42" y="132" width="88" height="3" rx="1.5" fill="#D9D9D9"/>
<rect x="42" y="108" width="25" height="4" rx="2" fill="#FF00F5"/>
<rect x="42" y="146" width="41" height="16" rx="4" fill="#FF00F5"/>
<rect x="48" y="152.5" width="29" height="3" rx="1.5" fill="white"/>
<g filter="url(#filter2_d_29_1406)">
<rect x="179" y="31" width="140" height="147" rx="4" fill="white"/>
<rect x="179.5" y="31.5" width="139" height="146" rx="3.5" stroke="black"/>
</g>
<g filter="url(#filter3_d_29_1406)">
<rect x="198" y="48" width="28" height="28" rx="4" fill="#676767"/>
</g>
<path d="M198.879 97V89H201.73C202.35 89 202.865 89.1068 203.273 89.3203C203.685 89.5339 203.992 89.8294 204.195 90.207C204.398 90.582 204.5 91.0156 204.5 91.5078C204.5 91.9974 204.397 92.4284 204.191 92.8008C203.988 93.1706 203.681 93.4583 203.27 93.6641C202.861 93.8698 202.346 93.9727 201.727 93.9727H199.566V92.9336H201.617C202.008 92.9336 202.326 92.8776 202.57 92.7656C202.818 92.6536 202.999 92.4909 203.113 92.2773C203.228 92.0638 203.285 91.8073 203.285 91.5078C203.285 91.2057 203.227 90.944 203.109 90.7227C202.995 90.5013 202.814 90.332 202.566 90.2148C202.322 90.0951 202 90.0352 201.602 90.0352H200.086V97H198.879ZM202.828 93.3906L204.805 97H203.43L201.492 93.3906H202.828ZM208.386 97.1211C207.795 97.1211 207.285 96.9948 206.858 96.7422C206.434 96.487 206.106 96.1289 205.874 95.668C205.645 95.2044 205.53 94.6615 205.53 94.0391C205.53 93.4245 205.645 92.8828 205.874 92.4141C206.106 91.9453 206.429 91.5794 206.843 91.3164C207.259 91.0534 207.746 90.9219 208.304 90.9219C208.642 90.9219 208.97 90.9779 209.288 91.0898C209.606 91.2018 209.891 91.3776 210.144 91.6172C210.396 91.8568 210.595 92.168 210.741 92.5508C210.887 92.931 210.96 93.3932 210.96 93.9375V94.3516H206.19V93.4766H209.815C209.815 93.1693 209.753 92.8971 209.628 92.6602C209.503 92.4206 209.327 92.2318 209.101 92.0937C208.877 91.9557 208.614 91.8867 208.312 91.8867C207.983 91.8867 207.697 91.9674 207.452 92.1289C207.21 92.2878 207.022 92.4961 206.89 92.7539C206.759 93.0091 206.694 93.2865 206.694 93.5859V94.2695C206.694 94.6706 206.765 95.0117 206.905 95.293C207.049 95.5742 207.248 95.7891 207.503 95.9375C207.758 96.0833 208.056 96.1562 208.397 96.1562C208.619 96.1562 208.821 96.125 209.003 96.0625C209.185 95.9974 209.343 95.901 209.476 95.7734C209.608 95.6458 209.71 95.4883 209.78 95.3008L210.886 95.5C210.797 95.8255 210.638 96.1107 210.409 96.3555C210.183 96.5977 209.897 96.7865 209.554 96.9219C209.213 97.0547 208.823 97.1211 208.386 97.1211ZM212.256 99.25V91H213.396V91.9727H213.494C213.562 91.8477 213.66 91.7031 213.787 91.5391C213.915 91.375 214.092 91.2318 214.318 91.1094C214.545 90.9844 214.844 90.9219 215.217 90.9219C215.701 90.9219 216.133 91.0443 216.514 91.2891C216.894 91.5339 217.192 91.8867 217.408 92.3477C217.627 92.8086 217.736 93.3633 217.736 94.0117C217.736 94.6602 217.628 95.2161 217.412 95.6797C217.196 96.1406 216.899 96.4961 216.521 96.7461C216.144 96.9935 215.713 97.1172 215.229 97.1172C214.864 97.1172 214.566 97.056 214.334 96.9336C214.105 96.8112 213.925 96.668 213.795 96.5039C213.665 96.3398 213.564 96.194 213.494 96.0664H213.424V99.25H212.256ZM213.4 94C213.4 94.4219 213.462 94.7917 213.584 95.1094C213.706 95.4271 213.883 95.6758 214.115 95.8555C214.347 96.0326 214.631 96.1211 214.967 96.1211C215.316 96.1211 215.607 96.0286 215.842 95.8437C216.076 95.6562 216.253 95.4023 216.373 95.082C216.495 94.7617 216.557 94.401 216.557 94C216.557 93.6042 216.497 93.2487 216.377 92.9336C216.26 92.6185 216.083 92.3698 215.846 92.1875C215.611 92.0052 215.318 91.9141 214.967 91.9141C214.628 91.9141 214.342 92.0013 214.107 92.1758C213.876 92.3503 213.7 92.5937 213.58 92.9062C213.46 93.2187 213.4 93.5833 213.4 94ZM221.572 97.1211C221.01 97.1211 220.519 96.9922 220.1 96.7344C219.68 96.4766 219.355 96.1159 219.123 95.6523C218.891 95.1888 218.775 94.6471 218.775 94.0273C218.775 93.4049 218.891 92.8607 219.123 92.3945C219.355 91.9284 219.68 91.5664 220.1 91.3086C220.519 91.0508 221.01 90.9219 221.572 90.9219C222.135 90.9219 222.626 91.0508 223.045 91.3086C223.464 91.5664 223.79 91.9284 224.021 92.3945C224.253 92.8607 224.369 93.4049 224.369 94.0273C224.369 94.6471 224.253 95.1888 224.021 95.6523C223.79 96.1159 223.464 96.4766 223.045 96.7344C222.626 96.9922 222.135 97.1211 221.572 97.1211ZM221.576 96.1406C221.941 96.1406 222.243 96.0443 222.482 95.8516C222.722 95.6589 222.899 95.4023 223.014 95.082C223.131 94.7617 223.189 94.4089 223.189 94.0234C223.189 93.6406 223.131 93.2891 223.014 92.9687C222.899 92.6458 222.722 92.3867 222.482 92.1914C222.243 91.9961 221.941 91.8984 221.576 91.8984C221.209 91.8984 220.904 91.9961 220.662 92.1914C220.423 92.3867 220.244 92.6458 220.127 92.9687C220.012 93.2891 219.955 93.6406 219.955 94.0234C219.955 94.4089 220.012 94.7617 220.127 95.082C220.244 95.4023 220.423 95.6589 220.662 95.8516C220.904 96.0443 221.209 96.1406 221.576 96.1406ZM225.673 97V91H226.802V91.9531H226.864C226.974 91.6302 227.166 91.3763 227.442 91.1914C227.721 91.0039 228.036 90.9102 228.388 90.9102C228.461 90.9102 228.547 90.9128 228.646 90.918C228.747 90.9232 228.826 90.9297 228.884 90.9375V92.0547C228.837 92.0417 228.754 92.0273 228.634 92.0117C228.514 91.9935 228.394 91.9844 228.274 91.9844C227.998 91.9844 227.752 92.043 227.536 92.1602C227.323 92.2747 227.153 92.4349 227.028 92.6406C226.903 92.8437 226.841 93.0755 226.841 93.3359V97H225.673ZM233.05 91V91.9375H229.772V91H233.05ZM230.651 89.5625H231.819V95.2383C231.819 95.4648 231.853 95.6354 231.921 95.75C231.989 95.862 232.076 95.9388 232.183 95.9805C232.292 96.0195 232.41 96.0391 232.538 96.0391C232.632 96.0391 232.714 96.0326 232.784 96.0195C232.854 96.0065 232.909 95.9961 232.948 95.9883L233.159 96.9531C233.091 96.9792 232.995 97.0052 232.87 97.0313C232.745 97.0599 232.589 97.0755 232.401 97.0781C232.094 97.0833 231.808 97.0286 231.542 96.9141C231.276 96.7995 231.062 96.6224 230.897 96.3828C230.733 96.1432 230.651 95.8424 230.651 95.4805V89.5625ZM238.741 92.4648L237.683 92.6523C237.638 92.5169 237.568 92.388 237.472 92.2656C237.378 92.1432 237.25 92.043 237.089 91.9648C236.927 91.8867 236.726 91.8477 236.483 91.8477C236.153 91.8477 235.877 91.9219 235.655 92.0703C235.434 92.2161 235.323 92.4049 235.323 92.6367C235.323 92.8372 235.397 92.9987 235.546 93.1211C235.694 93.2435 235.934 93.3437 236.265 93.4219L237.218 93.6406C237.77 93.7682 238.181 93.9648 238.452 94.2305C238.723 94.4961 238.858 94.8411 238.858 95.2656C238.858 95.625 238.754 95.9453 238.546 96.2266C238.34 96.5052 238.052 96.724 237.683 96.8828C237.315 97.0417 236.89 97.1211 236.405 97.1211C235.733 97.1211 235.185 96.9779 234.761 96.6914C234.336 96.4023 234.076 95.9922 233.979 95.4609L235.108 95.2891C235.179 95.5833 235.323 95.806 235.542 95.957C235.761 96.1055 236.046 96.1797 236.397 96.1797C236.78 96.1797 237.086 96.1003 237.315 95.9414C237.545 95.7799 237.659 95.5833 237.659 95.3516C237.659 95.1641 237.589 95.0065 237.448 94.8789C237.31 94.7513 237.098 94.6549 236.812 94.5898L235.796 94.3672C235.236 94.2396 234.822 94.0365 234.554 93.7578C234.288 93.4792 234.155 93.1263 234.155 92.6992C234.155 92.3451 234.254 92.0352 234.452 91.7695C234.65 91.5039 234.924 91.2969 235.272 91.1484C235.621 90.9974 236.021 90.9219 236.472 90.9219C237.12 90.9219 237.631 91.0625 238.003 91.3437C238.375 91.6224 238.621 91.9961 238.741 92.4648Z" fill="black"/>
<rect x="198" y="118" width="52" height="3" rx="1.5" fill="#D9D9D9"/>
<rect x="198" y="125" width="81" height="3" rx="1.5" fill="#D9D9D9"/>
<rect x="198" y="132" width="29" height="3" rx="1.5" fill="#D9D9D9"/>
<rect x="198" y="108" width="38" height="4" rx="2" fill="#FF00F5"/>
<rect x="198" y="146" width="41" height="16" rx="4" fill="#FF00F5"/>
<rect x="204" y="152.5" width="29" height="3" rx="1.5" fill="white"/>
<defs>
<filter id="filter0_d_29_1406" x="19" y="29" width="148" height="155" filterUnits="userSpaceOnUse" color-interpolation-filters="sRGB">
<feFlood flood-opacity="0" result="BackgroundImageFix"/>
<feColorMatrix in="SourceAlpha" type="matrix" values="0 0 0 0 0 0 0 0 0 0 0 0 0 0 0 0 0 0 127 0" result="hardAlpha"/>
<feOffset dy="2"/>
<feGaussianBlur stdDeviation="2"/>
<feComposite in2="hardAlpha" operator="out"/>
<feColorMatrix type="matrix" values="0 0 0 0 0 0 0 0 0 0 0 0 0 0 0 0 0 0 0.05 0"/>
<feBlend mode="normal" in2="BackgroundImageFix" result="effect1_dropShadow_29_1406"/>
<feBlend mode="normal" in="SourceGraphic" in2="effect1_dropShadow_29_1406" result="shape"/>
</filter>
<filter id="filter1_d_29_1406" x="38" y="46" width="36" height="36" filterUnits="userSpaceOnUse" color-interpolation-filters="sRGB">
<feFlood flood-opacity="0" result="BackgroundImageFix"/>
<feColorMatrix in="SourceAlpha" type="matrix" values="0 0 0 0 0 0 0 0 0 0 0 0 0 0 0 0 0 0 127 0" result="hardAlpha"/>
<feOffset dy="2"/>
<feGaussianBlur stdDeviation="2"/>
<feComposite in2="hardAlpha" operator="out"/>
<feColorMatrix type="matrix" values="0 0 0 0 0 0 0 0 0 0 0 0 0 0 0 0 0 0 0.05 0"/>
<feBlend mode="normal" in2="BackgroundImageFix" result="effect1_dropShadow_29_1406"/>
<feBlend mode="normal" in="SourceGraphic" in2="effect1_dropShadow_29_1406" result="shape"/>
</filter>
<filter id="filter2_d_29_1406" x="175" y="29" width="148" height="155" filterUnits="userSpaceOnUse" color-interpolation-filters="sRGB">
<feFlood flood-opacity="0" result="BackgroundImageFix"/>
<feColorMatrix in="SourceAlpha" type="matrix" values="0 0 0 0 0 0 0 0 0 0 0 0 0 0 0 0 0 0 127 0" result="hardAlpha"/>
<feOffset dy="2"/>
<feGaussianBlur stdDeviation="2"/>
<feComposite in2="hardAlpha" operator="out"/>
<feColorMatrix type="matrix" values="0 0 0 0 0 0 0 0 0 0 0 0 0 0 0 0 0 0 0.05 0"/>
<feBlend mode="normal" in2="BackgroundImageFix" result="effect1_dropShadow_29_1406"/>
<feBlend mode="normal" in="SourceGraphic" in2="effect1_dropShadow_29_1406" result="shape"/>
</filter>
<filter id="filter3_d_29_1406" x="194" y="46" width="36" height="36" filterUnits="userSpaceOnUse" color-interpolation-filters="sRGB">
<feFlood flood-opacity="0" result="BackgroundImageFix"/>
<feColorMatrix in="SourceAlpha" type="matrix" values="0 0 0 0 0 0 0 0 0 0 0 0 0 0 0 0 0 0 127 0" result="hardAlpha"/>
<feOffset dy="2"/>
<feGaussianBlur stdDeviation="2"/>
<feComposite in2="hardAlpha" operator="out"/>
<feColorMatrix type="matrix" values="0 0 0 0 0 0 0 0 0 0 0 0 0 0 0 0 0 0 0.05 0"/>
<feBlend mode="normal" in2="BackgroundImageFix" result="effect1_dropShadow_29_1406"/>
<feBlend mode="normal" in="SourceGraphic" in2="effect1_dropShadow_29_1406" result="shape"/>
</filter>
</defs>
</svg>
