<svg width="100%" height="100%" viewBox="0 0 342 250" fill="none" xmlns="http://www.w3.org/2000/svg">
<rect x="0.5" y="0.5" width="341" height="249" rx="7.5" fill="white" stroke="black"/>
<path d="M1 9.00001C1 4.58173 4.58172 1 9 1H333C337.418 1 341 4.58172 341 9V241C341 245.418 337.418 249 333 249H9C4.58172 249 1 245.418 1 241V9.00001Z" fill="#BEBEBE"/>
<g filter="url(#filter0_d_29_1405)">
<rect x="15" y="31" width="150" height="73" rx="4" fill="white"/>
<rect x="15.5" y="31.5" width="149" height="72" rx="3.5" stroke="black"/>
</g>
<rect x="24.5" y="41.5" width="37" height="33" rx="3.5" fill="white" stroke="black" stroke-dasharray="2 2"/>
<path d="M74.669 45.7273V53H73.6605L69.9638 47.6662H69.8963V53H68.799V45.7273H69.8146L73.5149 51.0682H73.5824V45.7273H74.669ZM78.4821 53.1101C77.9707 53.1101 77.5244 52.9929 77.1433 52.7585C76.7621 52.5241 76.4662 52.1963 76.2555 51.7749C76.0448 51.3535 75.9395 50.861 75.9395 50.2976C75.9395 49.7318 76.0448 49.237 76.2555 48.8132C76.4662 48.3894 76.7621 48.0604 77.1433 47.826C77.5244 47.5916 77.9707 47.4744 78.4821 47.4744C78.9934 47.4744 79.4397 47.5916 79.8208 47.826C80.202 48.0604 80.4979 48.3894 80.7086 48.8132C80.9193 49.237 81.0247 49.7318 81.0247 50.2976C81.0247 50.861 80.9193 51.3535 80.7086 51.7749C80.4979 52.1963 80.202 52.5241 79.8208 52.7585C79.4397 52.9929 78.9934 53.1101 78.4821 53.1101ZM78.4856 52.2188C78.8171 52.2188 79.0917 52.1312 79.3095 51.956C79.5273 51.7808 79.6883 51.5476 79.7924 51.2564C79.899 50.9652 79.9522 50.6444 79.9522 50.294C79.9522 49.946 79.899 49.6264 79.7924 49.3352C79.6883 49.0417 79.5273 48.8061 79.3095 48.6286C79.0917 48.451 78.8171 48.3622 78.4856 48.3622C78.1518 48.3622 77.8748 48.451 77.6547 48.6286C77.4368 48.8061 77.2747 49.0417 77.1681 49.3352C77.064 49.6264 77.0119 49.946 77.0119 50.294C77.0119 50.6444 77.064 50.9652 77.1681 51.2564C77.2747 51.5476 77.4368 51.7808 77.6547 51.956C77.8748 52.1312 78.1518 52.2188 78.4856 52.2188ZM84.756 47.5455V48.3977H81.7766V47.5455H84.756ZM82.5756 46.2386H83.6374V51.3984C83.6374 51.6044 83.6682 51.7595 83.7298 51.8636C83.7913 51.9654 83.8706 52.0353 83.9677 52.0732C84.0671 52.1087 84.1748 52.1264 84.2908 52.1264C84.3761 52.1264 84.4506 52.1205 84.5146 52.1087C84.5785 52.0968 84.6282 52.0874 84.6637 52.0803L84.8555 52.9574C84.7939 52.9811 84.7063 53.0047 84.5927 53.0284C84.479 53.0545 84.337 53.0687 84.1665 53.071C83.8872 53.0758 83.6268 53.026 83.3853 52.9219C83.1438 52.8177 82.9485 52.6567 82.7994 52.4389C82.6502 52.2211 82.5756 51.9477 82.5756 51.6186V46.2386ZM85.9306 53V47.5455H86.9924V53H85.9306ZM86.4668 46.7038C86.2821 46.7038 86.1235 46.6423 85.9909 46.5192C85.8607 46.3937 85.7956 46.2446 85.7956 46.0717C85.7956 45.8965 85.8607 45.7474 85.9909 45.6243C86.1235 45.4988 86.2821 45.4361 86.4668 45.4361C86.6515 45.4361 86.8089 45.4988 86.9391 45.6243C87.0717 45.7474 87.138 45.8965 87.138 46.0717C87.138 46.2446 87.0717 46.3937 86.9391 46.5192C86.8089 46.6423 86.6515 46.7038 86.4668 46.7038ZM91.0167 47.5455V48.3977H87.9343V47.5455H91.0167ZM88.7795 53V46.9134C88.7795 46.5724 88.854 46.2895 89.0032 46.0646C89.1523 45.8374 89.35 45.6681 89.5962 45.5568C89.8424 45.4432 90.11 45.3864 90.3988 45.3864C90.6119 45.3864 90.7942 45.4041 90.9457 45.4396C91.0972 45.4728 91.2096 45.5036 91.283 45.532L91.0344 46.3913C90.9847 46.3771 90.9208 46.3606 90.8427 46.3416C90.7646 46.3203 90.6699 46.3097 90.5586 46.3097C90.3005 46.3097 90.1159 46.3736 90.0046 46.5014C89.8957 46.6293 89.8413 46.8139 89.8413 47.0554V53H88.7795ZM92.1122 53V47.5455H93.174V53H92.1122ZM92.6484 46.7038C92.4638 46.7038 92.3052 46.6423 92.1726 46.5192C92.0424 46.3937 91.9773 46.2446 91.9773 46.0717C91.9773 45.8965 92.0424 45.7474 92.1726 45.6243C92.3052 45.4988 92.4638 45.4361 92.6484 45.4361C92.8331 45.4361 92.9905 45.4988 93.1207 45.6243C93.2533 45.7474 93.3196 45.8965 93.3196 46.0717C93.3196 46.2446 93.2533 46.3937 93.1207 46.5192C92.9905 46.6423 92.8331 46.7038 92.6484 46.7038ZM96.9 53.1101C96.3721 53.1101 95.9176 52.9905 95.5364 52.7514C95.1576 52.5099 94.8664 52.1773 94.6628 51.7536C94.4592 51.3298 94.3574 50.8445 94.3574 50.2976C94.3574 49.7436 94.4616 49.2547 94.6699 48.831C94.8783 48.4048 95.1718 48.0722 95.5506 47.8331C95.9294 47.594 96.3757 47.4744 96.8894 47.4744C97.3037 47.4744 97.673 47.5514 97.9973 47.7053C98.3217 47.8568 98.5833 48.0698 98.7821 48.3445C98.9834 48.6191 99.1029 48.9399 99.1408 49.3068H98.1074C98.0506 49.0511 97.9204 48.831 97.7168 48.6463C97.5156 48.4616 97.2457 48.3693 96.9071 48.3693C96.6112 48.3693 96.352 48.4474 96.1294 48.6037C95.9093 48.7576 95.7376 48.9777 95.6145 49.2642C95.4914 49.5483 95.4299 49.8845 95.4299 50.2727C95.4299 50.6705 95.4902 51.0137 95.611 51.3026C95.7317 51.5914 95.9022 51.8151 96.1223 51.9737C96.3449 52.1323 96.6065 52.2116 96.9071 52.2116C97.1084 52.2116 97.2907 52.175 97.454 52.1016C97.6197 52.0258 97.7582 51.9181 97.8695 51.7784C97.9831 51.6387 98.0624 51.4706 98.1074 51.2741H99.1408C99.1029 51.6269 98.9881 51.9418 98.7963 52.2188C98.6046 52.4957 98.3477 52.7135 98.0257 52.8722C97.7061 53.0308 97.3309 53.1101 96.9 53.1101ZM101.864 53.1207C101.518 53.1207 101.205 53.0568 100.926 52.929C100.647 52.7988 100.425 52.6106 100.262 52.3643C100.101 52.1181 100.021 51.8163 100.021 51.4588C100.021 51.151 100.08 50.8977 100.198 50.6989C100.317 50.5 100.476 50.3426 100.678 50.2266C100.879 50.1106 101.104 50.023 101.352 49.9638C101.601 49.9046 101.854 49.8596 102.112 49.8288C102.439 49.791 102.704 49.7602 102.908 49.7365C103.111 49.7105 103.259 49.669 103.352 49.6122C103.444 49.5554 103.49 49.4631 103.49 49.3352V49.3104C103.49 49.0002 103.402 48.7599 103.227 48.5895C103.054 48.419 102.796 48.3338 102.453 48.3338C102.096 48.3338 101.814 48.4131 101.608 48.5717C101.404 48.728 101.263 48.902 101.185 49.0938L100.188 48.8665C100.306 48.535 100.479 48.2675 100.706 48.0639C100.936 47.858 101.2 47.7088 101.498 47.6165C101.796 47.5218 102.11 47.4744 102.439 47.4744C102.657 47.4744 102.888 47.5005 103.131 47.5526C103.378 47.6023 103.607 47.6946 103.82 47.8295C104.036 47.9645 104.212 48.1574 104.349 48.4084C104.487 48.657 104.555 48.9801 104.555 49.3778V53H103.518V52.2543H103.476C103.407 52.3916 103.304 52.5265 103.167 52.6591C103.03 52.7917 102.853 52.9018 102.638 52.9893C102.422 53.0769 102.164 53.1207 101.864 53.1207ZM102.094 52.2685C102.388 52.2685 102.639 52.2105 102.847 52.0945C103.058 51.9785 103.218 51.8269 103.327 51.6399C103.438 51.4505 103.494 51.2481 103.494 51.0327V50.3295C103.456 50.3674 103.382 50.4029 103.273 50.4361C103.167 50.4669 103.045 50.4941 102.908 50.5178C102.77 50.5391 102.637 50.5592 102.506 50.5781C102.376 50.5947 102.267 50.6089 102.18 50.6207C101.974 50.6468 101.786 50.6906 101.615 50.7521C101.447 50.8137 101.312 50.9025 101.21 51.0185C101.111 51.1321 101.061 51.2836 101.061 51.473C101.061 51.7358 101.158 51.9347 101.352 52.0696C101.546 52.2022 101.794 52.2685 102.094 52.2685ZM108.516 47.5455V48.3977H105.536V47.5455H108.516ZM106.335 46.2386H107.397V51.3984C107.397 51.6044 107.428 51.7595 107.49 51.8636C107.551 51.9654 107.63 52.0353 107.727 52.0732C107.827 52.1087 107.935 52.1264 108.051 52.1264C108.136 52.1264 108.21 52.1205 108.274 52.1087C108.338 52.0968 108.388 52.0874 108.423 52.0803L108.615 52.9574C108.554 52.9811 108.466 53.0047 108.352 53.0284C108.239 53.0545 108.097 53.0687 107.926 53.071C107.647 53.0758 107.387 53.026 107.145 52.9219C106.904 52.8177 106.708 52.6567 106.559 52.4389C106.41 52.2211 106.335 51.9477 106.335 51.6186V46.2386ZM109.69 53V47.5455H110.752V53H109.69ZM110.227 46.7038C110.042 46.7038 109.883 46.6423 109.751 46.5192C109.621 46.3937 109.555 46.2446 109.555 46.0717C109.555 45.8965 109.621 45.7474 109.751 45.6243C109.883 45.4988 110.042 45.4361 110.227 45.4361C110.411 45.4361 110.569 45.4988 110.699 45.6243C110.831 45.7474 110.898 45.8965 110.898 46.0717C110.898 46.2446 110.831 46.3937 110.699 46.5192C110.569 46.6423 110.411 46.7038 110.227 46.7038ZM114.478 53.1101C113.967 53.1101 113.521 52.9929 113.139 52.7585C112.758 52.5241 112.462 52.1963 112.252 51.7749C112.041 51.3535 111.936 50.861 111.936 50.2976C111.936 49.7318 112.041 49.237 112.252 48.8132C112.462 48.3894 112.758 48.0604 113.139 47.826C113.521 47.5916 113.967 47.4744 114.478 47.4744C114.99 47.4744 115.436 47.5916 115.817 47.826C116.198 48.0604 116.494 48.3894 116.705 48.8132C116.915 49.237 117.021 49.7318 117.021 50.2976C117.021 50.861 116.915 51.3535 116.705 51.7749C116.494 52.1963 116.198 52.5241 115.817 52.7585C115.436 52.9929 114.99 53.1101 114.478 53.1101ZM114.482 52.2188C114.813 52.2188 115.088 52.1312 115.306 51.956C115.523 51.7808 115.684 51.5476 115.789 51.2564C115.895 50.9652 115.948 50.6444 115.948 50.294C115.948 49.946 115.895 49.6264 115.789 49.3352C115.684 49.0417 115.523 48.8061 115.306 48.6286C115.088 48.451 114.813 48.3622 114.482 48.3622C114.148 48.3622 113.871 48.451 113.651 48.6286C113.433 48.8061 113.271 49.0417 113.164 49.3352C113.06 49.6264 113.008 49.946 113.008 50.294C113.008 50.6444 113.06 50.9652 113.164 51.2564C113.271 51.5476 113.433 51.7808 113.651 51.956C113.871 52.1312 114.148 52.2188 114.482 52.2188ZM119.268 49.7614V53H118.206V47.5455H119.225V48.4332H119.293C119.418 48.1444 119.615 47.9124 119.882 47.7372C120.152 47.562 120.492 47.4744 120.901 47.4744C121.273 47.4744 121.598 47.5526 121.878 47.7088C122.157 47.8627 122.374 48.0923 122.528 48.3977C122.682 48.7031 122.759 49.0807 122.759 49.5305V53H121.697V49.6584C121.697 49.263 121.594 48.9541 121.388 48.7315C121.182 48.5066 120.899 48.3942 120.539 48.3942C120.293 48.3942 120.074 48.4474 119.882 48.554C119.693 48.6605 119.542 48.8168 119.431 49.0227C119.322 49.2263 119.268 49.4725 119.268 49.7614ZM128.27 48.8771L127.308 49.0476C127.267 48.9245 127.203 48.8073 127.116 48.696C127.031 48.5848 126.915 48.4936 126.768 48.4226C126.621 48.3516 126.438 48.3161 126.217 48.3161C125.917 48.3161 125.666 48.3835 125.464 48.5185C125.263 48.651 125.163 48.8227 125.163 49.0334C125.163 49.2157 125.23 49.3625 125.365 49.4737C125.5 49.585 125.718 49.6761 126.018 49.7472L126.885 49.946C127.387 50.062 127.761 50.2408 128.007 50.4822C128.253 50.7237 128.376 51.0374 128.376 51.4233C128.376 51.75 128.282 52.0412 128.092 52.2969C127.905 52.5502 127.644 52.7491 127.308 52.8935C126.974 53.0379 126.587 53.1101 126.146 53.1101C125.536 53.1101 125.037 52.9799 124.651 52.7195C124.265 52.4567 124.029 52.0838 123.941 51.6009L124.967 51.4446C125.031 51.7121 125.163 51.9145 125.362 52.0518C125.56 52.1868 125.82 52.2543 126.139 52.2543C126.487 52.2543 126.765 52.1821 126.974 52.0376C127.182 51.8909 127.286 51.7121 127.286 51.5014C127.286 51.331 127.222 51.1877 127.094 51.0717C126.969 50.9557 126.776 50.8681 126.516 50.8089L125.592 50.6065C125.083 50.4905 124.707 50.3059 124.463 50.0526C124.222 49.7992 124.101 49.4785 124.101 49.0902C124.101 48.7682 124.191 48.4865 124.371 48.245C124.551 48.0036 124.799 47.8153 125.116 47.6804C125.434 47.5431 125.797 47.4744 126.207 47.4744C126.796 47.4744 127.26 47.6023 127.599 47.858C127.937 48.1113 128.161 48.451 128.27 48.8771Z" fill="black"/>
<rect x="68" y="60" width="88" height="3" rx="1.5" fill="#D9D9D9"/>
<rect x="68" y="67" width="70" height="3" rx="1.5" fill="#D9D9D9"/>
<line opacity="0.5" x1="164" y1="84.5" x2="15" y2="84.5" stroke="black"/>
<g clip-path="url(#clip0_29_1405)">
<path d="M153 91L152.295 91.705L154.585 94L152.295 96.295L153 97L156 94L153 91Z" fill="#323232"/>
</g>
<rect x="25" y="92" width="38" height="4" rx="2" fill="#FF00F5"/>
<g filter="url(#filter1_d_29_1405)">
<rect x="177" y="31" width="150" height="73" rx="4" fill="white"/>
<rect x="177.5" y="31.5" width="149" height="72" rx="3.5" stroke="black"/>
</g>
<rect x="186.5" y="41.5" width="37" height="33" rx="3.5" fill="white" stroke="black" stroke-dasharray="2 2"/>
<path d="M234.766 47.6378C234.728 47.3016 234.571 47.0412 234.297 46.8565C234.022 46.6695 233.677 46.576 233.26 46.576C232.962 46.576 232.704 46.6233 232.486 46.718C232.268 46.8104 232.099 46.9382 231.978 47.1016C231.86 47.2625 231.8 47.446 231.8 47.652C231.8 47.8248 231.841 47.974 231.921 48.0994C232.004 48.2249 232.112 48.3303 232.244 48.4155C232.379 48.4983 232.524 48.5682 232.678 48.625C232.831 48.6795 232.979 48.7244 233.121 48.7599L233.832 48.9446C234.064 49.0014 234.302 49.0784 234.545 49.1754C234.789 49.2725 235.015 49.4003 235.224 49.5589C235.432 49.7176 235.6 49.9141 235.728 50.1484C235.858 50.3828 235.923 50.6634 235.923 50.9901C235.923 51.402 235.817 51.7678 235.604 52.0874C235.393 52.407 235.086 52.6591 234.684 52.8438C234.284 53.0284 233.8 53.1207 233.232 53.1207C232.687 53.1207 232.216 53.0343 231.818 52.8615C231.42 52.6887 231.109 52.4437 230.884 52.1264C230.659 51.8068 230.535 51.428 230.511 50.9901H231.612C231.634 51.2528 231.719 51.4718 231.868 51.647C232.019 51.8198 232.212 51.9489 232.447 52.0341C232.683 52.117 232.943 52.1584 233.224 52.1584C233.535 52.1584 233.81 52.1098 234.052 52.0128C234.296 51.9134 234.487 51.776 234.627 51.6009C234.767 51.4233 234.837 51.2161 234.837 50.9794C234.837 50.764 234.775 50.5876 234.652 50.4503C234.531 50.313 234.367 50.1993 234.158 50.1094C233.952 50.0194 233.719 49.9401 233.459 49.8714L232.599 49.6371C232.017 49.4785 231.555 49.2453 231.214 48.9375C230.876 48.6297 230.707 48.2225 230.707 47.7159C230.707 47.2969 230.82 46.9311 231.048 46.6186C231.275 46.3061 231.583 46.0634 231.971 45.8906C232.359 45.7154 232.797 45.6278 233.285 45.6278C233.777 45.6278 234.212 45.7143 234.588 45.8871C234.967 46.0599 235.265 46.2978 235.483 46.6009C235.701 46.9015 235.814 47.2472 235.824 47.6378H234.766ZM239.5 53.1101C238.963 53.1101 238.5 52.9953 238.112 52.7656C237.726 52.5336 237.427 52.2081 237.217 51.7891C237.008 51.3677 236.904 50.8741 236.904 50.3082C236.904 49.7495 237.008 49.2571 237.217 48.831C237.427 48.4048 237.721 48.0722 238.097 47.8331C238.476 47.594 238.919 47.4744 239.426 47.4744C239.733 47.4744 240.032 47.5253 240.32 47.6271C240.609 47.7289 240.869 47.8887 241.098 48.1065C241.328 48.3243 241.509 48.6072 241.642 48.9553C241.774 49.3009 241.84 49.7211 241.84 50.2159V50.5923H237.504V49.7969H240.8C240.8 49.5175 240.743 49.2701 240.629 49.0547C240.516 48.8369 240.356 48.6652 240.15 48.5398C239.946 48.4143 239.707 48.3516 239.433 48.3516C239.134 48.3516 238.874 48.425 238.651 48.5717C238.431 48.7161 238.261 48.9055 238.14 49.1399C238.022 49.3719 237.963 49.6241 237.963 49.8963V50.5178C237.963 50.8823 238.026 51.1925 238.154 51.4482C238.285 51.7038 238.466 51.8991 238.698 52.0341C238.93 52.1667 239.201 52.233 239.511 52.233C239.712 52.233 239.896 52.2045 240.061 52.1477C240.227 52.0885 240.37 52.0009 240.491 51.8849C240.612 51.7689 240.704 51.6257 240.768 51.4553L241.773 51.6364C241.692 51.9323 241.548 52.1915 241.34 52.4141C241.134 52.6342 240.874 52.8059 240.562 52.929C240.252 53.0497 239.898 53.1101 239.5 53.1101ZM245.565 47.5455V48.3977H242.585V47.5455H245.565ZM243.384 46.2386H244.446V51.3984C244.446 51.6044 244.477 51.7595 244.538 51.8636C244.6 51.9654 244.679 52.0353 244.776 52.0732C244.876 52.1087 244.983 52.1264 245.099 52.1264C245.185 52.1264 245.259 52.1205 245.323 52.1087C245.387 52.0968 245.437 52.0874 245.472 52.0803L245.664 52.9574C245.603 52.9811 245.515 53.0047 245.401 53.0284C245.288 53.0545 245.146 53.0687 244.975 53.071C244.696 53.0758 244.435 53.026 244.194 52.9219C243.952 52.8177 243.757 52.6567 243.608 52.4389C243.459 52.2211 243.384 51.9477 243.384 51.6186V46.2386ZM249.285 47.5455V48.3977H246.306V47.5455H249.285ZM247.105 46.2386H248.167V51.3984C248.167 51.6044 248.198 51.7595 248.259 51.8636C248.321 51.9654 248.4 52.0353 248.497 52.0732C248.596 52.1087 248.704 52.1264 248.82 52.1264C248.905 52.1264 248.98 52.1205 249.044 52.1087C249.108 52.0968 249.157 52.0874 249.193 52.0803L249.385 52.9574C249.323 52.9811 249.236 53.0047 249.122 53.0284C249.008 53.0545 248.866 53.0687 248.696 53.071C248.416 53.0758 248.156 53.026 247.915 52.9219C247.673 52.8177 247.478 52.6567 247.329 52.4389C247.18 52.2211 247.105 51.9477 247.105 51.6186V46.2386ZM250.46 53V47.5455H251.522V53H250.46ZM250.996 46.7038C250.811 46.7038 250.653 46.6423 250.52 46.5192C250.39 46.3937 250.325 46.2446 250.325 46.0717C250.325 45.8965 250.39 45.7474 250.52 45.6243C250.653 45.4988 250.811 45.4361 250.996 45.4361C251.181 45.4361 251.338 45.4988 251.468 45.6243C251.601 45.7474 251.667 45.8965 251.667 46.0717C251.667 46.2446 251.601 46.3937 251.468 46.5192C251.338 46.6423 251.181 46.7038 250.996 46.7038ZM254.012 49.7614V53H252.95V47.5455H253.969V48.4332H254.037C254.162 48.1444 254.359 47.9124 254.626 47.7372C254.896 47.562 255.236 47.4744 255.645 47.4744C256.017 47.4744 256.343 47.5526 256.622 47.7088C256.901 47.8627 257.118 48.0923 257.272 48.3977C257.426 48.7031 257.503 49.0807 257.503 49.5305V53H256.441V49.6584C256.441 49.263 256.338 48.9541 256.132 48.7315C255.926 48.5066 255.643 48.3942 255.283 48.3942C255.037 48.3942 254.818 48.4474 254.626 48.554C254.437 48.6605 254.287 48.8168 254.175 49.0227C254.066 49.2263 254.012 49.4725 254.012 49.7614ZM261.214 55.1591C260.78 55.1591 260.407 55.1023 260.095 54.9886C259.785 54.875 259.532 54.7247 259.335 54.5376C259.139 54.3506 258.992 54.1458 258.895 53.9233L259.807 53.5469C259.871 53.651 259.956 53.7611 260.063 53.8771C260.172 53.9955 260.319 54.0961 260.503 54.179C260.69 54.2618 260.931 54.3033 261.224 54.3033C261.627 54.3033 261.959 54.205 262.222 54.0085C262.485 53.8144 262.616 53.5043 262.616 53.0781V52.0057H262.549C262.485 52.1217 262.393 52.2507 262.272 52.3928C262.153 52.5348 261.99 52.6579 261.782 52.7621C261.573 52.8662 261.302 52.9183 260.969 52.9183C260.538 52.9183 260.149 52.8177 259.804 52.6165C259.461 52.4129 259.188 52.1134 258.987 51.718C258.788 51.3203 258.689 50.8314 258.689 50.2514C258.689 49.6714 258.787 49.1742 258.983 48.7599C259.182 48.3456 259.455 48.0284 259.8 47.8082C260.146 47.5857 260.538 47.4744 260.976 47.4744C261.314 47.4744 261.588 47.5312 261.796 47.6449C262.004 47.7562 262.166 47.8864 262.282 48.0355C262.401 48.1847 262.492 48.3161 262.556 48.4297H262.634V47.5455H263.675V53.1207C263.675 53.5895 263.566 53.9742 263.348 54.2749C263.13 54.5755 262.835 54.7981 262.464 54.9425C262.094 55.0869 261.678 55.1591 261.214 55.1591ZM261.203 52.0376C261.508 52.0376 261.766 51.9666 261.977 51.8246C262.19 51.6802 262.351 51.4742 262.46 51.2067C262.571 50.9368 262.627 50.6136 262.627 50.2372C262.627 49.8703 262.573 49.5471 262.464 49.2678C262.355 48.9884 262.195 48.7706 261.984 48.6143C261.773 48.4557 261.513 48.3764 261.203 48.3764C260.883 48.3764 260.617 48.4593 260.404 48.625C260.191 48.7884 260.03 49.0109 259.921 49.2926C259.814 49.5743 259.761 49.8892 259.761 50.2372C259.761 50.5947 259.816 50.9084 259.925 51.1783C260.033 51.4482 260.194 51.6589 260.407 51.8104C260.623 51.9619 260.888 52.0376 261.203 52.0376ZM269.186 48.8771L268.224 49.0476C268.183 48.9245 268.119 48.8073 268.032 48.696C267.947 48.5848 267.831 48.4936 267.684 48.4226C267.537 48.3516 267.354 48.3161 267.133 48.3161C266.833 48.3161 266.582 48.3835 266.381 48.5185C266.179 48.651 266.079 48.8227 266.079 49.0334C266.079 49.2157 266.146 49.3625 266.281 49.4737C266.416 49.585 266.634 49.6761 266.934 49.7472L267.801 49.946C268.303 50.062 268.677 50.2408 268.923 50.4822C269.169 50.7237 269.292 51.0374 269.292 51.4233C269.292 51.75 269.198 52.0412 269.008 52.2969C268.821 52.5502 268.56 52.7491 268.224 52.8935C267.89 53.0379 267.503 53.1101 267.062 53.1101C266.452 53.1101 265.953 52.9799 265.567 52.7195C265.181 52.4567 264.945 52.0838 264.857 51.6009L265.883 51.4446C265.947 51.7121 266.079 51.9145 266.278 52.0518C266.476 52.1868 266.736 52.2543 267.055 52.2543C267.403 52.2543 267.681 52.1821 267.89 52.0376C268.098 51.8909 268.202 51.7121 268.202 51.5014C268.202 51.331 268.138 51.1877 268.01 51.0717C267.885 50.9557 267.692 50.8681 267.432 50.8089L266.508 50.6065C265.999 50.4905 265.623 50.3059 265.379 50.0526C265.138 49.7992 265.017 49.4785 265.017 49.0902C265.017 48.7682 265.107 48.4865 265.287 48.245C265.467 48.0036 265.715 47.8153 266.032 47.6804C266.35 47.5431 266.713 47.4744 267.123 47.4744C267.712 47.4744 268.176 47.6023 268.515 47.858C268.853 48.1113 269.077 48.451 269.186 48.8771Z" fill="black"/>
<rect x="230" y="60" width="88" height="3" rx="1.5" fill="#D9D9D9"/>
<rect x="230" y="67" width="70" height="3" rx="1.5" fill="#D9D9D9"/>
<line opacity="0.5" x1="326" y1="84.5" x2="177" y2="84.5" stroke="black"/>
<g clip-path="url(#clip1_29_1405)">
<path d="M315 91L314.295 91.705L316.585 94L314.295 96.295L315 97L318 94L315 91Z" fill="#323232"/>
</g>
<rect x="187" y="92" width="38" height="4" rx="2" fill="#FF00F5"/>
<g filter="url(#filter2_d_29_1405)">
<rect x="15" y="115" width="150" height="73" rx="4" fill="white"/>
<rect x="15.5" y="115.5" width="149" height="72" rx="3.5" stroke="black"/>
</g>
<rect x="24.5" y="125.5" width="37" height="33" rx="3.5" fill="white" stroke="black" stroke-dasharray="2 2"/>
<path d="M69.4134 137H68.2486L70.8658 129.727H72.1335L74.7507 137H73.5859L71.5298 131.048H71.473L69.4134 137ZM69.6087 134.152H73.3871V135.075H69.6087V134.152ZM77.9254 137.11C77.3975 137.11 76.9429 136.991 76.5618 136.751C76.183 136.51 75.8918 136.177 75.6882 135.754C75.4846 135.33 75.3828 134.844 75.3828 134.298C75.3828 133.744 75.487 133.255 75.6953 132.831C75.9036 132.405 76.1972 132.072 76.576 131.833C76.9548 131.594 77.401 131.474 77.9148 131.474C78.3291 131.474 78.6984 131.551 79.0227 131.705C79.3471 131.857 79.6087 132.07 79.8075 132.344C80.0088 132.619 80.1283 132.94 80.1662 133.307H79.1328C79.076 133.051 78.9458 132.831 78.7422 132.646C78.541 132.462 78.2711 132.369 77.9325 132.369C77.6366 132.369 77.3774 132.447 77.1548 132.604C76.9347 132.758 76.763 132.978 76.6399 133.264C76.5168 133.548 76.4553 133.884 76.4553 134.273C76.4553 134.67 76.5156 135.014 76.6364 135.303C76.7571 135.591 76.9276 135.815 77.1477 135.974C77.3703 136.132 77.6319 136.212 77.9325 136.212C78.1338 136.212 78.3161 136.175 78.4794 136.102C78.6451 136.026 78.7836 135.918 78.8949 135.778C79.0085 135.639 79.0878 135.471 79.1328 135.274H80.1662C80.1283 135.627 80.0135 135.942 79.8217 136.219C79.63 136.496 79.3731 136.714 79.0511 136.872C78.7315 137.031 78.3563 137.11 77.9254 137.11ZM83.5993 137.11C83.0713 137.11 82.6168 136.991 82.2356 136.751C81.8568 136.51 81.5656 136.177 81.362 135.754C81.1584 135.33 81.0566 134.844 81.0566 134.298C81.0566 133.744 81.1608 133.255 81.3691 132.831C81.5775 132.405 81.871 132.072 82.2498 131.833C82.6286 131.594 83.0749 131.474 83.5886 131.474C84.0029 131.474 84.3722 131.551 84.6966 131.705C85.0209 131.857 85.2825 132.07 85.4814 132.344C85.6826 132.619 85.8021 132.94 85.84 133.307H84.8066C84.7498 133.051 84.6196 132.831 84.416 132.646C84.2148 132.462 83.9449 132.369 83.6064 132.369C83.3104 132.369 83.0512 132.447 82.8287 132.604C82.6085 132.758 82.4368 132.978 82.3137 133.264C82.1906 133.548 82.1291 133.884 82.1291 134.273C82.1291 134.67 82.1895 135.014 82.3102 135.303C82.4309 135.591 82.6014 135.815 82.8216 135.974C83.0441 136.132 83.3057 136.212 83.6064 136.212C83.8076 136.212 83.9899 136.175 84.1532 136.102C84.319 136.026 84.4574 135.918 84.5687 135.778C84.6824 135.639 84.7617 135.471 84.8066 135.274H85.84C85.8021 135.627 85.6873 135.942 85.4956 136.219C85.3038 136.496 85.0469 136.714 84.725 136.872C84.4054 137.031 84.0301 137.11 83.5993 137.11ZM89.2731 137.11C88.7617 137.11 88.3155 136.993 87.9343 136.759C87.5531 136.524 87.2572 136.196 87.0465 135.775C86.8358 135.353 86.7305 134.861 86.7305 134.298C86.7305 133.732 86.8358 133.237 87.0465 132.813C87.2572 132.389 87.5531 132.06 87.9343 131.826C88.3155 131.592 88.7617 131.474 89.2731 131.474C89.7844 131.474 90.2307 131.592 90.6119 131.826C90.993 132.06 91.2889 132.389 91.4996 132.813C91.7103 133.237 91.8157 133.732 91.8157 134.298C91.8157 134.861 91.7103 135.353 91.4996 135.775C91.2889 136.196 90.993 136.524 90.6119 136.759C90.2307 136.993 89.7844 137.11 89.2731 137.11ZM89.2766 136.219C89.6081 136.219 89.8827 136.131 90.1005 135.956C90.3183 135.781 90.4793 135.548 90.5835 135.256C90.69 134.965 90.7433 134.644 90.7433 134.294C90.7433 133.946 90.69 133.626 90.5835 133.335C90.4793 133.042 90.3183 132.806 90.1005 132.629C89.8827 132.451 89.6081 132.362 89.2766 132.362C88.9428 132.362 88.6658 132.451 88.4457 132.629C88.2279 132.806 88.0657 133.042 87.9592 133.335C87.855 133.626 87.8029 133.946 87.8029 134.294C87.8029 134.644 87.855 134.965 87.9592 135.256C88.0657 135.548 88.2279 135.781 88.4457 135.956C88.6658 136.131 88.9428 136.219 89.2766 136.219ZM96.4561 134.738V131.545H97.5215V137H96.4775V136.055H96.4206C96.2952 136.347 96.0939 136.589 95.8169 136.783C95.5423 136.975 95.2002 137.071 94.7907 137.071C94.4403 137.071 94.1301 136.994 93.8603 136.84C93.5927 136.684 93.382 136.453 93.2282 136.148C93.0766 135.842 93.0009 135.465 93.0009 135.015V131.545H94.0627V134.887C94.0627 135.259 94.1657 135.555 94.3716 135.775C94.5776 135.995 94.8451 136.105 95.1742 136.105C95.373 136.105 95.5707 136.055 95.7672 135.956C95.9661 135.857 96.1306 135.706 96.2608 135.505C96.3934 135.304 96.4585 135.048 96.4561 134.738ZM100.01 133.761V137H98.9482V131.545H99.9673V132.433H100.035C100.16 132.144 100.357 131.912 100.624 131.737C100.894 131.562 101.234 131.474 101.643 131.474C102.015 131.474 102.341 131.553 102.62 131.709C102.899 131.863 103.116 132.092 103.27 132.398C103.424 132.703 103.501 133.081 103.501 133.531V137H102.439V133.658C102.439 133.263 102.336 132.954 102.13 132.732C101.924 132.507 101.641 132.394 101.281 132.394C101.035 132.394 100.816 132.447 100.624 132.554C100.435 132.661 100.285 132.817 100.173 133.023C100.064 133.226 100.01 133.473 100.01 133.761ZM107.471 131.545V132.398H104.491V131.545H107.471ZM105.29 130.239H106.352V135.398C106.352 135.604 106.383 135.759 106.445 135.864C106.506 135.965 106.585 136.035 106.683 136.073C106.782 136.109 106.89 136.126 107.006 136.126C107.091 136.126 107.165 136.121 107.229 136.109C107.293 136.097 107.343 136.087 107.379 136.08L107.57 136.957C107.509 136.981 107.421 137.005 107.308 137.028C107.194 137.054 107.052 137.069 106.881 137.071C106.602 137.076 106.342 137.026 106.1 136.922C105.859 136.818 105.663 136.657 105.514 136.439C105.365 136.221 105.29 135.948 105.29 135.619V130.239Z" fill="black"/>
<rect x="68" y="144" width="88" height="3" rx="1.5" fill="#D9D9D9"/>
<rect x="68" y="151" width="70" height="3" rx="1.5" fill="#D9D9D9"/>
<line opacity="0.5" x1="164" y1="168.5" x2="15" y2="168.5" stroke="black"/>
<g clip-path="url(#clip2_29_1405)">
<path d="M153 175L152.295 175.705L154.585 178L152.295 180.295L153 181L156 178L153 175Z" fill="#323232"/>
</g>
<rect x="25" y="176" width="38" height="4" rx="2" fill="#FF00F5"/>
<g filter="url(#filter3_d_29_1405)">
<rect x="177" y="115" width="150" height="73" rx="4" fill="white"/>
<rect x="177.5" y="115.5" width="149" height="72" rx="3.5" stroke="black"/>
</g>
<rect x="186.5" y="125.5" width="37" height="33" rx="3.5" fill="white" stroke="black" stroke-dasharray="2 2"/>
<path d="M230.799 137V129.727H233.391C233.957 129.727 234.426 129.83 234.798 130.036C235.169 130.242 235.447 130.524 235.632 130.881C235.817 131.237 235.909 131.637 235.909 132.082C235.909 132.529 235.816 132.932 235.629 133.289C235.444 133.644 235.165 133.926 234.79 134.134C234.419 134.34 233.951 134.443 233.388 134.443H231.605V133.513H233.288C233.646 133.513 233.936 133.451 234.158 133.328C234.381 133.203 234.544 133.032 234.648 132.817C234.753 132.601 234.805 132.356 234.805 132.082C234.805 131.807 234.753 131.563 234.648 131.35C234.544 131.137 234.38 130.97 234.155 130.849C233.932 130.729 233.639 130.668 233.274 130.668H231.896V137H230.799ZM237.11 137V131.545H238.137V132.412H238.193C238.293 132.118 238.468 131.888 238.719 131.719C238.972 131.549 239.259 131.464 239.578 131.464C239.645 131.464 239.723 131.466 239.813 131.471C239.905 131.476 239.977 131.482 240.029 131.489V132.504C239.987 132.492 239.911 132.479 239.802 132.465C239.693 132.449 239.584 132.44 239.475 132.44C239.224 132.44 239.001 132.494 238.804 132.6C238.61 132.704 238.456 132.85 238.343 133.037C238.229 133.222 238.172 133.432 238.172 133.669V137H237.11ZM243.05 137.11C242.539 137.11 242.093 136.993 241.712 136.759C241.33 136.524 241.035 136.196 240.824 135.775C240.613 135.353 240.508 134.861 240.508 134.298C240.508 133.732 240.613 133.237 240.824 132.813C241.035 132.389 241.33 132.06 241.712 131.826C242.093 131.592 242.539 131.474 243.05 131.474C243.562 131.474 244.008 131.592 244.389 131.826C244.77 132.06 245.066 132.389 245.277 132.813C245.488 133.237 245.593 133.732 245.593 134.298C245.593 134.861 245.488 135.353 245.277 135.775C245.066 136.196 244.77 136.524 244.389 136.759C244.008 136.993 243.562 137.11 243.05 137.11ZM243.054 136.219C243.385 136.219 243.66 136.131 243.878 135.956C244.096 135.781 244.257 135.548 244.361 135.256C244.467 134.965 244.521 134.644 244.521 134.294C244.521 133.946 244.467 133.626 244.361 133.335C244.257 133.042 244.096 132.806 243.878 132.629C243.66 132.451 243.385 132.362 243.054 132.362C242.72 132.362 242.443 132.451 242.223 132.629C242.005 132.806 241.843 133.042 241.737 133.335C241.632 133.626 241.58 133.946 241.58 134.294C241.58 134.644 241.632 134.965 241.737 135.256C241.843 135.548 242.005 135.781 242.223 135.956C242.443 136.131 242.72 136.219 243.054 136.219ZM249.374 131.545V132.398H246.292V131.545H249.374ZM247.137 137V130.913C247.137 130.572 247.211 130.29 247.361 130.065C247.51 129.837 247.707 129.668 247.954 129.557C248.2 129.443 248.467 129.386 248.756 129.386C248.969 129.386 249.152 129.404 249.303 129.44C249.455 129.473 249.567 129.504 249.64 129.532L249.392 130.391C249.342 130.377 249.278 130.361 249.2 130.342C249.122 130.32 249.027 130.31 248.916 130.31C248.658 130.31 248.473 130.374 248.362 130.501C248.253 130.629 248.199 130.814 248.199 131.055V137H247.137ZM250.47 137V131.545H251.531V137H250.47ZM251.006 130.704C250.821 130.704 250.663 130.642 250.53 130.519C250.4 130.394 250.335 130.245 250.335 130.072C250.335 129.897 250.4 129.747 250.53 129.624C250.663 129.499 250.821 129.436 251.006 129.436C251.191 129.436 251.348 129.499 251.478 129.624C251.611 129.747 251.677 129.897 251.677 130.072C251.677 130.245 251.611 130.394 251.478 130.519C251.348 130.642 251.191 130.704 251.006 130.704ZM254.022 129.727V137H252.96V129.727H254.022ZM257.801 137.11C257.264 137.11 256.801 136.995 256.412 136.766C256.027 136.534 255.728 136.208 255.518 135.789C255.309 135.368 255.205 134.874 255.205 134.308C255.205 133.75 255.309 133.257 255.518 132.831C255.728 132.405 256.022 132.072 256.398 131.833C256.777 131.594 257.22 131.474 257.726 131.474C258.034 131.474 258.332 131.525 258.621 131.627C258.91 131.729 259.169 131.889 259.399 132.107C259.629 132.324 259.81 132.607 259.942 132.955C260.075 133.301 260.141 133.721 260.141 134.216V134.592H255.805V133.797H259.101C259.101 133.518 259.044 133.27 258.93 133.055C258.817 132.837 258.657 132.665 258.451 132.54C258.247 132.414 258.008 132.352 257.733 132.352C257.435 132.352 257.175 132.425 256.952 132.572C256.732 132.716 256.562 132.906 256.441 133.14C256.323 133.372 256.263 133.624 256.263 133.896V134.518C256.263 134.882 256.327 135.192 256.455 135.448C256.585 135.704 256.766 135.899 256.998 136.034C257.23 136.167 257.501 136.233 257.812 136.233C258.013 136.233 258.196 136.205 258.362 136.148C258.528 136.089 258.671 136.001 258.792 135.885C258.912 135.769 259.005 135.626 259.069 135.455L260.074 135.636C259.993 135.932 259.849 136.192 259.64 136.414C259.434 136.634 259.175 136.806 258.863 136.929C258.553 137.05 258.199 137.11 257.801 137.11Z" fill="black"/>
<rect x="230" y="144" width="88" height="3" rx="1.5" fill="#D9D9D9"/>
<rect x="230" y="151" width="70" height="3" rx="1.5" fill="#D9D9D9"/>
<line opacity="0.5" x1="326" y1="168.5" x2="177" y2="168.5" stroke="black"/>
<g clip-path="url(#clip3_29_1405)">
<path d="M315 175L314.295 175.705L316.585 178L314.295 180.295L315 181L318 178L315 175Z" fill="#323232"/>
</g>
<rect x="187" y="176" width="38" height="4" rx="2" fill="#FF00F5"/>
<defs>
<filter id="filter0_d_29_1405" x="11" y="29" width="158" height="81" filterUnits="userSpaceOnUse" color-interpolation-filters="sRGB">
<feFlood flood-opacity="0" result="BackgroundImageFix"/>
<feColorMatrix in="SourceAlpha" type="matrix" values="0 0 0 0 0 0 0 0 0 0 0 0 0 0 0 0 0 0 127 0" result="hardAlpha"/>
<feOffset dy="2"/>
<feGaussianBlur stdDeviation="2"/>
<feComposite in2="hardAlpha" operator="out"/>
<feColorMatrix type="matrix" values="0 0 0 0 0 0 0 0 0 0 0 0 0 0 0 0 0 0 0.05 0"/>
<feBlend mode="normal" in2="BackgroundImageFix" result="effect1_dropShadow_29_1405"/>
<feBlend mode="normal" in="SourceGraphic" in2="effect1_dropShadow_29_1405" result="shape"/>
</filter>
<filter id="filter1_d_29_1405" x="173" y="29" width="158" height="81" filterUnits="userSpaceOnUse" color-interpolation-filters="sRGB">
<feFlood flood-opacity="0" result="BackgroundImageFix"/>
<feColorMatrix in="SourceAlpha" type="matrix" values="0 0 0 0 0 0 0 0 0 0 0 0 0 0 0 0 0 0 127 0" result="hardAlpha"/>
<feOffset dy="2"/>
<feGaussianBlur stdDeviation="2"/>
<feComposite in2="hardAlpha" operator="out"/>
<feColorMatrix type="matrix" values="0 0 0 0 0 0 0 0 0 0 0 0 0 0 0 0 0 0 0.05 0"/>
<feBlend mode="normal" in2="BackgroundImageFix" result="effect1_dropShadow_29_1405"/>
<feBlend mode="normal" in="SourceGraphic" in2="effect1_dropShadow_29_1405" result="shape"/>
</filter>
<filter id="filter2_d_29_1405" x="11" y="113" width="158" height="81" filterUnits="userSpaceOnUse" color-interpolation-filters="sRGB">
<feFlood flood-opacity="0" result="BackgroundImageFix"/>
<feColorMatrix in="SourceAlpha" type="matrix" values="0 0 0 0 0 0 0 0 0 0 0 0 0 0 0 0 0 0 127 0" result="hardAlpha"/>
<feOffset dy="2"/>
<feGaussianBlur stdDeviation="2"/>
<feComposite in2="hardAlpha" operator="out"/>
<feColorMatrix type="matrix" values="0 0 0 0 0 0 0 0 0 0 0 0 0 0 0 0 0 0 0.05 0"/>
<feBlend mode="normal" in2="BackgroundImageFix" result="effect1_dropShadow_29_1405"/>
<feBlend mode="normal" in="SourceGraphic" in2="effect1_dropShadow_29_1405" result="shape"/>
</filter>
<filter id="filter3_d_29_1405" x="173" y="113" width="158" height="81" filterUnits="userSpaceOnUse" color-interpolation-filters="sRGB">
<feFlood flood-opacity="0" result="BackgroundImageFix"/>
<feColorMatrix in="SourceAlpha" type="matrix" values="0 0 0 0 0 0 0 0 0 0 0 0 0 0 0 0 0 0 127 0" result="hardAlpha"/>
<feOffset dy="2"/>
<feGaussianBlur stdDeviation="2"/>
<feComposite in2="hardAlpha" operator="out"/>
<feColorMatrix type="matrix" values="0 0 0 0 0 0 0 0 0 0 0 0 0 0 0 0 0 0 0.05 0"/>
<feBlend mode="normal" in2="BackgroundImageFix" result="effect1_dropShadow_29_1405"/>
<feBlend mode="normal" in="SourceGraphic" in2="effect1_dropShadow_29_1405" result="shape"/>
</filter>
<clipPath id="clip0_29_1405">
<rect width="12" height="12" fill="white" transform="translate(148 88)"/>
</clipPath>
<clipPath id="clip1_29_1405">
<rect width="12" height="12" fill="white" transform="translate(310 88)"/>
</clipPath>
<clipPath id="clip2_29_1405">
<rect width="12" height="12" fill="white" transform="translate(148 172)"/>
</clipPath>
<clipPath id="clip3_29_1405">
<rect width="12" height="12" fill="white" transform="translate(310 172)"/>
</clipPath>
</defs>
</svg>
