<svg width="100%" height="100%" viewBox="0 0 342 250" fill="none" xmlns="http://www.w3.org/2000/svg">
<rect x="0.5" y="0.5" width="341" height="249" rx="7.5" fill="white" stroke="black"/>
<path d="M62.8901 58.3945V57H69.4604V58.3945H67.0112V65H65.3394V58.3945H62.8901ZM72.3755 65.1172C71.7583 65.1172 71.2271 64.9922 70.7817 64.7422C70.339 64.4896 69.9979 64.1328 69.7583 63.6719C69.5187 63.2083 69.3989 62.6602 69.3989 62.0273C69.3989 61.4102 69.5187 60.8685 69.7583 60.4023C69.9979 59.9362 70.3351 59.5729 70.77 59.3125C71.2075 59.0521 71.7205 58.9219 72.3091 58.9219C72.7049 58.9219 73.0734 58.9857 73.4146 59.1133C73.7583 59.2383 74.0578 59.4271 74.313 59.6797C74.5708 59.9323 74.7713 60.25 74.9146 60.6328C75.0578 61.013 75.1294 61.4583 75.1294 61.9687V62.4258H70.063V61.3945H73.563C73.563 61.1549 73.5109 60.9427 73.4067 60.7578C73.3026 60.5729 73.158 60.4284 72.9731 60.3242C72.7909 60.2174 72.5786 60.1641 72.3364 60.1641C72.0838 60.1641 71.8599 60.2227 71.6646 60.3398C71.4718 60.4544 71.3208 60.6094 71.2114 60.8047C71.1021 60.9974 71.0461 61.2122 71.0435 61.4492V62.4297C71.0435 62.7266 71.0981 62.9831 71.2075 63.1992C71.3195 63.4154 71.4771 63.582 71.6802 63.6992C71.8833 63.8164 72.1242 63.875 72.4028 63.875C72.5877 63.875 72.757 63.849 72.9106 63.7969C73.0643 63.7448 73.1958 63.6667 73.3052 63.5625C73.4146 63.4583 73.4979 63.3307 73.5552 63.1797L75.0942 63.2812C75.0161 63.651 74.856 63.974 74.6138 64.25C74.3742 64.5234 74.0643 64.737 73.6841 64.8906C73.3065 65.0417 72.8703 65.1172 72.3755 65.1172ZM77.4985 59L78.6001 61.0977L79.729 59H81.436L79.6978 62L81.4829 65H79.7837L78.6001 62.9258L77.436 65H75.7173L77.4985 62L75.7798 59H77.4985ZM85.6157 59V60.25H82.0024V59H85.6157ZM82.8228 57.5625H84.4868V63.1562C84.4868 63.3099 84.5103 63.4297 84.5571 63.5156C84.604 63.599 84.6691 63.6576 84.7524 63.6914C84.8384 63.7253 84.9373 63.7422 85.0493 63.7422C85.1274 63.7422 85.2056 63.7357 85.2837 63.7227C85.3618 63.707 85.4217 63.6953 85.4634 63.6875L85.7251 64.9258C85.6418 64.9518 85.5246 64.9818 85.3735 65.0156C85.2225 65.0521 85.0389 65.0742 84.8228 65.082C84.4217 65.0977 84.0701 65.0443 83.7681 64.9219C83.4686 64.7995 83.2355 64.6094 83.0688 64.3516C82.9022 64.0937 82.8201 63.7682 82.8228 63.375V57.5625ZM89.2456 65V59H90.9097V65H89.2456ZM90.0815 58.2266C89.8341 58.2266 89.6219 58.1445 89.4448 57.9805C89.2703 57.8138 89.1831 57.6146 89.1831 57.3828C89.1831 57.1536 89.2703 56.957 89.4448 56.793C89.6219 56.6263 89.8341 56.543 90.0815 56.543C90.3289 56.543 90.5399 56.6263 90.7144 56.793C90.8914 56.957 90.98 57.1536 90.98 57.3828C90.98 57.6146 90.8914 57.8138 90.7144 57.9805C90.5399 58.1445 90.3289 58.2266 90.0815 58.2266ZM93.9067 61.5313V65H92.2427V59H93.8286V60.0586H93.8989C94.0317 59.7096 94.2544 59.4336 94.5669 59.2305C94.8794 59.0247 95.2583 58.9219 95.7036 58.9219C96.1203 58.9219 96.4836 59.013 96.7935 59.1953C97.1034 59.3776 97.3442 59.638 97.5161 59.9766C97.688 60.3125 97.7739 60.7135 97.7739 61.1797V65H96.1099V61.4766C96.1125 61.1094 96.0187 60.8229 95.8286 60.6172C95.6385 60.4089 95.3768 60.3047 95.0435 60.3047C94.8195 60.3047 94.6216 60.3529 94.4497 60.4492C94.2804 60.5456 94.1476 60.6862 94.0513 60.8711C93.9575 61.0534 93.9093 61.2734 93.9067 61.5313ZM99.0854 67.25V59H100.726V60.0078H100.8C100.873 59.8464 100.979 59.6823 101.117 59.5156C101.257 59.3464 101.44 59.2057 101.664 59.0938C101.89 58.9792 102.171 58.9219 102.507 58.9219C102.945 58.9219 103.348 59.0365 103.718 59.2656C104.088 59.4922 104.384 59.8346 104.605 60.293C104.826 60.7487 104.937 61.3203 104.937 62.0078C104.937 62.6771 104.829 63.2422 104.613 63.7031C104.399 64.1615 104.108 64.5091 103.738 64.7461C103.371 64.9805 102.959 65.0977 102.503 65.0977C102.181 65.0977 101.906 65.0443 101.679 64.9375C101.455 64.8307 101.272 64.6966 101.128 64.5352C100.985 64.3711 100.876 64.2057 100.8 64.0391H100.75V67.25H99.0854ZM100.714 62C100.714 62.3568 100.764 62.668 100.863 62.9336C100.962 63.1992 101.105 63.4062 101.292 63.5547C101.48 63.7005 101.708 63.7734 101.976 63.7734C102.247 63.7734 102.476 63.6992 102.664 63.5508C102.851 63.3997 102.993 63.1914 103.089 62.9258C103.188 62.6576 103.238 62.349 103.238 62C103.238 61.6536 103.19 61.349 103.093 61.0859C102.997 60.8229 102.855 60.6172 102.667 60.4687C102.48 60.3203 102.25 60.2461 101.976 60.2461C101.705 60.2461 101.476 60.3177 101.289 60.4609C101.104 60.6042 100.962 60.8073 100.863 61.0703C100.764 61.3333 100.714 61.6432 100.714 62ZM109.894 62.4453V59H111.558V65H109.96V63.9102H109.898C109.763 64.2617 109.537 64.5443 109.222 64.7578C108.91 64.9714 108.528 65.0781 108.078 65.0781C107.677 65.0781 107.324 64.987 107.019 64.8047C106.714 64.6224 106.476 64.3633 106.304 64.0273C106.135 63.6914 106.049 63.2891 106.046 62.8203V59H107.71V62.5234C107.713 62.8776 107.808 63.1576 107.996 63.3633C108.183 63.569 108.434 63.6719 108.75 63.6719C108.95 63.6719 109.138 63.6263 109.312 63.5352C109.486 63.4414 109.627 63.3034 109.734 63.1211C109.843 62.9388 109.897 62.7135 109.894 62.4453ZM116.081 59V60.25H112.467V59H116.081ZM113.288 57.5625H114.952V63.1562C114.952 63.3099 114.975 63.4297 115.022 63.5156C115.069 63.599 115.134 63.6576 115.217 63.6914C115.303 63.7253 115.402 63.7422 115.514 63.7422C115.592 63.7422 115.67 63.7357 115.749 63.7227C115.827 63.707 115.887 63.6953 115.928 63.6875L116.19 64.9258C116.107 64.9518 115.989 64.9818 115.838 65.0156C115.687 65.0521 115.504 65.0742 115.288 65.082C114.887 65.0977 114.535 65.0443 114.233 64.9219C113.933 64.7995 113.7 64.6094 113.534 64.3516C113.367 64.0937 113.285 63.7682 113.288 63.375V57.5625Z" fill="black"/>
<rect x="62.5" y="73.5" width="217" height="22" rx="3.5" fill="white" stroke="black"/>
<g clip-path="url(#clip0_31_2279)">
<path opacity="0.3" d="M74.5 83.3125C75.2249 83.3125 75.8125 82.7249 75.8125 82C75.8125 81.2751 75.2249 80.6875 74.5 80.6875C73.7751 80.6875 73.1875 81.2751 73.1875 82C73.1875 82.7249 73.7751 83.3125 74.5 83.3125Z" fill="#323232"/>
<path opacity="0.3" d="M74.5 86.3125C72.6438 86.3125 70.6875 87.225 70.6875 87.625V88.3125H78.3125V87.625C78.3125 87.225 76.3563 86.3125 74.5 86.3125V86.3125Z" fill="#323232"/>
<path d="M74.5 85.125C72.8312 85.125 69.5 85.9625 69.5 87.625V89.5H79.5V87.625C79.5 85.9625 76.1688 85.125 74.5 85.125ZM78.3125 88.3125H70.6875V87.625C70.6875 87.225 72.6437 86.3125 74.5 86.3125C76.3563 86.3125 78.3125 87.225 78.3125 87.625V88.3125ZM74.5 84.5C75.8813 84.5 77 83.3813 77 82C77 80.6187 75.8813 79.5 74.5 79.5C73.1187 79.5 72 80.6187 72 82C72 83.3813 73.1187 84.5 74.5 84.5ZM74.5 80.6875C75.225 80.6875 75.8125 81.275 75.8125 82C75.8125 82.725 75.225 83.3125 74.5 83.3125C73.775 83.3125 73.1875 82.725 73.1875 82C73.1875 81.275 73.775 80.6875 74.5 80.6875Z" fill="#323232"/>
</g>
<defs>
<clipPath id="clip0_31_2279">
<rect width="15" height="15" fill="white" transform="translate(67 77)"/>
</clipPath>
</defs>
</svg>
