<svg width="100%" height="100%" viewBox="0 0 342 250" fill="none" xmlns="http://www.w3.org/2000/svg">
<rect x="0.5" y="0.5" width="341" height="249" rx="7.5" fill="white" stroke="black"/>
<path d="M1 9.00001C1 4.58173 4.58172 1 9 1H333C337.418 1 341 4.58172 341 9V241C341 245.418 337.418 249 333 249H9C4.58172 249 1 245.418 1 241V9.00001Z" fill="#BEBEBE"/>
<g filter="url(#filter0_d_11_1946)">
<rect x="21" y="28" width="300" height="38" rx="4" fill="white"/>
<rect x="21.5" y="28.5" width="299" height="37" rx="3.5" stroke="black"/>
</g>
<line x1="170.5" y1="29" x2="170.5" y2="65" stroke="black"/>
<rect x="34" y="38" width="124" height="18" rx="4" fill="white" stroke="black" stroke-width="2" stroke-linecap="round" stroke-dasharray="3 4"/>
<rect x="182" y="38" width="124" height="18" rx="4" fill="white" stroke="black" stroke-width="2" stroke-linecap="round" stroke-dasharray="3 4"/>
<g filter="url(#filter1_d_11_1946)">
<rect x="21" y="83" width="300" height="99" rx="4" fill="white"/>
<rect x="21.5" y="83.5" width="299" height="98" rx="3.5" stroke="black"/>
</g>
<line x1="170.5" y1="84" x2="170.5" y2="132" stroke="black"/>
<line x1="320" y1="132.5" x2="22" y2="132.5" stroke="black"/>
<rect x="34" y="94" width="124" height="27" rx="4" fill="white" stroke="black" stroke-width="2" stroke-linecap="round" stroke-dasharray="3 4"/>
<rect x="182" y="94" width="124" height="27" rx="4" fill="white" stroke="black" stroke-width="2" stroke-linecap="round" stroke-dasharray="3 4"/>
<line x1="170.5" y1="133" x2="170.5" y2="181" stroke="black"/>
<rect x="34" y="144" width="124" height="27" rx="4" fill="white" stroke="black" stroke-width="2" stroke-linecap="round" stroke-dasharray="3 4"/>
<rect x="182" y="144" width="124" height="27" rx="4" fill="white" stroke="black" stroke-width="2" stroke-linecap="round" stroke-dasharray="3 4"/>
<defs>
<filter id="filter0_d_11_1946" x="17" y="26" width="308" height="46" filterUnits="userSpaceOnUse" color-interpolation-filters="sRGB">
<feFlood flood-opacity="0" result="BackgroundImageFix"/>
<feColorMatrix in="SourceAlpha" type="matrix" values="0 0 0 0 0 0 0 0 0 0 0 0 0 0 0 0 0 0 127 0" result="hardAlpha"/>
<feOffset dy="2"/>
<feGaussianBlur stdDeviation="2"/>
<feComposite in2="hardAlpha" operator="out"/>
<feColorMatrix type="matrix" values="0 0 0 0 0 0 0 0 0 0 0 0 0 0 0 0 0 0 0.05 0"/>
<feBlend mode="normal" in2="BackgroundImageFix" result="effect1_dropShadow_11_1946"/>
<feBlend mode="normal" in="SourceGraphic" in2="effect1_dropShadow_11_1946" result="shape"/>
</filter>
<filter id="filter1_d_11_1946" x="17" y="81" width="308" height="107" filterUnits="userSpaceOnUse" color-interpolation-filters="sRGB">
<feFlood flood-opacity="0" result="BackgroundImageFix"/>
<feColorMatrix in="SourceAlpha" type="matrix" values="0 0 0 0 0 0 0 0 0 0 0 0 0 0 0 0 0 0 127 0" result="hardAlpha"/>
<feOffset dy="2"/>
<feGaussianBlur stdDeviation="2"/>
<feComposite in2="hardAlpha" operator="out"/>
<feColorMatrix type="matrix" values="0 0 0 0 0 0 0 0 0 0 0 0 0 0 0 0 0 0 0.05 0"/>
<feBlend mode="normal" in2="BackgroundImageFix" result="effect1_dropShadow_11_1946"/>
<feBlend mode="normal" in="SourceGraphic" in2="effect1_dropShadow_11_1946" result="shape"/>
</filter>
</defs>
</svg>
