<svg width="100%" height="100%" viewBox="0 0 342 250" fill="none" xmlns="http://www.w3.org/2000/svg">
<rect x="0.5" y="0.5" width="341" height="249" rx="7.5" fill="white" stroke="black"/>
<rect x="82" y="6" width="16" height="6" rx="3" fill="#FF00F5"/>
<rect x="105" y="6" width="16" height="6" rx="3" fill="#D9D9D9"/>
<rect x="128" y="6" width="16" height="6" rx="3" fill="#D9D9D9"/>
<rect x="309" y="6" width="16" height="6" rx="3" fill="#D9D9D9"/>
<path d="M67 19H341V241C341 245.418 337.418 249 333 249H67V19Z" fill="#BEBEBE"/>
<rect x="82.5" y="61.5" width="242" height="170" rx="3.5" fill="white" stroke="black" stroke-dasharray="2 2"/>
<path d="M84.1467 44H82.3185L85.647 34.5455H87.7614L91.0945 44H89.2663L86.7411 36.4844H86.6673L84.1467 44ZM84.2067 40.293H89.1925V41.6687H84.2067V40.293ZM93.9371 39.8452V44H92.2659V36.9091H93.8632V38.114H93.9463C94.1094 37.717 94.3695 37.4015 94.7265 37.1676C95.0866 36.9337 95.5313 36.8168 96.0606 36.8168C96.55 36.8168 96.9762 36.9214 97.3394 37.1307C97.7056 37.34 97.9888 37.6431 98.1888 38.0401C98.392 38.4371 98.492 38.9188 98.4889 39.4851V44H96.8177V39.7436C96.8177 39.2696 96.6946 38.8988 96.4484 38.631C96.2053 38.3633 95.8683 38.2294 95.4374 38.2294C95.145 38.2294 94.885 38.294 94.6572 38.4233C94.4326 38.5495 94.2556 38.7326 94.1263 38.9727C94.0001 39.2127 93.9371 39.5036 93.9371 39.8452ZM102.228 44.1431C101.779 44.1431 101.374 44.0631 101.014 43.9031C100.657 43.7399 100.374 43.4999 100.165 43.1829C99.9585 42.8659 99.8554 42.475 99.8554 42.0103C99.8554 41.6102 99.9292 41.2794 100.077 41.0178C100.225 40.7562 100.426 40.5469 100.682 40.3899C100.937 40.233 101.225 40.1145 101.545 40.0344C101.868 39.9513 102.202 39.8913 102.547 39.8544C102.962 39.8113 103.299 39.7728 103.558 39.739C103.816 39.7021 104.004 39.6467 104.121 39.5728C104.241 39.4959 104.301 39.3774 104.301 39.2173V39.1896C104.301 38.8419 104.198 38.5726 103.992 38.3817C103.786 38.1909 103.489 38.0955 103.101 38.0955C102.691 38.0955 102.367 38.1848 102.127 38.3633C101.89 38.5418 101.73 38.7526 101.647 38.9957L100.086 38.7741C100.209 38.3433 100.412 37.9832 100.696 37.6939C100.979 37.4015 101.325 37.183 101.734 37.0384C102.144 36.8906 102.596 36.8168 103.092 36.8168C103.433 36.8168 103.773 36.8568 104.112 36.9368C104.45 37.0168 104.76 37.1491 105.04 37.3338C105.32 37.5154 105.544 37.7631 105.714 38.0771C105.886 38.391 105.972 38.7834 105.972 39.2543V44H104.366V43.0259H104.31C104.209 43.2229 104.066 43.4076 103.881 43.5799C103.699 43.7492 103.47 43.8861 103.193 43.9908C102.919 44.0923 102.598 44.1431 102.228 44.1431ZM102.662 42.9151C102.998 42.9151 103.289 42.849 103.535 42.7166C103.781 42.5812 103.97 42.4027 104.103 42.1811C104.238 41.9595 104.306 41.7179 104.306 41.4563V40.6207C104.253 40.6638 104.164 40.7038 104.038 40.7408C103.915 40.7777 103.776 40.81 103.622 40.8377C103.469 40.8654 103.316 40.89 103.165 40.9116C103.015 40.9331 102.884 40.9516 102.773 40.967C102.524 41.0008 102.301 41.0562 102.104 41.1332C101.907 41.2101 101.751 41.3178 101.637 41.4563C101.523 41.5917 101.467 41.7672 101.467 41.9826C101.467 42.2904 101.579 42.5227 101.804 42.6797C102.028 42.8366 102.314 42.9151 102.662 42.9151ZM109.324 34.5455V44H107.653V34.5455H109.324ZM112.081 46.6591C111.853 46.6591 111.642 46.6406 111.449 46.6037C111.258 46.5698 111.105 46.5298 110.991 46.4837L111.379 45.1818C111.622 45.2526 111.839 45.2865 112.03 45.2834C112.221 45.2803 112.389 45.2203 112.533 45.1033C112.681 44.9895 112.806 44.7987 112.907 44.5309L113.05 44.1477L110.479 36.9091H112.252L113.886 42.2642H113.96L115.599 36.9091H117.376L114.537 44.8587C114.405 45.2341 114.229 45.5558 114.011 45.8235C113.792 46.0943 113.524 46.3005 113.207 46.4421C112.893 46.5868 112.518 46.6591 112.081 46.6591ZM122.073 36.9091V38.2017H117.997V36.9091H122.073ZM119.003 35.2102H120.675V41.8672C120.675 42.0919 120.708 42.2642 120.776 42.3842C120.847 42.5012 120.939 42.5812 121.053 42.6243C121.167 42.6674 121.293 42.6889 121.432 42.6889C121.536 42.6889 121.632 42.6812 121.718 42.6658C121.807 42.6504 121.875 42.6366 121.921 42.6243L122.203 43.9308C122.113 43.9615 121.986 43.9954 121.819 44.0323C121.656 44.0692 121.456 44.0908 121.219 44.0969C120.801 44.1093 120.424 44.0462 120.088 43.9077C119.753 43.7661 119.487 43.5476 119.29 43.2521C119.096 42.9567 119 42.5874 119.003 42.1442V35.2102ZM123.471 44V36.9091H125.142V44H123.471ZM124.311 35.9027C124.046 35.9027 123.819 35.815 123.628 35.6396C123.437 35.4611 123.342 35.2472 123.342 34.9979C123.342 34.7455 123.437 34.5316 123.628 34.3562C123.819 34.1777 124.046 34.0884 124.311 34.0884C124.579 34.0884 124.807 34.1777 124.994 34.3562C125.185 34.5316 125.281 34.7455 125.281 34.9979C125.281 35.2472 125.185 35.4611 124.994 35.6396C124.807 35.815 124.579 35.9027 124.311 35.9027ZM129.954 44.1385C129.246 44.1385 128.638 43.9831 128.13 43.6722C127.625 43.3614 127.236 42.9321 126.962 42.3842C126.691 41.8333 126.556 41.1993 126.556 40.4822C126.556 39.7621 126.694 39.1265 126.971 38.5756C127.248 38.0217 127.639 37.5908 128.144 37.283C128.652 36.9722 129.252 36.8168 129.944 36.8168C130.52 36.8168 131.029 36.9229 131.472 37.1353C131.919 37.3446 132.274 37.6416 132.539 38.0263C132.804 38.4079 132.954 38.8542 132.991 39.3651H131.394C131.329 39.0234 131.175 38.7388 130.932 38.511C130.692 38.2802 130.371 38.1648 129.968 38.1648C129.626 38.1648 129.326 38.2571 129.067 38.4418C128.809 38.6233 128.607 38.8849 128.463 39.2266C128.321 39.5682 128.25 39.9775 128.25 40.4545C128.25 40.9377 128.321 41.3532 128.463 41.701C128.604 42.0457 128.803 42.3119 129.058 42.4996C129.317 42.6843 129.62 42.7766 129.968 42.7766C130.214 42.7766 130.434 42.7305 130.628 42.6381C130.825 42.5427 130.989 42.4058 131.122 42.2273C131.254 42.0488 131.345 41.8318 131.394 41.5763H132.991C132.951 42.078 132.804 42.5227 132.548 42.9105C132.293 43.2952 131.945 43.5968 131.505 43.8153C131.065 44.0308 130.548 44.1385 129.954 44.1385ZM139.968 38.7834L138.445 38.9496C138.401 38.7957 138.326 38.651 138.218 38.5156C138.114 38.3802 137.972 38.271 137.794 38.1879C137.615 38.1048 137.397 38.0632 137.138 38.0632C136.79 38.0632 136.498 38.1386 136.261 38.2894C136.027 38.4402 135.912 38.6357 135.915 38.8757C135.912 39.0819 135.987 39.2496 136.141 39.3789C136.298 39.5082 136.556 39.6143 136.916 39.6974L138.126 39.956C138.797 40.1006 139.295 40.3299 139.622 40.6438C139.951 40.9577 140.117 41.3686 140.12 41.8764C140.117 42.3227 139.986 42.7166 139.728 43.0582C139.472 43.3968 139.117 43.6615 138.661 43.8523C138.206 44.0431 137.683 44.1385 137.092 44.1385C136.224 44.1385 135.525 43.9569 134.996 43.5938C134.467 43.2275 134.151 42.7182 134.05 42.0657L135.679 41.9087C135.753 42.2288 135.91 42.4704 136.15 42.6335C136.39 42.7966 136.703 42.8782 137.087 42.8782C137.484 42.8782 137.803 42.7966 138.043 42.6335C138.286 42.4704 138.408 42.2688 138.408 42.0288C138.408 41.8256 138.329 41.6579 138.172 41.5256C138.018 41.3932 137.778 41.2917 137.452 41.2209L136.242 40.967C135.562 40.8254 135.059 40.5869 134.733 40.2514C134.407 39.9129 134.245 39.4851 134.248 38.968C134.245 38.531 134.364 38.1525 134.604 37.8324C134.847 37.5092 135.184 37.2599 135.615 37.0845C136.049 36.906 136.549 36.8168 137.115 36.8168C137.946 36.8168 138.6 36.9937 139.077 37.3477C139.557 37.7016 139.854 38.1802 139.968 38.7834Z" fill="black"/>
<line x1="66.5" y1="-2.18557e-08" x2="66.5" y2="249" stroke="black"/>
<line x1="67" y1="18.5" x2="341" y2="18.5" stroke="black"/>
<rect x="7" y="6" width="16" height="16" rx="8" fill="#FF00F5"/>
<rect x="9" y="37" width="51" height="5" rx="2.5" fill="#D9D9D9"/>
<rect x="9" y="73" width="51" height="5" rx="2.5" fill="#D9D9D9"/>
<rect x="9" y="85" width="46" height="5" rx="2.5" fill="#D9D9D9"/>
<rect x="9" y="49" width="46" height="5" rx="2.5" fill="#D9D9D9"/>
<rect x="9" y="121" width="46" height="5" rx="2.5" fill="#D9D9D9"/>
<rect x="9" y="61" width="8" height="5" rx="2.5" fill="#747474"/>
<rect x="9" y="109" width="8" height="5" rx="2.5" fill="#747474"/>
<rect x="9" y="97" width="37" height="5" rx="2.5" fill="#D9D9D9"/>
<rect x="9" y="133" width="37" height="5" rx="2.5" fill="#D9D9D9"/>
<rect x="8" y="228" width="51" height="14" rx="4" fill="#FF00F5"/>
<rect x="14" y="234" width="39" height="2" rx="1" fill="white"/>
<path opacity="0.89" d="M1 9.00001C1 4.58173 4.58172 1 9 1H333C337.418 1 341 4.58172 341 9V241C341 245.418 337.418 249 333 249H9C4.58172 249 1 245.418 1 241V9.00001Z" fill="white"/>
<g filter="url(#filter0_d_27_351)">
<rect x="77" y="42" width="188" height="130" rx="4" fill="white"/>
<rect x="77.5" y="42.5" width="187" height="129" rx="3.5" stroke="black"/>
</g>
<rect x="84" y="78" width="16" height="16" rx="3" fill="#E1E1E1"/>
<rect x="109" y="84" width="52" height="4" rx="2" fill="#747474"/>
<line opacity="0.5" x1="78" y1="102.5" x2="264" y2="102.5" stroke="black"/>
<rect x="84" y="112" width="16" height="16" rx="3" fill="#E1E1E1"/>
<rect x="109" y="118" width="44" height="4" rx="2" fill="#FF00F5"/>
<line opacity="0.5" x1="78" y1="136.5" x2="264" y2="136.5" stroke="black"/>
<rect x="84" y="146" width="16" height="16" rx="3" fill="#E1E1E1"/>
<rect x="109" y="152" width="66" height="4" rx="2" fill="#747474"/>
<path opacity="0.5" d="M78 47C78 44.7909 79.7909 43 82 43H260C262.209 43 264 44.7909 264 47V69H78V47Z" fill="#E1E1E1"/>
<g clip-path="url(#clip0_27_351)">
<path d="M254.917 53.6708L254.329 53.0833L252 55.4124L249.671 53.0833L249.083 53.6708L251.413 55.9999L249.083 58.3291L249.671 58.9166L252 56.5874L254.329 58.9166L254.917 58.3291L252.588 55.9999L254.917 53.6708Z" fill="#676767"/>
</g>
<rect x="109" y="54" width="105" height="5" rx="2.5" fill="#D9D9D9"/>
<g clip-path="url(#clip1_27_351)">
<path d="M94.0417 57.1667H93.5808L93.4175 57.0092C93.9892 56.3442 94.3333 55.4808 94.3333 54.5417C94.3333 52.4475 92.6358 50.75 90.5417 50.75C88.4475 50.75 86.75 52.4475 86.75 54.5417C86.75 56.6358 88.4475 58.3333 90.5417 58.3333C91.4808 58.3333 92.3442 57.9892 93.0092 57.4175L93.1667 57.5808V58.0417L96.0833 60.9525L96.9525 60.0833L94.0417 57.1667V57.1667ZM90.5417 57.1667C89.0892 57.1667 87.9167 55.9942 87.9167 54.5417C87.9167 53.0892 89.0892 51.9167 90.5417 51.9167C91.9942 51.9167 93.1667 53.0892 93.1667 54.5417C93.1667 55.9942 91.9942 57.1667 90.5417 57.1667Z" fill="#323232"/>
</g>
<defs>
<filter id="filter0_d_27_351" x="73" y="40" width="196" height="138" filterUnits="userSpaceOnUse" color-interpolation-filters="sRGB">
<feFlood flood-opacity="0" result="BackgroundImageFix"/>
<feColorMatrix in="SourceAlpha" type="matrix" values="0 0 0 0 0 0 0 0 0 0 0 0 0 0 0 0 0 0 127 0" result="hardAlpha"/>
<feOffset dy="2"/>
<feGaussianBlur stdDeviation="2"/>
<feComposite in2="hardAlpha" operator="out"/>
<feColorMatrix type="matrix" values="0 0 0 0 0 0 0 0 0 0 0 0 0 0 0 0 0 0 0.05 0"/>
<feBlend mode="normal" in2="BackgroundImageFix" result="effect1_dropShadow_27_351"/>
<feBlend mode="normal" in="SourceGraphic" in2="effect1_dropShadow_27_351" result="shape"/>
</filter>
<clipPath id="clip0_27_351">
<rect width="10" height="10" fill="white" transform="translate(247 51)"/>
</clipPath>
<clipPath id="clip1_27_351">
<rect width="14" height="14" fill="white" transform="translate(85 49)"/>
</clipPath>
</defs>
</svg>
