<svg width="100%" height="100%" viewBox="0 0 342 250" fill="none" xmlns="http://www.w3.org/2000/svg">
<rect x="0.5" y="0.5" width="341" height="249" rx="7.5" fill="white" stroke="black"/>
<path d="M1 9.00001C1 4.58173 4.58172 1 9 1H333C337.418 1 341 4.58172 341 9V241C341 245.418 337.418 249 333 249H9C4.58172 249 1 245.418 1 241V9.00001Z" fill="#BEBEBE"/>
<g clip-path="url(#clip0_27_540)">
<path d="M242 115H244V109H242V115ZM243 100C237.48 100 233 104.48 233 110C233 115.52 237.48 120 243 120C248.52 120 253 115.52 253 110C253 104.48 248.52 100 243 100ZM243 118C238.59 118 235 114.41 235 110C235 105.59 238.59 102 243 102C247.41 102 251 105.59 251 110C251 114.41 247.41 118 243 118ZM242 107H244V105H242V107Z" fill="#FF00F5"/>
</g>
<g filter="url(#filter0_d_27_540)">
<path d="M75 82.5V52C75 49.7909 76.7909 48 79 48H263.5C265.709 48 267.5 49.7909 267.5 52V82.5C267.5 84.7091 265.715 86.5 263.505 86.5H248.5C248.073 86.5 244.362 91.608 243.289 93.0972C243.106 93.3518 242.814 93.5 242.5 93.5C242.186 93.5 241.894 93.3518 241.711 93.0972C240.638 91.608 236.927 86.5 236.5 86.5H78.9975C76.7884 86.5 75 84.7091 75 82.5Z" fill="white"/>
<path d="M75.5 82.5V52C75.5 50.067 77.067 48.5 79 48.5H263.5C265.433 48.5 267 50.067 267 52V82.5C267 84.4339 265.438 86 263.505 86H248.5C248.374 86 248.276 86.0432 248.228 86.0668C248.173 86.0944 248.124 86.1273 248.085 86.1562C248.007 86.2143 247.925 86.2884 247.846 86.3666C247.686 86.525 247.49 86.7438 247.275 86.9985C246.842 87.5105 246.298 88.2037 245.739 88.9371C244.62 90.4057 243.421 92.0594 242.884 92.8049C242.795 92.9279 242.654 93 242.5 93C242.346 93 242.205 92.9279 242.116 92.8049C241.579 92.0594 240.38 90.4057 239.261 88.9371C238.702 88.2037 238.158 87.5105 237.725 86.9985C237.51 86.7438 237.314 86.525 237.154 86.3666C237.075 86.2884 236.993 86.2143 236.915 86.1562C236.876 86.1273 236.827 86.0944 236.772 86.0668C236.724 86.0432 236.626 86 236.5 86H78.9975C77.0649 86 75.5 84.4334 75.5 82.5Z" stroke="black"/>
</g>
<rect x="88" y="59" width="75" height="6" rx="3" fill="#676767"/>
<rect opacity="0.8" x="88" y="71" width="110" height="5" rx="2.5" fill="#D9D9D9"/>
<defs>
<filter id="filter0_d_27_540" x="71" y="46" width="200.5" height="53.5" filterUnits="userSpaceOnUse" color-interpolation-filters="sRGB">
<feFlood flood-opacity="0" result="BackgroundImageFix"/>
<feColorMatrix in="SourceAlpha" type="matrix" values="0 0 0 0 0 0 0 0 0 0 0 0 0 0 0 0 0 0 127 0" result="hardAlpha"/>
<feOffset dy="2"/>
<feGaussianBlur stdDeviation="2"/>
<feComposite in2="hardAlpha" operator="out"/>
<feColorMatrix type="matrix" values="0 0 0 0 0 0 0 0 0 0 0 0 0 0 0 0 0 0 0.05 0"/>
<feBlend mode="normal" in2="BackgroundImageFix" result="effect1_dropShadow_27_540"/>
<feBlend mode="normal" in="SourceGraphic" in2="effect1_dropShadow_27_540" result="shape"/>
</filter>
<clipPath id="clip0_27_540">
<rect width="24" height="24" fill="white" transform="translate(231 98)"/>
</clipPath>
</defs>
</svg>
