<svg width="100%" height="100%" viewBox="0 0 342 250" fill="none" xmlns="http://www.w3.org/2000/svg">
<rect x="0.5" y="0.5" width="341" height="249" rx="7.5" fill="white" stroke="black"/>
<path d="M1 9.00001C1 4.58173 4.58172 1 9 1H333C337.418 1 341 4.58172 341 9V241C341 245.418 337.418 249 333 249H9C4.58172 249 1 245.418 1 241V9.00001Z" fill="white"/>
<rect x="65" y="95" width="211" height="9" rx="4.5" fill="#D9D9D9"/>
<rect x="65" y="92" width="129" height="15" rx="7.5" fill="#FF00F5"/>
<path opacity="0.65" d="M68.0969 119.144C67.5472 119.142 67.0742 119.006 66.6779 118.738C66.2837 118.469 65.9801 118.081 65.767 117.571C65.5561 117.062 65.4517 116.45 65.4538 115.734C65.4538 115.02 65.5593 114.412 65.7702 113.909C65.9833 113.406 66.2869 113.023 66.6811 112.761C67.0774 112.497 67.5494 112.365 68.0969 112.365C68.6445 112.365 69.1154 112.497 69.5096 112.761C69.9059 113.026 70.2106 113.409 70.4237 113.912C70.6367 114.413 70.7422 115.02 70.7401 115.734C70.7401 116.452 70.6335 117.065 70.4205 117.575C70.2095 118.084 69.907 118.473 69.5128 118.741C69.1186 119.01 68.6467 119.144 68.0969 119.144ZM68.0969 117.996C68.4719 117.996 68.7713 117.808 68.995 117.431C69.2188 117.054 69.3295 116.488 69.3274 115.734C69.3274 115.237 69.2763 114.824 69.174 114.494C69.0739 114.163 68.9311 113.915 68.7457 113.749C68.5625 113.583 68.3462 113.5 68.0969 113.5C67.7241 113.5 67.4258 113.686 67.2021 114.059C66.9783 114.432 66.8654 114.99 66.8633 115.734C66.8633 116.237 66.9134 116.656 67.0135 116.993C67.1158 117.327 67.2596 117.579 67.445 117.747C67.6303 117.913 67.8477 117.996 68.0969 117.996Z" fill="#747474"/>
<path opacity="0.8" d="M262.378 110.455V117H260.994V111.768H260.956L259.457 112.708V111.48L261.077 110.455H262.378ZM266.5 117.144C265.951 117.142 265.478 117.006 265.081 116.738C264.687 116.469 264.383 116.081 264.17 115.571C263.959 115.062 263.855 114.45 263.857 113.734C263.857 113.02 263.963 112.412 264.174 111.909C264.387 111.406 264.69 111.023 265.084 110.761C265.481 110.497 265.953 110.365 266.5 110.365C267.048 110.365 267.519 110.497 267.913 110.761C268.309 111.026 268.614 111.409 268.827 111.912C269.04 112.413 269.146 113.02 269.143 113.734C269.143 114.452 269.037 115.065 268.824 115.575C268.613 116.084 268.31 116.473 267.916 116.741C267.522 117.01 267.05 117.144 266.5 117.144ZM266.5 115.996C266.875 115.996 267.175 115.808 267.398 115.431C267.622 115.054 267.733 114.488 267.731 113.734C267.731 113.237 267.68 112.824 267.577 112.494C267.477 112.163 267.334 111.915 267.149 111.749C266.966 111.583 266.75 111.5 266.5 111.5C266.127 111.5 265.829 111.686 265.605 112.059C265.382 112.432 265.269 112.99 265.267 113.734C265.267 114.237 265.317 114.656 265.417 114.993C265.519 115.327 265.663 115.579 265.848 115.747C266.034 115.913 266.251 115.996 266.5 115.996ZM272.697 117.144C272.147 117.142 271.674 117.006 271.278 116.738C270.883 116.469 270.58 116.081 270.367 115.571C270.156 115.062 270.051 114.45 270.053 113.734C270.053 113.02 270.159 112.412 270.37 111.909C270.583 111.406 270.887 111.023 271.281 110.761C271.677 110.497 272.149 110.365 272.697 110.365C273.244 110.365 273.715 110.497 274.109 110.761C274.506 111.026 274.81 111.409 275.023 111.912C275.236 112.413 275.342 113.02 275.34 113.734C275.34 114.452 275.233 115.065 275.02 115.575C274.809 116.084 274.507 116.473 274.112 116.741C273.718 117.01 273.246 117.144 272.697 117.144ZM272.697 115.996C273.072 115.996 273.371 115.808 273.595 115.431C273.818 115.054 273.929 114.488 273.927 113.734C273.927 113.237 273.876 112.824 273.774 112.494C273.673 112.163 273.531 111.915 273.345 111.749C273.162 111.583 272.946 111.5 272.697 111.5C272.324 111.5 272.025 111.686 271.802 112.059C271.578 112.432 271.465 112.99 271.463 113.734C271.463 114.237 271.513 114.656 271.613 114.993C271.715 115.327 271.859 115.579 272.045 115.747C272.23 115.913 272.447 115.996 272.697 115.996Z" fill="#747474"/>
<path d="M65.6953 83V75H68.8516C69.4583 75 69.9753 75.1159 70.4023 75.3477C70.8294 75.5768 71.1549 75.8958 71.3789 76.3047C71.6055 76.7109 71.7188 77.1797 71.7188 77.7109C71.7188 78.2422 71.6042 78.7109 71.375 79.1172C71.1458 79.5234 70.8138 79.8398 70.3789 80.0664C69.9466 80.293 69.4232 80.4062 68.8086 80.4062H66.7969V79.0508H68.5352C68.8607 79.0508 69.1289 78.9948 69.3398 78.8828C69.5534 78.7682 69.7122 78.6107 69.8164 78.4102C69.9232 78.207 69.9766 77.974 69.9766 77.7109C69.9766 77.4453 69.9232 77.2135 69.8164 77.0156C69.7122 76.8151 69.5534 76.6602 69.3398 76.5508C69.1263 76.4388 68.8555 76.3828 68.5273 76.3828H67.3867V83H65.6953ZM72.7861 83V77H74.3994V78.0469H74.4619C74.5713 77.6745 74.7549 77.3932 75.0127 77.2031C75.2705 77.0104 75.5674 76.9141 75.9033 76.9141C75.9867 76.9141 76.0765 76.9193 76.1729 76.9297C76.2692 76.9401 76.3538 76.9544 76.4268 76.9727V78.4492C76.3486 78.4258 76.2406 78.4049 76.1025 78.3867C75.9645 78.3685 75.8382 78.3594 75.7236 78.3594C75.4788 78.3594 75.2601 78.4128 75.0674 78.5195C74.8773 78.6237 74.7262 78.7695 74.6143 78.957C74.5049 79.1445 74.4502 79.3607 74.4502 79.6055V83H72.7861ZM79.7188 83.1172C79.112 83.1172 78.5872 82.9883 78.1445 82.7305C77.7044 82.4701 77.3646 82.1081 77.125 81.6445C76.8854 81.1784 76.7656 80.638 76.7656 80.0234C76.7656 79.4036 76.8854 78.862 77.125 78.3984C77.3646 77.9323 77.7044 77.5703 78.1445 77.3125C78.5872 77.0521 79.112 76.9219 79.7188 76.9219C80.3255 76.9219 80.849 77.0521 81.2891 77.3125C81.7318 77.5703 82.0729 77.9323 82.3125 78.3984C82.5521 78.862 82.6719 79.4036 82.6719 80.0234C82.6719 80.638 82.5521 81.1784 82.3125 81.6445C82.0729 82.1081 81.7318 82.4701 81.2891 82.7305C80.849 82.9883 80.3255 83.1172 79.7188 83.1172ZM79.7266 81.8281C80.0026 81.8281 80.2331 81.75 80.418 81.5938C80.6029 81.4349 80.7422 81.2187 80.8359 80.9453C80.9323 80.6719 80.9805 80.3607 80.9805 80.0117C80.9805 79.6628 80.9323 79.3516 80.8359 79.0781C80.7422 78.8047 80.6029 78.5885 80.418 78.4297C80.2331 78.2708 80.0026 78.1914 79.7266 78.1914C79.4479 78.1914 79.2135 78.2708 79.0234 78.4297C78.8359 78.5885 78.694 78.8047 78.5977 79.0781C78.5039 79.3516 78.457 79.6628 78.457 80.0117C78.457 80.3607 78.5039 80.6719 78.5977 80.9453C78.694 81.2187 78.8359 81.4349 79.0234 81.5938C79.2135 81.75 79.4479 81.8281 79.7266 81.8281ZM86.457 85.375C85.918 85.375 85.4557 85.3008 85.0703 85.1523C84.6875 85.0065 84.3828 84.8073 84.1563 84.5547C83.9297 84.3021 83.7826 84.0182 83.7148 83.7031L85.2539 83.4961C85.3008 83.6159 85.375 83.7279 85.4766 83.832C85.5781 83.9362 85.7122 84.0195 85.8789 84.082C86.0482 84.1471 86.2539 84.1797 86.4961 84.1797C86.8581 84.1797 87.1563 84.0911 87.3906 83.9141C87.6276 83.7396 87.7461 83.4466 87.7461 83.0352V81.9375H87.6758C87.6029 82.1042 87.4935 82.2617 87.3477 82.4102C87.2018 82.5586 87.0143 82.6797 86.7852 82.7734C86.556 82.8672 86.2826 82.9141 85.9648 82.9141C85.5143 82.9141 85.1042 82.8099 84.7344 82.6016C84.3672 82.3906 84.0742 82.069 83.8555 81.6367C83.6393 81.2018 83.5313 80.6523 83.5313 79.9883C83.5313 79.3086 83.6419 78.7409 83.8633 78.2852C84.0846 77.8294 84.3789 77.4883 84.7461 77.2617C85.1159 77.0352 85.5208 76.9219 85.9609 76.9219C86.2969 76.9219 86.5781 76.9792 86.8047 77.0938C87.0313 77.2057 87.2135 77.3464 87.3516 77.5156C87.4922 77.6823 87.6003 77.8464 87.6758 78.0078H87.7383V77H89.3906V83.0586C89.3906 83.569 89.2656 83.9961 89.0156 84.3398C88.7656 84.6836 88.4193 84.9414 87.9766 85.1133C87.5365 85.2878 87.0299 85.375 86.457 85.375ZM86.4922 81.6641C86.7604 81.6641 86.987 81.5977 87.1719 81.4648C87.3594 81.3294 87.5026 81.1367 87.6016 80.8867C87.7031 80.6341 87.7539 80.332 87.7539 79.9805C87.7539 79.6289 87.7044 79.3242 87.6055 79.0664C87.5065 78.806 87.3633 78.6042 87.1758 78.4609C86.9883 78.3177 86.7604 78.2461 86.4922 78.2461C86.2188 78.2461 85.9883 78.3203 85.8008 78.4687C85.6133 78.6146 85.4714 78.8177 85.375 79.0781C85.2786 79.3385 85.2305 79.6393 85.2305 79.9805C85.2305 80.3268 85.2786 80.6263 85.375 80.8789C85.474 81.1289 85.6159 81.3229 85.8008 81.4609C85.9883 81.5964 86.2188 81.6641 86.4922 81.6641ZM90.7148 83V77H92.3281V78.0469H92.3906C92.5 77.6745 92.6836 77.3932 92.9414 77.2031C93.1992 77.0104 93.4961 76.9141 93.832 76.9141C93.9154 76.9141 94.0052 76.9193 94.1016 76.9297C94.1979 76.9401 94.2826 76.9544 94.3555 76.9727V78.4492C94.2773 78.4258 94.1693 78.4049 94.0313 78.3867C93.8932 78.3685 93.7669 78.3594 93.6523 78.3594C93.4076 78.3594 93.1888 78.4128 92.9961 78.5195C92.806 78.6237 92.6549 78.7695 92.543 78.957C92.4336 79.1445 92.3789 79.3607 92.3789 79.6055V83H90.7148ZM97.6709 83.1172C97.0537 83.1172 96.5225 82.9922 96.0771 82.7422C95.6344 82.4896 95.2933 82.1328 95.0537 81.6719C94.8141 81.2083 94.6943 80.6602 94.6943 80.0273C94.6943 79.4102 94.8141 78.8685 95.0537 78.4023C95.2933 77.9362 95.6305 77.5729 96.0654 77.3125C96.5029 77.0521 97.016 76.9219 97.6045 76.9219C98.0003 76.9219 98.3688 76.9857 98.71 77.1133C99.0537 77.2383 99.3532 77.4271 99.6084 77.6797C99.8662 77.9323 100.067 78.25 100.21 78.6328C100.353 79.013 100.425 79.4583 100.425 79.9687V80.4258H95.3584V79.3945H98.8584C98.8584 79.1549 98.8063 78.9427 98.7021 78.7578C98.598 78.5729 98.4535 78.4284 98.2686 78.3242C98.0863 78.2174 97.874 78.1641 97.6318 78.1641C97.3792 78.1641 97.1553 78.2227 96.96 78.3398C96.7673 78.4544 96.6162 78.6094 96.5068 78.8047C96.3975 78.9974 96.3415 79.2122 96.3389 79.4492V80.4297C96.3389 80.7266 96.3936 80.9831 96.5029 81.1992C96.6149 81.4154 96.7725 81.582 96.9756 81.6992C97.1787 81.8164 97.4196 81.875 97.6982 81.875C97.8831 81.875 98.0524 81.849 98.2061 81.7969C98.3597 81.7448 98.4912 81.6667 98.6006 81.5625C98.71 81.4583 98.7933 81.3307 98.8506 81.1797L100.39 81.2812C100.312 81.651 100.151 81.974 99.9092 82.25C99.6696 82.5234 99.3597 82.737 98.9795 82.8906C98.6019 83.0417 98.1657 83.1172 97.6709 83.1172ZM106.503 78.7109L104.979 78.8047C104.953 78.6745 104.897 78.5573 104.812 78.4531C104.726 78.3464 104.612 78.2617 104.472 78.1992C104.334 78.1341 104.168 78.1016 103.976 78.1016C103.718 78.1016 103.5 78.1562 103.323 78.2656C103.146 78.3724 103.058 78.5156 103.058 78.6953C103.058 78.8385 103.115 78.9596 103.229 79.0586C103.344 79.1576 103.541 79.237 103.819 79.2969L104.905 79.5156C105.489 79.6354 105.924 79.8281 106.21 80.0937C106.496 80.3594 106.64 80.7083 106.64 81.1406C106.64 81.5339 106.524 81.8789 106.292 82.1758C106.063 82.4727 105.748 82.7044 105.347 82.8711C104.948 83.0352 104.489 83.1172 103.968 83.1172C103.174 83.1172 102.541 82.9518 102.069 82.6211C101.601 82.2878 101.326 81.8346 101.245 81.2617L102.882 81.1758C102.931 81.418 103.051 81.6029 103.241 81.7305C103.431 81.8555 103.675 81.918 103.972 81.918C104.263 81.918 104.498 81.862 104.675 81.75C104.854 81.6354 104.946 81.4883 104.948 81.3086C104.946 81.1576 104.882 81.0339 104.757 80.9375C104.632 80.8385 104.439 80.763 104.179 80.7109L103.14 80.5039C102.554 80.3867 102.118 80.1836 101.831 79.8945C101.547 79.6055 101.405 79.237 101.405 78.7891C101.405 78.4036 101.509 78.0716 101.718 77.793C101.929 77.5143 102.224 77.2995 102.604 77.1484C102.987 76.9974 103.435 76.9219 103.948 76.9219C104.706 76.9219 105.302 77.082 105.737 77.4023C106.175 77.7227 106.43 78.1589 106.503 78.7109ZM112.68 78.7109L111.156 78.8047C111.13 78.6745 111.074 78.5573 110.988 78.4531C110.902 78.3464 110.789 78.2617 110.648 78.1992C110.51 78.1341 110.345 78.1016 110.152 78.1016C109.895 78.1016 109.677 78.1562 109.5 78.2656C109.323 78.3724 109.234 78.5156 109.234 78.6953C109.234 78.8385 109.292 78.9596 109.406 79.0586C109.521 79.1576 109.717 79.237 109.996 79.2969L111.082 79.5156C111.665 79.6354 112.1 79.8281 112.387 80.0937C112.673 80.3594 112.816 80.7083 112.816 81.1406C112.816 81.5339 112.701 81.8789 112.469 82.1758C112.24 82.4727 111.924 82.7044 111.523 82.8711C111.125 83.0352 110.665 83.1172 110.145 83.1172C109.35 83.1172 108.717 82.9518 108.246 82.6211C107.777 82.2878 107.503 81.8346 107.422 81.2617L109.059 81.1758C109.108 81.418 109.228 81.6029 109.418 81.7305C109.608 81.8555 109.852 81.918 110.148 81.918C110.44 81.918 110.674 81.862 110.852 81.75C111.031 81.6354 111.122 81.4883 111.125 81.3086C111.122 81.1576 111.059 81.0339 110.934 80.9375C110.809 80.8385 110.616 80.763 110.355 80.7109L109.316 80.5039C108.73 80.3867 108.294 80.1836 108.008 79.8945C107.724 79.6055 107.582 79.237 107.582 78.7891C107.582 78.4036 107.686 78.0716 107.895 77.793C108.105 77.5143 108.401 77.2995 108.781 77.1484C109.164 76.9974 109.612 76.9219 110.125 76.9219C110.883 76.9219 111.479 77.082 111.914 77.4023C112.352 77.7227 112.607 78.1589 112.68 78.7109ZM116.441 83V75H118.105V78.0078H118.156C118.229 77.8464 118.335 77.6823 118.473 77.5156C118.613 77.3464 118.796 77.2057 119.02 77.0938C119.246 76.9792 119.527 76.9219 119.863 76.9219C120.301 76.9219 120.704 77.0365 121.074 77.2656C121.444 77.4922 121.74 77.8346 121.961 78.293C122.182 78.7487 122.293 79.3203 122.293 80.0078C122.293 80.6771 122.185 81.2422 121.969 81.7031C121.755 82.1615 121.464 82.5091 121.094 82.7461C120.727 82.9805 120.315 83.0977 119.859 83.0977C119.536 83.0977 119.262 83.0443 119.035 82.9375C118.811 82.8307 118.628 82.6966 118.484 82.5352C118.341 82.3711 118.232 82.2057 118.156 82.0391H118.082V83H116.441ZM118.07 80C118.07 80.3568 118.12 80.668 118.219 80.9336C118.318 81.1992 118.461 81.4062 118.648 81.5547C118.836 81.7005 119.064 81.7734 119.332 81.7734C119.603 81.7734 119.832 81.6992 120.02 81.5508C120.207 81.3997 120.349 81.1914 120.445 80.9258C120.544 80.6576 120.594 80.349 120.594 80C120.594 79.6536 120.546 79.349 120.449 79.0859C120.353 78.8229 120.211 78.6172 120.023 78.4687C119.836 78.3203 119.605 78.2461 119.332 78.2461C119.061 78.2461 118.832 78.3177 118.645 78.4609C118.46 78.6042 118.318 78.8073 118.219 79.0703C118.12 79.3333 118.07 79.6432 118.07 80ZM125.114 83.1133C124.731 83.1133 124.39 83.0469 124.091 82.9141C123.791 82.7786 123.554 82.5794 123.38 82.3164C123.208 82.0508 123.122 81.7201 123.122 81.3242C123.122 80.9909 123.183 80.7109 123.306 80.4844C123.428 80.2578 123.595 80.0755 123.806 79.9375C124.017 79.7995 124.256 79.6953 124.524 79.625C124.795 79.5547 125.079 79.5052 125.376 79.4766C125.725 79.4401 126.006 79.4062 126.22 79.375C126.433 79.3411 126.588 79.2917 126.685 79.2266C126.781 79.1615 126.829 79.0651 126.829 78.9375V78.9141C126.829 78.6667 126.751 78.4753 126.595 78.3398C126.441 78.2044 126.222 78.1367 125.938 78.1367C125.639 78.1367 125.401 78.2031 125.224 78.3359C125.047 78.4661 124.929 78.6302 124.872 78.8281L123.333 78.7031C123.411 78.3385 123.565 78.0234 123.794 77.7578C124.023 77.4896 124.319 77.2839 124.681 77.1406C125.045 76.9948 125.467 76.9219 125.946 76.9219C126.28 76.9219 126.599 76.9609 126.903 77.0391C127.211 77.1172 127.483 77.2383 127.72 77.4023C127.959 77.5664 128.148 77.7773 128.286 78.0352C128.424 78.2904 128.493 78.5964 128.493 78.9531V83H126.915V82.168H126.868C126.772 82.3555 126.643 82.5208 126.481 82.6641C126.32 82.8047 126.126 82.9154 125.899 82.9961C125.673 83.0742 125.411 83.1133 125.114 83.1133ZM125.591 81.9648C125.836 81.9648 126.052 81.9167 126.239 81.8203C126.427 81.7214 126.574 81.5885 126.681 81.4219C126.787 81.2552 126.841 81.0664 126.841 80.8555V80.2188C126.789 80.2526 126.717 80.2839 126.626 80.3125C126.537 80.3385 126.437 80.3633 126.325 80.3867C126.213 80.4076 126.101 80.4271 125.989 80.4453C125.877 80.4609 125.776 80.4753 125.685 80.4883C125.489 80.5169 125.319 80.5625 125.173 80.625C125.027 80.6875 124.914 80.7721 124.833 80.8789C124.752 80.9831 124.712 81.1133 124.712 81.2695C124.712 81.4961 124.794 81.6693 124.958 81.7891C125.125 81.9062 125.336 81.9648 125.591 81.9648ZM129.784 83V77H131.397V78.0469H131.46C131.569 77.6745 131.753 77.3932 132.011 77.2031C132.269 77.0104 132.565 76.9141 132.901 76.9141C132.985 76.9141 133.075 76.9193 133.171 76.9297C133.267 76.9401 133.352 76.9544 133.425 76.9727V78.4492C133.347 78.4258 133.239 78.4049 133.101 78.3867C132.963 78.3685 132.836 78.3594 132.722 78.3594C132.477 78.3594 132.258 78.4128 132.065 78.5195C131.875 78.6237 131.724 78.7695 131.612 78.957C131.503 79.1445 131.448 79.3607 131.448 79.6055V83H129.784ZM139.277 78.7109L137.754 78.8047C137.728 78.6745 137.672 78.5573 137.586 78.4531C137.5 78.3464 137.387 78.2617 137.246 78.1992C137.108 78.1341 136.943 78.1016 136.75 78.1016C136.492 78.1016 136.275 78.1562 136.098 78.2656C135.921 78.3724 135.832 78.5156 135.832 78.6953C135.832 78.8385 135.889 78.9596 136.004 79.0586C136.118 79.1576 136.315 79.237 136.594 79.2969L137.68 79.5156C138.263 79.6354 138.698 79.8281 138.984 80.0937C139.271 80.3594 139.414 80.7083 139.414 81.1406C139.414 81.5339 139.298 81.8789 139.066 82.1758C138.837 82.4727 138.522 82.7044 138.121 82.8711C137.723 83.0352 137.263 83.1172 136.742 83.1172C135.948 83.1172 135.315 82.9518 134.844 82.6211C134.375 82.2878 134.1 81.8346 134.02 81.2617L135.656 81.1758C135.706 81.418 135.826 81.6029 136.016 81.7305C136.206 81.8555 136.449 81.918 136.746 81.918C137.038 81.918 137.272 81.862 137.449 81.75C137.629 81.6354 137.72 81.4883 137.723 81.3086C137.72 81.1576 137.656 81.0339 137.531 80.9375C137.406 80.8385 137.214 80.763 136.953 80.7109L135.914 80.5039C135.328 80.3867 134.892 80.1836 134.605 79.8945C134.322 79.6055 134.18 79.237 134.18 78.7891C134.18 78.4036 134.284 78.0716 134.492 77.793C134.703 77.5143 134.999 77.2995 135.379 77.1484C135.762 76.9974 136.21 76.9219 136.723 76.9219C137.48 76.9219 138.077 77.082 138.512 77.4023C138.949 77.7227 139.204 78.1589 139.277 78.7109Z" fill="black"/>
</svg>
