<svg width="100%" height="100%" viewBox="0 0 342 250" fill="none" xmlns="http://www.w3.org/2000/svg">
<rect x="0.5" y="0.5" width="341" height="249" rx="7.5" fill="white" stroke="black"/>
<path d="M1 9.00001C1 4.58173 4.58172 1 9 1H333C337.418 1 341 4.58172 341 9V241C341 245.418 337.418 249 333 249H9C4.58172 249 1 245.418 1 241V9.00001Z" fill="#BEBEBE"/>
<g filter="url(#filter0_d_29_1120)">
<rect x="90.5" y="31" width="75" height="80" rx="4" fill="white"/>
<rect x="91" y="31.5" width="74" height="79" rx="3.5" stroke="black"/>
</g>
<rect x="97.7021" y="37" width="16" height="16" rx="2" fill="#E1E1E1"/>
<rect x="146.5" y="37" width="13" height="4" rx="2" fill="#E1E1E1"/>
<rect x="97" y="76" width="49" height="4" rx="2" fill="#E1E1E1"/>
<rect x="97" y="67" width="17" height="6" rx="3" fill="#747474"/>
<rect x="97.5" y="97" width="60" height="4" rx="2" fill="#D9D9D9"/>
<rect x="97.5" y="95" width="27" height="8" rx="4" fill="#FF00F5"/>
<g filter="url(#filter1_d_29_1120)">
<rect x="177.5" y="31" width="75" height="80" rx="4" fill="white"/>
<rect x="178" y="31.5" width="74" height="79" rx="3.5" stroke="black"/>
</g>
<rect x="184.702" y="37" width="16" height="16" rx="2" fill="#E1E1E1"/>
<rect x="233.5" y="37" width="13" height="4" rx="2" fill="#E1E1E1"/>
<rect x="184" y="76" width="20" height="4" rx="2" fill="#E1E1E1"/>
<rect x="184" y="67" width="34" height="6" rx="3" fill="#747474"/>
<rect x="184.5" y="97" width="60" height="4" rx="2" fill="#D9D9D9"/>
<rect x="184" y="95" width="38" height="8" rx="4" fill="#FF00F5"/>
<g filter="url(#filter2_d_29_1120)">
<rect x="90" y="120" width="75" height="80" rx="4" fill="white"/>
<rect x="90.5" y="120.5" width="74" height="79" rx="3.5" stroke="black"/>
</g>
<rect x="97.2021" y="126" width="16" height="16" rx="2" fill="#E1E1E1"/>
<rect x="146" y="126" width="13" height="4" rx="2" fill="#E1E1E1"/>
<rect x="96.9756" y="165" width="42" height="4" rx="2" fill="#E1E1E1"/>
<rect x="97" y="156" width="27" height="6" rx="3" fill="#747474"/>
<rect x="97" y="186" width="60" height="4" rx="2" fill="#D9D9D9"/>
<rect x="97" y="184" width="36" height="8" rx="4" fill="#FF00F5"/>
<g filter="url(#filter3_d_29_1120)">
<rect x="177" y="120" width="75" height="80" rx="4" fill="white"/>
<rect x="177.5" y="120.5" width="74" height="79" rx="3.5" stroke="black"/>
</g>
<rect x="184.202" y="126" width="16" height="16" rx="2" fill="#E1E1E1"/>
<rect x="233" y="126" width="13" height="4" rx="2" fill="#E1E1E1"/>
<rect x="184" y="165" width="36" height="4" rx="2" fill="#E1E1E1"/>
<rect x="184" y="156" width="30" height="6" rx="3" fill="#747474"/>
<rect x="184" y="186" width="60" height="4" rx="2" fill="#D9D9D9"/>
<rect x="183" y="184" width="17" height="8" rx="4" fill="#FF00F5"/>
<defs>
<filter id="filter0_d_29_1120" x="86.5" y="29" width="83" height="88" filterUnits="userSpaceOnUse" color-interpolation-filters="sRGB">
<feFlood flood-opacity="0" result="BackgroundImageFix"/>
<feColorMatrix in="SourceAlpha" type="matrix" values="0 0 0 0 0 0 0 0 0 0 0 0 0 0 0 0 0 0 127 0" result="hardAlpha"/>
<feOffset dy="2"/>
<feGaussianBlur stdDeviation="2"/>
<feComposite in2="hardAlpha" operator="out"/>
<feColorMatrix type="matrix" values="0 0 0 0 0 0 0 0 0 0 0 0 0 0 0 0 0 0 0.05 0"/>
<feBlend mode="normal" in2="BackgroundImageFix" result="effect1_dropShadow_29_1120"/>
<feBlend mode="normal" in="SourceGraphic" in2="effect1_dropShadow_29_1120" result="shape"/>
</filter>
<filter id="filter1_d_29_1120" x="173.5" y="29" width="83" height="88" filterUnits="userSpaceOnUse" color-interpolation-filters="sRGB">
<feFlood flood-opacity="0" result="BackgroundImageFix"/>
<feColorMatrix in="SourceAlpha" type="matrix" values="0 0 0 0 0 0 0 0 0 0 0 0 0 0 0 0 0 0 127 0" result="hardAlpha"/>
<feOffset dy="2"/>
<feGaussianBlur stdDeviation="2"/>
<feComposite in2="hardAlpha" operator="out"/>
<feColorMatrix type="matrix" values="0 0 0 0 0 0 0 0 0 0 0 0 0 0 0 0 0 0 0.05 0"/>
<feBlend mode="normal" in2="BackgroundImageFix" result="effect1_dropShadow_29_1120"/>
<feBlend mode="normal" in="SourceGraphic" in2="effect1_dropShadow_29_1120" result="shape"/>
</filter>
<filter id="filter2_d_29_1120" x="86" y="118" width="83" height="88" filterUnits="userSpaceOnUse" color-interpolation-filters="sRGB">
<feFlood flood-opacity="0" result="BackgroundImageFix"/>
<feColorMatrix in="SourceAlpha" type="matrix" values="0 0 0 0 0 0 0 0 0 0 0 0 0 0 0 0 0 0 127 0" result="hardAlpha"/>
<feOffset dy="2"/>
<feGaussianBlur stdDeviation="2"/>
<feComposite in2="hardAlpha" operator="out"/>
<feColorMatrix type="matrix" values="0 0 0 0 0 0 0 0 0 0 0 0 0 0 0 0 0 0 0.05 0"/>
<feBlend mode="normal" in2="BackgroundImageFix" result="effect1_dropShadow_29_1120"/>
<feBlend mode="normal" in="SourceGraphic" in2="effect1_dropShadow_29_1120" result="shape"/>
</filter>
<filter id="filter3_d_29_1120" x="173" y="118" width="83" height="88" filterUnits="userSpaceOnUse" color-interpolation-filters="sRGB">
<feFlood flood-opacity="0" result="BackgroundImageFix"/>
<feColorMatrix in="SourceAlpha" type="matrix" values="0 0 0 0 0 0 0 0 0 0 0 0 0 0 0 0 0 0 127 0" result="hardAlpha"/>
<feOffset dy="2"/>
<feGaussianBlur stdDeviation="2"/>
<feComposite in2="hardAlpha" operator="out"/>
<feColorMatrix type="matrix" values="0 0 0 0 0 0 0 0 0 0 0 0 0 0 0 0 0 0 0.05 0"/>
<feBlend mode="normal" in2="BackgroundImageFix" result="effect1_dropShadow_29_1120"/>
<feBlend mode="normal" in="SourceGraphic" in2="effect1_dropShadow_29_1120" result="shape"/>
</filter>
</defs>
</svg>
