<svg width="100%" height="100%" viewBox="0 0 342 250" fill="none" xmlns="http://www.w3.org/2000/svg">
<rect x="0.5" y="0.5" width="341" height="249" rx="7.5" fill="white" stroke="black"/>
<path d="M341 27L341 241C341 245.418 337.418 249 333 249L8.99999 249C4.58171 249 0.999986 245.418 0.999986 241L1 27L341 27Z" fill="#BEBEBE"/>
<rect x="41.5" y="105.5" width="258" height="122" rx="3.5" fill="white" stroke="black" stroke-dasharray="2 2"/>
<line opacity="0.5" x1="1" y1="26.5" x2="341" y2="26.5" stroke="black"/>
<rect x="259" y="49" width="41" height="16" rx="4" fill="#FF00F5"/>
<rect x="265" y="55.5" width="29" height="3" rx="1.5" fill="white"/>
<rect x="41" y="59" width="101" height="9" rx="4.5" fill="#D9D9D9"/>
<rect x="41" y="46" width="49" height="9" rx="4.5" fill="#747474"/>
<rect x="41" y="78" width="22.25" height="6" rx="3" fill="#FF00F5"/>
<rect opacity="0.6" x="70.25" y="78" width="22.25" height="6" rx="3" fill="#FF00F5"/>
<rect opacity="0.6" x="99.5" y="78" width="22.25" height="6" rx="3" fill="#FF00F5"/>
<rect opacity="0.6" x="128.75" y="78" width="22.25" height="6" rx="3" fill="#FF00F5"/>
<g opacity="0.3">
<rect x="165" y="78" width="16" height="6" rx="3" fill="#FF00F5"/>
</g>
<rect x="223" y="49" width="30" height="16" rx="4" fill="#676767"/>
<rect x="229" y="55.5" width="18" height="3" rx="1.5" fill="white"/>
</svg>
