<svg width="100%" height="100%" viewBox="0 0 342 250" fill="none" xmlns="http://www.w3.org/2000/svg">
<rect x="0.5" y="0.5" width="341" height="249" rx="7.5" fill="white" stroke="black"/>
<path d="M1 9.00001C1 4.58173 4.58172 1 9 1H333C337.418 1 341 4.58172 341 9V241C341 245.418 337.418 249 333 249H9C4.58172 249 1 245.418 1 241V9.00001Z" fill="#BEBEBE"/>
<g filter="url(#filter0_d_27_274)">
<rect x="93" y="37" width="156" height="133" rx="4" fill="white"/>
<rect x="93.5" y="37.5" width="155" height="132" rx="3.5" stroke="black"/>
</g>
<rect x="140" y="54" width="90" height="7" rx="3.5" fill="url(#paint0_linear_27_274)"/>
<rect x="140" y="67" width="64" height="7" rx="3.5" fill="url(#paint1_linear_27_274)"/>
<rect x="103" y="96" width="129" height="9" rx="4.5" fill="url(#paint2_linear_27_274)"/>
<rect x="103" y="112" width="93" height="9" rx="4.5" fill="url(#paint3_linear_27_274)"/>
<rect x="103" y="128" width="129" height="9" rx="4.5" fill="url(#paint4_linear_27_274)"/>
<rect x="103" y="144" width="109" height="9" rx="4.5" fill="url(#paint5_linear_27_274)"/>
<rect x="103" y="59" width="28" height="28" rx="14" fill="url(#paint6_linear_27_274)"/>
<defs>
<filter id="filter0_d_27_274" x="89" y="35" width="164" height="141" filterUnits="userSpaceOnUse" color-interpolation-filters="sRGB">
<feFlood flood-opacity="0" result="BackgroundImageFix"/>
<feColorMatrix in="SourceAlpha" type="matrix" values="0 0 0 0 0 0 0 0 0 0 0 0 0 0 0 0 0 0 127 0" result="hardAlpha"/>
<feOffset dy="2"/>
<feGaussianBlur stdDeviation="2"/>
<feComposite in2="hardAlpha" operator="out"/>
<feColorMatrix type="matrix" values="0 0 0 0 0 0 0 0 0 0 0 0 0 0 0 0 0 0 0.05 0"/>
<feBlend mode="normal" in2="BackgroundImageFix" result="effect1_dropShadow_27_274"/>
<feBlend mode="normal" in="SourceGraphic" in2="effect1_dropShadow_27_274" result="shape"/>
</filter>
<linearGradient id="paint0_linear_27_274" x1="128.75" y1="62.25" x2="260.536" y2="62.25" gradientUnits="userSpaceOnUse">
<stop stop-color="#D9D9D9"/>
<stop offset="0.421875" stop-color="#D9D9D9" stop-opacity="0.15"/>
<stop offset="1" stop-color="#D9D9D9"/>
</linearGradient>
<linearGradient id="paint1_linear_27_274" x1="132" y1="75.25" x2="225.714" y2="75.25" gradientUnits="userSpaceOnUse">
<stop stop-color="#D9D9D9"/>
<stop offset="0.421875" stop-color="#D9D9D9" stop-opacity="0.15"/>
<stop offset="1" stop-color="#D9D9D9"/>
</linearGradient>
<linearGradient id="paint2_linear_27_274" x1="86.875" y1="106.607" x2="275.768" y2="106.607" gradientUnits="userSpaceOnUse">
<stop stop-color="#D9D9D9"/>
<stop offset="0.421875" stop-color="#D9D9D9" stop-opacity="0.15"/>
<stop offset="1" stop-color="#D9D9D9"/>
</linearGradient>
<linearGradient id="paint3_linear_27_274" x1="91.375" y1="122.607" x2="227.554" y2="122.607" gradientUnits="userSpaceOnUse">
<stop stop-color="#D9D9D9"/>
<stop offset="0.421875" stop-color="#D9D9D9" stop-opacity="0.15"/>
<stop offset="1" stop-color="#D9D9D9"/>
</linearGradient>
<linearGradient id="paint4_linear_27_274" x1="86.875" y1="138.607" x2="275.768" y2="138.607" gradientUnits="userSpaceOnUse">
<stop stop-color="#D9D9D9"/>
<stop offset="0.421875" stop-color="#D9D9D9" stop-opacity="0.15"/>
<stop offset="1" stop-color="#D9D9D9"/>
</linearGradient>
<linearGradient id="paint5_linear_27_274" x1="89.375" y1="154.607" x2="248.982" y2="154.607" gradientUnits="userSpaceOnUse">
<stop stop-color="#D9D9D9"/>
<stop offset="0.421875" stop-color="#D9D9D9" stop-opacity="0.15"/>
<stop offset="1" stop-color="#D9D9D9"/>
</linearGradient>
<linearGradient id="paint6_linear_27_274" x1="99.5" y1="92" x2="140.5" y2="92" gradientUnits="userSpaceOnUse">
<stop stop-color="#D9D9D9"/>
<stop offset="0.421875" stop-color="#D9D9D9" stop-opacity="0.15"/>
<stop offset="1" stop-color="#D9D9D9"/>
</linearGradient>
</defs>
</svg>
