<svg width="100%" height="100%" viewBox="0 0 342 250" fill="none" xmlns="http://www.w3.org/2000/svg">
<rect x="0.5" y="0.5" width="341" height="249" rx="7.5" fill="white" stroke="black"/>
<rect x="259.942" y="108.5" width="22.2308" height="22.2308" rx="11.1154" fill="white" stroke="#676767"/>
<rect x="259.942" y="76.5" width="22.2308" height="22.2308" rx="11.1154" fill="white" stroke="#676767"/>
<rect x="259.942" y="44.5" width="22.2308" height="22.2308" rx="11.1154" fill="white" stroke="#676767"/>
<rect x="214" y="53" width="38.4808" height="5" rx="2.5" fill="#D9D9D9"/>
<rect x="232.577" y="85" width="19.9038" height="5" rx="2.5" fill="#D9D9D9"/>
<rect x="220.635" y="117" width="31.8462" height="5" rx="2.5" fill="#D9D9D9"/>
<g clip-path="url(#clip0_27_138)">
<path opacity="0.3" d="M271.058 116.654C269.35 116.654 267.961 118.043 267.961 119.75C267.961 121.457 269.35 122.846 271.058 122.846C272.765 122.846 274.154 121.457 274.154 119.75C274.154 118.043 272.765 116.654 271.058 116.654ZM272.716 121.453L270.615 120.192V117.538H271.279V119.861L273.048 120.909L272.716 121.453Z" fill="#676767"/>
<path d="M271.279 117.538H270.615V120.192L272.716 121.453L273.048 120.909L271.279 119.861V117.538ZM273.418 114.801L275.456 116.501L274.89 117.18L272.851 115.48L273.418 114.801ZM268.697 114.801L269.264 115.48L267.226 117.18L266.66 116.501L268.697 114.801ZM271.058 115.769C268.859 115.769 267.077 117.552 267.077 119.75C267.077 121.948 268.859 123.731 271.058 123.731C273.256 123.731 275.038 121.948 275.038 119.75C275.038 117.552 273.256 115.769 271.058 115.769ZM271.058 122.846C269.35 122.846 267.961 121.457 267.961 119.75C267.961 118.043 269.35 116.654 271.058 116.654C272.765 116.654 274.154 118.043 274.154 119.75C274.154 121.457 272.765 122.846 271.058 122.846Z" fill="#676767"/>
</g>
<g clip-path="url(#clip1_27_138)">
<path opacity="0.3" d="M269.289 54.2883H272.827V58.7114H269.289V54.2883Z" fill="#676767"/>
<path d="M272.606 52.0768L272.163 51.6345H269.952L269.51 52.0768H267.961V52.9614H274.154V52.0768H272.606ZM268.404 58.7114C268.404 59.198 268.802 59.5961 269.288 59.5961H272.827C273.313 59.5961 273.711 59.198 273.711 58.7114V53.4038H268.404V58.7114ZM269.288 54.2884H272.827V58.7114H269.288V54.2884Z" fill="#676767"/>
</g>
<g clip-path="url(#clip2_27_138)">
<path opacity="0.3" d="M271.058 83.9231C269.107 83.9231 267.519 85.511 267.519 87.4616C267.519 89.4121 269.107 91 271.058 91C273.008 91 274.596 89.4121 274.596 87.4616C274.596 85.511 273.008 83.9231 271.058 83.9231ZM271.5 90.1154H270.615V89.2308H271.5V90.1154ZM271.5 88.7885H270.615C270.615 87.351 271.942 87.4616 271.942 86.5769C271.942 86.0904 271.544 85.6923 271.058 85.6923C270.571 85.6923 270.173 86.0904 270.173 86.5769H269.288C269.288 85.5994 270.08 84.8077 271.058 84.8077C272.035 84.8077 272.827 85.5994 272.827 86.5769C272.827 87.6827 271.5 87.7933 271.5 88.7885Z" fill="#676767"/>
<path d="M270.616 89.2306H271.5V90.1153H270.616V89.2306ZM271.058 83.0383C268.616 83.0383 266.635 85.0199 266.635 87.4614C266.635 89.9029 268.616 91.8845 271.058 91.8845C273.499 91.8845 275.481 89.9029 275.481 87.4614C275.481 85.0199 273.499 83.0383 271.058 83.0383ZM271.058 90.9999C269.107 90.9999 267.519 89.412 267.519 87.4614C267.519 85.5108 269.107 83.9229 271.058 83.9229C273.008 83.9229 274.596 85.5108 274.596 87.4614C274.596 89.412 273.008 90.9999 271.058 90.9999ZM271.058 84.8076C270.08 84.8076 269.289 85.5993 269.289 86.5768H270.173C270.173 86.0903 270.571 85.6922 271.058 85.6922C271.544 85.6922 271.942 86.0903 271.942 86.5768C271.942 87.4614 270.616 87.3508 270.616 88.7883H271.5C271.5 87.7931 272.827 87.6826 272.827 86.5768C272.827 85.5993 272.035 84.8076 271.058 84.8076Z" fill="#676767"/>
</g>
<g filter="url(#filter0_d_27_138)">
<rect x="258.115" y="140.539" width="23.8846" height="23.8846" rx="11.9423" fill="#FF00F5"/>
</g>
<g clip-path="url(#clip3_27_138)">
<path d="M274.702 148.772L273.767 147.837L270.058 151.545L266.349 147.837L265.414 148.772L269.122 152.481L265.414 156.19L266.349 157.125L270.058 153.416L273.767 157.125L274.702 156.19L270.993 152.481L274.702 148.772Z" fill="white"/>
</g>
<defs>
<filter id="filter0_d_27_138" x="258.115" y="140.539" width="27.8848" height="27.8845" filterUnits="userSpaceOnUse" color-interpolation-filters="sRGB">
<feFlood flood-opacity="0" result="BackgroundImageFix"/>
<feColorMatrix in="SourceAlpha" type="matrix" values="0 0 0 0 0 0 0 0 0 0 0 0 0 0 0 0 0 0 127 0" result="hardAlpha"/>
<feOffset dx="2" dy="2"/>
<feGaussianBlur stdDeviation="1"/>
<feComposite in2="hardAlpha" operator="out"/>
<feColorMatrix type="matrix" values="0 0 0 0 0 0 0 0 0 0 0 0 0 0 0 0 0 0 0.04 0"/>
<feBlend mode="normal" in2="BackgroundImageFix" result="effect1_dropShadow_27_138"/>
<feBlend mode="normal" in="SourceGraphic" in2="effect1_dropShadow_27_138" result="shape"/>
</filter>
<clipPath id="clip0_27_138">
<rect width="10.6154" height="10.6154" fill="white" transform="translate(265.75 114)"/>
</clipPath>
<clipPath id="clip1_27_138">
<rect width="10.6154" height="10.6154" fill="white" transform="translate(265.75 50.3076)"/>
</clipPath>
<clipPath id="clip2_27_138">
<rect width="10.6154" height="10.6154" fill="white" transform="translate(265.75 82.1538)"/>
</clipPath>
<clipPath id="clip3_27_138">
<rect width="15.9231" height="15.9231" fill="white" transform="translate(262.096 144.519)"/>
</clipPath>
</defs>
</svg>
