<svg width="100%" height="100%" viewBox="0 0 342 250" fill="none" xmlns="http://www.w3.org/2000/svg">
<rect x="0.5" y="0.5" width="341" height="249" rx="7.5" fill="white" stroke="black"/>
<path d="M1 9.00001C1 4.58173 4.58172 1 9 1H333C337.418 1 341 4.58172 341 9V241C341 245.418 337.418 249 333 249H9C4.58172 249 1 245.418 1 241V9.00001Z" fill="#BEBEBE"/>
<g filter="url(#filter0_d_27_624)">
<rect x="54" y="43" width="233" height="105" rx="4" fill="white"/>
<rect x="54.5" y="43.5" width="232" height="104" rx="3.5" stroke="black"/>
</g>
<rect x="61" y="54" width="16" height="16" rx="2" fill="#E1E1E1"/>
<rect x="86" y="56" width="38" height="4" rx="2" fill="#747474"/>
<rect x="86" y="64" width="66" height="4" rx="2" fill="#E1E1E1"/>
<g opacity="0.5">
<rect x="250" y="56.5" width="30" height="11" rx="4" fill="#676767"/>
<rect x="256" y="60.5" width="18" height="3" rx="1.5" fill="white"/>
</g>
<line opacity="0.5" x1="55" y1="78.5" x2="286" y2="78.5" stroke="black"/>
<rect x="61" y="88" width="16" height="16" rx="2" fill="#E1E1E1"/>
<rect x="86" y="90" width="38" height="4" rx="2" fill="#747474"/>
<rect x="86" y="98" width="66" height="4" rx="2" fill="#E1E1E1"/>
<g opacity="0.5">
<rect x="250" y="90.5" width="30" height="11" rx="4" fill="#676767"/>
<rect x="256" y="94.5" width="18" height="3" rx="1.5" fill="white"/>
</g>
<line opacity="0.5" x1="55" y1="112.5" x2="286" y2="112.5" stroke="black"/>
<rect x="61" y="122" width="16" height="16" rx="2" fill="#E1E1E1"/>
<rect x="86" y="124" width="38" height="4" rx="2" fill="#747474"/>
<rect x="86" y="132" width="66" height="4" rx="2" fill="#E1E1E1"/>
<g opacity="0.5">
<rect x="250" y="124.5" width="30" height="11" rx="4" fill="#676767"/>
<rect x="256" y="128.5" width="18" height="3" rx="1.5" fill="white"/>
</g>
<defs>
<filter id="filter0_d_27_624" x="50" y="41" width="241" height="113" filterUnits="userSpaceOnUse" color-interpolation-filters="sRGB">
<feFlood flood-opacity="0" result="BackgroundImageFix"/>
<feColorMatrix in="SourceAlpha" type="matrix" values="0 0 0 0 0 0 0 0 0 0 0 0 0 0 0 0 0 0 127 0" result="hardAlpha"/>
<feOffset dy="2"/>
<feGaussianBlur stdDeviation="2"/>
<feComposite in2="hardAlpha" operator="out"/>
<feColorMatrix type="matrix" values="0 0 0 0 0 0 0 0 0 0 0 0 0 0 0 0 0 0 0.05 0"/>
<feBlend mode="normal" in2="BackgroundImageFix" result="effect1_dropShadow_27_624"/>
<feBlend mode="normal" in="SourceGraphic" in2="effect1_dropShadow_27_624" result="shape"/>
</filter>
</defs>
</svg>
