<svg width="100%" height="100%" viewBox="0 0 342 250" fill="none" xmlns="http://www.w3.org/2000/svg">
<rect x="0.5" y="0.5" width="341" height="249" rx="7.5" fill="white" stroke="black"/>
<rect x="41.5" y="75.5" width="258" height="60" rx="3.5" fill="white" stroke="black" stroke-dasharray="2 2"/>
<rect x="56" y="89" width="226" height="3" rx="1.5" fill="#D9D9D9"/>
<rect x="56" y="99" width="164" height="3" rx="1.5" fill="#D9D9D9"/>
<rect x="56" y="109" width="226" height="3" rx="1.5" fill="#D9D9D9"/>
<rect x="56" y="119" width="192" height="3" rx="1.5" fill="#D9D9D9"/>
<rect x="259" y="149" width="41" height="16" rx="4" fill="#FF00F5"/>
<rect x="265" y="155.5" width="29" height="3" rx="1.5" fill="white"/>
<rect x="41" y="149" width="30" height="16" rx="4" fill="#676767"/>
<rect x="47" y="155.5" width="18" height="3" rx="1.5" fill="white"/>
<rect x="41" y="59" width="37" height="6" rx="3" fill="#D9D9D9"/>
<line x1="66" y1="49" x2="280" y2="49" stroke="#D9D9D9" stroke-width="2"/>
<rect x="52.5" y="42.5" width="13" height="13" rx="6.5" fill="white" stroke="#D9D9D9"/>
<rect x="106" y="59" width="37" height="6" rx="3" fill="#676767"/>
<rect x="117.5" y="42.5" width="13" height="13" rx="6.5" fill="white" stroke="#1865FA"/>
<rect x="188" y="59" width="44" height="6" rx="3" fill="#D9D9D9"/>
<rect x="203.5" y="42.5" width="13" height="13" rx="6.5" fill="white" stroke="#D9D9D9"/>
<rect x="274" y="59" width="26" height="6" rx="3" fill="#D9D9D9"/>
<rect x="280.5" y="42.5" width="13" height="13" rx="6.5" fill="white" stroke="#D9D9D9"/>
<rect x="122" y="47" width="4" height="4" rx="2" fill="#1865FA"/>
</svg>
