<svg width="100%" height="100%" viewBox="0 0 342 250" fill="none" xmlns="http://www.w3.org/2000/svg">
<rect x="0.5" y="0.5" width="341" height="249" rx="7.5" fill="white" stroke="black"/>
<path d="M1 9.00001C1 4.58173 4.58172 1 9 1H333C337.418 1 341 4.58172 341 9V241C341 245.418 337.418 249 333 249H9C4.58172 249 1 245.418 1 241V9.00001Z" fill="#BEBEBE"/>
<g filter="url(#filter0_d_27_17)">
<rect x="21" y="69" width="301" height="59" rx="4" fill="white"/>
<rect x="21.5" y="69.5" width="300" height="58" rx="3.5" stroke="black"/>
</g>
<rect x="40" y="85" width="83" height="28" rx="3" fill="#FF00F5"/>
<path d="M54.1467 104H52.3185L55.647 94.5455H57.7614L61.0945 104H59.2663L56.7411 96.4844H56.6673L54.1467 104ZM54.2067 100.293H59.1925V101.669H54.2067V100.293ZM63.9371 99.8452V104H62.2659V96.9091H63.8632V98.114H63.9463C64.1094 97.717 64.3695 97.4015 64.7265 97.1676C65.0866 96.9337 65.5313 96.8168 66.0606 96.8168C66.55 96.8168 66.9762 96.9214 67.3394 97.1307C67.7056 97.34 67.9888 97.6431 68.1888 98.0401C68.392 98.4371 68.492 98.9188 68.4889 99.4851V104H66.8177V99.7436C66.8177 99.2696 66.6946 98.8988 66.4484 98.631C66.2053 98.3633 65.8683 98.2294 65.4374 98.2294C65.145 98.2294 64.885 98.294 64.6572 98.4233C64.4326 98.5495 64.2556 98.7326 64.1263 98.9727C64.0001 99.2127 63.9371 99.5036 63.9371 99.8452ZM72.2282 104.143C71.7789 104.143 71.3742 104.063 71.0141 103.903C70.6571 103.74 70.374 103.5 70.1647 103.183C69.9585 102.866 69.8554 102.475 69.8554 102.01C69.8554 101.61 69.9292 101.279 70.077 101.018C70.2247 100.756 70.4263 100.547 70.6817 100.39C70.9372 100.233 71.2249 100.114 71.545 100.034C71.8682 99.9513 72.2021 99.8913 72.5468 99.8544C72.9623 99.8113 73.2993 99.7728 73.5578 99.739C73.8163 99.7021 74.0041 99.6467 74.121 99.5728C74.241 99.4959 74.301 99.3774 74.301 99.2173V99.1896C74.301 98.8419 74.1979 98.5726 73.9917 98.3817C73.7855 98.1909 73.4885 98.0955 73.1008 98.0955C72.6914 98.0955 72.3667 98.1848 72.1267 98.3633C71.8897 98.5418 71.7297 98.7526 71.6466 98.9957L70.0862 98.7741C70.2093 98.3433 70.4124 97.9832 70.6956 97.6939C70.9787 97.4015 71.325 97.183 71.7343 97.0384C72.1436 96.8906 72.596 96.8168 73.0915 96.8168C73.4332 96.8168 73.7732 96.8568 74.1118 96.9368C74.4503 97.0168 74.7596 97.1491 75.0397 97.3338C75.3198 97.5154 75.5444 97.7631 75.7137 98.0771C75.886 98.391 75.9722 98.7834 75.9722 99.2543V104H74.3657V103.026H74.3103C74.2087 103.223 74.0656 103.408 73.8809 103.58C73.6994 103.749 73.4701 103.886 73.1931 103.991C72.9192 104.092 72.5976 104.143 72.2282 104.143ZM72.6622 102.915C72.9977 102.915 73.2885 102.849 73.5347 102.717C73.7809 102.581 73.9702 102.403 74.1025 102.181C74.238 101.96 74.3057 101.718 74.3057 101.456V100.621C74.2533 100.664 74.1641 100.704 74.0379 100.741C73.9148 100.778 73.7763 100.81 73.6224 100.838C73.4685 100.865 73.3162 100.89 73.1654 100.912C73.0146 100.933 72.8838 100.952 72.773 100.967C72.5237 101.001 72.3006 101.056 72.1036 101.133C71.9066 101.21 71.7512 101.318 71.6373 101.456C71.5235 101.592 71.4665 101.767 71.4665 101.983C71.4665 102.29 71.5789 102.523 71.8035 102.68C72.0282 102.837 72.3144 102.915 72.6622 102.915ZM79.3238 94.5455V104H77.6526V94.5455H79.3238ZM82.081 106.659C81.8532 106.659 81.6424 106.641 81.4485 106.604C81.2577 106.57 81.1054 106.53 80.9915 106.484L81.3793 105.182C81.6224 105.253 81.8394 105.286 82.0302 105.283C82.221 105.28 82.3887 105.22 82.5334 105.103C82.6811 104.989 82.8058 104.799 82.9073 104.531L83.0504 104.148L80.479 96.9091H82.2518L83.886 102.264H83.9599L85.5987 96.9091H87.3761L84.5369 104.859C84.4046 105.234 84.2292 105.556 84.0107 105.824C83.7921 106.094 83.5244 106.301 83.2074 106.442C82.8935 106.587 82.518 106.659 82.081 106.659ZM92.0733 96.9091V98.2017H87.997V96.9091H92.0733ZM89.0034 95.2102H90.6745V101.867C90.6745 102.092 90.7084 102.264 90.7761 102.384C90.8469 102.501 90.9392 102.581 91.0531 102.624C91.167 102.667 91.2931 102.689 91.4316 102.689C91.5363 102.689 91.6317 102.681 91.7179 102.666C91.8071 102.65 91.8748 102.637 91.921 102.624L92.2026 103.931C92.1133 103.962 91.9856 103.995 91.8194 104.032C91.6563 104.069 91.4563 104.091 91.2193 104.097C90.8007 104.109 90.4237 104.046 90.0882 103.908C89.7528 103.766 89.4866 103.548 89.2896 103.252C89.0957 102.957 89.0003 102.587 89.0034 102.144V95.2102ZM93.471 104V96.9091H95.1421V104H93.471ZM94.3112 95.9027C94.0465 95.9027 93.8187 95.815 93.6279 95.6396C93.4371 95.4611 93.3417 95.2472 93.3417 94.9979C93.3417 94.7455 93.4371 94.5316 93.6279 94.3562C93.8187 94.1777 94.0465 94.0884 94.3112 94.0884C94.5789 94.0884 94.8067 94.1777 94.9944 94.3562C95.1852 94.5316 95.2806 94.7455 95.2806 94.9979C95.2806 95.2472 95.1852 95.4611 94.9944 95.6396C94.8067 95.815 94.5789 95.9027 94.3112 95.9027ZM99.9537 104.138C99.2458 104.138 98.638 103.983 98.1301 103.672C97.6254 103.361 97.2361 102.932 96.9622 102.384C96.6913 101.833 96.5559 101.199 96.5559 100.482C96.5559 99.7621 96.6944 99.1265 96.9714 98.5756C97.2484 98.0217 97.6393 97.5908 98.144 97.283C98.6518 96.9722 99.252 96.8168 99.9444 96.8168C100.52 96.8168 101.029 96.9229 101.472 97.1353C101.919 97.3446 102.274 97.6416 102.539 98.0263C102.804 98.4079 102.954 98.8542 102.991 99.3651H101.394C101.329 99.0234 101.175 98.7388 100.932 98.511C100.692 98.2802 100.371 98.1648 99.9675 98.1648C99.6259 98.1648 99.3258 98.2571 99.0673 98.4418C98.8088 98.6233 98.6072 98.8849 98.4625 99.2266C98.321 99.5682 98.2502 99.9775 98.2502 100.455C98.2502 100.938 98.321 101.353 98.4625 101.701C98.6041 102.046 98.8026 102.312 99.0581 102.5C99.3166 102.684 99.6197 102.777 99.9675 102.777C100.214 102.777 100.434 102.73 100.628 102.638C100.825 102.543 100.989 102.406 101.122 102.227C101.254 102.049 101.345 101.832 101.394 101.576H102.991C102.951 102.078 102.804 102.523 102.548 102.911C102.293 103.295 101.945 103.597 101.505 103.815C101.065 104.031 100.548 104.138 99.9537 104.138ZM109.968 98.7834L108.445 98.9496C108.401 98.7957 108.326 98.651 108.218 98.5156C108.114 98.3802 107.972 98.271 107.794 98.1879C107.615 98.1048 107.397 98.0632 107.138 98.0632C106.79 98.0632 106.498 98.1386 106.261 98.2894C106.027 98.4402 105.912 98.6357 105.915 98.8757C105.912 99.0819 105.987 99.2496 106.141 99.3789C106.298 99.5082 106.556 99.6143 106.916 99.6974L108.126 99.956C108.797 100.101 109.295 100.33 109.622 100.644C109.951 100.958 110.117 101.369 110.12 101.876C110.117 102.323 109.986 102.717 109.728 103.058C109.472 103.397 109.117 103.661 108.661 103.852C108.206 104.043 107.683 104.138 107.092 104.138C106.224 104.138 105.525 103.957 104.996 103.594C104.467 103.228 104.151 102.718 104.05 102.066L105.679 101.909C105.753 102.229 105.91 102.47 106.15 102.634C106.39 102.797 106.703 102.878 107.087 102.878C107.484 102.878 107.803 102.797 108.043 102.634C108.286 102.47 108.408 102.269 108.408 102.029C108.408 101.826 108.329 101.658 108.172 101.526C108.018 101.393 107.778 101.292 107.452 101.221L106.242 100.967C105.562 100.825 105.059 100.587 104.733 100.251C104.407 99.9129 104.245 99.4851 104.248 98.968C104.245 98.531 104.364 98.1525 104.604 97.8324C104.847 97.5092 105.184 97.2599 105.615 97.0845C106.049 96.906 106.549 96.8168 107.115 96.8168C107.946 96.8168 108.6 96.9937 109.077 97.3477C109.557 97.7016 109.854 98.1802 109.968 98.7834Z" fill="white"/>
<rect x="130" y="85" width="83" height="28" rx="3" fill="#D9D9D9"/>
<path d="M151.272 97.1445C151.229 96.7414 151.048 96.4274 150.728 96.2028C150.411 95.9781 149.998 95.8658 149.49 95.8658C149.133 95.8658 148.827 95.9196 148.572 96.0273C148.316 96.1351 148.121 96.2812 147.985 96.4659C147.85 96.6506 147.781 96.8614 147.778 97.0984C147.778 97.2953 147.822 97.4661 147.912 97.6108C148.004 97.7554 148.129 97.8786 148.285 97.9801C148.442 98.0786 148.616 98.1617 148.807 98.2294C148.998 98.2971 149.19 98.354 149.384 98.4002L150.271 98.6218C150.628 98.7049 150.971 98.8172 151.3 98.9588C151.632 99.1004 151.929 99.2789 152.191 99.4943C152.456 99.7098 152.665 99.9698 152.819 100.275C152.973 100.579 153.05 100.936 153.05 101.346C153.05 101.9 152.908 102.387 152.625 102.809C152.342 103.228 151.932 103.555 151.397 103.792C150.865 104.026 150.22 104.143 149.463 104.143C148.727 104.143 148.088 104.029 147.547 103.801C147.008 103.574 146.587 103.241 146.282 102.804C145.98 102.367 145.817 101.835 145.793 101.207H147.478C147.502 101.536 147.604 101.81 147.782 102.029C147.961 102.247 148.193 102.41 148.479 102.518C148.769 102.626 149.092 102.68 149.449 102.68C149.821 102.68 150.147 102.624 150.428 102.513C150.711 102.4 150.932 102.243 151.092 102.043C151.252 101.839 151.334 101.603 151.337 101.332C151.334 101.085 151.262 100.882 151.12 100.722C150.978 100.559 150.78 100.424 150.524 100.316C150.272 100.205 149.977 100.107 149.638 100.021L148.562 99.7436C147.784 99.5436 147.168 99.2404 146.716 98.8342C146.267 98.4248 146.042 97.8816 146.042 97.2045C146.042 96.6475 146.193 96.1597 146.494 95.7411C146.799 95.3226 147.213 94.9979 147.736 94.767C148.259 94.5331 148.852 94.4162 149.513 94.4162C150.184 94.4162 150.772 94.5331 151.277 94.767C151.785 94.9979 152.183 95.3195 152.473 95.7319C152.762 96.1412 152.911 96.6121 152.92 97.1445H151.272ZM157.642 104.138C156.931 104.138 156.317 103.991 155.8 103.695C155.286 103.397 154.89 102.975 154.614 102.43C154.337 101.883 154.198 101.238 154.198 100.496C154.198 99.7667 154.337 99.1265 154.614 98.5756C154.894 98.0217 155.284 97.5908 155.786 97.283C156.288 96.9722 156.877 96.8168 157.554 96.8168C157.991 96.8168 158.404 96.8875 158.791 97.0291C159.182 97.1676 159.527 97.383 159.826 97.6754C160.127 97.9678 160.364 98.3402 160.536 98.7926C160.709 99.242 160.795 99.7775 160.795 100.399V100.912H154.983V99.7852H159.193C159.19 99.4651 159.121 99.1804 158.985 98.9311C158.85 98.6787 158.661 98.4802 158.417 98.3356C158.177 98.1909 157.897 98.1186 157.577 98.1186C157.236 98.1186 156.936 98.2017 156.677 98.3679C156.419 98.531 156.217 98.7464 156.072 99.0142C155.931 99.2789 155.858 99.5697 155.855 99.8867V100.87C155.855 101.282 155.931 101.636 156.082 101.932C156.232 102.224 156.443 102.449 156.714 102.606C156.985 102.76 157.302 102.837 157.665 102.837C157.908 102.837 158.128 102.803 158.325 102.735C158.522 102.664 158.693 102.561 158.838 102.426C158.982 102.29 159.091 102.123 159.165 101.923L160.726 102.098C160.627 102.51 160.439 102.871 160.163 103.178C159.889 103.483 159.538 103.72 159.11 103.889C158.682 104.055 158.193 104.138 157.642 104.138ZM165.75 96.9091V98.2017H161.673V96.9091H165.75ZM162.68 95.2102H164.351V101.867C164.351 102.092 164.385 102.264 164.452 102.384C164.523 102.501 164.615 102.581 164.729 102.624C164.843 102.667 164.969 102.689 165.108 102.689C165.213 102.689 165.308 102.681 165.394 102.666C165.483 102.65 165.551 102.637 165.597 102.624L165.879 103.931C165.79 103.962 165.662 103.995 165.496 104.032C165.333 104.069 165.133 104.091 164.896 104.097C164.477 104.109 164.1 104.046 163.765 103.908C163.429 103.766 163.163 103.548 162.966 103.252C162.772 102.957 162.677 102.587 162.68 102.144V95.2102ZM170.688 96.9091V98.2017H166.612V96.9091H170.688ZM167.618 95.2102H169.289V101.867C169.289 102.092 169.323 102.264 169.391 102.384C169.462 102.501 169.554 102.581 169.668 102.624C169.782 102.667 169.908 102.689 170.046 102.689C170.151 102.689 170.246 102.681 170.333 102.666C170.422 102.65 170.49 102.637 170.536 102.624L170.817 103.931C170.728 103.962 170.6 103.995 170.434 104.032C170.271 104.069 170.071 104.091 169.834 104.097C169.415 104.109 169.038 104.046 168.703 103.908C168.368 103.766 168.101 103.548 167.904 103.252C167.71 102.957 167.615 102.587 167.618 102.144V95.2102ZM172.086 104V96.9091H173.757V104H172.086ZM172.926 95.9027C172.661 95.9027 172.433 95.815 172.243 95.6396C172.052 95.4611 171.956 95.2472 171.956 94.9979C171.956 94.7455 172.052 94.5316 172.243 94.3562C172.433 94.1777 172.661 94.0884 172.926 94.0884C173.194 94.0884 173.421 94.1777 173.609 94.3562C173.8 94.5316 173.895 94.7455 173.895 94.9979C173.895 95.2472 173.8 95.4611 173.609 95.6396C173.421 95.815 173.194 95.9027 172.926 95.9027ZM177.147 99.8452V104H175.475V96.9091H177.073V98.114H177.156C177.319 97.717 177.579 97.4015 177.936 97.1676C178.296 96.9337 178.741 96.8168 179.27 96.8168C179.759 96.8168 180.186 96.9214 180.549 97.1307C180.915 97.34 181.198 97.6431 181.398 98.0401C181.601 98.4371 181.701 98.9188 181.698 99.4851V104H180.027V99.7436C180.027 99.2696 179.904 98.8988 179.658 98.631C179.415 98.3633 179.078 98.2294 178.647 98.2294C178.355 98.2294 178.094 98.294 177.867 98.4233C177.642 98.5495 177.465 98.7326 177.336 98.9727C177.21 99.2127 177.147 99.5036 177.147 99.8452ZM186.481 106.807C185.881 106.807 185.365 106.725 184.935 106.562C184.504 106.402 184.157 106.187 183.896 105.916C183.634 105.645 183.453 105.345 183.351 105.016L184.856 104.651C184.924 104.789 185.022 104.926 185.152 105.062C185.281 105.2 185.455 105.314 185.673 105.403C185.895 105.496 186.173 105.542 186.509 105.542C186.983 105.542 187.375 105.426 187.686 105.196C187.997 104.968 188.152 104.592 188.152 104.069V102.726H188.069C187.983 102.898 187.857 103.075 187.691 103.257C187.527 103.438 187.31 103.591 187.04 103.714C186.772 103.837 186.435 103.898 186.029 103.898C185.484 103.898 184.99 103.771 184.547 103.515C184.107 103.257 183.756 102.872 183.494 102.361C183.236 101.847 183.106 101.204 183.106 100.431C183.106 99.6528 183.236 98.9957 183.494 98.4602C183.756 97.9216 184.108 97.5138 184.551 97.2369C184.995 96.9568 185.489 96.8168 186.033 96.8168C186.449 96.8168 186.79 96.8875 187.058 97.0291C187.329 97.1676 187.544 97.3353 187.704 97.5323C187.864 97.7262 187.986 97.9093 188.069 98.0817H188.161V96.9091H189.81V104.115C189.81 104.722 189.665 105.223 189.376 105.62C189.086 106.017 188.691 106.314 188.189 106.511C187.687 106.708 187.118 106.807 186.481 106.807ZM186.495 102.587C186.849 102.587 187.15 102.501 187.4 102.329C187.649 102.156 187.838 101.909 187.968 101.586C188.097 101.262 188.161 100.875 188.161 100.422C188.161 99.976 188.097 99.5851 187.968 99.2496C187.841 98.9142 187.654 98.6541 187.404 98.4695C187.158 98.2817 186.855 98.1879 186.495 98.1879C186.122 98.1879 185.812 98.2848 185.562 98.4787C185.313 98.6726 185.125 98.9388 184.999 99.2773C184.873 99.6128 184.81 99.9944 184.81 100.422C184.81 100.856 184.873 101.236 184.999 101.562C185.128 101.886 185.318 102.138 185.567 102.32C185.819 102.498 186.129 102.587 186.495 102.587ZM197.127 98.7834L195.603 98.9496C195.56 98.7957 195.485 98.651 195.377 98.5156C195.272 98.3802 195.131 98.271 194.952 98.1879C194.774 98.1048 194.555 98.0632 194.297 98.0632C193.949 98.0632 193.657 98.1386 193.42 98.2894C193.186 98.4402 193.07 98.6357 193.073 98.8757C193.07 99.0819 193.146 99.2496 193.3 99.3789C193.457 99.5082 193.715 99.6143 194.075 99.6974L195.285 99.956C195.956 100.101 196.454 100.33 196.78 100.644C197.11 100.958 197.276 101.369 197.279 101.876C197.276 102.323 197.145 102.717 196.887 103.058C196.631 103.397 196.276 103.661 195.82 103.852C195.365 104.043 194.841 104.138 194.251 104.138C193.383 104.138 192.684 103.957 192.155 103.594C191.625 103.228 191.31 102.718 191.208 102.066L192.838 101.909C192.912 102.229 193.069 102.47 193.309 102.634C193.549 102.797 193.861 102.878 194.246 102.878C194.643 102.878 194.962 102.797 195.202 102.634C195.445 102.47 195.566 102.269 195.566 102.029C195.566 101.826 195.488 101.658 195.331 101.526C195.177 101.393 194.937 101.292 194.611 101.221L193.401 100.967C192.721 100.825 192.218 100.587 191.892 100.251C191.565 99.9129 191.404 99.4851 191.407 98.968C191.404 98.531 191.522 98.1525 191.762 97.8324C192.005 97.5092 192.342 97.2599 192.773 97.0845C193.207 96.906 193.707 96.8168 194.274 96.8168C195.105 96.8168 195.759 96.9937 196.236 97.3477C196.716 97.7016 197.013 98.1802 197.127 98.7834Z" fill="#606060"/>
<rect x="220" y="85" width="83" height="28" rx="3" fill="#D9D9D9"/>
<path d="M242.078 97.1445C242.035 96.7414 241.854 96.4274 241.534 96.2028C241.217 95.9781 240.804 95.8658 240.297 95.8658C239.94 95.8658 239.633 95.9196 239.378 96.0273C239.122 96.1351 238.927 96.2812 238.792 96.4659C238.656 96.6506 238.587 96.8614 238.584 97.0984C238.584 97.2953 238.628 97.4661 238.718 97.6108C238.81 97.7554 238.935 97.8786 239.092 97.9801C239.249 98.0786 239.422 98.1617 239.613 98.2294C239.804 98.2971 239.996 98.354 240.19 98.4002L241.077 98.6218C241.434 98.7049 241.777 98.8172 242.106 98.9588C242.439 99.1004 242.736 99.2789 242.997 99.4943C243.262 99.7098 243.471 99.9698 243.625 100.275C243.779 100.579 243.856 100.936 243.856 101.346C243.856 101.9 243.714 102.387 243.431 102.809C243.148 103.228 242.739 103.555 242.203 103.792C241.671 104.026 241.026 104.143 240.269 104.143C239.533 104.143 238.895 104.029 238.353 103.801C237.814 103.574 237.393 103.241 237.088 102.804C236.786 102.367 236.623 101.835 236.599 101.207H238.284C238.308 101.536 238.41 101.81 238.588 102.029C238.767 102.247 238.999 102.41 239.286 102.518C239.575 102.626 239.898 102.68 240.255 102.68C240.627 102.68 240.954 102.624 241.234 102.513C241.517 102.4 241.738 102.243 241.898 102.043C242.058 101.839 242.14 101.603 242.143 101.332C242.14 101.085 242.068 100.882 241.926 100.722C241.785 100.559 241.586 100.424 241.331 100.316C241.078 100.205 240.783 100.107 240.444 100.021L239.369 99.7436C238.59 99.5436 237.974 99.2404 237.522 98.8342C237.073 98.4248 236.848 97.8816 236.848 97.2045C236.848 96.6475 236.999 96.1597 237.3 95.7411C237.605 95.3226 238.019 94.9979 238.542 94.767C239.065 94.5331 239.658 94.4162 240.32 94.4162C240.991 94.4162 241.578 94.5331 242.083 94.767C242.591 94.9979 242.989 95.3195 243.279 95.7319C243.568 96.1412 243.717 96.6121 243.727 97.1445H242.078ZM249.828 101.018V96.9091H251.5V104H249.879V102.74H249.805C249.645 103.137 249.382 103.461 249.016 103.714C248.653 103.966 248.205 104.092 247.672 104.092C247.208 104.092 246.797 103.989 246.44 103.783C246.086 103.574 245.809 103.271 245.609 102.874C245.409 102.473 245.309 101.99 245.309 101.424V96.9091H246.98V101.165C246.98 101.615 247.103 101.972 247.349 102.237C247.596 102.501 247.919 102.634 248.319 102.634C248.565 102.634 248.804 102.574 249.034 102.453C249.265 102.333 249.454 102.155 249.602 101.918C249.753 101.678 249.828 101.378 249.828 101.018ZM253.218 106.659V96.9091H254.862V98.0817H254.958C255.045 97.9093 255.166 97.7262 255.323 97.5323C255.48 97.3353 255.692 97.1676 255.96 97.0291C256.228 96.8875 256.57 96.8168 256.985 96.8168C257.533 96.8168 258.027 96.9568 258.467 97.2369C258.91 97.5138 259.261 97.9247 259.52 98.4695C259.781 99.0111 259.912 99.6759 259.912 100.464C259.912 101.242 259.784 101.904 259.529 102.449C259.273 102.994 258.926 103.409 258.485 103.695C258.045 103.982 257.547 104.125 256.99 104.125C256.583 104.125 256.246 104.057 255.979 103.922C255.711 103.786 255.496 103.623 255.332 103.432C255.172 103.238 255.048 103.055 254.958 102.883H254.889V106.659H253.218ZM254.857 100.455C254.857 100.913 254.922 101.315 255.051 101.659C255.183 102.004 255.372 102.273 255.619 102.467C255.868 102.658 256.17 102.754 256.523 102.754C256.893 102.754 257.202 102.655 257.451 102.458C257.701 102.258 257.888 101.986 258.015 101.641C258.144 101.293 258.208 100.898 258.208 100.455C258.208 100.014 258.145 99.6236 258.019 99.282C257.893 98.9403 257.705 98.6726 257.456 98.4787C257.207 98.2848 256.896 98.1879 256.523 98.1879C256.166 98.1879 255.863 98.2817 255.614 98.4695C255.365 98.6572 255.175 98.9203 255.046 99.2589C254.92 99.5974 254.857 99.996 254.857 100.455ZM261.343 106.659V96.9091H262.987V98.0817H263.083C263.17 97.9093 263.291 97.7262 263.448 97.5323C263.605 97.3353 263.817 97.1676 264.085 97.0291C264.353 96.8875 264.695 96.8168 265.11 96.8168C265.658 96.8168 266.152 96.9568 266.592 97.2369C267.035 97.5138 267.386 97.9247 267.645 98.4695C267.906 99.0111 268.037 99.6759 268.037 100.464C268.037 101.242 267.909 101.904 267.654 102.449C267.398 102.994 267.051 103.409 266.61 103.695C266.17 103.982 265.672 104.125 265.115 104.125C264.708 104.125 264.371 104.057 264.104 103.922C263.836 103.786 263.621 103.623 263.457 103.432C263.297 103.238 263.173 103.055 263.083 102.883H263.014V106.659H261.343ZM262.982 100.455C262.982 100.913 263.047 101.315 263.176 101.659C263.308 102.004 263.497 102.273 263.744 102.467C263.993 102.658 264.295 102.754 264.648 102.754C265.018 102.754 265.327 102.655 265.576 102.458C265.826 102.258 266.013 101.986 266.14 101.641C266.269 101.293 266.333 100.898 266.333 100.455C266.333 100.014 266.27 99.6236 266.144 99.282C266.018 98.9403 265.83 98.6726 265.581 98.4787C265.332 98.2848 265.021 98.1879 264.648 98.1879C264.291 98.1879 263.988 98.2817 263.739 98.4695C263.49 98.6572 263.3 98.9203 263.171 99.2589C263.045 99.5974 262.982 99.996 262.982 100.455ZM272.561 104.138C271.869 104.138 271.268 103.986 270.761 103.681C270.253 103.377 269.859 102.951 269.579 102.403C269.302 101.855 269.163 101.215 269.163 100.482C269.163 99.7498 269.302 99.1081 269.579 98.5572C269.859 98.0063 270.253 97.5785 270.761 97.2738C271.268 96.9691 271.869 96.8168 272.561 96.8168C273.254 96.8168 273.854 96.9691 274.362 97.2738C274.869 97.5785 275.262 98.0063 275.539 98.5572C275.819 99.1081 275.959 99.7498 275.959 100.482C275.959 101.215 275.819 101.855 275.539 102.403C275.262 102.951 274.869 103.377 274.362 103.681C273.854 103.986 273.254 104.138 272.561 104.138ZM272.57 102.8C272.946 102.8 273.26 102.697 273.512 102.49C273.764 102.281 273.952 102.001 274.075 101.65C274.201 101.299 274.265 100.908 274.265 100.478C274.265 100.044 274.201 99.6513 274.075 99.3004C273.952 98.9465 273.764 98.6649 273.512 98.4556C273.26 98.2463 272.946 98.1417 272.57 98.1417C272.186 98.1417 271.866 98.2463 271.61 98.4556C271.358 98.6649 271.168 98.9465 271.042 99.3004C270.919 99.6513 270.858 100.044 270.858 100.478C270.858 100.908 270.919 101.299 271.042 101.65C271.168 102.001 271.358 102.281 271.61 102.49C271.866 102.697 272.186 102.8 272.57 102.8ZM277.377 104V96.9091H278.998V98.0909H279.071C279.201 97.6816 279.422 97.3661 279.736 97.1445C280.053 96.9199 280.415 96.8075 280.821 96.8075C280.913 96.8075 281.017 96.8121 281.13 96.8214C281.247 96.8275 281.344 96.8383 281.421 96.8537V98.391C281.35 98.3664 281.238 98.3448 281.084 98.3263C280.933 98.3048 280.787 98.294 280.646 98.294C280.341 98.294 280.067 98.3602 279.824 98.4925C279.584 98.6218 279.395 98.8018 279.256 99.0327C279.118 99.2635 279.048 99.5297 279.048 99.8313V104H277.377ZM286.453 96.9091V98.2017H282.377V96.9091H286.453ZM283.383 95.2102H285.054V101.867C285.054 102.092 285.088 102.264 285.156 102.384C285.227 102.501 285.319 102.581 285.433 102.624C285.547 102.667 285.673 102.689 285.812 102.689C285.916 102.689 286.012 102.681 286.098 102.666C286.187 102.65 286.255 102.637 286.301 102.624L286.582 103.931C286.493 103.962 286.366 103.995 286.199 104.032C286.036 104.069 285.836 104.091 285.599 104.097C285.181 104.109 284.804 104.046 284.468 103.908C284.133 103.766 283.866 103.548 283.669 103.252C283.476 102.957 283.38 102.587 283.383 102.144V95.2102Z" fill="#606060"/>
<defs>
<filter id="filter0_d_27_17" x="17" y="67" width="309" height="67" filterUnits="userSpaceOnUse" color-interpolation-filters="sRGB">
<feFlood flood-opacity="0" result="BackgroundImageFix"/>
<feColorMatrix in="SourceAlpha" type="matrix" values="0 0 0 0 0 0 0 0 0 0 0 0 0 0 0 0 0 0 127 0" result="hardAlpha"/>
<feOffset dy="2"/>
<feGaussianBlur stdDeviation="2"/>
<feComposite in2="hardAlpha" operator="out"/>
<feColorMatrix type="matrix" values="0 0 0 0 0 0 0 0 0 0 0 0 0 0 0 0 0 0 0.05 0"/>
<feBlend mode="normal" in2="BackgroundImageFix" result="effect1_dropShadow_27_17"/>
<feBlend mode="normal" in="SourceGraphic" in2="effect1_dropShadow_27_17" result="shape"/>
</filter>
</defs>
</svg>
