<svg width="100%" height="100%" viewBox="0 0 342 250" fill="none" xmlns="http://www.w3.org/2000/svg">
<rect x="0.5" y="0.5" width="341" height="249" rx="7.5" fill="white" stroke="black"/>
<rect x="62.5" y="74.5" width="217" height="69" rx="3.5" fill="white" stroke="black"/>
<path d="M62.8437 60.3945V59H69.4141V60.3945H66.9648V67H65.293V60.3945H62.8437ZM72.3291 67.1172C71.7119 67.1172 71.1807 66.9922 70.7354 66.7422C70.2926 66.4896 69.9515 66.1328 69.7119 65.6719C69.4723 65.2083 69.3525 64.6602 69.3525 64.0273C69.3525 63.4102 69.4723 62.8685 69.7119 62.4023C69.9515 61.9362 70.2887 61.5729 70.7236 61.3125C71.1611 61.0521 71.6742 60.9219 72.2627 60.9219C72.6585 60.9219 73.027 60.9857 73.3682 61.1133C73.7119 61.2383 74.0114 61.4271 74.2666 61.6797C74.5244 61.9323 74.7249 62.25 74.8682 62.6328C75.0114 63.013 75.083 63.4583 75.083 63.9687V64.4258H70.0166V63.3945H73.5166C73.5166 63.1549 73.4645 62.9427 73.3604 62.7578C73.2562 62.5729 73.1117 62.4284 72.9268 62.3242C72.7445 62.2174 72.5322 62.1641 72.29 62.1641C72.0374 62.1641 71.8135 62.2227 71.6182 62.3398C71.4255 62.4544 71.2744 62.6094 71.165 62.8047C71.0557 62.9974 70.9997 63.2122 70.9971 63.4492V64.4297C70.9971 64.7266 71.0518 64.9831 71.1611 65.1992C71.2731 65.4154 71.4307 65.582 71.6338 65.6992C71.8369 65.8164 72.0778 65.875 72.3564 65.875C72.5413 65.875 72.7106 65.849 72.8643 65.7969C73.0179 65.7448 73.1494 65.6667 73.2588 65.5625C73.3682 65.4583 73.4515 65.3307 73.5088 65.1797L75.0479 65.2812C74.9697 65.651 74.8096 65.974 74.5674 66.25C74.3278 66.5234 74.0179 66.737 73.6377 66.8906C73.2601 67.0417 72.8239 67.1172 72.3291 67.1172ZM77.4521 61L78.5537 63.0977L79.6826 61H81.3896L79.6514 64L81.4365 67H79.7373L78.5537 64.9258L77.3896 67H75.6709L77.4521 64L75.7334 61H77.4521ZM85.5693 61V62.25H81.9561V61H85.5693ZM82.7764 59.5625H84.4404V65.1562C84.4404 65.3099 84.4639 65.4297 84.5107 65.5156C84.5576 65.599 84.6227 65.6576 84.7061 65.6914C84.792 65.7253 84.891 65.7422 85.0029 65.7422C85.0811 65.7422 85.1592 65.7357 85.2373 65.7227C85.3154 65.707 85.3753 65.6953 85.417 65.6875L85.6787 66.9258C85.5954 66.9518 85.4782 66.9818 85.3271 67.0156C85.1761 67.0521 84.9925 67.0742 84.7764 67.082C84.3753 67.0977 84.0238 67.0443 83.7217 66.9219C83.4222 66.7995 83.1891 66.6094 83.0225 66.3516C82.8558 66.0937 82.7738 65.7682 82.7764 65.375V59.5625ZM88.3643 67.1133C87.9814 67.1133 87.6403 67.0469 87.3408 66.9141C87.0413 66.7786 86.8044 66.5794 86.6299 66.3164C86.458 66.0508 86.3721 65.7201 86.3721 65.3242C86.3721 64.9909 86.4333 64.7109 86.5557 64.4844C86.6781 64.2578 86.8447 64.0755 87.0557 63.9375C87.2666 63.7995 87.5062 63.6953 87.7744 63.625C88.0452 63.5547 88.3291 63.5052 88.626 63.4766C88.9749 63.4401 89.2562 63.4062 89.4697 63.375C89.6833 63.3411 89.8382 63.2917 89.9346 63.2266C90.0309 63.1615 90.0791 63.0651 90.0791 62.9375V62.9141C90.0791 62.6667 90.001 62.4753 89.8447 62.3398C89.6911 62.2044 89.4723 62.1367 89.1885 62.1367C88.889 62.1367 88.6507 62.2031 88.4736 62.3359C88.2965 62.4661 88.1794 62.6302 88.1221 62.8281L86.583 62.7031C86.6611 62.3385 86.8148 62.0234 87.0439 61.7578C87.2731 61.4896 87.5687 61.2839 87.9307 61.1406C88.2952 60.9948 88.7171 60.9219 89.1963 60.9219C89.5296 60.9219 89.8486 60.9609 90.1533 61.0391C90.4606 61.1172 90.7327 61.2383 90.9697 61.4023C91.2093 61.5664 91.3981 61.7773 91.5361 62.0352C91.6742 62.2904 91.7432 62.5964 91.7432 62.9531V67H90.165V66.168H90.1182C90.0218 66.3555 89.8929 66.5208 89.7314 66.6641C89.57 66.8047 89.376 66.9154 89.1494 66.9961C88.9229 67.0742 88.6611 67.1133 88.3643 67.1133ZM88.8408 65.9648C89.0856 65.9648 89.3018 65.9167 89.4893 65.8203C89.6768 65.7214 89.8239 65.5885 89.9307 65.4219C90.0374 65.2552 90.0908 65.0664 90.0908 64.8555V64.2188C90.0387 64.2526 89.9671 64.2839 89.876 64.3125C89.7874 64.3385 89.6872 64.3633 89.5752 64.3867C89.4632 64.4076 89.3512 64.4271 89.2393 64.4453C89.1273 64.4609 89.0257 64.4753 88.9346 64.4883C88.7393 64.5169 88.5687 64.5625 88.4229 64.625C88.277 64.6875 88.1637 64.7721 88.083 64.8789C88.0023 64.9831 87.9619 65.1133 87.9619 65.2695C87.9619 65.4961 88.0439 65.6693 88.208 65.7891C88.3747 65.9062 88.5856 65.9648 88.8408 65.9648ZM93.0342 67V61H94.6475V62.0469H94.71C94.8193 61.6745 95.0029 61.3932 95.2607 61.2031C95.5186 61.0104 95.8154 60.9141 96.1514 60.9141C96.2347 60.9141 96.3245 60.9193 96.4209 60.9297C96.5173 60.9401 96.6019 60.9544 96.6748 60.9727V62.4492C96.5967 62.4258 96.4886 62.4049 96.3506 62.3867C96.2126 62.3685 96.0863 62.3594 95.9717 62.3594C95.7269 62.3594 95.5081 62.4128 95.3154 62.5195C95.1253 62.6237 94.9743 62.7695 94.8623 62.957C94.7529 63.1445 94.6982 63.3607 94.6982 63.6055V67H93.0342ZM99.9902 67.1172C99.373 67.1172 98.8418 66.9922 98.3965 66.7422C97.9538 66.4896 97.6126 66.1328 97.373 65.6719C97.1335 65.2083 97.0137 64.6602 97.0137 64.0273C97.0137 63.4102 97.1335 62.8685 97.373 62.4023C97.6126 61.9362 97.9499 61.5729 98.3848 61.3125C98.8223 61.0521 99.3353 60.9219 99.9238 60.9219C100.32 60.9219 100.688 60.9857 101.029 61.1133C101.373 61.2383 101.673 61.4271 101.928 61.6797C102.186 61.9323 102.386 62.25 102.529 62.6328C102.673 63.013 102.744 63.4583 102.744 63.9687V64.4258H97.6777V63.3945H101.178C101.178 63.1549 101.126 62.9427 101.021 62.7578C100.917 62.5729 100.773 62.4284 100.588 62.3242C100.406 62.2174 100.193 62.1641 99.9512 62.1641C99.6986 62.1641 99.4746 62.2227 99.2793 62.3398C99.0866 62.4544 98.9355 62.6094 98.8262 62.8047C98.7168 62.9974 98.6608 63.2122 98.6582 63.4492V64.4297C98.6582 64.7266 98.7129 64.9831 98.8223 65.1992C98.9342 65.4154 99.0918 65.582 99.2949 65.6992C99.498 65.8164 99.7389 65.875 100.018 65.875C100.202 65.875 100.372 65.849 100.525 65.7969C100.679 65.7448 100.811 65.6667 100.92 65.5625C101.029 65.4583 101.113 65.3307 101.17 65.1797L102.709 65.2812C102.631 65.651 102.471 65.974 102.229 66.25C101.989 66.5234 101.679 66.737 101.299 66.8906C100.921 67.0417 100.485 67.1172 99.9902 67.1172ZM105.541 67.1133C105.158 67.1133 104.817 67.0469 104.518 66.9141C104.218 66.7786 103.981 66.5794 103.807 66.3164C103.635 66.0508 103.549 65.7201 103.549 65.3242C103.549 64.9909 103.61 64.7109 103.732 64.4844C103.855 64.2578 104.021 64.0755 104.232 63.9375C104.443 63.7995 104.683 63.6953 104.951 63.625C105.222 63.5547 105.506 63.5052 105.803 63.4766C106.152 63.4401 106.433 63.4062 106.646 63.375C106.86 63.3411 107.015 63.2917 107.111 63.2266C107.208 63.1615 107.256 63.0651 107.256 62.9375V62.9141C107.256 62.6667 107.178 62.4753 107.021 62.3398C106.868 62.2044 106.649 62.1367 106.365 62.1367C106.066 62.1367 105.827 62.2031 105.65 62.3359C105.473 62.4661 105.356 62.6302 105.299 62.8281L103.76 62.7031C103.838 62.3385 103.992 62.0234 104.221 61.7578C104.45 61.4896 104.745 61.2839 105.107 61.1406C105.472 60.9948 105.894 60.9219 106.373 60.9219C106.706 60.9219 107.025 60.9609 107.33 61.0391C107.637 61.1172 107.91 61.2383 108.146 61.4023C108.386 61.5664 108.575 61.7773 108.713 62.0352C108.851 62.2904 108.92 62.5964 108.92 62.9531V67H107.342V66.168H107.295C107.199 66.3555 107.07 66.5208 106.908 66.6641C106.747 66.8047 106.553 66.9154 106.326 66.9961C106.1 67.0742 105.838 67.1133 105.541 67.1133ZM106.018 65.9648C106.262 65.9648 106.479 65.9167 106.666 65.8203C106.854 65.7214 107.001 65.5885 107.107 65.4219C107.214 65.2552 107.268 65.0664 107.268 64.8555V64.2188C107.215 64.2526 107.144 64.2839 107.053 64.3125C106.964 64.3385 106.864 64.3633 106.752 64.3867C106.64 64.4076 106.528 64.4271 106.416 64.4453C106.304 64.4609 106.202 64.4753 106.111 64.4883C105.916 64.5169 105.745 64.5625 105.6 64.625C105.454 64.6875 105.34 64.7721 105.26 64.8789C105.179 64.9831 105.139 65.1133 105.139 65.2695C105.139 65.4961 105.221 65.6693 105.385 65.7891C105.551 65.9062 105.762 65.9648 106.018 65.9648Z" fill="black"/>
<rect x="71" y="85" width="194" height="3" rx="1.5" fill="#D9D9D9"/>
<rect x="71" y="93" width="147" height="3" rx="1.5" fill="#D9D9D9"/>
<rect x="71" y="101" width="181" height="3" rx="1.5" fill="#D9D9D9"/>
</svg>
