<svg width="100%" height="100%" viewBox="0 0 342 250" fill="none" xmlns="http://www.w3.org/2000/svg">
<rect x="0.5" y="0.5" width="341" height="249" rx="7.5" fill="white" stroke="black"/>
<path d="M1 9.00001C1 4.58173 4.58172 1 9 1H333C337.418 1 341 4.58172 341 9V241C341 245.418 337.418 249 333 249H9C4.58172 249 1 245.418 1 241V9.00001Z" fill="#BEBEBE"/>
<g filter="url(#filter0_d_11_2124)">
<rect x="101" y="74" width="139" height="38" rx="4" fill="white"/>
<rect x="101.5" y="74.5" width="138" height="37" rx="3.5" stroke="black"/>
</g>
<g clip-path="url(#clip0_11_2124)">
<path opacity="0.3" d="M118 87.54V98.45C120.6 97.68 123.28 97.29 126 97.29C128.72 97.29 131.4 97.68 134 98.45V87.54C131.4 88.32 128.72 88.71 126 88.7C123.28 88.7 120.6 88.31 118 87.54Z" fill="black"/>
<path d="M135.43 85C135.33 85 135.23 85.02 135.12 85.06C132.18 86.16 129.09 86.7 126 86.7C122.91 86.7 119.82 86.15 116.88 85.06C116.77 85.02 116.66 85 116.57 85C116.23 85 116 85.23 116 85.63V100.38C116 100.77 116.23 101 116.57 101C116.67 101 116.77 100.98 116.88 100.94C119.82 99.84 122.91 99.3 126 99.3C129.09 99.3 132.18 99.85 135.12 100.94C135.23 100.98 135.33 101 135.43 101C135.76 101 136 100.77 136 100.37V85.63C136 85.23 135.76 85 135.43 85V85ZM134 98.45C131.4 97.68 128.72 97.29 126 97.29C123.28 97.29 120.6 97.68 118 98.45V87.54C120.6 88.31 123.28 88.7 126 88.7C128.72 88.71 131.4 88.32 134 87.54V98.45Z" fill="black"/>
</g>
<g clip-path="url(#clip1_11_2124)">
<path opacity="0.3" d="M166.54 85C167.31 87.6 167.7 90.28 167.7 93C167.7 95.72 167.31 98.4 166.54 101H177.45C176.68 98.4 176.29 95.72 176.29 93C176.29 90.28 176.68 87.6 177.45 85H166.54Z" fill="black"/>
<path d="M179.94 102.12C178.84 99.18 178.3 96.09 178.3 93C178.3 89.91 178.85 86.82 179.94 83.88C179.98 83.77 180 83.66 180 83.57C180 83.23 179.77 83 179.37 83H164.63C164.23 83 164 83.23 164 83.57C164 83.67 164.02 83.77 164.06 83.88C165.16 86.82 165.71 89.91 165.71 93C165.71 96.09 165.16 99.18 164.07 102.12C164.02 102.23 164 102.34 164 102.43C164 102.76 164.23 103 164.63 103H179.38C179.77 103 180.01 102.76 180.01 102.43C180 102.33 179.98 102.23 179.94 102.12V102.12ZM177.45 101H166.54C167.31 98.4 167.7 95.72 167.7 93C167.7 90.28 167.31 87.6 166.54 85H177.45C176.68 87.6 176.29 90.28 176.29 93C176.29 95.72 176.68 98.4 177.45 101Z" fill="black"/>
</g>
<rect opacity="0.1" x="199" y="77" width="38" height="31" rx="4" fill="#FF00F5"/>
<g clip-path="url(#clip2_11_2124)">
<path opacity="0.3" d="M218 87C215.55 87 213.29 87.2 210.71 87.64C210.24 89.42 210 91.22 210 93C210 94.78 210.24 96.58 210.71 98.36C213.29 98.8 215.55 99 218 99C220.45 99 222.71 98.8 225.29 98.36C225.76 96.58 226 94.78 226 93C226 91.22 225.76 89.42 225.29 87.64C222.71 87.2 220.45 87 218 87Z" fill="#FF00F5"/>
<path d="M227.13 86.78L226.88 85.89L225.95 85.73C223.22 85.24 220.73 85 218 85C215.27 85 212.78 85.24 210.05 85.72L209.12 85.88L208.87 86.78C208.29 88.85 208 90.93 208 93C208 95.07 208.29 97.15 208.87 99.22L209.12 100.11L210.05 100.27C212.78 100.76 215.27 101 218 101C220.73 101 223.22 100.76 225.95 100.28L226.88 100.12L227.13 99.23C227.71 97.15 228 95.07 228 93C228 90.93 227.71 88.85 227.13 86.78ZM225.29 98.36C222.71 98.8 220.45 99 218 99C215.55 99 213.29 98.8 210.71 98.36C210.24 96.58 210 94.78 210 93C210 91.22 210.24 89.42 210.71 87.64C213.29 87.2 215.55 87 218 87C220.45 87 222.71 87.2 225.29 87.64C225.76 89.42 226 91.22 226 93C226 94.78 225.76 96.58 225.29 98.36Z" fill="#FF00F5"/>
</g>
<defs>
<filter id="filter0_d_11_2124" x="97" y="72" width="147" height="46" filterUnits="userSpaceOnUse" color-interpolation-filters="sRGB">
<feFlood flood-opacity="0" result="BackgroundImageFix"/>
<feColorMatrix in="SourceAlpha" type="matrix" values="0 0 0 0 0 0 0 0 0 0 0 0 0 0 0 0 0 0 127 0" result="hardAlpha"/>
<feOffset dy="2"/>
<feGaussianBlur stdDeviation="2"/>
<feComposite in2="hardAlpha" operator="out"/>
<feColorMatrix type="matrix" values="0 0 0 0 0 0 0 0 0 0 0 0 0 0 0 0 0 0 0.05 0"/>
<feBlend mode="normal" in2="BackgroundImageFix" result="effect1_dropShadow_11_2124"/>
<feBlend mode="normal" in="SourceGraphic" in2="effect1_dropShadow_11_2124" result="shape"/>
</filter>
<clipPath id="clip0_11_2124">
<rect width="24" height="24" fill="white" transform="translate(114 81)"/>
</clipPath>
<clipPath id="clip1_11_2124">
<rect width="24" height="24" fill="white" transform="translate(160 81)"/>
</clipPath>
<clipPath id="clip2_11_2124">
<rect width="24" height="24" fill="white" transform="translate(206 81)"/>
</clipPath>
</defs>
</svg>
