<svg width="100%" height="100%" viewBox="0 0 342 250" fill="none" xmlns="http://www.w3.org/2000/svg">
<rect x="0.5" y="0.5" width="341" height="249" rx="7.5" fill="white" stroke="black"/>
<g clip-path="url(#clip0_27_598)">
<path d="M170 99H172V93H170V99ZM171 84C165.48 84 161 88.48 161 94C161 99.52 165.48 104 171 104C176.52 104 181 99.52 181 94C181 88.48 176.52 84 171 84ZM171 102C166.59 102 163 98.41 163 94C163 89.59 166.59 86 171 86C175.41 86 179 89.59 179 94C179 98.41 175.41 102 171 102ZM170 91H172V89H170V91Z" fill="#FF00F5"/>
</g>
<g filter="url(#filter0_d_27_598)">
<path d="M103 69.3846V52C103 49.7909 104.791 48 107 48H235C237.209 48 239 49.7909 239 52V69.3846C239 71.5938 237.225 73.3846 235.016 73.3846H174.709C174.409 73.3846 171.808 76.7239 171.038 77.7217C170.901 77.898 170.693 78 170.47 78C170.247 78 170.039 77.898 169.903 77.7217C169.132 76.7239 166.532 73.3846 166.231 73.3846H106.989C104.78 73.3846 103 71.5938 103 69.3846Z" fill="#676767"/>
<path d="M103.5 69.3846V52C103.5 50.067 105.067 48.5 107 48.5H235C236.933 48.5 238.5 50.067 238.5 52V69.3846C238.5 71.3202 236.946 72.8846 235.016 72.8846H174.709C174.595 72.8846 174.506 72.921 174.465 72.9402C174.416 72.9628 174.374 72.9892 174.343 73.011C174.279 73.0548 174.216 73.1088 174.158 73.1621C174.04 73.2706 173.899 73.4181 173.747 73.586C173.44 73.9244 173.056 74.381 172.662 74.8626C171.874 75.8277 171.028 76.9163 170.642 77.4162C170.601 77.4692 170.539 77.5 170.47 77.5C170.402 77.5 170.339 77.4692 170.298 77.4162C169.913 76.9163 169.066 75.8277 168.278 74.8626C167.884 74.381 167.501 73.9244 167.194 73.586C167.041 73.4181 166.9 73.2706 166.782 73.1621C166.724 73.1088 166.661 73.0548 166.598 73.011C166.566 72.9892 166.524 72.9628 166.475 72.9402C166.434 72.921 166.345 72.8846 166.231 72.8846H106.989C105.058 72.8846 103.5 71.3194 103.5 69.3846Z" stroke="#676767"/>
</g>
<rect x="115" y="56" width="113" height="8" rx="3" fill="white"/>
<defs>
<filter id="filter0_d_27_598" x="99" y="46" width="144" height="38" filterUnits="userSpaceOnUse" color-interpolation-filters="sRGB">
<feFlood flood-opacity="0" result="BackgroundImageFix"/>
<feColorMatrix in="SourceAlpha" type="matrix" values="0 0 0 0 0 0 0 0 0 0 0 0 0 0 0 0 0 0 127 0" result="hardAlpha"/>
<feOffset dy="2"/>
<feGaussianBlur stdDeviation="2"/>
<feComposite in2="hardAlpha" operator="out"/>
<feColorMatrix type="matrix" values="0 0 0 0 0 0 0 0 0 0 0 0 0 0 0 0 0 0 0.05 0"/>
<feBlend mode="normal" in2="BackgroundImageFix" result="effect1_dropShadow_27_598"/>
<feBlend mode="normal" in="SourceGraphic" in2="effect1_dropShadow_27_598" result="shape"/>
</filter>
<clipPath id="clip0_27_598">
<rect width="24" height="24" fill="white" transform="translate(159 82)"/>
</clipPath>
</defs>
</svg>
