<svg width="100%" height="100%" viewBox="0 0 342 250" fill="none" xmlns="http://www.w3.org/2000/svg">
<rect x="0.5" y="0.5" width="341" height="249" rx="7.5" fill="white" stroke="black"/>
<rect x="70.5" y="47.5" width="201" height="64" rx="3.5" fill="white" stroke="black" stroke-dasharray="2 2"/>
<g filter="url(#filter0_d_31_2326)">
<rect x="158" y="67" width="26" height="26" rx="2" fill="#676767"/>
</g>
<g clip-path="url(#clip0_31_2326)">
<path opacity="0.3" d="M176.407 80.5317L175.26 80.4446L175.035 79.2571C174.66 77.2225 172.965 75.75 171 75.75C169.455 75.75 168.06 76.6525 167.34 78.0933L166.965 78.8454L166.163 78.9325C164.648 79.1067 163.5 80.4604 163.5 82.0833C163.5 83.8329 164.842 85.25 166.5 85.25H176.25C177.487 85.25 178.5 84.1813 178.5 82.875C178.5 81.6479 177.585 80.6108 176.407 80.5317ZM172.087 81.2917V83.6667H169.905V81.2917H168L171 78.125L174 81.2917H172.087V81.2917Z" fill="white"/>
<path d="M176.513 78.9482C176.003 76.2169 173.73 74.1665 171 74.1665C168.832 74.1665 166.95 75.4648 166.012 77.3648C163.755 77.6182 162 79.6369 162 82.0832C162 84.7036 164.018 86.8332 166.5 86.8332H176.25C178.32 86.8332 180 85.0598 180 82.8748C180 80.7848 178.463 79.0907 176.513 78.9482ZM176.25 85.2498H166.5C164.842 85.2498 163.5 83.8328 163.5 82.0832C163.5 80.4603 164.647 79.1065 166.17 78.9403L166.973 78.8532L167.348 78.1011C168.06 76.6523 169.455 75.7498 171 75.7498C172.965 75.7498 174.66 77.2223 175.042 79.2569L175.268 80.4444L176.415 80.5315C177.585 80.6107 178.5 81.6478 178.5 82.8748C178.5 84.1811 177.487 85.2498 176.25 85.2498V85.2498ZM168 81.2915H169.913V83.6665H172.087V81.2915H174L171 78.1248L168 81.2915Z" fill="white"/>
</g>
<rect x="121" y="125" width="99" height="8" rx="3" fill="#676767"/>
<rect opacity="0.8" x="91" y="140" width="160" height="5" rx="2.5" fill="#D9D9D9"/>
<rect x="157" y="152" width="28" height="11" rx="3" fill="#676767"/>
<rect x="163" y="156.5" width="16" height="2" rx="1" fill="white"/>
<path d="M75.7554 30H77.4468V35.1953C77.4468 35.7786 77.3075 36.2891 77.0288 36.7266C76.7528 37.1641 76.366 37.5052 75.8687 37.75C75.3713 37.9922 74.7918 38.1133 74.1304 38.1133C73.4663 38.1133 72.8856 37.9922 72.3882 37.75C71.8908 37.5052 71.5041 37.1641 71.228 36.7266C70.952 36.2891 70.814 35.7786 70.814 35.1953V30H72.5054V35.0508C72.5054 35.3555 72.5718 35.6263 72.7046 35.8633C72.84 36.1003 73.0301 36.2865 73.2749 36.4219C73.5197 36.5573 73.8049 36.625 74.1304 36.625C74.4585 36.625 74.7437 36.5573 74.9858 36.4219C75.2306 36.2865 75.4194 36.1003 75.5522 35.8633C75.6877 35.6263 75.7554 35.3555 75.7554 35.0508V30ZM78.8071 40.25V32H80.4478V33.0078H80.522C80.5949 32.8464 80.7004 32.6823 80.8384 32.5156C80.979 32.3464 81.1613 32.2057 81.3853 32.0938C81.6118 31.9792 81.8931 31.9219 82.229 31.9219C82.6665 31.9219 83.0701 32.0365 83.4399 32.2656C83.8097 32.4922 84.1053 32.8346 84.3267 33.293C84.548 33.7487 84.6587 34.3203 84.6587 35.0078C84.6587 35.6771 84.5506 36.2422 84.3345 36.7031C84.1209 37.1615 83.8293 37.5091 83.4595 37.7461C83.0923 37.9805 82.6808 38.0977 82.2251 38.0977C81.9022 38.0977 81.6274 38.0443 81.4009 37.9375C81.1769 37.8307 80.9933 37.6966 80.8501 37.5352C80.7069 37.3711 80.5975 37.2057 80.522 37.0391H80.4712V40.25H78.8071ZM80.436 35C80.436 35.3568 80.4855 35.668 80.5845 35.9336C80.6834 36.1992 80.8267 36.4062 81.0142 36.5547C81.2017 36.7005 81.4295 36.7734 81.6978 36.7734C81.9686 36.7734 82.1978 36.6992 82.3853 36.5508C82.5728 36.3997 82.7147 36.1914 82.811 35.9258C82.91 35.6576 82.9595 35.349 82.9595 35C82.9595 34.6536 82.9113 34.349 82.8149 34.0859C82.7186 33.8229 82.5767 33.6172 82.3892 33.4687C82.2017 33.3203 81.9712 33.2461 81.6978 33.2461C81.4269 33.2461 81.1978 33.3177 81.0103 33.4609C80.8254 33.6042 80.6834 33.8073 80.5845 34.0703C80.4855 34.3333 80.436 34.6432 80.436 35ZM87.4321 30V38H85.7681V30H87.4321ZM91.4761 38.1172C90.8693 38.1172 90.3446 37.9883 89.9019 37.7305C89.4618 37.4701 89.1219 37.1081 88.8823 36.6445C88.6427 36.1784 88.5229 35.638 88.5229 35.0234C88.5229 34.4036 88.6427 33.862 88.8823 33.3984C89.1219 32.9323 89.4618 32.5703 89.9019 32.3125C90.3446 32.0521 90.8693 31.9219 91.4761 31.9219C92.0828 31.9219 92.6063 32.0521 93.0464 32.3125C93.4891 32.5703 93.8302 32.9323 94.0698 33.3984C94.3094 33.862 94.4292 34.4036 94.4292 35.0234C94.4292 35.638 94.3094 36.1784 94.0698 36.6445C93.8302 37.1081 93.4891 37.4701 93.0464 37.7305C92.6063 37.9883 92.0828 38.1172 91.4761 38.1172ZM91.4839 36.8281C91.7599 36.8281 91.9904 36.75 92.1753 36.5938C92.3602 36.4349 92.4995 36.2187 92.5933 35.9453C92.6896 35.6719 92.7378 35.3607 92.7378 35.0117C92.7378 34.6628 92.6896 34.3516 92.5933 34.0781C92.4995 33.8047 92.3602 33.5885 92.1753 33.4297C91.9904 33.2708 91.7599 33.1914 91.4839 33.1914C91.2052 33.1914 90.9709 33.2708 90.7808 33.4297C90.5933 33.5885 90.4513 33.8047 90.355 34.0781C90.2612 34.3516 90.2144 34.6628 90.2144 35.0117C90.2144 35.3607 90.2612 35.6719 90.355 35.9453C90.4513 36.2187 90.5933 36.4349 90.7808 36.5938C90.9709 36.75 91.2052 36.8281 91.4839 36.8281ZM97.2222 38.1133C96.8394 38.1133 96.4982 38.0469 96.1987 37.9141C95.8993 37.7786 95.6623 37.5794 95.4878 37.3164C95.3159 37.0508 95.23 36.7201 95.23 36.3242C95.23 35.9909 95.2912 35.7109 95.4136 35.4844C95.536 35.2578 95.7026 35.0755 95.9136 34.9375C96.1245 34.7995 96.3641 34.6953 96.6323 34.625C96.9032 34.5547 97.187 34.5052 97.4839 34.4766C97.8328 34.4401 98.1141 34.4062 98.3276 34.375C98.5412 34.3411 98.6961 34.2917 98.7925 34.2266C98.8888 34.1615 98.937 34.0651 98.937 33.9375V33.9141C98.937 33.6667 98.8589 33.4753 98.7026 33.3398C98.549 33.2044 98.3302 33.1367 98.0464 33.1367C97.7469 33.1367 97.5086 33.2031 97.3315 33.3359C97.1545 33.4661 97.0373 33.6302 96.98 33.8281L95.4409 33.7031C95.519 33.3385 95.6727 33.0234 95.9019 32.7578C96.131 32.4896 96.4266 32.2839 96.7886 32.1406C97.1532 31.9948 97.575 31.9219 98.0542 31.9219C98.3875 31.9219 98.7065 31.9609 99.0112 32.0391C99.3185 32.1172 99.5907 32.2383 99.8276 32.4023C100.067 32.5664 100.256 32.7773 100.394 33.0352C100.532 33.2904 100.601 33.5964 100.601 33.9531V38H99.0229V37.168H98.9761C98.8797 37.3555 98.7508 37.5208 98.5894 37.6641C98.4279 37.8047 98.2339 37.9154 98.0073 37.9961C97.7808 38.0742 97.519 38.1133 97.2222 38.1133ZM97.6987 36.9648C97.9435 36.9648 98.1597 36.9167 98.3472 36.8203C98.5347 36.7214 98.6818 36.5885 98.7886 36.4219C98.8953 36.2552 98.9487 36.0664 98.9487 35.8555V35.2188C98.8966 35.2526 98.825 35.2839 98.7339 35.3125C98.6453 35.3385 98.5451 35.3633 98.4331 35.3867C98.3211 35.4076 98.2091 35.4271 98.0972 35.4453C97.9852 35.4609 97.8836 35.4753 97.7925 35.4883C97.5972 35.5169 97.4266 35.5625 97.2808 35.625C97.1349 35.6875 97.0216 35.7721 96.9409 35.8789C96.8602 35.9831 96.8198 36.1133 96.8198 36.2695C96.8198 36.4961 96.9019 36.6693 97.0659 36.7891C97.2326 36.9062 97.4435 36.9648 97.6987 36.9648ZM104.103 38.0977C103.647 38.0977 103.235 37.9805 102.865 37.7461C102.498 37.5091 102.206 37.1615 101.99 36.7031C101.776 36.2422 101.669 35.6771 101.669 35.0078C101.669 34.3203 101.78 33.7487 102.001 33.293C102.223 32.8346 102.517 32.4922 102.884 32.2656C103.254 32.0365 103.659 31.9219 104.099 31.9219C104.435 31.9219 104.715 31.9792 104.939 32.0938C105.166 32.2057 105.348 32.3464 105.486 32.5156C105.626 32.6823 105.733 32.8464 105.806 33.0078H105.857V30H107.517V38H105.876V37.0391H105.806C105.728 37.2057 105.617 37.3711 105.474 37.5352C105.333 37.6966 105.15 37.8307 104.923 37.9375C104.699 38.0443 104.426 38.0977 104.103 38.0977ZM104.63 36.7734C104.899 36.7734 105.125 36.7005 105.31 36.5547C105.498 36.4062 105.641 36.1992 105.74 35.9336C105.841 35.668 105.892 35.3568 105.892 35C105.892 34.6432 105.843 34.3333 105.744 34.0703C105.645 33.8073 105.501 33.6042 105.314 33.4609C105.126 33.3177 104.899 33.2461 104.63 33.2461C104.357 33.2461 104.126 33.3203 103.939 33.4687C103.751 33.6172 103.61 33.8229 103.513 34.0859C103.417 34.349 103.369 34.6536 103.369 35C103.369 35.349 103.417 35.6576 103.513 35.9258C103.612 36.1914 103.754 36.3997 103.939 36.5508C104.126 36.6992 104.357 36.7734 104.63 36.7734ZM111.431 40.25V32H113.072V33.0078H113.146C113.219 32.8464 113.324 32.6823 113.462 32.5156C113.603 32.3464 113.785 32.2057 114.009 32.0938C114.236 31.9792 114.517 31.9219 114.853 31.9219C115.291 31.9219 115.694 32.0365 116.064 32.2656C116.434 32.4922 116.729 32.8346 116.951 33.293C117.172 33.7487 117.283 34.3203 117.283 35.0078C117.283 35.6771 117.175 36.2422 116.958 36.7031C116.745 37.1615 116.453 37.5091 116.083 37.7461C115.716 37.9805 115.305 38.0977 114.849 38.0977C114.526 38.0977 114.251 38.0443 114.025 37.9375C113.801 37.8307 113.617 37.6966 113.474 37.5352C113.331 37.3711 113.222 37.2057 113.146 37.0391H113.095V40.25H111.431ZM113.06 35C113.06 35.3568 113.11 35.668 113.208 35.9336C113.307 36.1992 113.451 36.4062 113.638 36.5547C113.826 36.7005 114.054 36.7734 114.322 36.7734C114.593 36.7734 114.822 36.6992 115.009 36.5508C115.197 36.3997 115.339 36.1914 115.435 35.9258C115.534 35.6576 115.583 35.349 115.583 35C115.583 34.6536 115.535 34.349 115.439 34.0859C115.343 33.8229 115.201 33.6172 115.013 33.4687C114.826 33.3203 114.595 33.2461 114.322 33.2461C114.051 33.2461 113.822 33.3177 113.634 33.4609C113.449 33.6042 113.307 33.8073 113.208 34.0703C113.11 34.3333 113.06 34.6432 113.06 35ZM118.392 38V32H120.005V33.0469H120.068C120.177 32.6745 120.361 32.3932 120.619 32.2031C120.876 32.0104 121.173 31.9141 121.509 31.9141C121.593 31.9141 121.682 31.9193 121.779 31.9297C121.875 31.9401 121.96 31.9544 122.033 31.9727V33.4492C121.955 33.4258 121.847 33.4049 121.708 33.3867C121.57 33.3685 121.444 33.3594 121.33 33.3594C121.085 33.3594 120.866 33.4128 120.673 33.5195C120.483 33.6237 120.332 33.7695 120.22 33.957C120.111 34.1445 120.056 34.3607 120.056 34.6055V38H118.392ZM125.325 38.1172C124.718 38.1172 124.193 37.9883 123.75 37.7305C123.31 37.4701 122.971 37.1081 122.731 36.6445C122.491 36.1784 122.372 35.638 122.372 35.0234C122.372 34.4036 122.491 33.862 122.731 33.3984C122.971 32.9323 123.31 32.5703 123.75 32.3125C124.193 32.0521 124.718 31.9219 125.325 31.9219C125.931 31.9219 126.455 32.0521 126.895 32.3125C127.338 32.5703 127.679 32.9323 127.918 33.3984C128.158 33.862 128.278 34.4036 128.278 35.0234C128.278 35.638 128.158 36.1784 127.918 36.6445C127.679 37.1081 127.338 37.4701 126.895 37.7305C126.455 37.9883 125.931 38.1172 125.325 38.1172ZM125.333 36.8281C125.609 36.8281 125.839 36.75 126.024 36.5938C126.209 36.4349 126.348 36.2187 126.442 35.9453C126.538 35.6719 126.586 35.3607 126.586 35.0117C126.586 34.6628 126.538 34.3516 126.442 34.0781C126.348 33.8047 126.209 33.5885 126.024 33.4297C125.839 33.2708 125.609 33.1914 125.333 33.1914C125.054 33.1914 124.819 33.2708 124.629 33.4297C124.442 33.5885 124.3 33.8047 124.204 34.0781C124.11 34.3516 124.063 34.6628 124.063 35.0117C124.063 35.3607 124.11 35.6719 124.204 35.9453C124.3 36.2187 124.442 36.4349 124.629 36.5938C124.819 36.75 125.054 36.8281 125.333 36.8281ZM132.586 32V33.25H128.883V32H132.586ZM129.731 38V31.5664C129.731 31.1315 129.816 30.7708 129.985 30.4844C130.157 30.1979 130.391 29.9831 130.688 29.8398C130.985 29.6966 131.322 29.625 131.7 29.625C131.955 29.625 132.188 29.6445 132.399 29.6836C132.612 29.7227 132.771 29.7578 132.875 29.7891L132.579 31.0391C132.514 31.0182 132.433 30.9987 132.336 30.9805C132.243 30.9622 132.146 30.9531 132.047 30.9531C131.803 30.9531 131.632 31.0104 131.536 31.125C131.439 31.237 131.391 31.3945 131.391 31.5977V38H129.731ZM133.603 38V32H135.267V38H133.603ZM134.439 31.2266C134.192 31.2266 133.979 31.1445 133.802 30.9805C133.628 30.8138 133.541 30.6146 133.541 30.3828C133.541 30.1536 133.628 29.957 133.802 29.793C133.979 29.6263 134.192 29.543 134.439 29.543C134.686 29.543 134.897 29.6263 135.072 29.793C135.249 29.957 135.337 30.1536 135.337 30.3828C135.337 30.6146 135.249 30.8138 135.072 30.9805C134.897 31.1445 134.686 31.2266 134.439 31.2266ZM138.264 30V38H136.6V30H138.264ZM142.332 38.1172C141.714 38.1172 141.183 37.9922 140.738 37.7422C140.295 37.4896 139.954 37.1328 139.714 36.6719C139.475 36.2083 139.355 35.6602 139.355 35.0273C139.355 34.4102 139.475 33.8685 139.714 33.4023C139.954 32.9362 140.291 32.5729 140.726 32.3125C141.164 32.0521 141.677 31.9219 142.265 31.9219C142.661 31.9219 143.029 31.9857 143.371 32.1133C143.714 32.2383 144.014 32.4271 144.269 32.6797C144.527 32.9323 144.727 33.25 144.871 33.6328C145.014 34.013 145.085 34.4583 145.085 34.9687V35.4258H140.019V34.3945H143.519C143.519 34.1549 143.467 33.9427 143.363 33.7578C143.259 33.5729 143.114 33.4284 142.929 33.3242C142.747 33.2174 142.535 33.1641 142.292 33.1641C142.04 33.1641 141.816 33.2227 141.621 33.3398C141.428 33.4544 141.277 33.6094 141.167 33.8047C141.058 33.9974 141.002 34.2122 141 34.4492V35.4297C141 35.7266 141.054 35.9831 141.164 36.1992C141.276 36.4154 141.433 36.582 141.636 36.6992C141.839 36.8164 142.08 36.875 142.359 36.875C142.544 36.875 142.713 36.849 142.867 36.7969C143.02 36.7448 143.152 36.6667 143.261 36.5625C143.371 36.4583 143.454 36.3307 143.511 36.1797L145.05 36.2812C144.972 36.651 144.812 36.974 144.57 37.25C144.33 37.5234 144.02 37.737 143.64 37.8906C143.263 38.0417 142.826 38.1172 142.332 38.1172ZM151.428 38.1172C150.814 38.1172 150.285 37.987 149.842 37.7266C149.402 37.4635 149.064 37.099 148.827 36.6328C148.592 36.1667 148.475 35.6302 148.475 35.0234C148.475 34.4089 148.594 33.8698 148.831 33.4062C149.07 32.9401 149.41 32.5768 149.85 32.3164C150.29 32.0534 150.814 31.9219 151.42 31.9219C151.944 31.9219 152.402 32.0169 152.795 32.207C153.189 32.3971 153.5 32.6641 153.729 33.0078C153.958 33.3516 154.084 33.7552 154.108 34.2188H152.538C152.493 33.9193 152.376 33.6784 152.186 33.4961C151.999 33.3112 151.752 33.2187 151.448 33.2187C151.19 33.2187 150.965 33.2891 150.772 33.4297C150.582 33.5677 150.433 33.7695 150.327 34.0352C150.22 34.3008 150.167 34.6224 150.167 35C150.167 35.3828 150.219 35.7083 150.323 35.9766C150.43 36.2448 150.579 36.4492 150.772 36.5898C150.965 36.7305 151.19 36.8008 151.448 36.8008C151.638 36.8008 151.808 36.7617 151.959 36.6836C152.113 36.6055 152.239 36.4922 152.338 36.3437C152.44 36.1927 152.506 36.0117 152.538 35.8008H154.108C154.082 36.2591 153.957 36.6628 153.733 37.0117C153.512 37.3581 153.206 37.6289 152.815 37.8242C152.424 38.0195 151.962 38.1172 151.428 38.1172ZM157.884 38.1172C157.278 38.1172 156.753 37.9883 156.31 37.7305C155.87 37.4701 155.53 37.1081 155.291 36.6445C155.051 36.1784 154.931 35.638 154.931 35.0234C154.931 34.4036 155.051 33.862 155.291 33.3984C155.53 32.9323 155.87 32.5703 156.31 32.3125C156.753 32.0521 157.278 31.9219 157.884 31.9219C158.491 31.9219 159.014 32.0521 159.455 32.3125C159.897 32.5703 160.238 32.9323 160.478 33.3984C160.718 33.862 160.837 34.4036 160.837 35.0234C160.837 35.638 160.718 36.1784 160.478 36.6445C160.238 37.1081 159.897 37.4701 159.455 37.7305C159.014 37.9883 158.491 38.1172 157.884 38.1172ZM157.892 36.8281C158.168 36.8281 158.399 36.75 158.583 36.5938C158.768 36.4349 158.908 36.2187 159.001 35.9453C159.098 35.6719 159.146 35.3607 159.146 35.0117C159.146 34.6628 159.098 34.3516 159.001 34.0781C158.908 33.8047 158.768 33.5885 158.583 33.4297C158.399 33.2708 158.168 33.1914 157.892 33.1914C157.613 33.1914 157.379 33.2708 157.189 33.4297C157.001 33.5885 156.86 33.8047 156.763 34.0781C156.669 34.3516 156.623 34.6628 156.623 35.0117C156.623 35.3607 156.669 35.6719 156.763 35.9453C156.86 36.2187 157.001 36.4349 157.189 36.5938C157.379 36.75 157.613 36.8281 157.892 36.8281ZM167.32 32L165.222 38H163.347L161.25 32H163.007L164.253 36.293H164.316L165.558 32H167.32ZM170.712 38.1172C170.095 38.1172 169.564 37.9922 169.119 37.7422C168.676 37.4896 168.335 37.1328 168.095 36.6719C167.856 36.2083 167.736 35.6602 167.736 35.0273C167.736 34.4102 167.856 33.8685 168.095 33.4023C168.335 32.9362 168.672 32.5729 169.107 32.3125C169.544 32.0521 170.057 31.9219 170.646 31.9219C171.042 31.9219 171.41 31.9857 171.751 32.1133C172.095 32.2383 172.395 32.4271 172.65 32.6797C172.908 32.9323 173.108 33.25 173.251 33.6328C173.395 34.013 173.466 34.4583 173.466 34.9687V35.4258H168.4V34.3945H171.9C171.9 34.1549 171.848 33.9427 171.744 33.7578C171.639 33.5729 171.495 33.4284 171.31 33.3242C171.128 33.2174 170.916 33.1641 170.673 33.1641C170.421 33.1641 170.197 33.2227 170.001 33.3398C169.809 33.4544 169.658 33.6094 169.548 33.8047C169.439 33.9974 169.383 34.2122 169.38 34.4492V35.4297C169.38 35.7266 169.435 35.9831 169.544 36.1992C169.656 36.4154 169.814 36.582 170.017 36.6992C170.22 36.8164 170.461 36.875 170.74 36.875C170.925 36.875 171.094 36.849 171.248 36.7969C171.401 36.7448 171.533 36.6667 171.642 36.5625C171.751 36.4583 171.835 36.3307 171.892 36.1797L173.431 36.2812C173.353 36.651 173.193 36.974 172.951 37.25C172.711 37.5234 172.401 37.737 172.021 37.8906C171.643 38.0417 171.207 38.1172 170.712 38.1172ZM174.552 38V32H176.166V33.0469H176.228C176.337 32.6745 176.521 32.3932 176.779 32.2031C177.037 32.0104 177.333 31.9141 177.669 31.9141C177.753 31.9141 177.843 31.9193 177.939 31.9297C178.035 31.9401 178.12 31.9544 178.193 31.9727V33.4492C178.115 33.4258 178.007 33.4049 177.869 33.3867C177.731 33.3685 177.604 33.3594 177.49 33.3594C177.245 33.3594 177.026 33.4128 176.833 33.5195C176.643 33.6237 176.492 33.7695 176.38 33.957C176.271 34.1445 176.216 34.3607 176.216 34.6055V38H174.552ZM181.599 38V32H183.263V38H181.599ZM182.435 31.2266C182.188 31.2266 181.975 31.1445 181.798 30.9805C181.624 30.8138 181.537 30.6146 181.537 30.3828C181.537 30.1536 181.624 29.957 181.798 29.793C181.975 29.6263 182.188 29.543 182.435 29.543C182.682 29.543 182.893 29.6263 183.068 29.793C183.245 29.957 183.333 30.1536 183.333 30.3828C183.333 30.6146 183.245 30.8138 183.068 30.9805C182.893 31.1445 182.682 31.2266 182.435 31.2266ZM184.596 38V32H186.182V33.0586H186.252C186.377 32.707 186.586 32.4297 186.877 32.2266C187.169 32.0234 187.518 31.9219 187.924 31.9219C188.336 31.9219 188.686 32.0247 188.975 32.2305C189.264 32.4336 189.457 32.7096 189.553 33.0586H189.616C189.738 32.7148 189.959 32.4401 190.28 32.2344C190.603 32.026 190.984 31.9219 191.424 31.9219C191.984 31.9219 192.439 32.1003 192.788 32.457C193.139 32.8112 193.315 33.3138 193.315 33.9648V38H191.655V34.293C191.655 33.9596 191.566 33.7096 191.389 33.543C191.212 33.3763 190.991 33.293 190.725 33.293C190.423 33.293 190.187 33.3893 190.018 33.582C189.849 33.7721 189.764 34.0234 189.764 34.3359V38H188.151V34.2578C188.151 33.9635 188.066 33.7292 187.897 33.5547C187.73 33.3802 187.51 33.293 187.237 33.293C187.052 33.293 186.885 33.3398 186.737 33.4336C186.591 33.5247 186.475 33.6536 186.389 33.8203C186.303 33.9844 186.26 34.1771 186.26 34.3984V38H184.596ZM196.34 38.1133C195.958 38.1133 195.616 38.0469 195.317 37.9141C195.017 37.7786 194.78 37.5794 194.606 37.3164C194.434 37.0508 194.348 36.7201 194.348 36.3242C194.348 35.9909 194.409 35.7109 194.532 35.4844C194.654 35.2578 194.821 35.0755 195.032 34.9375C195.243 34.7995 195.482 34.6953 195.75 34.625C196.021 34.5547 196.305 34.5052 196.602 34.4766C196.951 34.4401 197.232 34.4062 197.446 34.375C197.659 34.3411 197.814 34.2917 197.911 34.2266C198.007 34.1615 198.055 34.0651 198.055 33.9375V33.9141C198.055 33.6667 197.977 33.4753 197.821 33.3398C197.667 33.2044 197.448 33.1367 197.165 33.1367C196.865 33.1367 196.627 33.2031 196.45 33.3359C196.273 33.4661 196.155 33.6302 196.098 33.8281L194.559 33.7031C194.637 33.3385 194.791 33.0234 195.02 32.7578C195.249 32.4896 195.545 32.2839 195.907 32.1406C196.271 31.9948 196.693 31.9219 197.172 31.9219C197.506 31.9219 197.825 31.9609 198.129 32.0391C198.437 32.1172 198.709 32.2383 198.946 32.4023C199.185 32.5664 199.374 32.7773 199.512 33.0352C199.65 33.2904 199.719 33.5964 199.719 33.9531V38H198.141V37.168H198.094C197.998 37.3555 197.869 37.5208 197.708 37.6641C197.546 37.8047 197.352 37.9154 197.125 37.9961C196.899 38.0742 196.637 38.1133 196.34 38.1133ZM196.817 36.9648C197.062 36.9648 197.278 36.9167 197.465 36.8203C197.653 36.7214 197.8 36.5885 197.907 36.4219C198.014 36.2552 198.067 36.0664 198.067 35.8555V35.2188C198.015 35.2526 197.943 35.2839 197.852 35.3125C197.764 35.3385 197.663 35.3633 197.551 35.3867C197.439 35.4076 197.327 35.4271 197.215 35.4453C197.103 35.4609 197.002 35.4753 196.911 35.4883C196.715 35.5169 196.545 35.5625 196.399 35.625C196.253 35.6875 196.14 35.7721 196.059 35.8789C195.978 35.9831 195.938 36.1133 195.938 36.2695C195.938 36.4961 196.02 36.6693 196.184 36.7891C196.351 36.9062 196.562 36.9648 196.817 36.9648ZM203.713 40.375C203.174 40.375 202.712 40.3008 202.327 40.1523C201.944 40.0065 201.639 39.8073 201.413 39.5547C201.186 39.3021 201.039 39.0182 200.971 38.7031L202.51 38.4961C202.557 38.6159 202.631 38.7279 202.733 38.832C202.834 38.9362 202.969 39.0195 203.135 39.082C203.305 39.1471 203.51 39.1797 203.752 39.1797C204.114 39.1797 204.413 39.0911 204.647 38.9141C204.884 38.7396 205.002 38.4466 205.002 38.0352V36.9375H204.932C204.859 37.1042 204.75 37.2617 204.604 37.4102C204.458 37.5586 204.271 37.6797 204.042 37.7734C203.812 37.8672 203.539 37.9141 203.221 37.9141C202.771 37.9141 202.361 37.8099 201.991 37.6016C201.624 37.3906 201.331 37.069 201.112 36.6367C200.896 36.2018 200.788 35.6523 200.788 34.9883C200.788 34.3086 200.898 33.7409 201.12 33.2852C201.341 32.8294 201.635 32.4883 202.002 32.2617C202.372 32.0352 202.777 31.9219 203.217 31.9219C203.553 31.9219 203.834 31.9792 204.061 32.0938C204.288 32.2057 204.47 32.3464 204.608 32.5156C204.749 32.6823 204.857 32.8464 204.932 33.0078H204.995V32H206.647V38.0586C206.647 38.569 206.522 38.9961 206.272 39.3398C206.022 39.6836 205.676 39.9414 205.233 40.1133C204.793 40.2878 204.286 40.375 203.713 40.375ZM203.749 36.6641C204.017 36.6641 204.243 36.5977 204.428 36.4648C204.616 36.3294 204.759 36.1367 204.858 35.8867C204.959 35.6341 205.01 35.332 205.01 34.9805C205.01 34.6289 204.961 34.3242 204.862 34.0664C204.763 33.806 204.62 33.6042 204.432 33.4609C204.245 33.3177 204.017 33.2461 203.749 33.2461C203.475 33.2461 203.245 33.3203 203.057 33.4687C202.87 33.6146 202.728 33.8177 202.631 34.0781C202.535 34.3385 202.487 34.6393 202.487 34.9805C202.487 35.3268 202.535 35.6263 202.631 35.8789C202.73 36.1289 202.872 36.3229 203.057 36.4609C203.245 36.5964 203.475 36.6641 203.749 36.6641ZM210.706 38.1172C210.088 38.1172 209.557 37.9922 209.112 37.7422C208.669 37.4896 208.328 37.1328 208.088 36.6719C207.849 36.2083 207.729 35.6602 207.729 35.0273C207.729 34.4102 207.849 33.8685 208.088 33.4023C208.328 32.9362 208.665 32.5729 209.1 32.3125C209.538 32.0521 210.051 31.9219 210.639 31.9219C211.035 31.9219 211.403 31.9857 211.745 32.1133C212.088 32.2383 212.388 32.4271 212.643 32.6797C212.901 32.9323 213.101 33.25 213.245 33.6328C213.388 34.013 213.459 34.4583 213.459 34.9687V35.4258H208.393V34.3945H211.893C211.893 34.1549 211.841 33.9427 211.737 33.7578C211.633 33.5729 211.488 33.4284 211.303 33.3242C211.121 33.2174 210.909 33.1641 210.667 33.1641C210.414 33.1641 210.19 33.2227 209.995 33.3398C209.802 33.4544 209.651 33.6094 209.542 33.8047C209.432 33.9974 209.376 34.2122 209.374 34.4492V35.4297C209.374 35.7266 209.428 35.9831 209.538 36.1992C209.65 36.4154 209.807 36.582 210.01 36.6992C210.213 36.8164 210.454 36.875 210.733 36.875C210.918 36.875 211.087 36.849 211.241 36.7969C211.394 36.7448 211.526 36.6667 211.635 36.5625C211.745 36.4583 211.828 36.3307 211.885 36.1797L213.424 36.2812C213.346 36.651 213.186 36.974 212.944 37.25C212.704 37.5234 212.394 37.737 212.014 37.8906C211.637 38.0417 211.2 38.1172 210.706 38.1172Z" fill="black"/>
<defs>
<filter id="filter0_d_31_2326" x="158" y="67" width="30" height="30" filterUnits="userSpaceOnUse" color-interpolation-filters="sRGB">
<feFlood flood-opacity="0" result="BackgroundImageFix"/>
<feColorMatrix in="SourceAlpha" type="matrix" values="0 0 0 0 0 0 0 0 0 0 0 0 0 0 0 0 0 0 127 0" result="hardAlpha"/>
<feOffset dx="2" dy="2"/>
<feGaussianBlur stdDeviation="1"/>
<feComposite in2="hardAlpha" operator="out"/>
<feColorMatrix type="matrix" values="0 0 0 0 0 0 0 0 0 0 0 0 0 0 0 0 0 0 0.04 0"/>
<feBlend mode="normal" in2="BackgroundImageFix" result="effect1_dropShadow_31_2326"/>
<feBlend mode="normal" in="SourceGraphic" in2="effect1_dropShadow_31_2326" result="shape"/>
</filter>
<clipPath id="clip0_31_2326">
<rect width="18" height="19" fill="white" transform="translate(162 71)"/>
</clipPath>
</defs>
</svg>
