<svg width="100%" height="100%" viewBox="0 0 342 250" fill="none" xmlns="http://www.w3.org/2000/svg">
<rect x="0.5" y="0.5" width="341" height="249" rx="7.5" fill="white" stroke="black"/>
<path d="M1 9.00001C1 4.58173 4.58172 1 9 1H333C337.418 1 341 4.58172 341 9V241C341 245.418 337.418 249 333 249H9C4.58172 249 1 245.418 1 241V9.00001Z" fill="#BEBEBE"/>
<g filter="url(#filter0_d_13_2370)">
<rect x="114" y="38" width="113" height="112" rx="4" fill="white"/>
<rect x="114.5" y="38.5" width="112" height="111" rx="3.5" stroke="black"/>
</g>
<rect x="121" y="48" width="62" height="4" rx="2" fill="#747474"/>
<line opacity="0.5" x1="121" y1="60.5" x2="220" y2="60.5" stroke="black"/>
<rect x="121" y="70" width="50" height="4" rx="2" fill="#FF00F5"/>
<line opacity="0.5" x1="121" y1="82.5" x2="220" y2="82.5" stroke="black"/>
<rect x="121" y="92" width="68" height="4" rx="2" fill="#747474"/>
<line opacity="0.5" x1="121" y1="104.5" x2="220" y2="104.5" stroke="black"/>
<rect x="121" y="114" width="37" height="4" rx="2" fill="#747474"/>
<line opacity="0.5" x1="121" y1="126.5" x2="220" y2="126.5" stroke="black"/>
<rect x="121" y="136" width="53" height="4" rx="2" fill="#747474"/>
<rect opacity="0.5" x="209" y="48" width="10" height="4" rx="2" fill="#D9D9D9"/>
<rect opacity="0.5" x="209" y="70" width="10" height="4" rx="2" fill="#D9D9D9"/>
<rect opacity="0.5" x="209" y="92" width="10" height="4" rx="2" fill="#D9D9D9"/>
<defs>
<filter id="filter0_d_13_2370" x="110" y="36" width="121" height="120" filterUnits="userSpaceOnUse" color-interpolation-filters="sRGB">
<feFlood flood-opacity="0" result="BackgroundImageFix"/>
<feColorMatrix in="SourceAlpha" type="matrix" values="0 0 0 0 0 0 0 0 0 0 0 0 0 0 0 0 0 0 127 0" result="hardAlpha"/>
<feOffset dy="2"/>
<feGaussianBlur stdDeviation="2"/>
<feComposite in2="hardAlpha" operator="out"/>
<feColorMatrix type="matrix" values="0 0 0 0 0 0 0 0 0 0 0 0 0 0 0 0 0 0 0.05 0"/>
<feBlend mode="normal" in2="BackgroundImageFix" result="effect1_dropShadow_13_2370"/>
<feBlend mode="normal" in="SourceGraphic" in2="effect1_dropShadow_13_2370" result="shape"/>
</filter>
</defs>
</svg>
