<svg width="71" height="80" viewBox="0 0 71 80" fill="none" xmlns="http://www.w3.org/2000/svg">
<g clip-path="url(#clip0)">
<path d="M56.0891 64.5383L48.1604 39.8877L68.9156 24.657H43.2598L35.3303 0.00696864L35.3279 0.000278746H60.9875L68.9189 24.6542L68.9194 24.6537L68.9261 24.65C73.532 38.9525 68.7881 55.2201 56.0891 64.538V64.5383ZM14.5694 64.5383L14.5631 64.543L35.3237 79.7778L56.0891 64.5388L35.3303 49.3037L14.5697 64.5383H14.5694ZM1.73821 24.6506C-3.11058 39.7274 2.51783 55.7029 14.5656 64.5413L14.5675 64.5335L22.4975 39.8843L1.74677 24.6564H27.3965L35.3262 0.0066899L35.3279 0H9.66682L1.73793 24.6506H1.73821Z" fill="#EB5424"/>
</g>
<defs>
<clipPath id="clip0">
<rect width="70.6494" height="80" fill="white"/>
</clipPath>
</defs>
</svg>
