<svg version="1.1" id="Layer_1" xmlns="http://www.w3.org/2000/svg" xmlns:xlink="http://www.w3.org/1999/xlink" x="0px" y="0px"
	 width="100%" viewBox="0 0 256 240" enable-background="new 0 0 256 240" xml:space="preserve">
<path fill="#000000" opacity="1.000000" stroke="none" 
	d="
M149.000000,241.000000 
	C99.333336,241.000000 50.166672,241.000000 1.000007,241.000000 
	C1.000004,161.000015 1.000004,81.000015 1.000002,1.000017 
	C86.333321,1.000012 171.666641,1.000012 257.000000,1.000006 
	C257.000000,80.999985 257.000000,160.999969 257.000000,240.999969 
	C221.166672,241.000000 185.333328,241.000000 149.000000,241.000000 
M40.364948,157.184708 
	C42.873993,162.646820 45.855824,167.840363 49.195503,172.835587 
	C83.920601,224.774490 150.298492,233.400177 194.879272,191.540558 
	C220.887192,167.120132 232.865173,137.134888 227.392593,101.495674 
	C223.480209,76.017044 210.294098,55.381195 189.709198,39.993717 
	C143.504578,5.455193 85.362236,14.903167 51.819328,58.000790 
	C28.547993,87.900978 25.483744,121.451431 40.364948,157.184708 
z"/>
<path fill="#000000" opacity="1.000000" stroke="none" 
	d="
M105.145668,36.890594 
	C157.835037,20.743277 204.643890,61.159389 211.200974,95.958061 
	C157.371216,67.003334 103.772324,65.839722 50.209534,94.823921 
	C48.043251,77.301392 78.016640,46.175396 105.145668,36.890594 
M133.671677,45.827145 
	C133.560974,43.228664 132.661148,41.048580 129.718307,41.059986 
	C126.931755,41.070782 126.280472,43.252117 126.230400,45.616268 
	C126.157913,49.038349 124.175911,50.249191 121.036285,50.246426 
	C118.725090,50.244392 116.499962,50.655689 116.385025,53.556129 
	C116.274673,56.340836 118.405571,57.504318 120.646912,57.429256 
	C124.407768,57.303307 126.224739,58.683613 126.420296,62.489815 
	C126.525139,64.530388 127.854126,65.964287 129.971237,65.986115 
	C132.165375,66.008728 133.446564,64.356415 133.454315,62.436504 
	C133.470993,58.310974 135.722626,57.479939 139.236938,57.502209 
	C141.575531,57.517029 143.592026,56.386780 143.512650,53.646091 
	C143.439804,51.130810 141.537949,50.382656 139.339737,50.317482 
	C136.692429,50.238998 134.263992,49.899406 133.671677,45.827145 
z"/>
<path fill="#000000" opacity="1.000000" stroke="none" 
	d="
M163.130157,196.318939 
	C139.133850,207.393921 115.823647,207.142334 92.886444,194.349030 
	C79.338684,186.792725 68.422844,176.612457 60.147339,163.017487 
	C64.532593,160.810150 67.968788,162.720642 71.379173,162.419800 
	C86.336151,161.100418 98.093605,153.876190 108.177635,143.303238 
	C111.048668,140.292999 113.755363,137.089554 116.873924,134.359055 
	C124.474953,127.703873 134.213440,127.474670 141.879333,133.988892 
	C146.301422,137.746658 150.096497,142.233063 154.290070,146.270752 
	C165.711868,157.267929 178.878204,163.786667 195.236755,161.927536 
	C196.393311,161.796112 197.573196,161.766525 199.253159,163.352951 
	C190.795044,177.971954 178.498795,188.496323 163.130157,196.318939 
M112.164879,181.578644 
	C121.916977,181.714951 121.916962,181.714951 123.095444,191.411621 
	C123.115524,191.576813 123.136078,191.741943 123.155663,191.907196 
	C123.666847,196.219528 126.295715,197.874435 130.399185,197.682678 
	C134.322052,197.499359 136.633591,195.664185 136.712036,191.534576 
	C136.740479,190.037308 136.820465,188.538940 136.788010,187.042999 
	C136.707550,183.335785 138.324814,181.439056 142.191528,181.655243 
	C144.014709,181.757156 145.854843,181.698975 147.680038,181.590912 
	C151.190750,181.383057 153.116364,179.412949 153.582611,175.980530 
	C154.409973,169.889709 152.287201,167.570892 145.454102,167.060806 
	C136.924454,166.424088 136.924454,166.424072 136.746002,158.295792 
	C136.618317,152.479858 134.998657,150.532059 130.167694,150.384735 
	C124.959511,150.225906 123.248566,152.069809 122.964653,158.147430 
	C122.547134,167.085281 122.547775,167.121445 113.731178,167.280350 
	C110.396057,167.340454 107.309952,167.582916 106.437500,171.672272 
	C105.332298,176.852615 106.669418,179.574585 112.164879,181.578644 
z"/>
<path fill="#000000" opacity="1.000000" stroke="none" 
	d="
M69.095673,127.116623 
	C78.485321,115.834282 87.848816,104.981979 96.724342,93.744286 
	C101.769363,87.356560 108.168381,87.496483 114.867798,87.841591 
	C115.753632,90.092972 114.467636,91.135231 113.534882,92.243614 
	C97.772545,110.973953 81.966118,129.667297 66.245750,148.432739 
	C64.199829,150.874954 62.302414,151.328415 60.050568,149.003342 
	C57.971474,146.856628 54.353848,145.093826 57.420223,141.264008 
	C61.167614,136.583649 65.044357,132.006851 69.095673,127.116623 
z"/>
</svg>